<?xml version="1.0" encoding="UTF-8" standalone="no"?>
<!-- Created with Inkscape (http://www.inkscape.org/) -->

<svg
   version="1.1"
   id="svg2"
   width="1024"
   height="1024"
   viewBox="0 0 1024 1024"
   sodipodi:docname="logo.svg"
   inkscape:version="1.1.2 (0a00cf5339, 2022-02-04)"
   xmlns:inkscape="http://www.inkscape.org/namespaces/inkscape"
   xmlns:sodipodi="http://sodipodi.sourceforge.net/DTD/sodipodi-0.dtd"
   xmlns="http://www.w3.org/2000/svg"
   xmlns:svg="http://www.w3.org/2000/svg">
  <defs
     id="defs6" />
  <sodipodi:namedview
     id="namedview4"
     pagecolor="#ffffff"
     bordercolor="#666666"
     borderopacity="1.0"
     inkscape:pageshadow="2"
     inkscape:pageopacity="0.0"
     inkscape:pagecheckerboard="0"
     showgrid="false"
     inkscape:zoom="0.40625"
     inkscape:cx="161.23077"
     inkscape:cy="699.07692"
     inkscape:window-width="1920"
     inkscape:window-height="1048"
     inkscape:window-x="0"
     inkscape:window-y="0"
     inkscape:window-maximized="1"
     inkscape:current-layer="g8" />
  <g
     inkscape:groupmode="layer"
     inkscape:label="Image"
     id="g8">
    <path
       style="fill:#000000"
       d="m 481.65173,974.72359 c -2.66511,-1.142 -12.11924,-6.5313 -68.89482,-39.2731 -25.3,-14.5902 -57.7,-33.264 -72,-41.4973 -14.3,-8.2334 -32.075,-18.4894 -39.5,-22.7912 -7.425,-4.3018 -33.75,-19.407 -58.5,-33.567 -24.75,-14.16 -52.875,-30.3569 -62.5,-35.9931 -20.43931,-11.9687 -38.47873,-22.2484 -63.5,-36.1852 -9.9,-5.5143 -19.252738,-11.1915 -20.783858,-12.6159 -1.53112,-1.4245 -3.8966,-4.8643 -5.25662,-7.6441 l -2.47278,-5.0541 0.25663,-221.5631 0.25663,-221.5631 3.70551,-5.5808 c 3.23808,-4.8769 5.13026,-6.3924 14.999998,-12.0139 6.21197,-3.5382 19.61949,-11.2785 29.79449,-17.2007 24.20742,-14.0895 46.95388,-27.288 60,-34.8144 5.775,-3.3317 15.675,-9.0661 22,-12.7431 6.325,-3.6769 32.65,-18.9712 58.5,-33.9872 25.85,-15.016 54.425,-31.66216 63.5,-36.99146 9.075,-5.32929 23.25,-13.54235 31.5,-18.25123 8.25,-4.70887 23.325,-13.37638 33.5,-19.26111 10.175,-5.88474 31.55,-18.188199 47.5,-27.341039 l 29,-16.64151 h 6.51441 c 6.51422,0 6.51505,3.7e-4 28,12.40312 11.81707,6.82172 26.66059,15.44129 32.98559,19.1546 6.325,3.71332 31.07499,18.109339 54.99999,31.991159 23.925,13.88182 48.225,28.03423 54,31.4498 5.775,3.41556 21.75,12.64122 35.5,20.50147 13.75,7.86025 28.6,16.4129 33,19.0059 8.5537,5.041 50.6718,29.4569 56.5,32.7532 1.925,1.0888 12.275,7.0529 23,13.2536 10.725,6.2007 20.9365,12.0872 22.6923,13.0811 25.9706,14.7013 51.2788,29.5853 53.0528,31.2009 1.2349,1.1246 3.3724,4.3066 4.75,7.0712 l 2.5049,5.0266 -0.01,220.0537 -0.01,220.0536 -2.3678,5 c -3.3458,7.0655 -7.2271,10.2788 -22.7937,18.8711 -19.2668,10.6347 -41.0874,23.068 -49.319,28.1017 -3.85,2.3544 -23.65,13.8464 -44,25.5378 -52.2316,30.008 -108.408,62.3663 -119,68.5455 -4.95,2.8878 -23.175,13.4592 -40.5,23.4921 -17.325,10.0329 -35.775,20.7195 -41,23.7481 -5.22495,3.0285 -18.49995,10.6737 -29.49995,16.9893 -11,6.3156 -25.4,14.6709 -32,18.5673 -11.45228,6.7611 -12.3195,7.0967 -19,7.3537 -3.85,0.1481 -7.94733,-0.1367 -9.10518,-0.6329 z m -6.39482,-95.7536 v -50.68 l -13.6695,-23.07 c -7.51823,-12.6885 -16.86954,-28.4701 -20.78069,-35.0701 -3.91115,-6.6 -15.86912,-26.9625 -26.57327,-45.25 l -19.46208,-33.25 h -88.44925 -88.44926 l -28.55797,16.8881 c -15.70689,9.2884 -33.19491,19.4843 -38.86227,22.6575 l -10.3043,5.7694 9.8043,5.6889 c 13.4949,7.8305 58.91705,34.0815 81.30429,46.9886 10.175,5.8663 37.85,21.8413 61.5,35.5002 47.23357,27.2792 47.67695,27.5347 91.5,52.7278 16.775,9.6436 43.775,25.2319 60,34.6405 16.225,9.4087 29.8375,17.114 30.25,17.1229 0.4125,0.01 0.75,-22.7898 0.75,-50.6638 z m 49.24402,39.0485 c 41.3902,-23.7672 60.58017,-34.8753 72.60217,-42.0255 6.7904,-4.0387 12.5368,-7.3431 12.7699,-7.3431 0.233,0 2.1022,-1.0556 4.1538,-2.3458 2.0515,-1.2902 21.7301,-12.7004 43.7301,-25.3561 40.3503,-23.2118 97.4953,-56.2324 109.5,-63.2734 3.575,-2.0968 16.85,-9.7683 29.5,-17.0477 33.6466,-19.3621 40.4997,-23.4203 40.4895,-23.977 0,-0.275 -4.1673,-2.7071 -9.2493,-5.4048 -5.0821,-2.6977 -15.7652,-8.8127 -23.7402,-13.589 -7.975,-4.7764 -21.2071,-12.5817 -29.4047,-17.3452 l -14.9047,-8.661 -88.0953,0.018 -88.0953,0.018 -5.6528,9.7321 c -3.1091,5.3526 -12.96406,22.332 -21.9,37.732 -8.93595,15.4 -22.10906,37.9 -29.27357,50 -7.16451,12.1 -15.41715,26.05 -18.33919,31 l -5.31281,9 -0.0108,50.25 c -0.006,27.6375 0.2115,50.25 0.48321,50.25 0.27172,0 9.60922,-5.2341 20.75,-11.6314 z M 505.3312,749.14989 c 8.37888,-14.3 19.37622,-32.975 24.43855,-41.5 l 9.20422,-15.5 -49.01568,-0.2595 c -26.95863,-0.1427 -49.19192,-0.083 -49.40733,0.1322 -0.21541,0.2154 6.67689,12.7071 15.31621,27.7595 8.63932,15.0523 19.51666,34.04 24.17186,42.1948 4.6552,8.1548 8.82261,14.4548 9.26093,14 0.43831,-0.4548 7.65237,-12.527 16.03124,-26.827 z m -375.16184,-39.3751 c 2.52315,-1.5813 7.96255,-4.8329 12.08755,-7.2256 4.125,-2.3928 8.67174,-5.0365 10.10387,-5.8749 1.43213,-0.8384 12.00713,-6.8804 23.5,-13.4266 11.49287,-6.5462 24.00642,-13.7462 27.80788,-16 l 6.91174,-4.0978 14.93917,-25.5 c 28.63975,-48.8858 68.73734,-118.0752 68.73734,-118.608 0,-0.1766 -1.96049,-3.5995 -4.35666,-7.6065 -5.199,-8.6941 -22.39413,-37.7024 -36.32788,-61.2855 -5.52434,-9.35 -13.78174,-23.3 -18.34978,-31 -4.56805,-7.7 -8.79157,-14.9033 -9.38561,-16.0074 -0.59404,-1.1041 -4.38998,-7.6618 -8.43542,-14.5728 l -7.35535,-12.5653 -24.64465,-14.3632 c -25.09668,-14.6266 -40.90837,-23.8846 -53.89465,-31.5561 l -7.25,-4.2829 v 193.4239 c 0,106.3831 0.2981,193.4238 0.66245,193.4238 0.36435,0 2.72685,-1.2938 5.25,-2.8751 z M 854.2569,519.03489 v -193.615 l -2.5441,1.667 c -5.8244,3.8163 -55.6886,32.8724 -71.4559,41.6377 -6.325,3.5162 -11.6226,6.6557 -11.7725,6.9768 -0.1499,0.3211 -3.7787,6.6284 -8.064,14.0162 -4.2852,7.3878 -16.2651,28.0573 -26.6219,45.9323 -10.3568,17.875 -20.2956,34.975 -22.0861,38 -5.2702,8.9035 -17.0399,29.1722 -19.4531,33.5 -1.2266,2.2 -3.3785,5.9666 -4.7818,8.3703 -1.9059,3.2643 -2.2959,4.7826 -1.5412,6 0.5556,0.8963 4.3961,7.4797 8.5344,14.6297 47.488,82.0489 72.8998,125.3271 74.5001,126.8791 1.0656,1.0334 10.6784,6.9289 21.3618,13.101 10.6834,6.1722 29.0993,16.9043 40.9243,23.8491 11.825,6.9449 21.8375,12.6369 22.25,12.649 0.4125,0.012 0.75,-87.1049 0.75,-193.5932 z m -483.79017,130.365 c -1.07432,-1.7875 -8.84057,-15.175 -17.25835,-29.75 -8.41777,-14.575 -19.72549,-34.0491 -25.12826,-43.2759 -5.40276,-9.2268 -9.82321,-17.2143 -9.82321,-17.75 0,-2.9723 -2.74503,1.1043 -13.98987,20.7759 -6.83807,11.9625 -17.65001,30.75 -24.02655,41.75 -6.37653,11 -13.06444,22.5875 -14.86202,25.75 l -3.26834,5.75 h 55.15495 55.15495 z m 198.0497,-8.75 c 13.78527,-23.0506 41.91487,-71.1124 56.07287,-95.8053 l 14.5092,-25.3054 -12.5627,-21.1946 c -6.9095,-11.6571 -16.9253,-28.6197 -22.2575,-37.6947 -5.3321,-9.075 -15.0202,-25.5 -21.529,-36.5 -6.5089,-11 -14.11984,-23.9315 -16.91333,-28.7366 l -5.07906,-8.7367 -72,-0.012 -72,-0.012 -2.93052,5.249 c -2.90216,5.1981 -27.49384,47.6855 -58.29406,100.7153 l -15.95271,27.4663 1.72147,3.0337 c 6.66689,11.7488 27.24048,46.8299 43.41759,74.0336 5.56013,9.35 15.26047,25.6655 21.55633,36.2565 l 11.44701,19.2566 71.95845,-0.2566 71.95845,-0.2565 6.87751,-11.5 z m 147.73637,11.25 c 0,-0.4125 -4.6148,-8.6869 -10.25,-18.3877 -5.6353,-9.7007 -17.6709,-30.7135 -26.7459,-46.695 -9.075,-15.9815 -16.725,-29.0644 -17,-29.0732 -0.275,-0.01 -5.8636,9.304 -12.419,20.695 -6.5555,11.391 -14.0232,24.3109 -16.5949,28.7109 -9.8411,16.8376 -25.5006,43.9542 -25.8194,44.7099 -0.1834,0.4346 24.2291,0.7901 54.25,0.7901 30.0208,0 54.5814,-0.3375 54.5792,-0.75 z M 345.12169,434.35199 c 14.92437,-25.7388 27.13522,-47.0013 27.13522,-47.25 0,-0.2486 -24.975,-0.4521 -55.5,-0.4521 -30.525,0 -55.5,0.1898 -55.5,0.4217 0,0.2319 2.87104,5.2944 6.38009,11.25 3.50905,5.9556 8.85717,15.1033 11.88471,20.3283 5.52622,9.5373 18.96651,32.5693 27.71862,47.5 2.57919,4.4 5.74847,9.9171 7.04285,12.2602 1.29439,2.3431 2.65715,3.9181 3.02836,3.5 0.37122,-0.4181 12.88578,-21.8192 27.81015,-47.5581 z m 322.34741,39.0479 c 3.0023,-5.0875 10.1123,-17.35 15.8,-27.25 5.6877,-9.9 15.6618,-27.1733 22.1646,-38.3852 6.5027,-11.2119 11.8232,-20.5494 11.8232,-20.75 0,-0.2006 -25.1587,-0.3648 -55.9083,-0.3648 h -55.9082 l 12.0326,20.75 c 6.6179,11.4125 13.4739,23.225 15.2355,26.25 1.7615,3.025 8.3126,14.275 14.5579,25 6.2452,10.725 11.8355,20.509 12.4228,21.7422 0.5872,1.2333 1.3498,2.2458 1.6945,2.25 0.3447,0 3.0832,-4.1547 6.0854,-9.2422 z m -271.82188,-128.5 c 2.54589,-3.9472 34.7825,-58.969 62.94321,-107.4321 l 16.66648,-28.6822 v -50.06782 c 0,-34.66417 -0.32677,-50.06783 -1.06212,-50.06783 -0.58417,0 -5.87167,2.85126 -11.75,6.33613 -5.87834,3.48487 -12.71288,7.46831 -15.18788,8.85209 -2.475,1.38377 -11.25,6.47962 -19.5,11.32409 -13.3148,7.81857 -40.89834,23.78208 -50.5,29.22602 -1.925,1.09144 -10.025,5.80607 -18,10.47697 -7.975,4.6709 -21.925,12.78425 -31,18.02965 -9.075,5.2454 -28.65,16.6118 -43.5,25.2586 -14.85,8.6467 -42.75,24.8405 -62,35.986 -31.08792,17.9996 -42.70229,24.7528 -72.91883,42.3989 -4.35536,2.5435 -8.07323,5.0877 -8.26194,5.6539 -0.18871,0.5661 2.02476,2.2411 4.91883,3.7222 2.89407,1.4811 7.28694,3.8828 9.76194,5.3371 48.91343,28.7408 60.65334,35.7103 61.45,36.4802 0.56208,0.5432 36.59214,0.9181 88.23581,0.9181 h 87.28581 z m 143.60969,3.2194 c 0,-0.5619 -3.19403,-6.1949 -15.00887,-26.4694 -12.20537,-20.9446 -16.24624,-27.9083 -24.95185,-43 -4.60037,-7.975 -8.91433,-15.107 -9.58656,-15.849 -1.24405,-1.3731 -1.15854,-1.5013 -13.2382,19.849 -5.88414,10.4001 -33.60221,58.5885 -35.32874,61.4198 -1.03307,1.6942 -1.87999,3.4177 -1.88204,3.8302 -0.002,0.4125 22.49626,0.75 49.99626,0.75 27.5,0 50,-0.2388 50,-0.5306 z m 230.16169,-6.3239 c 6.2361,-3.77 13.8133,-8.2338 16.8383,-9.9196 3.025,-1.6858 15.9767,-9.1234 28.7815,-16.528 l 23.2815,-13.463 -23.7815,-13.7498 c -13.0798,-7.5624 -26.2565,-15.2215 -29.2815,-17.0202 -4.8787,-2.9009 -24.0908,-13.9792 -124.042,-71.526 -14.0481,-8.0882 -28.5685,-16.55821 -32.2676,-18.82231 -3.6991,-2.2641 -6.912,-4.11654 -7.1399,-4.11654 -0.2278,0 -6.4074,-3.52421 -13.7324,-7.83158 -7.3249,-4.30737 -20.9681,-12.24774 -30.3181,-17.64526 -9.34999,-5.39752 -20.59999,-11.93895 -24.99999,-14.53652 -16.59618,-9.79766 -48.40363,-27.98664 -48.94082,-27.98664 -0.30755,0 -0.55419,22.8375 -0.54809,50.75 l 0.0111,50.74995 12.1431,20.5 c 6.6787,11.275 17.32132,29.275 23.65027,40 6.32894,10.725 16.31304,27.6 22.18689,37.5 5.87385,9.9 12.62694,21.375 15.00684,25.5 2.3799,4.125 5.382,9.1875 6.6714,11.25 l 2.3444,3.75 h 86.3991 86.3992 z"
       id="path863" />
  </g>
</svg>
