<?xml version="1.0" encoding="UTF-8" standalone="no"?>
<!-- Created with Inkscape (http://www.inkscape.org/) -->

<svg
   version="1.1"
   id="svg2"
   width="1000"
   height="1000"
   viewBox="0 0 1000 1000"
   sodipodi:docname="icon.svg"
   inkscape:version="1.1.2 (0a00cf5339, 2022-02-04)"
   inkscape:export-filename="/home/debian/Documents/GitHub/core/frontend-main/src/assets/icon.png"
   inkscape:export-xdpi="121.6"
   inkscape:export-ydpi="121.6"
   xmlns:inkscape="http://www.inkscape.org/namespaces/inkscape"
   xmlns:sodipodi="http://sodipodi.sourceforge.net/DTD/sodipodi-0.dtd"
   xmlns="http://www.w3.org/2000/svg"
   xmlns:svg="http://www.w3.org/2000/svg">
  <defs
     id="defs6" />
  <sodipodi:namedview
     id="namedview4"
     pagecolor="#ffffff"
     bordercolor="#666666"
     borderopacity="1.0"
     inkscape:pageshadow="2"
     inkscape:pageopacity="0.0"
     inkscape:pagecheckerboard="0"
     showgrid="false"
     inkscape:zoom="0.28726213"
     inkscape:cx="-50.476546"
     inkscape:cy="838.955"
     inkscape:window-width="1920"
     inkscape:window-height="1048"
     inkscape:window-x="0"
     inkscape:window-y="0"
     inkscape:window-maximized="1"
     inkscape:current-layer="svg2" />
  <g
     inkscape:groupmode="layer"
     inkscape:label="Image"
     id="g8" />
  <g
     id="g1591"
     transform="matrix(78.737913,0,0,78.737913,100,0)">
    <path
       style="fill:#ff6700;fill-opacity:1;stroke-width:0.0139912"
       d="m 2.8074889,12.674702 c -0.02664,-0.0139 -0.325457,-0.20161 -0.664045,-0.41711 -0.592039,-0.37681 -1.22122195,-0.76875 -1.79770495,-1.11983 -0.241448,-0.14705 -0.276538,-0.17309 -0.306549,-0.2275 -0.05603,-0.10156 -0.0536,-0.20093 0.01778,-0.72869 0.07988,-0.5906396 0.19894,-1.5607796 0.281299,-2.2922096 0.03495,-0.31036 0.07911,-0.68498 0.09813,-0.83248 0.01902,-0.14751 0.0569,-0.46022 0.08416,-0.69493 0.02726,-0.2347 0.08707,-0.74153 0.132912,-1.12629 0.04584,-0.38476 0.111808,-0.94826 0.146595,-1.25222 0.03479,-0.30396 0.0697,-0.57598 0.07758,-0.60449 0.01831,-0.0662 0.07294,-0.13107 0.13871495,-0.16462 0.04899,-0.025 0.464654,-0.0939 1.357941,-0.22492 0.165447,-0.0243 0.302799,-0.046 0.305228,-0.0483 0.0024,-0.002 0.01013,-0.13985 0.01711,-0.30568 0.02266,-0.53807 0.06489,-0.78895 0.196001,-1.16439 0.129936,-0.3721 0.393028,-0.77130004 0.659421,-1.00058004 0.129966,-0.11186 0.343716,-0.25189 0.482064,-0.31581 0.243119,-0.11233 0.630183,-0.17619 0.897154,-0.14802 0.316225,0.0334 0.653897,0.17392 0.848256,0.35308 l 0.06052,0.0558 0.166433,0.006 c 0.485171,0.0166 0.952473,0.2843 1.235118,0.70761004 0.102773,0.15392 0.220729,0.39313 0.272737,0.5531 0.04346,0.13368 0.141852,0.55514 0.155769,0.66725 l 0.0099,0.0796 0.07195,0.0159 c 0.03957,0.009 0.326936,0.0685 0.638591,0.13278 1.153243,0.23795 1.098927,0.22443 1.173097,0.2919 0.06112,0.0556 0.07493,0.10349 0.08698,0.30168 0.0063,0.10443 0.02465,0.31579 0.04067,0.4697 0.01602,0.1539 0.05118,0.49389 0.07813,0.75552 0.02695,0.26164 0.07695,0.74644 0.111123,1.07733 0.03417,0.33089 0.0877,0.85032 0.118952,1.15428 0.03126,0.30396 0.07556,0.72579 0.09846,0.93741 0.0441,0.40761 0.134409,1.28024 0.216468,2.09169 0.02724,0.26934 0.05906,0.5672196 0.07073,0.6619696 0.02953,0.23996 0.02942,0.33563 -4.76e-4,0.39468 -0.03393,0.067 -0.07506,0.1096 -0.136138,0.14092 -0.07068,0.0363 -1.0133705,0.27693 -4.4022205,1.12394 -1.587857,0.39688 -2.910273,0.72159 -2.938702,0.72159 -0.02843,0 -0.07348,-0.0114 -0.100119,-0.0253 z m 1.448633,-0.88276 c 2.529072,-0.62361 5.542655,-1.37947 5.559542,-1.39443 0.0028,-0.002 -0.01136,-0.16694 -0.03137,-0.36554 -0.02001,-0.1985896 -0.05238,-0.5342296 -0.07192,-0.7458396 -0.01954,-0.21162 -0.05392,-0.53902 -0.07638,-0.72755 -0.02247,-0.18853 -0.05996,-0.53796 -0.08333,-0.77651 -0.02337,-0.23855 -0.07109,-0.7202 -0.106059,-1.07033 -0.03497,-0.35014 -0.08541,-0.86641 -0.112085,-1.14729 -0.02668,-0.28087 -0.07084,-0.7216 -0.09813,-0.97938 -0.02729,-0.25779 -0.06531,-0.62582 -0.08449,-0.81785 -0.01918,-0.19202 -0.03751,-0.35178 -0.04075,-0.35501 -0.0032,-0.003 -0.158823,0.0236 -0.34576,0.0596 -0.186938,0.036 -0.371366,0.0712 -0.409842,0.0783 -0.03848,0.007 -0.397351,0.0758 -0.797501,0.15269 -0.40015,0.0769 -0.957351,0.18403 -1.238226,0.238 -0.280874,0.054 -1.08834,0.21001 -1.794368,0.34676 l -1.283687,0.24863 -1e-5,3.75409 c -9e-6,3.5687296 0.0012,3.7537396 0.02448,3.7469496 0.01347,-0.004 0.458913,-0.11427 0.989881,-0.2452 z m 1.889082,-2.1565296 c -0.327902,-0.0374 -0.675189,-0.18239 -0.938104,-0.3916 -0.183368,-0.14591 -0.376627,-0.37838 -0.473301,-0.56934 -0.08786,-0.17355 -0.0057,-0.38583 0.16974,-0.43839 0.120943,-0.0362 0.235362,0.0376 0.342488,0.2209 0.165365,0.28301 0.471272,0.50941 0.800975,0.59278 0.151741,0.0384 0.44461,0.0452 0.601624,0.014 0.389701,-0.0773 0.766244,-0.3181 1.016118,-0.64971 0.09621,-0.12768 0.145665,-0.22058 0.213792,-0.40161 0.05248,-0.13943 0.08498,-0.18367 0.16516,-0.22479 0.112038,-0.0575 0.263809,-0.0153 0.324955,0.0902 0.07585,0.13088 0.06391,0.20391 -0.08274,0.50584 -0.153879,0.31682 -0.320321,0.54102 -0.537421,0.72392 -0.415677,0.3502 -0.825916,0.51736 -1.311142,0.53426 -0.09926,0.003 -0.230727,5.5e-4 -0.292144,-0.006 z m -0.981755,-2.20263 c -0.03963,-0.0201 -0.100489,-0.067 -0.135237,-0.10413 -0.314359,-0.33607 -0.223061,-1.03803 0.158328,-1.21732 0.0627,-0.0295 0.09769,-0.0362 0.188882,-0.0362 0.09776,-1e-5 0.121352,0.005 0.186348,0.0412 0.128371,0.0711 0.203932,0.18406 0.256443,0.38335 0.03679,0.13964 0.04008,0.365 0.0072,0.49185 -0.05164,0.19905 -0.172695,0.36723 -0.312165,0.43369 -0.04584,0.0219 -0.101869,0.0342 -0.172774,0.0382 -0.09224,0.005 -0.113655,0.001 -0.176995,-0.0307 z m 1.763443,-0.45388 c -0.07316,-0.0446 -0.108727,-0.10828 -0.114934,-0.20575 -0.0078,-0.1231 0.05144,-0.24099 0.193344,-0.38452 0.165886,-0.16778 0.354164,-0.26305 0.619219,-0.31333 0.379763,-0.072 0.745195,0.0596 0.859677,0.30965 0.08017,0.17512 0.0066,0.3614 -0.162899,0.41217 -0.08255,0.0247 -0.141244,0.006 -0.230713,-0.0718 -0.125559,-0.10988 -0.147445,-0.11807 -0.315959,-0.11829 -0.138153,-1.8e-4 -0.152909,0.003 -0.240053,0.0455 -0.07258,0.0357 -0.11772,0.073 -0.206747,0.17047 -0.06823,0.0747 -0.137839,0.13635 -0.173609,0.15367 -0.07505,0.0363 -0.169903,0.0373 -0.227326,0.002 z m -4.771328,4.2703196 c -0.481009,-0.93802 -0.54385,-1.05869 -0.551796,-1.05967 -0.01131,-0.001 -0.83836795,0.54315 -0.83787195,0.55167 2.22e-4,0.004 0.190639,0.12205 0.42314395,0.26267 0.232505,0.14063 0.599026,0.36483 0.814491,0.49822 0.215465,0.1334 0.394009,0.24065 0.396764,0.23833 0.0028,-0.002 -0.107373,-0.22336 -0.244731,-0.49122 z m 0.540534,-3.3390096 v -3.46061 l -0.225921,-0.10115 c -0.136544,-0.0611 -0.229409,-0.0955 -0.234739,-0.0869 -0.0049,0.008 -0.01995,0.21448 -0.03355,0.4592 -0.02319,0.41717 -0.105728,1.84428 -0.134575,2.32676 -0.0071,0.11927 -0.04583,0.80307 -0.08599,1.51954 l -0.07303,1.30269 0.19907,0.3902496 c 0.199251,0.39062 0.578649,1.11072 0.585233,1.11078 0.0019,10e-6 0.0035,-1.5572396 0.0035,-3.4605796 z m -1.667173,2.1559296 c 0.231521,-0.1481296 0.431195,-0.2756896 0.44372,-0.2834496 0.02532,-0.0157 0.02532,-0.0157 0.104031,-1.42698 0.02361,-0.42324 0.06774,-1.20395 0.09808,-1.73492 0.09506,-1.66365 0.143094,-2.55491 0.137902,-2.55874 -0.0028,-0.002 -0.105744,-0.0482 -0.228867,-0.10263 l -0.22386,-0.0989 -0.0098,0.065 c -0.0054,0.0357 -0.03543,0.28849 -0.06679,0.56167 -0.03136,0.27318 -0.100724,0.86501 -0.154147,1.31517 -0.14375595,1.21137 -0.28568895,2.43664 -0.35736895,3.08508 -0.05042,0.45607 -0.120104,1.0522 -0.164787,1.4096096 -0.0026,0.0212 -0.0035,0.0385 -0.0019,0.0385 0.0016,0 0.192287,-0.1212 0.42380795,-0.26933 z m 2.583599,-6.1706896 0.461712,-0.0874 0.0038,-0.27766 0.0038,-0.27766 -0.03178,0.008 c -0.01748,0.004 -0.327696,0.059 -0.68937,0.12164 -1.021794,0.17683 -1.200157,0.20874 -1.207393,0.21598 -0.0037,0.004 0.0092,0.0128 0.02866,0.0202 0.01947,0.007 0.17302,0.0732 0.341229,0.14628 0.516993,0.22452 0.540042,0.23339 0.585658,0.2255 0.02309,-0.004 0.249744,-0.0466 0.503684,-0.0947 z m 1.668135,-0.31143 c 0.839237,-0.15164 1.765473,-0.32524 1.823579,-0.34179 l 0.04987,-0.0142 -0.0047,-0.0875 c -0.01534,-0.28799 -0.0216,-0.34634 -0.03714,-0.34634 -0.07438,0 -2.208092,0.32985 -2.404967,0.37179 l -0.03848,0.008 v 0.25773 c 0,0.15844 0.0053,0.25773 0.01367,0.25773 0.0075,0 0.276674,-0.0475 0.598126,-0.10561 z m 2.674008,-0.49603 c 0.133489,-0.0231 0.246818,-0.0423 0.251842,-0.0427 0.005,-4.3e-4 -0.09475,-0.0227 -0.221719,-0.0495 -0.126971,-0.0268 -0.249162,-0.0526 -0.271535,-0.0574 -0.03758,-0.008 -0.04,-0.006 -0.03167,0.025 0.005,0.0185 0.0091,0.0636 0.0092,0.10013 1.38e-4,0.0365 0.0049,0.0664 0.01068,0.0664 0.0058,-1e-5 0.119712,-0.0189 0.2532,-0.042 z m -4.320961,-0.31356 c 0.188426,-0.0339 0.371834,-0.066 0.407575,-0.0713 0.05819,-0.009 0.06587,-0.014 0.07345,-0.052 0.0047,-0.0233 0.0085,-0.0753 0.0085,-0.11564 0,-0.14049 0.123834,-0.68128 0.201035,-0.87793 0.116376,-0.29644 0.310029,-0.58389 0.531506,-0.78894004 0.09381,-0.0868 0.264337,-0.20113 0.300128,-0.20113 0.0092,0 0.01668,-0.006 0.01668,-0.0125 0,-0.007 -0.05194,-0.0273 -0.115428,-0.0453 -0.151736,-0.0432 -0.455645,-0.0466 -0.598126,-0.007 -0.14362,0.0403 -0.388291,0.16604 -0.484762,0.24916 -0.382608,0.32968004 -0.609401,0.80480004 -0.676044,1.41628004 -0.02238,0.20533 -0.03511,0.56764 -0.01995,0.56764 0.0071,0 0.167044,-0.0278 0.35547,-0.0617 z m 1.245027,-0.16964 c 0.0731,-0.0121 0.306058,-0.0531 0.517676,-0.0911 0.211617,-0.0381 0.42411,-0.0762 0.472204,-0.0848 l 0.08745,-0.0156 v -0.0721 c 0,-0.14294 -0.02919,-0.52199 -0.04968,-0.64528 -0.027,-0.16238 -0.09464,-0.37058 -0.16736,-0.51517 -0.05417,-0.10769 -0.05998,-0.11417 -0.09864,-0.10995 -0.05497,0.006 -0.236789,0.0979 -0.3302,0.16693 -0.101017,0.0746 -0.238958,0.21541 -0.296811,0.30293 -0.149818,0.22664 -0.253334,0.52817 -0.309043,0.9002 -0.02903,0.19388 -0.02863,0.20161 0.01002,0.19296 0.01731,-0.004 0.09129,-0.0169 0.164398,-0.029 z m 1.899923,-0.3008 c 0.318137,-0.0389 0.300475,-0.0327 0.289657,-0.10269 -0.05362,-0.34715 -0.278307,-0.80298 -0.481555,-0.97695 -0.0578,-0.0495 -0.235495,-0.15109 -0.264215,-0.15109 -0.0078,0 0.0073,0.0602 0.0336,0.13371 0.08501,0.23784 0.130956,0.52212 0.153088,0.94712 0.0052,0.10005 0.01528,0.17838 0.02292,0.17838 0.0075,0 0.118421,-0.0128 0.246502,-0.0285 z"
       id="path881" />
    <path
       style="fill:#0000ff;fill-opacity:0.03;stroke-width:0.000579382"
       d="m 5.3475443,7.0239161 c -0.0016,-5.999e-4 -0.00701,-0.00377 -0.039917,-0.022753 -0.014662,-0.00846 -0.033431,-0.019279 -0.041715,-0.024045 -0.00828,-0.00476 -0.018578,-0.01072 -0.022886,-0.013201 -0.00429,-0.0025 -0.019558,-0.011248 -0.033895,-0.019458 -0.01434,-0.0082 -0.030634,-0.017578 -0.036211,-0.020854 -0.011842,-0.00693 -0.022295,-0.012896 -0.03679,-0.020964 -0.00574,-0.00319 -0.011163,-0.00648 -0.012046,-0.00733 -7.998e-4,-7.999e-4 -0.00226,-0.00282 -0.00304,-0.00442 l -0.0014,-0.00292 1.48e-4,-0.1283693 1.5e-4,-0.1283692 0.00214,-0.00324 c 0.0018,-0.00282 0.00297,-0.00371 0.0087,-0.00696 0.0036,-0.00204 0.011366,-0.00654 0.017259,-0.00995 0.014016,-0.00815 0.027203,-0.015818 0.034762,-0.020173 0.00334,-0.002 0.00907,-0.00526 0.012742,-0.00738 0.00366,-0.00212 0.018919,-0.010992 0.033892,-0.019699 0.014985,-0.0087 0.031534,-0.018339 0.036791,-0.021432 0.00526,-0.00307 0.013473,-0.00783 0.018258,-0.010585 0.00478,-0.00272 0.013524,-0.00776 0.019418,-0.011163 0.00589,-0.00339 0.018278,-0.010534 0.027521,-0.015835 l 0.016803,-0.00963 h 0.00377 c 0.00377,0 0.00377,0 0.016225,0.00718 0.00685,0.00396 0.015444,0.00893 0.019117,0.011094 0.00366,0.00216 0.017997,0.0105 0.031866,0.018538 0.013864,0.00803 0.027939,0.016242 0.031287,0.018219 0.00334,0.002 0.012607,0.00733 0.020569,0.011876 0.00795,0.00456 0.016566,0.00952 0.019117,0.011027 0.00496,0.00292 0.029359,0.017058 0.032735,0.018979 0.0012,6e-4 0.00712,0.00408 0.01332,0.00768 0.00621,0.0036 0.012114,0.007 0.013133,0.00758 0.015036,0.00851 0.029709,0.017138 0.030737,0.018079 8e-4,5.998e-4 0.002,0.0025 0.00275,0.00409 l 0.0014,0.00292 -6e-6,0.1274943 -6.2e-6,0.1274959 -0.0014,0.00291 c -0.002,0.00409 -0.00418,0.00596 -0.013201,0.010942 -0.011163,0.00616 -0.023805,0.013355 -0.028575,0.016277 -0.00224,0.0014 -0.013694,0.00802 -0.025494,0.014798 -0.030261,0.017379 -0.062808,0.036134 -0.068946,0.039714 -0.00285,0.0016 -0.013422,0.0078 -0.023464,0.013626 -0.010044,0.00583 -0.020727,0.011995 -0.023756,0.013762 -0.00302,0.0018 -0.01072,0.00618 -0.017099,0.00984 -0.00638,0.00366 -0.014714,0.0085 -0.018538,0.010755 -0.00664,0.00392 -0.00713,0.00411 -0.010992,0.00426 -0.00224,8.6e-5 -0.00461,-8e-5 -0.00528,-4e-4 z m -0.00371,-0.055477 v -0.029363 l -0.00792,-0.013354 c -0.00436,-0.00736 -0.00979,-0.016498 -0.012046,-0.020318 -0.00226,-0.00382 -0.00919,-0.015614 -0.015394,-0.026218 l -0.011281,-0.019258 h -0.051246 -0.051246 l -0.016531,0.00979 c -0.0091,0.00539 -0.019238,0.011281 -0.022515,0.013116 l -0.00596,0.00334 0.00568,0.00329 c 0.00781,0.00454 0.034135,0.019737 0.047105,0.027223 0.00589,0.0034 0.021929,0.012657 0.035632,0.020568 0.027366,0.015801 0.027625,0.015953 0.053013,0.030552 0.00972,0.00558 0.025363,0.014612 0.034764,0.020071 0.0094,0.00544 0.017279,0.00992 0.017518,0.00992 2e-4,6e-6 4.001e-4,-0.013201 4.001e-4,-0.029353 z m 0.02853,0.022624 c 0.023982,-0.013779 0.0351,-0.020206 0.042066,-0.024347 0.00394,-0.00234 0.00725,-0.00426 0.00741,-0.00426 1.359e-4,0 0.0012,-6e-4 0.00239,-0.0014 0.0012,-7.999e-4 0.012607,-0.00736 0.025336,-0.014696 0.023379,-0.01344 0.056487,-0.032579 0.063441,-0.036658 0.00207,-0.0012 0.00975,-0.00566 0.017099,-0.00987 0.019498,-0.011214 0.023464,-0.013575 0.023459,-0.013898 -2e-6,-1.6e-4 -0.00241,-0.0016 -0.00536,-0.00314 -0.00294,-0.0016 -0.00914,-0.00509 -0.013762,-0.00788 -0.00462,-0.00275 -0.012283,-0.00727 -0.017037,-0.010054 l -0.00863,-0.00501 -0.051039,9.8e-6 -0.051042,1.21e-5 -0.00328,0.00564 c -0.0018,0.00309 -0.00753,0.012946 -0.012692,0.021861 -0.00518,0.00892 -0.012811,0.021958 -0.016957,0.028969 -0.00414,0.007 -0.00893,0.015105 -0.010618,0.017959 l -0.00307,0.00521 -6e-6,0.029114 c -4e-6,0.016022 1.221e-4,0.029113 2e-4,0.029113 1.56e-4,0 0.00556,-0.00304 0.012012,-0.00675 z m -0.011094,-0.09784 c 0.00486,-0.00828 0.011214,-0.019099 0.014153,-0.024043 l 0.00533,-0.00897 -0.028397,-1.5e-4 c -0.015614,-8.19e-5 -0.028501,-4.79e-5 -0.028625,7.61e-5 -1.261e-4,1.259e-4 0.00386,0.00736 0.00888,0.016072 0.00499,0.00872 0.011298,0.019717 0.014,0.024446 0.0027,0.00472 0.00511,0.00838 0.00536,0.00812 1.999e-4,-1.999e-4 0.00444,-0.00725 0.0093,-0.015546 z m -0.217358,-0.022815 c 0.0014,-9.999e-4 0.00462,-0.0028 0.007,-0.00418 0.00237,-0.0014 0.00501,-0.00292 0.00586,-0.00339 7.999e-4,-4.001e-4 0.00696,-0.00397 0.013626,-0.00778 0.00666,-0.00381 0.013915,-0.00795 0.016124,-0.00928 l 0.00399,-0.00237 0.00867,-0.014781 c 0.016599,-0.028323 0.039826,-0.06841 0.039826,-0.068717 0,-1.039e-4 -0.0012,-0.00207 -0.00252,-0.00441 -0.00302,-0.00504 -0.012981,-0.021844 -0.021046,-0.035508 -0.00319,-0.00542 -0.00798,-0.013507 -0.010635,-0.017959 -0.00264,-0.00446 -0.00509,-0.00863 -0.00544,-0.00928 -3.999e-4,-5.999e-4 -0.00254,-0.00444 -0.00488,-0.00845 l -0.00426,-0.00728 -0.014272,-0.00833 c -0.014544,-0.00848 -0.023701,-0.013847 -0.031225,-0.018278 l -0.00419,-0.00248 v 0.1120655 c 0,0.061635 1.718e-4,0.1120655 3.999e-4,0.1120655 1.999e-4,0 0.0016,-8.001e-4 0.00304,-0.0016 z M 5.5634335,6.7598996 V 6.6477219 l -0.0014,9.999e-4 c -0.00338,0.00222 -0.032264,0.019037 -0.041399,0.024125 -0.00366,0.00204 -0.00675,0.00386 -0.00681,0.00404 -8.8e-5,1.86e-4 -0.00219,0.00384 -0.00467,0.00812 -0.00249,0.00428 -0.00942,0.01626 -0.01541,0.026613 -0.006,0.010364 -0.011757,0.020263 -0.012794,0.022016 -0.00306,0.00516 -0.00987,0.016905 -0.011281,0.019418 -8.001e-4,0.0012 -0.002,0.00347 -0.00275,0.00484 -0.0012,0.0018 -0.0014,0.00279 -8e-4,0.00349 3.999e-4,5.999e-4 0.00254,0.00433 0.00494,0.00848 0.027513,0.047537 0.042236,0.072613 0.043164,0.073511 6e-4,5.999e-4 0.00618,0.00403 0.012386,0.0076 0.0062,0.00359 0.016855,0.0098 0.02371,0.013813 0.00686,0.00403 0.012657,0.00733 0.012896,0.00734 1.999e-4,6e-6 3.999e-4,-0.050468 3.999e-4,-0.1121639 z m -0.280297,0.07553 c -6e-4,-9.999e-4 -0.00511,-0.0088 -0.010003,-0.017239 -0.00488,-0.00845 -0.011435,-0.019719 -0.014561,-0.025074 -0.00314,-0.00533 -0.00569,-0.00997 -0.00569,-0.010279 0,-0.0018 -0.0016,5.999e-4 -0.0081,0.012046 -0.00396,0.00693 -0.010211,0.017818 -0.013915,0.02419 -0.00371,0.00638 -0.00758,0.013083 -0.00862,0.014918 l -0.0018,0.00334 h 0.031957 0.031955 z m 0.1147448,-0.00506 c 0.00798,-0.013355 0.024286,-0.041201 0.032489,-0.055509 l 0.0084,-0.014662 -0.00727,-0.012283 c -0.00399,-0.00676 -0.0098,-0.016583 -0.012896,-0.021839 -0.00309,-0.00526 -0.0087,-0.014781 -0.01247,-0.021146 -0.00377,-0.00638 -0.00817,-0.013864 -0.0098,-0.01665 l -0.00294,-0.00506 -0.041715,-7.9e-6 -0.041716,-6e-6 -0.0016,0.00304 c -0.0016,0.00302 -0.015937,0.027628 -0.033775,0.058353 l -0.00925,0.01592 0.001,0.0018 c 0.00386,0.0068 0.015783,0.027132 0.025156,0.042894 0.00322,0.00542 0.00883,0.014883 0.01247,0.021006 l 0.00664,0.011163 0.04169,-1.479e-4 0.041693,-1.501e-4 0.00397,-0.00666 z m 0.085597,0.00653 c 0,-2e-4 -0.00269,-0.00504 -0.00595,-0.010653 -0.00326,-0.00563 -0.010245,-0.017799 -0.015495,-0.027055 -0.00526,-0.00926 -0.0097,-0.016837 -0.00985,-0.016837 -1.598e-4,-4e-6 -0.00339,0.00541 -0.0072,0.011995 -0.00381,0.00659 -0.00812,0.014085 -0.00962,0.016633 -0.00569,0.00975 -0.014781,0.025465 -0.014951,0.025903 -1.082e-4,1.999e-4 0.014034,3.999e-4 0.03143,3.999e-4 0.017398,0 0.031624,-1.958e-4 0.031621,-3.999e-4 z M 5.2684518,6.7108455 c 0.00863,-0.014918 0.015716,-0.027232 0.015716,-0.027375 0,-1.439e-4 -0.014476,-2e-4 -0.032157,-2e-4 -0.017678,0 -0.032155,1.101e-4 -0.032155,2e-4 0,1.34e-4 0.0016,0.00306 0.00371,0.00653 0.00204,0.00347 0.00515,0.00877 0.00688,0.011774 0.00319,0.00553 0.010993,0.018877 0.016055,0.02752 0.0014,0.00254 0.00334,0.00574 0.00408,0.0071 7.999e-4,0.0014 0.0016,0.00227 0.0018,0.00202 2e-4,-1.999e-4 0.00746,-0.01264 0.016124,-0.027555 z m 0.1867622,0.022624 c 0.0018,-0.00294 0.00586,-0.010054 0.00915,-0.015784 0.00329,-0.00574 0.00907,-0.015733 0.012844,-0.02224 0.00376,-0.00651 0.00686,-0.011894 0.00686,-0.012012 0,-1.16e-4 -0.014577,-2e-4 -0.03239,-2e-4 H 5.419284 l 0.00698,0.012012 c 0.00384,0.00663 0.0078,0.013457 0.00882,0.015207 9.999e-4,0.0018 0.00483,0.00828 0.00845,0.014476 0.00362,0.00621 0.00686,0.011876 0.0072,0.012607 4e-4,8e-4 7.999e-4,0.0014 9.998e-4,0.0014 2.002e-4,1.9e-6 0.0018,-0.00239 0.00352,-0.00536 z M 5.2977253,6.6590204 c 0.0014,-0.00227 0.020152,-0.034167 0.036468,-0.062243 l 0.00967,-0.016616 v -0.029009 c 0,-0.020083 -1.899e-4,-0.029008 -6e-4,-0.029008 -3.999e-4,0 -0.00339,0.0016 -0.0068,0.00369 -0.00339,0.00202 -0.00736,0.00431 -0.0088,0.00511 -0.0014,7.999e-4 -0.00653,0.00376 -0.011298,0.00656 -0.00771,0.00452 -0.023696,0.013779 -0.029258,0.01694 -0.0012,6e-4 -0.00579,0.00336 -0.010432,0.00608 -0.00462,0.0027 -0.012692,0.00741 -0.017959,0.010432 -0.00526,0.00304 -0.016599,0.00962 -0.025204,0.014646 -0.0086,0.00499 -0.024768,0.01439 -0.035921,0.020851 -0.018018,0.010415 -0.024741,0.01434 -0.042248,0.024564 -0.00252,0.0014 -0.00467,0.00294 -0.00478,0.00328 -1.08e-4,3.999e-4 0.0012,0.0014 0.00285,0.00216 0.0016,7.999e-4 0.00421,0.00226 0.00566,0.00309 0.02834,0.01665 0.035141,0.020691 0.035603,0.021136 3.999e-4,4e-4 0.0212,6e-4 0.051122,6e-4 h 0.050571 z m 0.083204,0.0018 c 0,-3.999e-4 -0.0018,-0.00359 -0.0087,-0.015342 -0.00708,-0.012131 -0.00942,-0.016175 -0.014459,-0.024915 -0.00267,-0.00462 -0.00516,-0.00877 -0.00556,-0.00917 -8.001e-4,-8e-4 -6e-4,-8e-4 -0.00768,0.011502 -0.00339,0.00601 -0.019457,0.033945 -0.020468,0.035585 -6e-4,9.999e-4 -9.999e-4,0.002 -9.999e-4,0.00222 -1.8e-6,2e-4 0.013031,3.999e-4 0.028966,3.999e-4 0.015937,0 0.028966,-1.379e-4 0.028966,-3.999e-4 z m 0.1333508,-0.00366 c 0.00362,-0.00217 0.008,-0.00476 0.00975,-0.00574 0.0018,-9.997e-4 0.00926,-0.00528 0.016685,-0.00958 l 0.013507,-0.0078 -0.013779,-0.00795 c -0.00758,-0.00439 -0.015223,-0.00882 -0.016957,-0.00985 -0.00282,-0.0016 -0.013966,-0.0081 -0.071866,-0.041442 -0.00813,-0.00467 -0.016566,-0.0096 -0.018698,-0.010891 -0.00214,-0.0014 -0.00399,-0.00237 -0.00414,-0.00237 -1.319e-4,0 -0.00372,-0.00204 -0.00795,-0.00454 -0.00424,-0.0025 -0.012131,-0.0071 -0.017558,-0.010211 -0.00542,-0.00312 -0.011944,-0.00691 -0.014476,-0.00843 -0.00962,-0.00568 -0.028046,-0.016225 -0.028355,-0.016225 -1.781e-4,0 -4e-4,0.013235 -4e-4,0.029403 l 6e-6,0.029403 0.00703,0.011876 c 0.00387,0.00654 0.010044,0.016957 0.013694,0.023177 0.00366,0.00621 0.00947,0.016005 0.012861,0.021729 0.0034,0.00574 0.00733,0.012386 0.0087,0.014781 0.0014,0.00237 0.00312,0.00531 0.00386,0.00653 l 0.0014,0.00217 h 0.050057 0.050057 l 0.00656,-0.00397 z"
       id="path1011" />
  </g>
</svg>
