<?xml version="1.0" encoding="UTF-8" standalone="no"?>
<!-- Created with Inkscape (http://www.inkscape.org/) -->

<svg
   width="130"
   height="48"
   viewBox="0 0 34.395819 12.7"
   version="1.1"
   id="svg5"
   inkscape:version="1.1.2 (0a00cf5339, 2022-02-04)"
   sodipodi:docname="logo.svg"
   inkscape:export-filename="/home/debian/Documents/GitHub/core/frontend-main/src/assets/brand/logo.png"
   inkscape:export-xdpi="96"
   inkscape:export-ydpi="96"
   xmlns:inkscape="http://www.inkscape.org/namespaces/inkscape"
   xmlns:sodipodi="http://sodipodi.sourceforge.net/DTD/sodipodi-0.dtd"
   xmlns="http://www.w3.org/2000/svg"
   xmlns:svg="http://www.w3.org/2000/svg">
  <sodipodi:namedview
     id="namedview7"
     pagecolor="#ffffff"
     bordercolor="#666666"
     borderopacity="1.0"
     inkscape:pageshadow="2"
     inkscape:pageopacity="0.0"
     inkscape:pagecheckerboard="0"
     inkscape:document-units="mm"
     showgrid="false"
     units="px"
     height="48px"
     inkscape:zoom="2.096401"
     inkscape:cx="88.961987"
     inkscape:cy="63.919068"
     inkscape:window-width="1488"
     inkscape:window-height="778"
     inkscape:window-x="2264"
     inkscape:window-y="181"
     inkscape:window-maximized="0"
     inkscape:current-layer="g11307" />
  <defs
     id="defs2" />
  <g
     inkscape:label="Layer 1"
     inkscape:groupmode="layer"
     id="layer1">
    <g
       id="g11307">
      <g
         id="g1094"
         transform="translate(-4.3347148,0.2011918)"
         style="fill:#1a1a1a;stroke:none">
        <path
           d="m 6.3540136,8.3544346 q -0.4317997,0 -0.7556494,-0.1905 -0.32385,-0.1905 -0.5079997,-0.5778499 -0.1778,-0.3937 -0.1778,-0.9906 0,-0.60325 0.17145,-0.9906 0.17145,-0.38735 0.4952997,-0.57785 0.3238497,-0.1905 0.7746994,-0.1905 0.4826,0 0.8635997,0.22225 0.3873497,0.2159 0.6095997,0.6096 0.2285997,0.3937 0.2285997,0.9271 0,0.53975 -0.2285997,0.93345 -0.22225,0.3936999 -0.6095997,0.6095999 -0.3809997,0.2159 -0.8635997,0.2159 z m -2.0192988,1.1811 V 4.8873347 h 0.9461494 v 0.6985 l -0.01905,1.016 0.0635,1.00965 V 9.5355346 Z M 6.1825639,7.5416347 q 0.2476497,0 0.4381497,-0.1143 0.19685,-0.1143 0.3111497,-0.32385 0.12065,-0.2159 0.12065,-0.508 0,-0.29845 -0.12065,-0.508 -0.1142997,-0.20955 -0.3111497,-0.32385 -0.1905,-0.1143 -0.4381497,-0.1143 -0.24765,0 -0.4444997,0.1143 -0.19685,0.1143 -0.31115,0.32385 -0.1143,0.20955 -0.1143,0.508 0,0.2921 0.1143,0.508 0.1143,0.20955 0.31115,0.32385 0.1968497,0.1143 0.4444997,0.1143 z"
           style="font-weight:bold;font-size:6.35px;line-height:1.25;font-family:Montserrat;-inkscape-font-specification:'Montserrat Bold';letter-spacing:-0.179917px;fill:#1a1a1a;fill-opacity:1;stroke:none;stroke-width:0;stroke-miterlimit:4;stroke-dasharray:none;stroke-opacity:1"
           id="path1100" />
        <path
           d="M 10.679332,8.3036346 V 7.6368847 l -0.0635,-0.14605 v -1.1938 q 0,-0.3175 -0.196849,-0.4953 -0.1905,-0.1778 -0.5905502,-0.1778 -0.27305,0 -0.5397497,0.0889 -0.26035,0.08255 -0.4444987,0.2286 l -0.3556,-0.69215 q 0.2794,-0.19685 0.6730987,-0.3048 0.3936997,-0.10795 0.8000997,-0.10795 0.7810492,0 1.2128492,0.3683 0.4318,0.3683 0.4318,1.14935 v 1.9494499 z m -1.0413992,0.0508 q -0.4000497,0 -0.6857994,-0.13335 -0.285749,-0.1397 -0.438149,-0.3746499 -0.1523997,-0.23495 -0.1523997,-0.52705 0,-0.3048 0.1460497,-0.5334 0.1524,-0.2286 0.4762487,-0.3556 0.32385,-0.13335 0.8445497,-0.13335 h 0.9080492 v 0.57785 H 9.9363828 q -0.34925,0 -0.4825997,0.1143 -0.127,0.1143 -0.127,0.28575 0,0.1905 0.14605,0.3048 0.1523997,0.10795 0.4127497,0.10795 0.2476502,0 0.4445002,-0.1143 0.19685,-0.12065 0.285749,-0.34925 l 0.1524,0.4572 q -0.10795,0.3301999 -0.393699,0.5016499 -0.28575,0.17145 -0.7366002,0.17145 z"
           style="font-weight:bold;font-size:6.35px;line-height:1.25;font-family:Montserrat;-inkscape-font-specification:'Montserrat Bold';letter-spacing:-0.179917px;fill:#1a1a1a;fill-opacity:1;stroke:none;stroke-width:0;stroke-miterlimit:4;stroke-dasharray:none;stroke-opacity:1"
           id="path1102" />
        <path
           d="M 12.057283,8.3036346 V 4.8873347 h 0.990599 v 3.4162999 z m 0.495299,-3.8925499 q -0.27305,0 -0.444499,-0.15875 -0.17145,-0.15875 -0.17145,-0.3937 0,-0.23495 0.17145,-0.3937 0.171449,-0.15875 0.444499,-0.15875 0.27305,0 0.4445,0.1524 0.17145,0.14605 0.17145,0.381 0,0.24765 -0.17145,0.41275 -0.1651,0.15875 -0.4445,0.15875 z"
           style="font-weight:bold;font-size:6.35px;line-height:1.25;font-family:Montserrat;-inkscape-font-specification:'Montserrat Bold';letter-spacing:-0.179917px;fill:#1a1a1a;fill-opacity:1;stroke:none;stroke-width:0;stroke-miterlimit:4;stroke-dasharray:none;stroke-opacity:1"
           id="path1104" />
        <path
           d="M 13.497674,8.3036346 V 4.8873347 h 0.94615 v 0.9652 l -0.133351,-0.2794 q 0.152401,-0.36195 0.488951,-0.5461 0.33655,-0.1905 0.81915,-0.1905 v 0.9144 q -0.0635,-0.00635 -0.1143,-0.00635 -0.0508,-0.00635 -0.10795,-0.00635 -0.4064,0 -0.6604,0.23495 -0.24765,0.2286 -0.24765,0.71755 v 1.6128999 z"
           style="font-weight:bold;font-size:6.35px;line-height:1.25;font-family:Montserrat;-inkscape-font-specification:'Montserrat Bold';letter-spacing:-0.179917px;fill:#1a1a1a;fill-opacity:1;stroke:none;stroke-width:0;stroke-miterlimit:4;stroke-dasharray:none;stroke-opacity:1"
           id="path1106" />
        <path
           d="M 16.481624,8.3036346 V 4.8111347 q 0,-0.57785 0.3429,-0.92075 0.3429,-0.34925 0.9779,-0.34925 0.2159,0 0.41275,0.04445 0.2032,0.04445 0.3429,0.1397 l -0.26035,0.71755 q -0.08255,-0.05715 -0.18415,-0.0889 -0.1016,-0.03175 -0.2159,-0.03175 -0.2159,0 -0.33655,0.127 -0.1143,0.12065 -0.1143,0.3683 v 0.3175 l 0.0254,0.42545 v 2.7431999 z m -0.52705,-2.5780999 v -0.762 h 2.36855 v 0.762 z"
           style="font-weight:bold;font-size:6.35px;line-height:1.25;font-family:Montserrat;-inkscape-font-specification:'Montserrat Bold';letter-spacing:-0.179917px;fill:#1a1a1a;fill-opacity:1;stroke:none;stroke-width:0;stroke-miterlimit:4;stroke-dasharray:none;stroke-opacity:1"
           id="path1108" />
        <path
           d="m 19.552134,9.5863346 q -0.2667,0 -0.52705,-0.08255 -0.26035,-0.08255 -0.42545,-0.2286 l 0.36195,-0.70485 q 0.1143,0.1016 0.26035,0.15875 0.1524,0.05715 0.29845,0.05715 0.20955,0 0.3302,-0.1016 0.127,-0.09525 0.2286,-0.32385 l 0.1778,-0.4191 0.0762,-0.1079499 1.22555,-2.9464 h 0.9525 l -1.54305,3.6258499 q -0.1651,0.41275 -0.381,0.6477 -0.20955,0.23495 -0.4699,0.3302 -0.254,0.09525 -0.56515,0.09525 z m 0.5842,-1.14935 -1.524,-3.5496499 h 1.02235 l 1.1811,2.8575 z"
           style="font-weight:bold;font-size:6.35px;line-height:1.25;font-family:Montserrat;-inkscape-font-specification:'Montserrat Bold';letter-spacing:-0.179917px;fill:#1a1a1a;fill-opacity:1;stroke:none;stroke-width:0;stroke-miterlimit:4;stroke-dasharray:none;stroke-opacity:1"
           id="path1110" />
        <rect
           style="font-size:6.35px;line-height:1.25;font-family:'Inter 28pt';-inkscape-font-specification:'Inter 28pt';letter-spacing:-0.179917px;fill:#1a1a1a;fill-opacity:0;stroke:none;stroke-width:0.0749518;stroke-miterlimit:4;stroke-dasharray:none;stroke-opacity:1;paint-order:stroke markers fill"
           id="rect18278"
           width="0.26458332"
           height="12.415069"
           x="8.0753222"
           y="0.21400747" />
        <rect
           style="font-size:6.35px;line-height:1.25;font-family:'Inter 28pt';-inkscape-font-specification:'Inter 28pt';letter-spacing:-0.179917px;fill:#1a1a1a;fill-opacity:0;stroke:none;stroke-width:0.0749518;stroke-miterlimit:4;stroke-dasharray:none;stroke-opacity:1;paint-order:stroke markers fill"
           id="rect18278-3"
           width="0.26458332"
           height="12.415069"
           x="11.621258"
           y="0.2671746" />
        <rect
           style="font-size:6.35px;line-height:1.25;font-family:'Inter 28pt';-inkscape-font-specification:'Inter 28pt';letter-spacing:-0.179917px;fill:#1a1a1a;fill-opacity:0;stroke:none;stroke-width:0.0749518;stroke-miterlimit:4;stroke-dasharray:none;stroke-opacity:1;paint-order:stroke markers fill"
           id="rect18278-3-6"
           width="0.26458332"
           height="12.415069"
           x="13.196823"
           y="0.25847468" />
        <rect
           style="font-size:6.35px;line-height:1.25;font-family:'Inter 28pt';-inkscape-font-specification:'Inter 28pt';letter-spacing:-0.179917px;fill:#1a1a1a;fill-opacity:0;stroke:none;stroke-width:0.0749518;stroke-miterlimit:4;stroke-dasharray:none;stroke-opacity:1;paint-order:stroke markers fill"
           id="rect18278-3-6-5"
           width="0.26458332"
           height="12.415069"
           x="15.652576"
           y="0.2371496" />
        <rect
           style="font-size:6.35px;line-height:1.25;font-family:'Inter 28pt';-inkscape-font-specification:'Inter 28pt';letter-spacing:-0.179917px;fill:#1a1a1a;fill-opacity:0;stroke:none;stroke-width:0.0117886;stroke-miterlimit:4;stroke-dasharray:none;stroke-opacity:1;paint-order:stroke markers fill"
           id="rect18278-3-6-5-3"
           width="0.026458334"
           height="3.0773151"
           x="18.566029"
           y="3.0139859" />
        <rect
           style="font-size:6.35px;line-height:1.25;font-family:'Inter 28pt';-inkscape-font-specification:'Inter 28pt';letter-spacing:-0.179917px;fill:#1a1a1a;fill-opacity:0;stroke:none;stroke-width:0.0749518;stroke-miterlimit:4;stroke-dasharray:none;stroke-opacity:1;paint-order:stroke markers fill"
           id="rect18278-3-6-7"
           width="0.26458332"
           height="12.415069"
           x="13.704734"
           y="4.5462217" />
      </g>
    </g>
    <text
       xml:space="preserve"
       style="font-size:10.5833px;line-height:1.25;font-family:'Inter 28pt';-inkscape-font-specification:'Inter 28pt';stroke-width:0.264583"
       x="48.527615"
       y="16.411993"
       id="text5743"><tspan
         sodipodi:role="line"
         id="tspan5741"
         style="stroke-width:0.264583"
         x="48.527615"
         y="16.411993" /></text>
  </g>
</svg>
