<?xml version="1.0" encoding="UTF-8" standalone="no"?>
<!-- Created with Inkscape (http://www.inkscape.org/) -->

<svg
   width="250"
   height="40"
   viewBox="0 0 66.145832 10.583334"
   version="1.1"
   id="svg5"
   inkscape:version="1.1.2 (0a00cf5339, 2022-02-04)"
   sodipodi:docname="drawing.svg"
   inkscape:export-filename="/home/debian/Documents/GitHub/core/frontend-seller/src/assets/drawing.svg"
   inkscape:export-xdpi="96"
   inkscape:export-ydpi="96"
   xmlns:inkscape="http://www.inkscape.org/namespaces/inkscape"
   xmlns:sodipodi="http://sodipodi.sourceforge.net/DTD/sodipodi-0.dtd"
   xmlns="http://www.w3.org/2000/svg"
   xmlns:svg="http://www.w3.org/2000/svg">
  <sodipodi:namedview
     id="namedview7"
     pagecolor="#ffffff"
     bordercolor="#666666"
     borderopacity="1.0"
     inkscape:pageshadow="2"
     inkscape:pageopacity="0.0"
     inkscape:pagecheckerboard="0"
     inkscape:document-units="mm"
     showgrid="false"
     inkscape:zoom="1.7814369"
     inkscape:cx="-58.660512"
     inkscape:cy="64.273958"
     inkscape:window-width="1920"
     inkscape:window-height="1048"
     inkscape:window-x="0"
     inkscape:window-y="0"
     inkscape:window-maximized="1"
     inkscape:current-layer="text2"
     units="px"
     width="250px" />
  <defs
     id="defs2" />
  <g
     inkscape:label="Layer 1"
     inkscape:groupmode="layer"
     id="layer1">
    <rect
       style="fill:none;fill-rule:evenodd;stroke-width:0.0892835"
       id="rect31"
       width="66.146004"
       height="10.583333"
       x="0"
       y="0" />
    <g
       aria-label="αdαbuy"
       transform="scale(1.0532366,0.94945429)"
       id="text2"
       style="font-size:11.0306px;font-family:Manrope;-inkscape-font-specification:Manrope;letter-spacing:-0.517061px;fill:#ffffff;stroke:#ff9a00;stroke-width:0;stroke-linecap:round;stroke-linejoin:round;paint-order:stroke fill markers"
       inkscape:export-filename="/home/debian/Desktop/drawing.svg"
       inkscape:export-xdpi="96"
       inkscape:export-ydpi="96">
      <path
         d="m 3.7096377,7.8927869 q -0.5695927,0 -0.9939949,-0.279212 Q 2.2949633,7.3343628 2.064148,6.8541181 1.8333327,6.3738734 1.8333327,5.7707754 q 0,-0.6142665 0.2345381,-1.0907884 0.238261,-0.4802448 0.6663861,-0.7557341 0.4281251,-0.2754892 1.0051634,-0.2754892 0.4020654,0 0.7185057,0.1451903 0.3164404,0.1414675 0.5398099,0.3983425 L 4.8488229,4.3784379 V 3.7604485 H 5.7423014 V 7.7811021 H 4.8488229 V 7.1556672 l 0.148913,0.1861412 Q 4.7743664,7.5986835 4.4430347,7.7475966 4.111703,7.8927869 3.7096377,7.8927869 Z M 3.8734421,6.9918628 q 0.3238859,0 0.5211958,-0.152636 Q 4.5956707,6.6865909 4.6850185,6.4111017 4.774366,6.1356124 4.774366,5.7707754 4.774366,5.4059383 4.685019,5.130449 4.5956707,4.8549598 4.3983608,4.7023239 4.2047737,4.5496879 3.8883334,4.5496879 q -0.3052718,0 -0.5249186,0.1489131 Q 3.1437679,4.8437914 3.0246375,5.1192806 2.905507,5.3947699 2.905507,5.778221 q 0,0.3313316 0.096793,0.6068208 0.1005164,0.2754893 0.3127175,0.4430166 0.2159239,0.1638044 0.5584246,0.1638044 z"
         style="-inkscape-font-specification:'Manrope Ultra-Bold';fill:#ffffff;stroke:none;stroke-width:0"
         id="path12645" />
      <path
         d="m 8.0662626,7.8927869 q -0.5547008,0 -0.9716577,-0.279212 Q 6.6776483,7.3343628 6.4431102,6.8541181 6.2122948,6.3738734 6.2122948,5.7707754 q 0,-0.6142665 0.2345382,-1.0907884 0.238261,-0.4802448 0.6663863,-0.7557341 0.4281249,-0.2754892 1.0051635,-0.2754892 0.5733156,0 0.9642117,0.2792121 0.3908965,0.279212 0.5919295,0.7594568 0.201033,0.4802447 0.201033,1.0833428 0,0.603098 -0.204755,1.0833427 Q 9.469768,7.3343628 9.0677031,7.6135749 8.665638,7.8927869 8.0662626,7.8927869 Z m 0.163805,-0.9009241 q 0.3387771,0 0.5398093,-0.152636 0.2047563,-0.1526359 0.2941038,-0.4281251 0.089352,-0.2754893 0.089352,-0.6403263 0,-0.3648371 -0.089352,-0.6403264 Q 8.9746287,4.8549598 8.7773235,4.7023239 8.5837362,4.5496879 8.2672959,4.5496879 q -0.3387778,0 -0.5584242,0.1675273 -0.2159244,0.1638044 -0.3201633,0.4430165 -0.1042395,0.2754891 -0.1042395,0.6105437 0,0.3387772 0.100517,0.6179893 0.1005162,0.2754893 0.308994,0.4392937 0.2084785,0.1638044 0.5360877,0.1638044 z M 9.1533282,7.7811021 V 5.0262099 H 9.0267522 V 2.4202307 h 1.0200548 v 5.3608714 z"
         style="-inkscape-font-specification:'Manrope Ultra-Bold';fill:#ffffff;stroke:none;stroke-width:0"
         id="path12647" />
      <path
         d="m 12.393103,7.8927869 q -0.569593,0 -0.993995,-0.279212 -0.42068,-0.2792121 -0.651495,-0.7594568 -0.230815,-0.4802447 -0.230815,-1.0833427 0,-0.6142665 0.234539,-1.0907884 0.23826,-0.4802448 0.666386,-0.7557341 0.428124,-0.2754892 1.005162,-0.2754892 0.402066,0 0.718506,0.1451903 0.316441,0.1414675 0.53981,0.3983425 L 13.532288,4.3784379 V 3.7604485 h 0.893479 V 7.7811021 H 13.532288 V 7.1556672 l 0.148913,0.1861412 Q 13.457832,7.5986835 13.1265,7.7475966 12.795168,7.8927869 12.393103,7.8927869 Z m 0.163805,-0.9009241 q 0.323885,0 0.521195,-0.152636 0.201033,-0.1526359 0.290381,-0.4281251 0.08935,-0.2754893 0.08935,-0.6403263 0,-0.3648371 -0.08935,-0.6403264 -0.08935,-0.2754892 -0.286658,-0.4281251 -0.193587,-0.152636 -0.510028,-0.152636 -0.305271,0 -0.524918,0.1489131 -0.219647,0.1451904 -0.338777,0.4206796 -0.119131,0.2754893 -0.119131,0.6589404 0,0.3313316 0.09679,0.6068208 0.100516,0.2754893 0.312717,0.4430166 0.215924,0.1638044 0.558425,0.1638044 z"
         style="-inkscape-font-specification:'Manrope Ultra-Bold';fill:#ffffff;stroke:none;stroke-width:0"
         id="path12649" />
      <path
         d="m 17.092229,7.8927869 q -0.599375,0 -1.00144,-0.279212 -0.402066,-0.2792121 -0.606821,-0.7594568 -0.201032,-0.4802447 -0.201032,-1.0833427 0,-0.6030981 0.201032,-1.0833428 0.201033,-0.4802448 0.591929,-0.7594568 0.390897,-0.2792121 0.964212,-0.2792121 0.577039,0 1.005164,0.2754892 0.428125,0.2754893 0.662663,0.7557341 0.238262,0.4765219 0.238262,1.0907884 0,0.603098 -0.234539,1.0833427 -0.230815,0.4802447 -0.647772,0.7594568 -0.416956,0.279212 -0.971658,0.279212 z M 15.111685,7.7811021 V 2.4202307 h 1.020055 v 2.6059792 h -0.126576 v 2.7548922 z m 1.81674,-0.7892393 q 0.327609,0 0.536086,-0.1638044 0.208479,-0.1638044 0.308996,-0.4392937 0.100516,-0.2792121 0.100516,-0.6179893 0,-0.3350546 -0.104239,-0.6105438 -0.10424,-0.279212 -0.323886,-0.4430164 -0.215925,-0.1675273 -0.554702,-0.1675273 -0.31644,0 -0.51375,0.152636 -0.193587,0.1526359 -0.282934,0.4281251 -0.08935,0.2754893 -0.08935,0.6403264 0,0.364837 0.08935,0.6403263 0.08934,0.2754892 0.29038,0.4281251 0.204755,0.152636 0.543533,0.152636 z"
         style="-inkscape-font-specification:'Manrope Ultra-Bold';fill:#ffffff;stroke:none;stroke-width:0"
         id="path12651" />
      <path
         d="m 20.912768,7.9002326 q -0.472799,0 -0.770625,-0.1600816 Q 19.844317,7.5800694 19.67679,7.3343628 19.512985,7.0886562 19.442251,6.8243355 19.371518,6.5562919 19.356626,6.3366451 19.341735,6.1169982 19.341735,6.0164819 V 3.7604485 h 1.0275 v 1.898642 q 0,0.1377446 0.0149,0.3536686 0.01489,0.2122012 0.09307,0.4281252 0.07818,0.215924 0.253153,0.3611142 0.178696,0.1451903 0.502582,0.1451903 0.130298,0 0.279211,-0.040951 0.148913,-0.040951 0.279213,-0.1563588 0.130298,-0.1191304 0.212201,-0.3462229 0.08563,-0.2308153 0.08563,-0.603098 l 0.580761,0.2754891 q 0,0.476522 -0.193588,0.8934786 -0.193586,0.4169567 -0.584483,0.6738318 -0.387174,0.2568751 -0.979104,0.2568751 z m 1.30299,-0.1191305 V 6.4483299 H 22.089182 V 3.7604485 h 1.020055 v 4.0206536 z"
         style="-inkscape-font-specification:'Manrope Ultra-Bold';fill:#ffffff;stroke:none;stroke-width:0"
         id="path12653" />
      <path
         d="M 24.316361,9.5680593 25.090708,7.438602 25.105598,8.064037 23.35587,3.7604485 h 1.049837 l 1.176409,3.0452729 h -0.23826 l 1.168968,-3.0452729 h 1.012609 l -2.270925,5.8076108 z"
         style="-inkscape-font-specification:'Manrope Ultra-Bold';fill:#ffffff;stroke:none;stroke-width:0"
         id="path12655" />
    </g>
  </g>
</svg>
