<?xml version="1.0" encoding="UTF-8" standalone="no"?>
<!-- Created with Inkscape (http://www.inkscape.org/) -->

<svg
   width="40.0px"
   height="40.0px"
   viewBox="0 0 40.0 40.0"
   version="1.1"
   id="SVGRoot"
   sodipodi:docname="icon.svg"
   inkscape:export-filename="/home/debian/bitmap.png"
   inkscape:export-xdpi="121.6"
   inkscape:export-ydpi="121.6"
   inkscape:version="1.1.2 (0a00cf5339, 2022-02-04)"
   xmlns:inkscape="http://www.inkscape.org/namespaces/inkscape"
   xmlns:sodipodi="http://sodipodi.sourceforge.net/DTD/sodipodi-0.dtd"
   xmlns="http://www.w3.org/2000/svg"
   xmlns:svg="http://www.w3.org/2000/svg">
  <sodipodi:namedview
     id="namedview28864"
     pagecolor="#ffffff"
     bordercolor="#666666"
     borderopacity="1.0"
     inkscape:pageshadow="2"
     inkscape:pageopacity="0.0"
     inkscape:pagecheckerboard="0"
     inkscape:document-units="px"
     showgrid="true"
     inkscape:zoom="16.000001"
     inkscape:cx="4.5624998"
     inkscape:cy="20.187499"
     inkscape:window-width="1920"
     inkscape:window-height="1048"
     inkscape:window-x="0"
     inkscape:window-y="0"
     inkscape:window-maximized="1"
     inkscape:current-layer="layer1">
    <inkscape:grid
       type="xygrid"
       id="grid28927" />
  </sodipodi:namedview>
  <defs
     id="defs28859">
    <clipPath
       id="b983e3c625">
      <path
         d="m 142,147.30078 h 115 v 72.75 H 142 Z m 0,0"
         clip-rule="nonzero"
         id="path1144" />
    </clipPath>
    <clipPath
       id="0e8c13dd3a">
      <path
         d="m 70.261719,116.35938 h 89.156251 v 70.49999 H 70.261719 Z m 0,0"
         clip-rule="nonzero"
         id="path1147" />
    </clipPath>
  </defs>
  <g
     inkscape:label="Layer 1"
     inkscape:groupmode="layer"
     id="layer1">
    <rect
       style="fill:#0046be;stroke:#ffffff;stroke-width:0.1;stroke-linejoin:round;paint-order:stroke fill markers;fill-opacity:1"
       id="rect29051"
       width="40"
       height="40"
       x="0"
       y="0" />
    <path
       fill="#ffffff"
       d="m 30.905866,17.626204 -1.042489,4.170661 c -0.04193,0.167693 -0.09784,0.331193 -0.166996,0.489804 -0.06917,0.158607 -0.150924,0.310232 -0.24595,0.455565 -0.09431,0.145336 -0.199834,0.281586 -0.317217,0.408753 -0.116688,0.127863 -0.243853,0.244549 -0.380104,0.351454 -0.136251,0.106205 -0.280887,0.200533 -0.433207,0.282984 -0.151622,0.08244 -0.309533,0.152319 -0.473734,0.208217 -0.163499,0.0566 -0.330493,0.09922 -0.50168,0.127168 -0.170487,0.02866 -0.342374,0.04331 -0.515655,0.04331 H 16.454235 c -0.167693,0 -0.333985,-0.01324 -0.49958,-0.03913 -0.164901,-0.02656 -0.327004,-0.06638 -0.486311,-0.118784 -0.15931,-0.05239 -0.313027,-0.116686 -0.461157,-0.194242 -0.148828,-0.07689 -0.290668,-0.165599 -0.424823,-0.265514 -0.134155,-0.09991 -0.259923,-0.209617 -0.376607,-0.329797 -0.116688,-0.120178 -0.223593,-0.248743 -0.319317,-0.385693 -0.09642,-0.136948 -0.180969,-0.280886 -0.253634,-0.431809 -0.07337,-0.150924 -0.133459,-0.30604 -0.18167,-0.466746 -0.387706,-1.177514 -0.476108,-2.762543 -0.645546,-3.965491 -0.458809,-3.257338 -0.986363,-5.214704 0.928742,-3.153785 1.040347,2.345539 1.562535,5.026515 2.113412,7.073855 0.09434,0.06705 0.197037,0.116684 0.308136,0.149528 0.111096,0.03284 0.224287,0.04684 0.340277,0.04192 h 10.427 c 0.118783,0.0034 0.234771,-0.01324 0.348661,-0.0496 0.113193,-0.03633 0.217303,-0.09014 0.31233,-0.1628 0.09505,-0.07197 0.174678,-0.157912 0.240359,-0.257131 0.06568,-0.09991 0.112494,-0.207521 0.141141,-0.32281 l 1.042492,-4.170657 c 0.01959,-0.07825 0.02936,-0.157914 0.03073,-0.238262 7.17e-4,-0.08037 -0.0068,-0.15931 -0.02444,-0.238268 -0.01749,-0.07825 -0.04404,-0.153717 -0.07825,-0.226383 -0.03496,-0.07266 -0.07757,-0.139744 -0.128564,-0.202632 -0.05032,-0.06289 -0.106899,-0.118783 -0.170486,-0.167692 -0.06357,-0.04961 -0.132059,-0.09154 -0.204726,-0.125071 -0.07336,-0.03353 -0.149526,-0.05797 -0.227784,-0.07408 -0.07893,-0.01605 -0.158608,-0.02308 -0.238962,-0.02097 H 16.985956 c -0.06849,0 -0.136251,-0.0061 -0.203326,-0.02027 -0.06705,-0.01325 -0.132059,-0.03284 -0.195644,-0.0594 -0.06289,-0.02588 -0.122973,-0.05798 -0.180269,-0.09642 -0.0566,-0.03775 -0.109699,-0.08105 -0.157912,-0.129263 -0.04821,-0.04821 -0.09151,-0.101318 -0.129263,-0.157914 -0.03844,-0.05729 -0.07057,-0.117384 -0.09642,-0.180269 -0.02656,-0.06358 -0.04608,-0.128564 -0.0594,-0.195642 -0.01325,-0.06706 -0.02027,-0.134851 -0.02027,-0.203326 0,-0.06849 0.0068,-0.136252 0.02027,-0.203328 0.01324,-0.06706 0.03284,-0.132758 0.0594,-0.195641 0.02588,-0.06357 0.05798,-0.123675 0.09642,-0.180271 0.03776,-0.0566 0.08106,-0.109699 0.129263,-0.157911 0.04821,-0.0482 0.101318,-0.09152 0.157912,-0.129963 0.0573,-0.03774 0.117385,-0.06985 0.180269,-0.09642 0.06357,-0.02588 0.128565,-0.04609 0.195644,-0.05941 0.06706,-0.01325 0.134852,-0.01957 0.203326,-0.01957 h 10.886062 c 0.118082,0 0.236167,0.0061 0.35425,0.01957 0.117384,0.01399 0.234072,0.03352 0.350061,0.06009 0.115287,0.02725 0.228479,0.06009 0.340277,0.09991 0.111794,0.03913 0.220795,0.08523 0.327697,0.136953 0.106204,0.05238 0.209618,0.109697 0.309536,0.173982 0.09992,0.06357 0.19564,0.132754 0.28787,0.207516 0.09225,0.07408 0.179571,0.153724 0.262719,0.238268 0.08317,0.08523 0.160707,0.173979 0.234071,0.26761 0.07266,0.09293 0.139746,0.190748 0.201931,0.291365 0.06149,0.101315 0.117387,0.205424 0.167694,0.313025 0.05032,0.107607 0.09362,0.217304 0.131359,0.329797 0.03701,0.112495 0.06849,0.226384 0.09293,0.342375 0.02444,0.115985 0.04261,0.233371 0.05381,0.351452 0.01119,0.117388 0.01535,0.23617 0.01325,0.354253 -0.002,0.118782 -0.01119,0.236867 -0.02656,0.354253 -0.01604,0.117382 -0.03844,0.23337 -0.06705,0.34866 z M 20.114132,28.334788 c 0,0.102013 -0.0048,0.204729 -0.01536,0.306741 -0.0095,0.10201 -0.02513,0.202628 -0.04473,0.303246 -0.02027,0.100619 -0.04473,0.199833 -0.07476,0.297654 -0.02936,0.09853 -0.06427,0.194943 -0.103412,0.289269 -0.03913,0.09431 -0.08316,0.187256 -0.131357,0.277394 -0.04821,0.09081 -0.100622,0.178172 -0.157912,0.263418 -0.0566,0.08521 -0.117386,0.167692 -0.182368,0.246645 -0.065,0.07894 -0.134155,0.155116 -0.20612,0.227086 -0.07266,0.07266 -0.148828,0.141143 -0.227784,0.206121 -0.07893,0.06569 -0.161405,0.126469 -0.246649,0.183066 -0.08521,0.05729 -0.172584,0.109699 -0.263416,0.157912 -0.09014,0.04821 -0.182365,0.09225 -0.277393,0.131358 -0.0943,0.03912 -0.190751,0.07335 -0.288571,0.103411 -0.09853,0.02935 -0.197738,0.05449 -0.298352,0.07477 -0.09991,0.01956 -0.201233,0.03496 -0.303246,0.04473 -0.10201,0.01054 -0.204025,0.01535 -0.306738,0.01535 -0.102707,0 -0.204725,-0.0048 -0.306738,-0.01535 -0.102011,-0.0095 -0.203329,-0.02514 -0.303246,-0.04473 -0.100619,-0.02027 -0.199832,-0.04541 -0.298352,-0.07477 -0.09784,-0.03005 -0.194246,-0.06426 -0.288571,-0.103411 -0.09505,-0.03913 -0.187257,-0.08316 -0.277394,-0.131358 -0.09081,-0.04821 -0.178173,-0.100621 -0.263417,-0.157912 -0.08522,-0.0566 -0.167692,-0.117384 -0.246646,-0.183066 -0.07968,-0.065 -0.155117,-0.133455 -0.227785,-0.206121 -0.07197,-0.07197 -0.14114,-0.14813 -0.206123,-0.227086 -0.065,-0.07893 -0.12577,-0.161402 -0.182365,-0.246645 -0.05729,-0.08522 -0.109698,-0.172586 -0.157911,-0.263418 -0.0482,-0.09014 -0.09225,-0.183066 -0.131361,-0.277394 -0.03913,-0.09431 -0.07408,-0.190751 -0.103411,-0.289269 -0.03005,-0.09784 -0.05449,-0.197038 -0.07477,-0.297654 -0.02027,-0.100622 -0.03496,-0.201233 -0.04473,-0.303246 -0.01041,-0.102009 -0.01536,-0.204724 -0.01536,-0.306741 0,-0.102703 0.0048,-0.204722 0.01536,-0.306735 0.0095,-0.10201 0.02444,-0.203329 0.04473,-0.303943 0.02027,-0.09991 0.04473,-0.199135 0.07477,-0.297656 0.02935,-0.09784 0.06427,-0.194245 0.103411,-0.288571 0.03913,-0.09505 0.08317,-0.187258 0.131361,-0.278092 0.04821,-0.09014 0.100622,-0.178169 0.157911,-0.262716 0.0566,-0.08521 0.117387,-0.167692 0.182365,-0.246647 0.065,-0.07968 0.134156,-0.155116 0.206123,-0.227785 0.07266,-0.07266 0.148128,-0.141141 0.227785,-0.206124 0.07894,-0.065 0.161403,-0.125767 0.246646,-0.183065 0.08521,-0.0566 0.172584,-0.108998 0.263417,-0.157211 0.09014,-0.0489 0.182367,-0.09225 0.277394,-0.131361 0.0943,-0.03913 0.190749,-0.07408 0.288571,-0.10341 0.09853,-0.03005 0.197738,-0.05449 0.298352,-0.07477 0.09991,-0.02027 0.201232,-0.03496 0.303246,-0.04541 0.102011,-0.0095 0.204026,-0.01467 0.306738,-0.01467 0.102717,0 0.204725,0.0048 0.306738,0.01467 0.10201,0.01056 0.203329,0.02514 0.303246,0.04541 0.100619,0.02027 0.199833,0.04473 0.298352,0.07477 0.09783,0.02936 0.194245,0.06427 0.288571,0.10341 0.09505,0.03913 0.187257,0.08244 0.277393,0.131361 0.09081,0.04821 0.178175,0.100621 0.263416,0.157211 0.08522,0.0573 0.167694,0.118087 0.246649,0.183065 0.07894,0.065 0.155115,0.133457 0.227784,0.206124 0.07197,0.07266 0.141142,0.148127 0.20612,0.227785 0.065,0.07894 0.125774,0.161404 0.182368,0.246647 0.05729,0.08453 0.109698,0.172581 0.157912,0.262716 0.04821,0.09081 0.09225,0.183067 0.131357,0.278092 0.03913,0.09431 0.07408,0.19075 0.103412,0.288571 0.03005,0.09853 0.05449,0.197739 0.07476,0.297656 0.01956,0.100619 0.03496,0.201932 0.04473,0.303943 0.01056,0.102012 0.01536,0.204026 0.01536,0.306735 z m -2.085678,0 c 0,-0.06849 -0.0061,-0.136249 -0.01958,-0.203326 -0.01399,-0.06706 -0.03352,-0.132755 -0.0594,-0.195643 -0.02656,-0.06357 -0.05872,-0.123671 -0.09642,-0.180268 -0.03844,-0.05729 -0.08174,-0.109699 -0.129965,-0.157911 -0.04821,-0.0489 -0.101316,-0.09225 -0.157911,-0.12996 -0.0566,-0.03776 -0.116685,-0.06984 -0.18027,-0.09642 -0.06357,-0.02588 -0.128562,-0.04608 -0.195642,-0.0594 -0.06705,-0.01326 -0.134852,-0.02027 -0.203327,-0.02027 -0.06849,0 -0.136251,0.0068 -0.203326,0.02027 -0.06705,0.01325 -0.13276,0.03353 -0.195643,0.0594 -0.06357,0.02656 -0.123675,0.0587 -0.18027,0.09642 -0.05729,0.03775 -0.109699,0.08105 -0.157911,0.12996 -0.0489,0.04821 -0.09151,0.100621 -0.129963,0.157911 -0.03775,0.0566 -0.06984,0.116687 -0.09642,0.180268 -0.02588,0.06289 -0.04608,0.128565 -0.0594,0.195643 -0.01327,0.06705 -0.01959,0.134853 -0.01959,0.203326 0,0.06849 0.0061,0.136253 0.01959,0.203329 0.01325,0.06706 0.03353,0.132058 0.0594,0.195642 0.02656,0.06289 0.05872,0.122975 0.09642,0.180271 0.03844,0.0566 0.08106,0.109699 0.129963,0.15791 0.04821,0.04821 0.100622,0.09154 0.157911,0.129964 0.0566,0.03775 0.116686,0.06985 0.18027,0.09642 0.06289,0.02588 0.128564,0.04541 0.195643,0.05871 0.06706,0.01399 0.134852,0.02027 0.203326,0.02027 0.06849,0 0.136252,-0.0061 0.203327,-0.02027 0.06706,-0.01326 0.132058,-0.03284 0.195642,-0.05871 0.06357,-0.02656 0.123675,-0.05869 0.18027,-0.09642 0.0566,-0.03844 0.1097,-0.08174 0.157911,-0.129964 0.04821,-0.04821 0.09153,-0.101313 0.129965,-0.15791 0.03773,-0.05729 0.06984,-0.117387 0.09642,-0.180271 0.02588,-0.06357 0.04541,-0.128562 0.0594,-0.195642 0.01325,-0.06705 0.01958,-0.134852 0.01958,-0.203329 z m 10.427002,0 c 0,0.102013 -0.0048,0.204729 -0.01467,0.306741 -0.01042,0.10201 -0.02514,0.202628 -0.04541,0.303246 -0.01957,0.100619 -0.04473,0.199833 -0.07408,0.297654 -0.03005,0.09853 -0.06425,0.194943 -0.104107,0.289269 -0.03913,0.09431 -0.08244,0.187256 -0.13066,0.277394 -0.04821,0.09081 -0.101316,0.178172 -0.15791,0.263418 -0.05729,0.08521 -0.118083,0.167692 -0.183065,0.246645 -0.065,0.07894 -0.133457,0.155116 -0.206123,0.227086 -0.07266,0.07266 -0.148128,0.141143 -0.227783,0.206121 -0.07893,0.06569 -0.160705,0.126469 -0.245949,0.183066 -0.08521,0.05729 -0.173283,0.109699 -0.263417,0.157912 -0.09081,0.04821 -0.183064,0.09225 -0.277391,0.131358 -0.09505,0.03912 -0.191451,0.07335 -0.289271,0.103411 -0.09784,0.02935 -0.197037,0.05449 -0.297655,0.07477 -0.100619,0.01956 -0.20193,0.03496 -0.303943,0.04473 -0.102011,0.01054 -0.204027,0.01535 -0.306739,0.01535 -0.102012,0 -0.204724,-0.0048 -0.306038,-0.01535 -0.10201,-0.0095 -0.203329,-0.02514 -0.303944,-0.04473 -0.10062,-0.02027 -0.199833,-0.04541 -0.297655,-0.07477 -0.09853,-0.03005 -0.194244,-0.06426 -0.289271,-0.103411 -0.09431,-0.03913 -0.187256,-0.08316 -0.27739,-0.131358 -0.09014,-0.04821 -0.178176,-0.100621 -0.263418,-0.157912 -0.08521,-0.0566 -0.166994,-0.117384 -0.246648,-0.183066 -0.07892,-0.065 -0.155116,-0.133455 -0.227085,-0.206121 -0.07266,-0.07197 -0.141142,-0.14813 -0.206122,-0.227086 -0.065,-0.07893 -0.126468,-0.161402 -0.183066,-0.246645 -0.0573,-0.08522 -0.109696,-0.172586 -0.15791,-0.263418 -0.04821,-0.09014 -0.09225,-0.183066 -0.131359,-0.277394 -0.03913,-0.09431 -0.07335,-0.190751 -0.103412,-0.289269 -0.02936,-0.09784 -0.05449,-0.197038 -0.07477,-0.297654 -0.01959,-0.100622 -0.03496,-0.201233 -0.04473,-0.303246 -0.0095,-0.102009 -0.01535,-0.204724 -0.01535,-0.306741 0,-0.102703 0.0055,-0.204722 0.01535,-0.306735 0.0095,-0.10201 0.02513,-0.203329 0.04473,-0.303943 0.02027,-0.09991 0.04541,-0.199135 0.07477,-0.297656 0.03005,-0.09784 0.06426,-0.194245 0.103412,-0.288571 0.03913,-0.09505 0.08317,-0.187258 0.131359,-0.278092 0.04821,-0.09014 0.10061,-0.178169 0.15791,-0.262716 0.0566,-0.08521 0.118084,-0.167692 0.183066,-0.246647 0.065,-0.07968 0.133453,-0.155116 0.206122,-0.227785 0.07197,-0.07266 0.148128,-0.141141 0.227085,-0.206124 0.07968,-0.065 0.161404,-0.125767 0.246648,-0.183065 0.08521,-0.0566 0.173281,-0.108998 0.263418,-0.157211 0.09014,-0.0489 0.183063,-0.09225 0.27739,-0.131361 0.09505,-0.03913 0.190751,-0.07408 0.289271,-0.10341 0.09784,-0.03005 0.197039,-0.05449 0.297655,-0.07477 0.10061,-0.02027 0.20193,-0.03496 0.303944,-0.04541 0.101316,-0.0095 0.204025,-0.01467 0.306038,-0.01467 0.102716,0 0.204725,0.0048 0.306739,0.01467 0.10201,0.01056 0.203328,0.02514 0.303943,0.04541 0.100621,0.02027 0.199834,0.04473 0.297655,0.07477 0.09784,0.02936 0.194244,0.06427 0.289271,0.10341 0.0943,0.03913 0.186556,0.08244 0.277391,0.131361 0.09014,0.04821 0.178173,0.100621 0.263417,0.157211 0.08522,0.0573 0.166996,0.118087 0.245949,0.183065 0.07965,0.065 0.155118,0.133457 0.227783,0.206124 0.07266,0.07266 0.141142,0.148127 0.206123,0.227785 0.065,0.07894 0.12577,0.161404 0.183065,0.246647 0.0566,0.08453 0.109697,0.172581 0.15791,0.262716 0.04821,0.09081 0.09153,0.183067 0.13066,0.278092 0.03981,0.09431 0.07408,0.19075 0.104107,0.288571 0.02936,0.09853 0.05449,0.197739 0.07408,0.297656 0.02027,0.100619 0.03496,0.201932 0.04541,0.303943 0.0095,0.102012 0.01467,0.204026 0.01467,0.306735 z m -2.084982,0 c 0,-0.06849 -0.0068,-0.136249 -0.02028,-0.203326 -0.01326,-0.06706 -0.03284,-0.132755 -0.0594,-0.195643 -0.02588,-0.06357 -0.05798,-0.123671 -0.09642,-0.180268 -0.03775,-0.05729 -0.08106,-0.109699 -0.129264,-0.157911 -0.0489,-0.0489 -0.101314,-0.09225 -0.158608,-0.12996 -0.0566,-0.03776 -0.116687,-0.06984 -0.180269,-0.09642 -0.06289,-0.02588 -0.127866,-0.04608 -0.194943,-0.0594 -0.06779,-0.01326 -0.135552,-0.02027 -0.204028,-0.02027 -0.06849,0 -0.136251,0.0068 -0.203327,0.02027 -0.06705,0.01325 -0.132058,0.03353 -0.195642,0.0594 -0.06289,0.02656 -0.122975,0.0587 -0.18027,0.09642 -0.0566,0.03775 -0.109698,0.08105 -0.15791,0.12996 -0.04821,0.04821 -0.09151,0.100621 -0.129264,0.157911 -0.03844,0.0566 -0.07058,0.116687 -0.09642,0.180268 -0.02656,0.06289 -0.04609,0.128565 -0.0594,0.195643 -0.01326,0.06705 -0.02027,0.134853 -0.02027,0.203326 0,0.06849 0.0068,0.136253 0.02027,0.203329 0.01324,0.06706 0.03284,0.132058 0.0594,0.195642 0.02588,0.06289 0.05797,0.122975 0.09642,0.180271 0.03775,0.0566 0.08106,0.109699 0.129264,0.15791 0.04821,0.04821 0.101315,0.09154 0.15791,0.129964 0.0573,0.03775 0.117386,0.06985 0.18027,0.09642 0.06357,0.02588 0.128565,0.04541 0.195642,0.05871 0.06705,0.01399 0.134854,0.02027 0.203327,0.02027 0.06849,0 0.13625,-0.0061 0.204028,-0.02027 0.06705,-0.01326 0.132057,-0.03284 0.194943,-0.05871 0.06357,-0.02656 0.123673,-0.05869 0.180269,-0.09642 0.05729,-0.03844 0.1097,-0.08174 0.158608,-0.129964 0.04821,-0.04821 0.09153,-0.101313 0.129264,-0.15791 0.03844,-0.05729 0.07056,-0.117387 0.09642,-0.180271 0.02656,-0.06357 0.04608,-0.128562 0.0594,-0.195642 0.01324,-0.06705 0.02028,-0.134852 0.02028,-0.203329 z"
       fill-opacity="1"
       fill-rule="nonzero"
       id="path1152"
       style="fill:#f9f9f9;stroke-width:0.178871"
       sodipodi:nodetypes="ccsccccccsscscsscccsccscccccccccccccccscccsccsssccsccssscccccccccscscscscscccsccsscccccccscccccccssccscscscccccccccccccccsccccccsccccccccssccccscssscccccsssccccccscccscccssccccccsccccccccsccccscccsccsccsssccccccccccccscscscccccscccccccsssccscccsscccccsssccscccsccccccss"
       inkscape:export-filename="/home/debian/Documents/GitHub/core/frontend-main/src/assets/path1152.png"
       inkscape:export-xdpi="121.6"
       inkscape:export-ydpi="121.6" />
    <path
       style="fill:#f9f9f9;stroke-width:0.154463"
       d="M 14.796104,20.400143 C 14.0618,18.775867 14.020166,17.666266 14.046113,16.437196 14.072053,15.17132 13.671417,14.166107 12.421229,13.791413 7.7390627,12.390378 5.3177307,12.681808 1,9.531 c 0,0 0,2.598724 2.9269581,4.1874 2.1039586,1.135545 5.9269249,1.630316 7.4944869,1.953119 0.874888,0.187645 1.052279,0.812742 1.244755,1.577814 0.432016,1.69789 0.927383,2.791803 2.129904,3.15081"
       id="path33289" />
    <path
       style="fill:#fabb05;fill-opacity:1;stroke-width:0.15446"
       d="m 12.560475,19.468143 c -1.015423,-0.156276 -3.1874523,-0.171965 -3.1874523,-0.171965 1.2906063,0.618793 4.4648713,2.053835 3.1874523,0.171965 z"
       id="path33287" />
    <path
       style="fill:#fabb05;fill-opacity:1;stroke-width:0.154463"
       d="M 12.520184,18.90016 C 12.551543,18.062076 11.676669,17.895546 10.8229,17.838226 10.312446,17.806876 9.80139,17.775466 9.5153899,17.754946 8.3170935,17.671666 7.103712,17.49972 7.103712,17.49972 c 0,0 0.1514465,0.74999 1.4740378,1.04142 1.3177652,0.291427 3.9424342,0.359004 3.9424342,0.359004 z"
       id="path33285" />
    <path
       style="fill:#fabb05;fill-opacity:1;stroke-width:0.154463"
       d="m 11.968099,17.426727 c 0,0 0.06758,-1.005216 -0.932209,-1.135548 C 10.036101,16.160853 8.3382121,15.95812 6.5467993,15.577392 4.7547847,15.197268 4.3282006,15.010219 4.3282006,15.010219 c 0,0 0.025944,1.067366 2.4943403,1.645397 2.4635693,0.573204 5.1455581,0.771111 5.1455581,0.771111 z"
       id="path1156" />
  </g>
</svg>
