<?xml version="1.0" encoding="UTF-8" standalone="no"?>
<!-- Created with Inkscape (http://www.inkscape.org/) -->

<svg
   version="1.1"
   id="svg2"
   width="1000"
   height="1000"
   viewBox="0 0 1000 1000"
   sodipodi:docname="icon.svg"
   inkscape:version="1.1.2 (0a00cf5339, 2022-02-04)"
   inkscape:export-filename="/home/debian/Documents/GitHub/core/frontend-main/src/assets/icon.png"
   inkscape:export-xdpi="121.6"
   inkscape:export-ydpi="121.6"
   xmlns:inkscape="http://www.inkscape.org/namespaces/inkscape"
   xmlns:sodipodi="http://sodipodi.sourceforge.net/DTD/sodipodi-0.dtd"
   xmlns="http://www.w3.org/2000/svg"
   xmlns:svg="http://www.w3.org/2000/svg">
  <defs
     id="defs6" />
  <sodipodi:namedview
     id="namedview4"
     pagecolor="#ffffff"
     bordercolor="#666666"
     borderopacity="1.0"
     inkscape:pageshadow="2"
     inkscape:pageopacity="0.0"
     inkscape:pagecheckerboard="0"
     showgrid="false"
     inkscape:zoom="0.28726213"
     inkscape:cx="-50.476546"
     inkscape:cy="838.955"
     inkscape:window-width="1920"
     inkscape:window-height="1048"
     inkscape:window-x="0"
     inkscape:window-y="1080"
     inkscape:window-maximized="1"
     inkscape:current-layer="svg2" />
  <g
     inkscape:groupmode="layer"
     inkscape:label="Image"
     id="g8" />
  <path
     style="fill:#ff7c1f;fill-opacity:1;stroke-width:1.10164"
     d="m 321.05564,997.97898 c -2.09744,-1.0937 -25.62571,-15.8743 -52.28535,-32.8423 -46.61593,-29.6694 -96.15657,-60.5297 -141.54754,-88.1731 -19.01112,-11.5784 -21.77395,-13.6288 -24.13701,-17.9128 -4.411751,-7.9966 -4.220291,-15.8208 1.39996,-57.3756 6.28961,-46.5058 15.66413,-122.8925 22.14894,-180.4837 2.75179,-24.437 6.22898,-53.9339 7.72644,-65.5477 1.49787,-11.6147 4.48029,-36.2367 6.62668,-54.7174 2.1464,-18.4796 6.85563,-58.3864 10.46511,-88.68156 3.60948,-30.29516 8.8035,-74.66386 11.54258,-98.59713 2.7393,-23.93305 5.48797,-45.35138 6.10858,-47.59632 1.44162,-5.21235 5.74316,-10.32011 10.92197,-12.9617 3.85739,-1.9687 36.58602,-7.39354 106.92147,-17.7097 13.02691,-1.91452 23.84181,-3.62198 24.03305,-3.80301 0.18749,-0.16666 0.79789,-11.01156 1.34788,-24.06868 1.78328,-42.36647 5.10943,-62.12027 15.43288,-91.68149 10.23075,-29.298535 30.94618,-60.730535 51.92141,-78.783545 10.23324,-8.80766 27.06338,-19.83338 37.9566,-24.86636 C 436.78207,3.3323451 467.25847,-1.6958349 488.27932,0.52222508 513.17817,3.1519351 539.76569,14.216195 555.06929,28.322875 l 4.765,4.39362 13.1046,0.4729 c 38.2014,1.30621 74.9958,22.38518 97.2505,55.71567 8.0923,12.119235 17.3797,30.954105 21.4748,43.549985 3.422,10.52553 11.1691,43.7104 12.2649,52.53785 l 0.7791,6.26752 5.6653,1.25205 c 3.1155,0.70831 25.7422,5.39359 50.2812,10.4549 90.8038,18.7355 86.5271,17.67116 92.3671,22.9835 4.8126,4.37779 5.8999,8.14852 6.8488,23.75369 0.4958,8.22246 1.9416,24.86469 3.2022,36.98309 1.2625,12.11777 4.0299,38.88782 6.1517,59.48806 2.122,20.60106 6.059,58.77308 8.7497,84.82667 2.6904,26.0536 6.9052,66.9524 9.366,90.8855 2.4614,23.9333 5.9494,57.1473 7.7525,73.8097 3.4724,32.0943 10.583,100.8033 17.0443,164.6952 2.1447,21.2073 4.6503,44.6616 5.569,52.1221 2.3251,18.894 2.3166,26.4269 -0.042,31.0763 -2.6714,5.2753 -5.91,8.6296 -10.719,11.0958 -5.5653,2.858 -79.7904,21.8047 -346.6212,88.4966 -125.02448,31.2495 -229.14874,56.8164 -231.38722,56.8164 -2.23847,0 -5.78566,-0.8979 -7.8831,-1.9916 z m 114.06231,-69.5067 c 199.13374,-49.1017 436.41684,-108.6164 437.74644,-109.7945 0.2208,-0.1667 -0.8937,-13.1444 -2.4699,-28.7817 -1.575,-15.6366 -4.1243,-42.0642 -5.6628,-58.726 -1.5395,-16.6624 -4.2457,-42.4412 -6.0142,-57.2856 -1.7687,-14.8446 -4.7211,-42.3579 -6.5611,-61.1407 -1.8395,-18.783 -5.5975,-56.7071 -8.351,-84.2755 -2.7534,-27.5694 -6.725,-68.2192 -8.8251,-90.3353 -2.1008,-22.11493 -5.578,-56.81726 -7.7267,-77.11417 -2.1487,-20.29795 -5.1423,-49.27585 -6.6525,-64.39583 -1.5104,-15.11914 -2.9534,-27.69836 -3.2086,-27.95273 -0.2521,-0.23541 -12.5053,1.85828 -27.2245,4.69278 -14.7189,2.8345 -29.2404,5.60609 -32.2701,6.16524 -3.0297,0.55207 -31.2866,5.96837 -62.7933,12.02236 -31.507,6.05503 -75.3799,14.4902 -97.4953,18.73966 -22.1154,4.25196 -85.69358,16.53577 -141.28488,27.30317 l -101.07476,19.57651 -6.3e-4,295.58911 c -8.3e-4,280.9941 0.10417,295.5614 1.92703,295.0268 1.06039,-0.3146 36.13374,-8.9974 77.94106,-19.3065 z m 148.74234,-169.8005 c -25.8184,-2.9449 -53.163,-14.361 -73.86431,-30.8339 -14.43813,-11.4886 -29.65477,-29.7926 -37.26684,-44.8284 -6.91792,-13.6651 -0.4479,-30.3796 13.36503,-34.518 9.52285,-2.8503 18.53196,2.9605 26.96672,17.3933 13.02066,22.2835 37.107,40.1098 63.0671,46.6742 11.9478,3.0235 35.0077,3.5589 47.3707,1.1021 30.6841,-6.0865 60.3324,-25.0466 80.0069,-51.1569 7.5754,-10.0532 11.4694,-17.3678 16.8334,-31.6218 4.1322,-10.9784 6.6913,-14.4618 13.0044,-17.6994 8.8217,-4.5276 20.7717,-1.2042 25.5864,7.102 5.9721,10.3054 5.0321,16.0554 -6.5148,39.8289 -12.1161,24.9457 -25.2214,42.5987 -42.3155,56.9998 -32.7294,27.574 -65.0308,40.7359 -103.2365,42.0665 -7.8154,0.2354 -18.167,0.042 -23.0027,-0.4729 z m -77.3013,-173.4303 c -3.12053,-1.5833 -7.91227,-5.2755 -10.64823,-8.1992 -24.75199,-26.4613 -17.56345,-81.7322 12.4663,-95.849 4.93694,-2.3229 7.69186,-2.8504 14.87228,-2.8504 7.69725,-8e-4 9.55495,0.3938 14.67245,3.2441 10.1077,5.5982 16.0573,14.4925 20.192,30.1841 2.8967,10.9949 3.1557,28.7394 0.5666,38.7272 -4.0661,15.6727 -13.5977,28.915 -24.5793,34.1478 -3.6093,1.7249 -8.02079,2.6928 -13.60375,3.0078 -7.26292,0.3937 -8.94891,0.083 -13.93626,-2.4172 z m 138.8497,-35.7377 c -5.7604,-3.5116 -8.561,-8.5256 -9.0497,-16.2002 -0.6146,-9.6926 4.0503,-18.9751 15.2235,-30.2764 13.0615,-13.2107 27.8861,-20.7119 48.7561,-24.6709 29.9016,-5.669 58.6749,4.6927 67.689,24.3811 6.3124,13.7886 0.5188,28.4561 -12.8263,32.4534 -6.4998,1.9458 -11.1213,0.4729 -18.1659,-5.6533 -9.8862,-8.6517 -11.6094,-9.2966 -24.8778,-9.3139 -10.878,-0.014 -12.0399,0.2354 -18.9013,3.5826 -5.7149,2.8109 -9.2691,5.7479 -16.2789,13.4225 -5.3722,5.8817 -10.853,10.7357 -13.6696,12.0997 -5.9092,2.858 -13.3778,2.9367 -17.8991,0.1666 z m -375.68426,336.236 c -37.87348,-73.8578 -42.82146,-83.359 -43.44707,-83.4363 -0.89164,-0.083 -66.01141,42.7664 -65.97245,43.4375 0.0175,0.3145 15.0106,9.6099 33.31757,20.6819 18.30697,11.073 47.16592,28.726 64.13126,39.2288 16.96534,10.5037 31.02347,18.9482 31.24034,18.7655 0.22082,-0.1666 -8.45434,-17.5868 -19.26965,-38.6774 z m 42.56064,-262.9065 V 350.35225 l -17.78865,-7.96435 c -10.75115,-4.8109 -18.06323,-7.51957 -18.4828,-6.84251 -0.3854,0.62915 -1.57079,16.88784 -2.64159,36.15645 -1.82495,32.84717 -8.32496,145.21474 -10.59615,183.20424 -0.55832,9.391 -3.60864,63.2319 -6.77084,119.6453 l -5.75004,102.5709 15.67433,30.7275 c 15.6885,30.7566 45.56159,87.4558 46.07991,87.4606 0.14583,6e-4 0.27499,-122.6138 0.27499,-272.4788 z m -131.26972,169.7532 c 18.22946,-11.6634 33.9513,-21.7071 34.93752,-22.3181 1.99369,-1.2354 1.99369,-1.2354 8.19122,-112.3574 1.85828,-33.325 5.3338,-94.7966 7.72269,-136.6039 7.48478,-130.99224 11.26676,-201.16833 10.85802,-201.46977 -0.22083,-0.16667 -8.32601,-3.7951 -18.02052,-8.08081 l -17.62615,-7.78727 -0.77081,5.11797 c -0.42499,2.81096 -2.78971,22.71517 -5.25902,44.22476 -2.46909,21.50958 -7.93081,68.10905 -12.13714,103.55362 -11.31905,95.3808 -22.49456,191.8559 -28.13856,242.9125 -3.96988,35.91 -9.4566,82.848 -12.97483,110.9897 -0.20833,1.6687 -0.27499,3.0314 -0.14583,3.0314 0.125,0 15.14019,-9.5429 33.36966,-21.2065 z m 203.42699,-485.86692 36.35436,-6.88167 0.29999,-21.86228 0.29999,-21.86249 -2.50222,0.62915 c -1.37704,0.31457 -25.80216,4.64549 -54.27946,9.57764 -80.45391,13.92313 -94.49787,16.43577 -95.06765,17.00575 -0.29166,0.31457 0.72498,1.0083 2.2566,1.59162 1.53329,0.55207 13.62336,5.76358 26.86776,11.51779 40.70673,17.67824 42.52168,18.37655 46.11345,17.75532 1.8187,-0.31458 19.66422,-3.66906 39.65885,-7.45645 z m 131.34555,-24.52137 c 66.0797,-11.93986 139.0095,-25.60863 143.5846,-26.91171 l 3.9267,-1.11872 -0.3708,-6.88959 c -1.2083,-22.6758 -1.6999,-27.27004 -2.9243,-27.27004 -5.8565,0 -173.86034,25.97153 -189.36197,29.27394 l -3.0297,0.62915 v 20.29316 c 0,12.47526 0.41665,20.29315 1.07705,20.29315 0.59165,0 21.78478,-3.74009 47.0953,-8.31559 z m 210.5455,-39.05636 c 10.5108,-1.8187 19.4341,-3.33053 19.8297,-3.36199 0.3937,-0.0417 -7.4604,-1.78744 -17.4579,-3.89759 -9.9974,-2.11015 -19.6183,-4.14155 -21.38,-4.51945 -2.9588,-0.62915 -3.1495,-0.4729 -2.4936,1.96869 0.3937,1.45621 0.7166,5.00777 0.7249,7.88415 0.011,2.87387 0.3854,5.22818 0.8417,5.22818 0.4562,-8.4e-4 9.4258,-1.48746 19.9365,-3.30699 z M 386.11021,218.45276 c 14.83623,-2.66909 29.27748,-5.19652 32.09156,-5.61401 4.58174,-0.70831 5.18652,-1.10205 5.78338,-4.09425 0.37082,-1.83537 0.66873,-5.929 0.66873,-9.10536 0,-11.06176 9.75055,-53.6424 15.82912,-69.12632 9.16327,-23.34099 24.41116,-45.974295 41.84961,-62.119445 7.38646,-6.83439 20.81336,-15.83642 23.63161,-15.83642 0.72498,0 1.31246,-0.4729 1.31246,-0.98539 0,-0.54998 -4.08967,-2.14952 -9.08849,-3.56677 -11.94756,-3.40156 -35.87666,-3.66927 -47.09529,-0.55206 -11.30821,3.17324 -30.57328,13.07378 -38.1691,19.61838 -30.12579,25.95821 -47.98298,63.368165 -53.23032,111.514885 -1.76245,16.16724 -2.76451,44.69474 -1.57079,44.69474 0.55832,0 13.15274,-2.18889 27.98898,-4.85819 z m 98.03089,-13.35711 c 5.75567,-0.95206 24.09826,-4.18092 40.76069,-7.17292 16.6622,-2.99991 33.3934,-5.99983 37.1802,-6.67689 l 6.8856,-1.22913 v -5.67713 c 0,-11.25467 -2.2983,-41.10026 -3.9116,-50.80789 -2.1259,-12.78546 -7.4518,-29.17874 -13.1775,-40.563405 -4.2653,-8.47934 -4.7228,-8.98953 -7.7668,-8.65725 -4.3282,0.4729 -18.64429,7.70852 -25.99928,13.14378 -7.95373,5.873795 -18.81508,16.960765 -23.37016,23.852025 -11.79632,17.8451 -19.94712,41.58691 -24.33346,70.87981 -2.28576,15.26559 -2.2543,15.87433 0.78957,15.1933 1.36246,-0.31457 7.18791,-1.33121 12.94441,-2.28347 z m 149.59589,-23.68431 c 25.0492,-3.06283 23.6587,-2.57472 22.8068,-8.0856 -4.2217,-27.33379 -21.9133,-63.22483 -37.9166,-76.922975 -4.5509,-3.89739 -18.5424,-11.89653 -20.8036,-11.89653 -0.6145,0 0.575,4.74007 2.6456,10.52824 6.6935,18.726955 10.3111,41.110475 12.0538,74.574075 0.4104,7.87769 1.2041,14.04522 1.8041,14.04522 0.5917,0 9.3243,-1.0083 19.4092,-2.24389 z"
     id="path881" />
</svg>
