<?xml version="1.0" encoding="UTF-8" standalone="no"?>
<!-- Created with Inkscape (http://www.inkscape.org/) -->

<svg
   version="1.1"
   id="svg2"
   width="1000"
   height="1000"
   viewBox="0 0 1000 1000"
   sodipodi:docname="icon.svg"
   inkscape:version="1.1.2 (0a00cf5339, 2022-02-04)"
   inkscape:export-filename="/home/debian/Documents/GitHub/core/frontend-main/src/assets/logo.png"
   inkscape:export-xdpi="121.6"
   inkscape:export-ydpi="121.6"
   xmlns:inkscape="http://www.inkscape.org/namespaces/inkscape"
   xmlns:sodipodi="http://sodipodi.sourceforge.net/DTD/sodipodi-0.dtd"
   xmlns="http://www.w3.org/2000/svg"
   xmlns:svg="http://www.w3.org/2000/svg">
  <defs
     id="defs6" />
  <sodipodi:namedview
     id="namedview4"
     pagecolor="#ffffff"
     bordercolor="#666666"
     borderopacity="1.0"
     inkscape:pageshadow="2"
     inkscape:pageopacity="0.0"
     inkscape:pagecheckerboard="0"
     showgrid="false"
     inkscape:zoom="0.28726213"
     inkscape:cx="-67.882251"
     inkscape:cy="100.95309"
     inkscape:window-width="1920"
     inkscape:window-height="1048"
     inkscape:window-x="0"
     inkscape:window-y="0"
     inkscape:window-maximized="1"
     inkscape:current-layer="svg2" />
  <g
     inkscape:groupmode="layer"
     inkscape:label="Image"
     id="g8" />
  <g
     id="g1311">
    <path
       style="fill:#0866ff;fill-opacity:0.5;stroke:none;stroke-width:1.035"
       d="M 62.140604,0.66217822 C 0.3218937,9.5294018 0.0070837,85.21216 0.0070837,132.62779 v 429.29274 c 0,67.6213 -1.07387,133.22557 23.2224103,197.5781 42.07992,111.46094 142.086916,202.27446 259.485096,228.17685 70.88502,15.63042 144.27714,10.77885 216.43165,10.77885 61.65716,0 126.48313,5.62747 187.43614,-4.59293 40.5007,-6.78587 79.3238,-19.63368 115.9826,-38.07774 27.47338,-13.82006 54.14928,-32.58487 76.63128,-53.51155 58.944,-54.85643 101.0705,-126.9362 114.4914,-206.90884 9.19574,-54.73223 5.6334,-111.23335 5.6334,-166.54485 V 313.65484 118.14563 c 0,-35.269235 -2.33,-77.209582 -30.1244,-103.145073 -28.4571,-26.555111 -75.3058,-13.6028839 -101.3915,10.046488 -38.937,35.299238 -77.99828,70.481582 -117.01808,105.687725 -11.7433,10.59474 -23.7454,21.03845 -35.209,31.93214 -7.135,6.77558 -15.0881,16.3276 -23.8179,20.98052 -6.1616,3.28331 -18.3191,-2.60679 -24.8535,-3.83778 -20.649,-3.8895 -42.14718,-7.61969 -63.16902,-7.86899 -44.8604,-0.53273 -89.76222,0 -134.62262,0 -25.35969,0 -51.33564,-1.63855 -76.63123,0.0921 -19.79781,1.35513 -39.56352,4.22363 -59.02685,8.1876 -6.00624,1.22271 -18.50336,6.86351 -24.25692,4.64671 -6.31173,-2.43093 -12.28898,-10.37337 -17.16542,-14.90318 C 281.47813,160.15843 270.5447,150.74502 259.9323,140.99646 223.38433,107.42163 186.60957,73.688539 149.12753,41.162633 124.84678,20.092112 97.235684,-4.3672244 62.140604,0.6663637 Z"
       id="path971" />
    <path
       style="fill:#000080;stroke-width:1.08111"
       d="m 730.2028,187.76478 c -3.2829,-0.71153 -5.8186,-1.70631 -5.6349,-2.21061 0.24207,2.0031 7.5601,2.81444 5.6349,2.21061 z m -309.587,623.85646 c -15.8017,-2.89112 -30.7832,-9.22339 -42.9134,-18.13868 -12.4714,-9.16597 -27.0017,-29.94805 -28.218,-40.35938 -1.285,-10.99698 9.9831,-19.52614 21.8812,-16.56269 5.7989,1.44432 8.2325,3.83262 13.867,13.60871 12.9982,22.55253 36.7728,34.04579 60.9669,29.47293 13.2662,-2.50738 22.674,-7.1223 32.0053,-15.69996 14.0129,-12.88107 18.4825,-24.88359 18.4825,-49.63219 0,-11.92864 -0.1868,-13.12274 -2.1415,-13.69366 -4.362,-1.27408 -16.5491,-9.25735 -23.5679,-15.43833 -14.7854,-13.02068 -23.878,-26.3742 -23.878,-35.06735 0,-5.87409 1.1122,-8.30555 5.9524,-13.01267 5.5375,-5.38507 9.2128,-5.68746 64.4842,-5.30556 44.7641,0.3092 49.9401,0.51994 53.214,2.16689 8.0076,4.02826 12.6842,12.34375 11.0177,19.59055 -3.0389,13.21457 -24.2822,35.46085 -42.4089,44.41148 -6.0169,2.971 -6.3935,3.39229 -7.1424,7.98799 -1.1819,7.25269 0.5246,27.99732 2.8858,35.08097 6.5763,19.72895 26.2093,35.71014 47.799,38.90825 18.7846,2.78262 39.6565,-4.0475 52.0897,-17.0459 2.6057,-2.7241 6.8189,-8.85511 9.3625,-13.62445 5.4647,-10.24651 9.088,-12.90693 17.5698,-12.90095 10.183,0.0101 17.3231,6.50924 17.3311,15.78232 0.011,9.78382 -10.1511,25.70436 -24.2275,37.96611 -7.5334,6.56224 -11.8317,9.31532 -21.0725,13.49662 -16.3357,7.39175 -23.1616,8.85751 -40.9102,8.78462 -16.8357,-0.069 -27.246,-2.13633 -41.0349,-8.14836 -13.8607,-6.04332 -28.0411,-16.62287 -35.3856,-26.40025 l -1.9467,-2.59158 -4.7222,5.18436 c -13.9982,15.36867 -29.6483,24.60477 -50.0371,29.52971 -11.5824,2.79781 -29.0271,3.53041 -39.3023,1.65045 z M 288.6761,574.53676 c -33.9991,-4.13317 -57.3755,-35.34324 -49.4987,-66.08656 12.564,-49.03854 85.6778,-56.66504 109.791,-11.45222 10.8093,20.26758 7.156,44.28421 -9.2237,60.6369 -4.8283,4.82022 -15.5803,11.43813 -22.8538,14.06652 -4.0171,1.45168 -6.9601,1.9811 -18.5531,3.33772 -1.5496,0.18129 -5.8974,-0.0442 -9.6617,-0.50236 z m 435.6623,-0.12258 c -14.8742,-1.62533 -32.9151,-12.67291 -41.8451,-25.62439 -7.5476,-10.94672 -10.3068,-29.80025 -6.2164,-42.47584 7.2243,-22.38661 27.7316,-37.71387 52.5695,-39.29089 17.4605,-1.1087 33.67264,4.49658 45.81004,15.83855 22.7285,21.23861 22.5332,54.99498 -0.4401,76.08985 -13.3196,12.23038 -30.55644,17.57394 -49.87794,15.46272 z M 58.828303,350.30337 c 1.0969,-21.66174 4.8697,-64.26752 6.8276,-77.10286 4.9758,-32.61859 18.3673,-60.64665 40.806797,-85.40674 37.7464,-38.73254 82.58296,-53.45675 125.9862,-60.55141 21.14784,9.14274 48.3647,37.26186 71.449,56.03569 5.96702,4.2917 3.4189,3.26478 -2.254,4.96332 -54.26246,16.37916 -109.76779,42.38246 -153.19519,75.48977 -15.90901,12.32212 -37.66641,32.21736 -49.592006,45.34754 -10.204101,11.23477 -29.139401,37.10468 -34.971301,47.77846 -2.4716,4.52372 -4.7889,8.22493 -5.1496,8.22493 -0.3608,0 -0.3192,-6.6504 0.092,-14.7787 z"
       id="path1063"
       sodipodi:nodetypes="cccsscssssssssssssssssssccssssscsssccsssscsssscsscccccccssscc" />
  </g>
</svg>
