<?xml version="1.0" encoding="UTF-8" standalone="no"?>
<!-- Created with Inkscape (http://www.inkscape.org/) -->

<svg
   version="1.1"
   id="svg2"
   width="1000"
   height="1000"
   viewBox="0 0 1000 1000"
   sodipodi:docname="icon.svg"
   inkscape:version="1.1.2 (0a00cf5339, 2022-02-04)"
   inkscape:export-filename="/home/debian/Documents/GitHub/core/frontend-main/src/assets/icon.png"
   inkscape:export-xdpi="121.6"
   inkscape:export-ydpi="121.6"
   xmlns:inkscape="http://www.inkscape.org/namespaces/inkscape"
   xmlns:sodipodi="http://sodipodi.sourceforge.net/DTD/sodipodi-0.dtd"
   xmlns="http://www.w3.org/2000/svg"
   xmlns:svg="http://www.w3.org/2000/svg">
  <defs
     id="defs6" />
  <sodipodi:namedview
     id="namedview4"
     pagecolor="#ffffff"
     bordercolor="#666666"
     borderopacity="1.0"
     inkscape:pageshadow="2"
     inkscape:pageopacity="0.0"
     inkscape:pagecheckerboard="0"
     showgrid="false"
     inkscape:zoom="0.28726213"
     inkscape:cx="-788.47845"
     inkscape:cy="852.87956"
     inkscape:window-width="1920"
     inkscape:window-height="1048"
     inkscape:window-x="0"
     inkscape:window-y="0"
     inkscape:window-maximized="1"
     inkscape:current-layer="svg2" />
  <g
     inkscape:groupmode="layer"
     inkscape:label="Image"
     id="g8" />
  <path
     style="fill:#0866ff;fill-opacity:0.998655;stroke:none;stroke-width:1.03497"
     d="M 62.139417,0.69235697 C 0.32242666,9.558647 0.00671666,85.239347 0.00671666,132.65342 v 429.28076 c 0,67.6199 -1.05340996,133.2218 23.22430034,197.5702 42.07671,111.458 142.080593,202.2713 259.475713,228.1724 70.88358,15.62762 144.27533,10.7778 216.42405,10.7778 61.65568,0 126.48048,5.62712 187.43308,-4.5938 40.4993,-6.784 79.3183,-19.6339 115.9783,-38.076 27.4717,-13.8204 54.1463,-32.5853 76.6291,-53.508 58.9404,-54.8567 101.0667,-126.9348 114.4879,-206.9048 9.19554,-54.7314 5.6308,-111.2305 5.6308,-166.5392 V 313.67616 118.17357 c 0,-35.267753 -2.3262,-77.208273 -30.1212,-103.143493 -28.4576,-26.55229 -75.3019,-13.60246 -101.3906,10.04884 -38.9345,35.29754 -77.9963,70.47644 -117.0119,105.681733 -11.7447,10.59434 -23.7467,21.04043 -35.2076,31.93474 -7.1366,6.77368 -15.0864,16.32377 -23.8179,20.97873 -6.1618,3.2805 -18.32,-2.60846 -24.8552,-3.84035 -20.6452,-3.88766 -42.1431,-7.61869 -63.1661,-7.86784 -44.8565,-0.54044 -89.7569,0 -134.61827,0 -25.35722,0 -51.33243,-1.64239 -76.62721,0.061 -19.79678,1.34498 -39.56411,4.22429 -59.02458,8.18645 -6.0053,1.22286 -18.50278,6.86543 -24.25741,4.64764 -6.30987,-2.43199 -12.28923,-10.37143 -17.16556,-14.90227 -10.55432,-9.80474 -21.48955,-19.21986 -32.10067,-28.96613 C 223.37988,107.41658 186.60409,73.686637 149.1248,41.162017 124.84295,20.093207 97.233747,-4.367713 62.139417,0.66647697 Z"
     id="path971" />
  <path
     style="fill:#000080;stroke:#000080;stroke-width:20.8324;stroke-miterlimit:4;stroke-dasharray:none;stroke-opacity:1"
     d="m 420.60331,811.62698 c -15.80072,-2.8923 -30.78147,-9.2244 -42.91163,-18.1379 -12.47014,-9.1661 -27.00052,-29.9485 -28.2159,-40.3586 -1.28547,-10.9974 9.98197,-19.5264 21.88024,-16.5628 5.79904,1.4335 8.23241,3.8319 13.86596,13.6114 12.99838,22.5497 36.77045,34.0423 60.96542,29.4704 13.26586,-2.509 22.67227,-7.1225 32.00281,-15.6995 14.01346,-12.8822 18.48416,-24.8842 18.48416,-49.6326 0,-11.9268 -0.13739,-13.1216 -2.14375,-13.6921 -4.35955,-1.2763 -16.5465,-9.2577 -23.56445,-15.4371 -14.78441,-13.0213 -23.87848,-26.375 -23.87848,-35.0681 0,-5.8735 1.10225,-8.305 5.9537,-13.0124 5.53829,-5.3842 9.21146,-5.6871 64.47977,-5.3053 44.7632,0.3084 49.9411,0.5236 53.2153,2.1671 8.0063,4.0286 12.681,12.3434 11.0151,19.5925 -3.0388,13.2126 -24.28,35.4569 -42.4068,44.4078 -6.0178,2.9701 -6.3935,3.3935 -7.1442,7.9901 -1.1648,7.25 0.5282,27.9956 2.8862,35.0769 6.578,19.7287 26.2085,35.7102 47.7977,38.9087 18.7859,2.7824 39.657,-4.0485 52.0909,-17.0471 2.6041,-2.72 6.8151,-8.853 9.3614,-13.62 5.4627,-10.2485 9.0851,-12.9098 17.5665,-12.901 10.1821,0.01 17.3225,6.5076 17.333,15.7814 0.01,9.7803 -10.1529,25.7024 -24.2275,37.9631 -7.5319,6.5627 -11.8306,9.3139 -21.071,13.4954 -16.337,7.3919 -23.1604,8.8607 -40.9111,8.7842 -16.8361,-0.046 -27.2439,-2.136 -41.0337,-8.1457 -13.8614,-6.0456 -28.0394,-16.6245 -35.3849,-26.3995 l -1.9495,-2.5931 -4.72049,5.1852 c -13.99817,15.3663 -29.65006,24.604 -50.03889,29.5304 -11.58055,2.7979 -29.02366,3.5269 -39.30135,1.6554 z M 288.67035,574.54908 c -33.99801,-4.1332 -57.37561,-35.3423 -49.49723,-66.08238 12.5619,-49.03922 85.67442,-56.66463 109.78557,-11.45446 10.81065,20.26945 7.15459,44.28444 -9.22398,60.63504 -4.82826,4.8215 -15.57815,11.4406 -22.84983,14.0668 -4.02018,1.4564 -6.96175,1.9819 -18.55498,3.3382 -1.55385,0.1374 -5.89784,-0.031 -9.65955,-0.5008 z m 435.64681,-0.092 c -14.8727,-1.636 -32.9151,-12.673 -41.8419,-25.6245 -7.5503,-10.945 -10.307,-29.79912 -6.2163,-42.47338 7.2221,-22.38722 27.7268,-37.71408 52.5649,-39.29113 17.4593,-1.09157 33.6721,4.49666 45.8107,15.84042 22.7278,21.23568 22.5339,54.99339 -0.4412,76.08569 -13.3181,12.2308 -30.5534,17.5728 -49.8759,15.463 z"
     id="path1063"
     sodipodi:nodetypes="sscssssssssssssssssssccssssscsssccsssscsssscsss" />
</svg>
