<?xml version="1.0" encoding="UTF-8" standalone="no"?>
<!-- Created with Inkscape (http://www.inkscape.org/) -->

<svg
   version="1.1"
   id="svg2"
   width="1000"
   height="1000"
   viewBox="0 0 1000 1000"
   sodipodi:docname="icon.svg"
   inkscape:version="1.1.2 (0a00cf5339, 2022-02-04)"
   inkscape:export-filename="/home/debian/Documents/GitHub/core/frontend-main/src/assets/icon.png"
   inkscape:export-xdpi="121.6"
   inkscape:export-ydpi="121.6"
   xmlns:inkscape="http://www.inkscape.org/namespaces/inkscape"
   xmlns:sodipodi="http://sodipodi.sourceforge.net/DTD/sodipodi-0.dtd"
   xmlns="http://www.w3.org/2000/svg"
   xmlns:svg="http://www.w3.org/2000/svg">
  <defs
     id="defs6" />
  <sodipodi:namedview
     id="namedview4"
     pagecolor="#ffffff"
     bordercolor="#666666"
     borderopacity="1.0"
     inkscape:pageshadow="2"
     inkscape:pageopacity="0.0"
     inkscape:pagecheckerboard="0"
     showgrid="false"
     inkscape:zoom="0.28726213"
     inkscape:cx="-50.476546"
     inkscape:cy="852.87956"
     inkscape:window-width="1920"
     inkscape:window-height="1048"
     inkscape:window-x="0"
     inkscape:window-y="0"
     inkscape:window-maximized="1"
     inkscape:current-layer="svg2" />
  <g
     inkscape:groupmode="layer"
     inkscape:label="Image"
     id="g8" />
  <path
     style="fill:#0866ff;fill-opacity:0.998655;stroke:none;stroke-width:1.03497"
     d="M 62.139417,0.69235697 C 0.32242666,9.558647 0.00671666,85.239347 0.00671666,132.65342 v 429.28076 c 0,67.6199 -1.05340996,133.2218 23.22430034,197.5702 42.07671,111.458 142.080593,202.2713 259.475713,228.1724 70.88358,15.62762 144.27533,10.7778 216.42405,10.7778 61.65568,0 126.48048,5.62712 187.43308,-4.5938 40.4993,-6.784 79.3183,-19.6339 115.9783,-38.076 27.4717,-13.8204 54.1463,-32.5853 76.6291,-53.508 58.9404,-54.8567 101.0667,-126.9348 114.4879,-206.9048 9.19554,-54.7314 5.6308,-111.2305 5.6308,-166.5392 V 313.67616 118.17357 c 0,-35.267753 -2.3262,-77.208273 -30.1212,-103.143493 -28.4576,-26.55229 -75.3019,-13.60246 -101.3906,10.04884 -38.9345,35.29754 -77.9963,70.47644 -117.0119,105.681733 -11.7447,10.59434 -23.7467,21.04043 -35.2076,31.93474 -7.1366,6.77368 -15.0864,16.32377 -23.8179,20.97873 -6.1618,3.2805 -18.32,-2.60846 -24.8552,-3.84035 -20.6452,-3.88766 -42.1431,-7.61869 -63.1661,-7.86784 -44.8565,-0.54044 -89.7569,0 -134.61827,0 -25.35722,0 -51.33243,-1.64239 -76.62721,0.061 -19.79678,1.34498 -39.56411,4.22429 -59.02458,8.18645 -6.0053,1.22286 -18.50278,6.86543 -24.25741,4.64764 -6.30987,-2.43199 -12.28923,-10.37143 -17.16556,-14.90227 -10.55432,-9.80474 -21.48955,-19.21986 -32.10067,-28.96613 C 223.37988,107.41658 186.60409,73.686637 149.1248,41.162017 124.84295,20.093207 97.233747,-4.367713 62.139417,0.66647697 Z"
     id="path971" />
</svg>
