<?xml version="1.0" encoding="UTF-8" standalone="no"?>
<!-- Created with Inkscape (http://www.inkscape.org/) -->

<svg
   version="1.1"
   id="svg2"
   width="1000"
   height="1000"
   viewBox="0 0 1000 1000"
   sodipodi:docname="icon.svg"
   inkscape:version="1.1.2 (0a00cf5339, 2022-02-04)"
   inkscape:export-filename="/home/debian/Documents/GitHub/core/frontend-main/src/assets/icon.png"
   inkscape:export-xdpi="121.6"
   inkscape:export-ydpi="121.6"
   xmlns:inkscape="http://www.inkscape.org/namespaces/inkscape"
   xmlns:sodipodi="http://sodipodi.sourceforge.net/DTD/sodipodi-0.dtd"
   xmlns="http://www.w3.org/2000/svg"
   xmlns:svg="http://www.w3.org/2000/svg">
  <defs
     id="defs6" />
  <sodipodi:namedview
     id="namedview4"
     pagecolor="#ffffff"
     bordercolor="#666666"
     borderopacity="1.0"
     inkscape:pageshadow="2"
     inkscape:pageopacity="0.0"
     inkscape:pagecheckerboard="0"
     showgrid="false"
     inkscape:zoom="0.28726213"
     inkscape:cx="-50.476546"
     inkscape:cy="838.955"
     inkscape:window-width="1920"
     inkscape:window-height="1048"
     inkscape:window-x="0"
     inkscape:window-y="0"
     inkscape:window-maximized="1"
     inkscape:current-layer="svg2" />
  <g
     inkscape:groupmode="layer"
     inkscape:label="Image"
     id="g8" />
  <path
     style="fill:#0866ff;fill-opacity:0.998655;stroke:#000000;stroke-width:20.4075;stroke-linecap:round;stroke-linejoin:round;stroke-miterlimit:4;stroke-dasharray:none;stroke-opacity:0;paint-order:fill markers stroke"
     d="m 928.92237,989.15837 c 60.5551,-8.6861 60.8635,-82.822 60.8635,-129.2685 V 439.37088 c 0,-66.23923 1.053,-130.5028 -22.7477,-193.54009 -41.22,-109.18303 -139.1829,-198.140551 -254.1819,-223.513461 -69.4363,-15.3109704 -141.3284,-10.55866 -212.00811,-10.55866 -60.39716,0 -123.89831,-5.5124904 -183.60549,4.49905 -39.67288,6.64714 -77.70255,19.23248 -113.61208,37.29969 -26.91205,13.53755 -53.04269,31.91883 -75.06529,52.417811 -57.739282,53.73531 -99.004772,124.34196 -112.151312,202.68021 -9.0078896,53.61349 -5.518,108.95998 -5.518,163.141 v 210.76614 191.5134 c 0,34.5483 2.28238,75.6316 29.50871,101.0369 27.87528,26.01253 73.766342,13.3249 99.318842,-9.8411 38.1413,-34.5777 76.40443,-69.041 114.62654,-103.5277 11.50333,-10.3783 23.26012,-20.6084 34.48957,-31.2795 6.98918,-6.6371 14.77976,-15.994 23.33114,-20.5518 6.03553,-3.2162 17.94456,2.5538 24.34539,3.7595 20.22714,3.8101 41.28589,7.4638 61.87813,7.7083 43.94357,0.5245 87.92755,0 131.87116,0 24.8415,0 50.2864,1.6061 75.065,-0.102 19.3933,-1.3265 38.755,-4.1375 57.8205,-8.0204 5.8835,-1.1979 18.1252,-6.7235 23.7612,-4.5515 6.1828,2.3812 12.0378,10.1615 16.8146,14.5988 10.3407,9.605 21.0508,18.8259 31.4462,28.3752 35.8011,32.8886 71.8243,65.9323 108.5402,97.7936 23.7845,20.6398 50.8313,44.5993 85.2092,39.6686 z"
     id="path971" />
</svg>
