<?xml version="1.0" encoding="UTF-8" standalone="no"?>
<!-- Created with Inkscape (http://www.inkscape.org/) -->

<svg
   width="87"
   height="30"
   viewBox="0 0 87 30"
   version="1.1"
   id="SVGRoot"
   sodipodi:docname="logo-white.svg"
   inkscape:version="1.1.2 (0a00cf5339, 2022-02-04)"
   inkscape:export-filename="/home/debian/Documents/GitHub/core/frontend-main/src/assets/logo-white.png"
   inkscape:export-xdpi="121.6"
   inkscape:export-ydpi="121.6"
   xmlns:inkscape="http://www.inkscape.org/namespaces/inkscape"
   xmlns:sodipodi="http://sodipodi.sourceforge.net/DTD/sodipodi-0.dtd"
   xmlns="http://www.w3.org/2000/svg"
   xmlns:svg="http://www.w3.org/2000/svg">
  <sodipodi:namedview
     id="namedview137"
     pagecolor="#ffffff"
     bordercolor="#000000"
     borderopacity="0.25"
     inkscape:showpageshadow="2"
     inkscape:pageopacity="0.0"
     inkscape:pagecheckerboard="0"
     inkscape:deskcolor="#d1d1d1"
     inkscape:document-units="px"
     showgrid="false"
     inkscape:zoom="8.0000004"
     inkscape:cx="39.749998"
     inkscape:cy="12.812499"
     inkscape:window-width="1837"
     inkscape:window-height="817"
     inkscape:window-x="1961"
     inkscape:window-y="231"
     inkscape:window-maximized="0"
     inkscape:current-layer="layer1"
     inkscape:pageshadow="2"
     showguides="false"
     inkscape:lockguides="false"
     width="90px"
     height="30px" />
  <defs
     id="defs132">
    <rect
       x="11.236365"
       y="7.2846913"
       width="69.72084"
       height="10.069939"
       id="rect3" />
    <rect
       x="12.94258"
       y="23.094154"
       width="88.413605"
       height="18.186064"
       id="rect1" />
    <rect
       x="-1.4777668"
       y="42.333267"
       width="127.8846"
       height="23.821753"
       id="rect3454" />
    <clipPath
       id="b983e3c625">
      <path
         d="m 142,147.30078 h 115 v 72.75 H 142 Z m 0,0"
         clip-rule="nonzero"
         id="path1144" />
    </clipPath>
    <clipPath
       id="0e8c13dd3a">
      <path
         d="m 70.261719,116.35938 h 89.156251 v 70.49999 H 70.261719 Z m 0,0"
         clip-rule="nonzero"
         id="path1147" />
    </clipPath>
    <clipPath
       id="b983e3c625-3">
      <path
         d="m 142,147.30078 h 115 v 72.75 H 142 Z m 0,0"
         clip-rule="nonzero"
         id="path1144-6" />
    </clipPath>
    <clipPath
       id="0e8c13dd3a-7">
      <path
         d="m 70.261719,116.35938 h 89.156251 v 70.49999 H 70.261719 Z m 0,0"
         clip-rule="nonzero"
         id="path1147-5" />
    </clipPath>
    <clipPath
       id="b983e3c625-3-1">
      <path
         d="m 142,147.30078 h 115 v 72.75 H 142 Z m 0,0"
         clip-rule="nonzero"
         id="path1144-6-2" />
    </clipPath>
    <clipPath
       id="b983e3c625-3-3">
      <path
         d="m 142,147.30078 h 115 v 72.75 H 142 Z m 0,0"
         clip-rule="nonzero"
         id="path1144-6-6" />
    </clipPath>
  </defs>
  <g
     inkscape:label="Layer 1"
     inkscape:groupmode="layer"
     id="layer1"
     style="display:inline">
    <g
       aria-label="adamarket"
       transform="scale(1.0110325,0.98908789)"
       id="text2-3-3"
       style="font-style:italic;font-weight:600;font-size:18.463px;line-height:0;font-family:'IBM Plex Sans';-inkscape-font-specification:'IBM Plex Sans Semi-Bold Italic';letter-spacing:-0.79127px;word-spacing:0px;display:inline;fill:#ff2e4d;stroke:#000000;stroke-width:0;stroke-linecap:round;stroke-linejoin:round;paint-order:stroke markers fill">
      <path
         d="m 3.3085551,21.473022 q -0.9556045,0 -1.7038608,-0.324545 Q 0.86545311,20.823932 0.43272656,20.183857 1.3969839e-8,19.534767 1.3969839e-8,18.579163 q 0,-0.820378 0.306514636030161,-1.352271 0.30651464,-0.540908 0.82939255,-0.856438 0.531893,-0.324545 1.2080283,-0.486817 0.6851503,-0.171288 1.4153764,-0.243409 0.8834834,-0.09917 1.4063613,-0.171287 0.5228779,-0.08114 0.7572714,-0.234394 0.2343936,-0.153257 0.2343936,-0.477802 v -0.06311 q 0,-0.432727 -0.2073482,-0.748256 -0.2073481,-0.324545 -0.594999,-0.504848 -0.3876508,-0.180303 -0.9465893,-0.180303 -0.5589384,0 -0.9826499,0.180303 -0.4146962,0.180303 -0.66712,0.486817 -0.2524239,0.306515 -0.3065147,0.694166 L 0.27045411,14.522351 Q 0.37863574,13.584777 0.91052879,12.908642 1.451437,12.232507 2.3529506,11.862886 3.2544643,11.48425 4.4444623,11.48425 q 0.8834833,0 1.6137094,0.216364 0.730226,0.207348 1.2621191,0.622044 0.531893,0.414696 0.8203774,1.027726 0.2884843,0.613029 0.2884843,1.415376 v 6.544989 H 6.1933987 v -1.35227 H 6.1393079 Q 5.9229446,20.38219 5.553324,20.73378 5.1837034,21.076356 4.6337801,21.274689 4.0838568,21.473022 3.3085551,21.473022 Z m 0.5679536,-1.694846 q 0.7392411,0 1.2440888,-0.270454 0.5138628,-0.279469 0.7753017,-0.730226 0.2704541,-0.459772 0.2704541,-1.009696 v -1.072801 q -0.1081816,0.08114 -0.33356,0.144242 -0.2163633,0.06311 -0.5138628,0.126212 -0.2974995,0.05409 -0.6310596,0.108182 -0.3245449,0.05409 -0.6490898,0.09917 -0.4958325,0.07212 -0.9105288,0.234394 -0.4056811,0.153257 -0.6581049,0.432727 -0.2434087,0.279469 -0.2434087,0.72121 0,0.378636 0.2073481,0.658105 0.2073482,0.270455 0.5769688,0.414697 0.3696206,0.144242 0.8654531,0.144242 z"
         style="font-style:normal;font-family:'Inter 28pt';-inkscape-font-specification:'Inter 28pt Semi-Bold';stroke:none;stroke-linecap:square;stroke-linejoin:miter"
         id="path12278" />
      <path
         d="m 13.443631,21.500067 q -1.235074,0 -2.163633,-0.622044 Q 10.351439,20.255978 9.8285609,19.129086 9.305683,18.002194 9.305683,16.487651 q 0,-1.514543 0.5228779,-2.63242 0.5318931,-1.126892 1.4604521,-1.748936 0.937574,-0.622045 2.136587,-0.622045 0.685151,0 1.226059,0.198333 0.549923,0.198333 0.955604,0.558939 0.414697,0.360605 0.685151,0.847423 h 0.03606 V 7.8781958 h 2.29886 V 21.310749 h -2.262799 v -1.487497 h -0.04508 q -0.270454,0.513862 -0.68515,0.892498 -0.414697,0.369621 -0.96462,0.576969 -0.549923,0.207348 -1.226058,0.207348 z m 0.558938,-1.902194 q 0.748256,0 1.289165,-0.387651 0.549923,-0.387651 0.847422,-1.081816 0.2975,-0.703181 0.2975,-1.640755 0,-0.946589 -0.2975,-1.640755 -0.297499,-0.694165 -0.847422,-1.072801 -0.540909,-0.387651 -1.289165,-0.387651 -0.721211,0 -1.253104,0.369621 -0.531893,0.36962 -0.829392,1.063786 -0.288485,0.68515 -0.288485,1.6678 0,0.973635 0.288485,1.6678 0.297499,0.694166 0.829392,1.072802 0.531893,0.36962 1.253104,0.36962 z"
         style="font-style:normal;font-family:'Inter 28pt';-inkscape-font-specification:'Inter 28pt Semi-Bold';stroke:none;stroke-linecap:square;stroke-linejoin:miter"
         id="path12280" />
      <path
         d="m 22.839466,21.473022 q -0.955605,0 -1.703861,-0.324545 -0.739241,-0.324545 -1.171968,-0.96462 -0.432726,-0.64909 -0.432726,-1.604694 0,-0.820378 0.306514,-1.352271 0.306515,-0.540908 0.829393,-0.856438 0.531893,-0.324545 1.208028,-0.486817 0.68515,-0.171288 1.415376,-0.243409 0.883484,-0.09917 1.406362,-0.171287 0.522878,-0.08114 0.757271,-0.234394 0.234394,-0.153257 0.234394,-0.477802 v -0.06311 q 0,-0.432727 -0.207348,-0.748256 -0.207349,-0.324545 -0.594999,-0.504848 -0.387651,-0.180303 -0.94659,-0.180303 -0.558938,0 -0.98265,0.180303 -0.414696,0.180303 -0.66712,0.486817 -0.252424,0.306515 -0.306514,0.694166 l -2.181663,-0.09917 q 0.108181,-0.937574 0.640074,-1.613709 0.540908,-0.676135 1.442422,-1.045756 0.901514,-0.378636 2.091512,-0.378636 0.883483,0 1.613709,0.216364 0.730226,0.207348 1.262119,0.622044 0.531893,0.414696 0.820378,1.027726 0.288484,0.613029 0.288484,1.415376 v 6.544989 h -2.235754 v -1.35227 h -0.05409 q -0.216363,0.423711 -0.585983,0.775301 -0.369621,0.342576 -0.919544,0.540909 -0.549924,0.198333 -1.325225,0.198333 z m 0.567953,-1.694846 q 0.739241,0 1.244089,-0.270454 0.513863,-0.279469 0.775302,-0.730226 0.270454,-0.459772 0.270454,-1.009696 v -1.072801 q -0.108182,0.08114 -0.33356,0.144242 -0.216364,0.06311 -0.513863,0.126212 -0.2975,0.05409 -0.63106,0.108182 -0.324544,0.05409 -0.649089,0.09917 -0.495833,0.07212 -0.910529,0.234394 -0.405681,0.153257 -0.658105,0.432727 -0.243409,0.279469 -0.243409,0.72121 0,0.378636 0.207348,0.658105 0.207348,0.270455 0.576969,0.414697 0.369621,0.144242 0.865453,0.144242 z"
         style="font-style:normal;font-family:'Inter 28pt';-inkscape-font-specification:'Inter 28pt Semi-Bold';stroke:none;stroke-linecap:square;stroke-linejoin:miter"
         id="path12282" />
      <path
         d="m 29.278334,21.310749 v -9.646196 h 2.208709 l 0.01803,2.154618 h -0.171288 q 0.252424,-0.784317 0.703181,-1.29818 0.459772,-0.522878 1.063786,-0.775302 0.604014,-0.261439 1.262119,-0.261439 1.099847,0 1.866133,0.640075 0.766287,0.640075 0.96462,1.721891 H 36.90514 q 0.198333,-0.730226 0.658105,-1.253104 0.468787,-0.531893 1.126892,-0.820377 0.66712,-0.288485 1.451437,-0.288485 0.901513,0 1.622724,0.396666 0.730226,0.387651 1.144922,1.153938 0.423712,0.757271 0.423712,1.875148 v 6.400747 h -2.289845 v -6.067187 q 0,-0.937574 -0.522878,-1.3703 -0.513862,-0.441742 -1.235073,-0.441742 -0.576969,0 -0.991665,0.243409 -0.414697,0.243408 -0.64909,0.676135 -0.225379,0.432726 -0.225379,1.009695 v 5.94999 h -2.226738 v -6.166353 q 0,-0.784317 -0.486818,-1.244089 -0.477802,-0.468787 -1.235073,-0.468787 -0.513863,0 -0.94659,0.243409 -0.432726,0.234393 -0.694165,0.70318 -0.252424,0.459772 -0.252424,1.135907 v 5.796733 z"
         style="font-style:normal;font-family:'Inter 28pt';-inkscape-font-specification:'Inter 28pt Semi-Bold';stroke:none;stroke-linecap:square;stroke-linejoin:miter"
         id="path12284" />
      <path
         d="m 47.554077,21.473022 q -0.955605,0 -1.703861,-0.324545 -0.739241,-0.324545 -1.171968,-0.96462 -0.432726,-0.64909 -0.432726,-1.604694 0,-0.820378 0.306514,-1.352271 0.306515,-0.540908 0.829393,-0.856438 0.531893,-0.324545 1.208028,-0.486817 0.68515,-0.171288 1.415376,-0.243409 0.883484,-0.09917 1.406362,-0.171287 0.522878,-0.08114 0.757271,-0.234394 0.234394,-0.153257 0.234394,-0.477802 v -0.06311 q 0,-0.432727 -0.207348,-0.748256 -0.207349,-0.324545 -0.594999,-0.504848 -0.387651,-0.180303 -0.94659,-0.180303 -0.558938,0 -0.98265,0.180303 -0.414696,0.180303 -0.66712,0.486817 -0.252424,0.306515 -0.306514,0.694166 l -2.181663,-0.09917 q 0.108181,-0.937574 0.640074,-1.613709 0.540909,-0.676135 1.442422,-1.045756 0.901514,-0.378636 2.091512,-0.378636 0.883483,0 1.613709,0.216364 0.730226,0.207348 1.262119,0.622044 0.531893,0.414696 0.820378,1.027726 0.288484,0.613029 0.288484,1.415376 v 6.544989 H 50.43892 v -1.35227 h -0.05409 q -0.216363,0.423711 -0.585983,0.775301 -0.369621,0.342576 -0.919544,0.540909 -0.549924,0.198333 -1.325225,0.198333 z m 0.567953,-1.694846 q 0.739241,0 1.244089,-0.270454 0.513863,-0.279469 0.775302,-0.730226 0.270454,-0.459772 0.270454,-1.009696 v -1.072801 q -0.108182,0.08114 -0.33356,0.144242 -0.216363,0.06311 -0.513863,0.126212 -0.297499,0.05409 -0.63106,0.108182 -0.324544,0.05409 -0.649089,0.09917 -0.495833,0.07212 -0.910529,0.234394 -0.405681,0.153257 -0.658105,0.432727 -0.243409,0.279469 -0.243409,0.72121 0,0.378636 0.207348,0.658105 0.207349,0.270455 0.576969,0.414697 0.369621,0.144242 0.865453,0.144242 z"
         style="font-style:normal;font-family:'Inter 28pt';-inkscape-font-specification:'Inter 28pt Semi-Bold';stroke:none;stroke-linecap:square;stroke-linejoin:miter"
         id="path12286" />
      <path
         d="m 53.992947,21.310749 v -9.646196 h 2.217724 v 1.604694 h 0.04508 q 0.261439,-0.829392 0.847423,-1.262119 0.585984,-0.441741 1.505528,-0.441741 0.216363,0 0.414696,0.01803 0.207348,0.009 0.342575,0.02704 v 2.046436 q -0.126211,-0.02704 -0.441741,-0.05409 -0.306515,-0.02705 -0.63106,-0.02705 -0.567953,0 -1.027725,0.252424 -0.450757,0.252424 -0.712196,0.748256 -0.261439,0.495833 -0.261439,1.226059 v 5.508248 z"
         style="font-style:normal;font-family:'Inter 28pt';-inkscape-font-specification:'Inter 28pt Semi-Bold';stroke:none;stroke-linecap:square;stroke-linejoin:miter"
         id="path12288" />
      <path
         d="m 62.072573,18.290678 v -2.722571 h 0.252424 l 3.687191,-3.903554 h 2.740601 l -4.426432,4.759992 h -0.459772 z m -2.100527,3.020071 V 7.8781958 h 2.29886 V 21.310749 Z m 6.274535,0 -3.29954,-4.381356 1.541589,-1.604695 4.498553,5.986051 z"
         style="font-style:normal;font-family:'Inter 28pt';-inkscape-font-specification:'Inter 28pt Semi-Bold';stroke:none;stroke-linecap:square;stroke-linejoin:miter"
         id="path12290" />
      <path
         d="m 73.064087,21.527112 q -1.442422,0 -2.506208,-0.640074 -1.054771,-0.640075 -1.63174,-1.766967 -0.567953,-1.135907 -0.567953,-2.605375 0,-1.478482 0.585983,-2.614389 0.585984,-1.135907 1.622725,-1.784997 1.036741,-0.64909 2.389011,-0.64909 1.009695,0 1.839088,0.35159 0.838408,0.342576 1.451437,1.000681 0.613029,0.649089 0.946589,1.568633 0.342575,0.919544 0.342575,2.064467 v 0.640074 H 69.31379 v -1.568634 h 7.067867 l -1.027726,0.432727 q 0,-0.820377 -0.288484,-1.415376 -0.279469,-0.604015 -0.811362,-0.928559 -0.531893,-0.33356 -1.271134,-0.33356 -0.730226,0 -1.26212,0.33356 -0.531893,0.33356 -0.820377,0.928559 -0.288484,0.585983 -0.288484,1.379315 v 1.009696 q 0,0.847423 0.297499,1.478482 0.2975,0.63106 0.856438,0.973635 0.558939,0.342575 1.343256,0.342575 0.558938,0 0.991665,-0.162272 0.441741,-0.171288 0.739241,-0.477803 0.297499,-0.306514 0.432726,-0.712195 l 2.136588,0.09917 q -0.198333,0.901514 -0.802348,1.595679 -0.604014,0.685151 -1.514542,1.072801 -0.910529,0.387651 -2.028406,0.387651 z"
         style="font-style:normal;font-family:'Inter 28pt';-inkscape-font-specification:'Inter 28pt Semi-Bold';stroke:none;stroke-linecap:square;stroke-linejoin:miter"
         id="path12292" />
      <path
         d="m 83.325371,11.664553 v 1.830073 H 77.483563 V 11.664553 Z M 79.088257,9.1132695 h 2.29886 v 9.4478625 q 0,0.513863 0.207348,0.721211 0.216363,0.207349 0.766286,0.207349 0.207348,0 0.486818,-0.009 0.279469,-0.009 0.459772,-0.009 l 0.08114,1.821058 q -0.270454,0.02704 -0.658105,0.03606 -0.387651,0.009 -0.757272,0.009 -1.460452,0 -2.172647,-0.613029 -0.712196,-0.622044 -0.712196,-1.866133 z"
         style="font-style:normal;font-family:'Inter 28pt';-inkscape-font-specification:'Inter 28pt Semi-Bold';stroke:none;stroke-linecap:square;stroke-linejoin:miter"
         id="path12294" />
    </g>
  </g>
  <g
     inkscape:groupmode="layer"
     id="layer2"
     inkscape:label="Layer 2"
     style="display:inline" />
  <g
     inkscape:groupmode="layer"
     id="layer3"
     inkscape:label="Layer 3"
     style="display:inline" />
  <g
     inkscape:groupmode="layer"
     id="layer4"
     inkscape:label="limit"
     style="display:none">
    <rect
       style="display:inline;opacity:0.557195;fill:#ff5e00;fill-opacity:1;stroke:#0069f5;stroke-width:0;stroke-linecap:round;stroke-linejoin:round;paint-order:stroke fill markers"
       id="rect1592-1"
       width="15"
       height="14.999998"
       x="1.8808064e-06"
       y="14.999999" />
    <rect
       style="display:inline;opacity:0.557195;fill:#ff0000;stroke:#0069f5;stroke-width:0;stroke-linecap:round;stroke-linejoin:round;paint-order:stroke fill markers"
       id="rect1592"
       width="120"
       height="14.999998"
       x="1.8808064e-06"
       y="6.7562792e-07" />
  </g>
</svg>
