<?xml version="1.0" encoding="UTF-8" standalone="no"?>
<!-- Created with Inkscape (http://www.inkscape.org/) -->

<svg
   width="120"
   height="50"
   viewBox="0 0 120 50"
   version="1.1"
   id="SVGRoot"
   sodipodi:docname="logo-white.svg"
   inkscape:version="1.1.2 (0a00cf5339, 2022-02-04)"
   inkscape:export-filename="/home/debian/Documents/GitHub/core/frontend-main/src/assets/logo-white.png"
   inkscape:export-xdpi="121.6"
   inkscape:export-ydpi="121.6"
   xmlns:inkscape="http://www.inkscape.org/namespaces/inkscape"
   xmlns:sodipodi="http://sodipodi.sourceforge.net/DTD/sodipodi-0.dtd"
   xmlns="http://www.w3.org/2000/svg"
   xmlns:svg="http://www.w3.org/2000/svg">
  <sodipodi:namedview
     id="namedview137"
     pagecolor="#ffffff"
     bordercolor="#000000"
     borderopacity="0.25"
     inkscape:showpageshadow="2"
     inkscape:pageopacity="0.0"
     inkscape:pagecheckerboard="0"
     inkscape:deskcolor="#d1d1d1"
     inkscape:document-units="px"
     showgrid="false"
     inkscape:zoom="8"
     inkscape:cx="58"
     inkscape:cy="16.5"
     inkscape:window-width="1920"
     inkscape:window-height="1048"
     inkscape:window-x="0"
     inkscape:window-y="0"
     inkscape:window-maximized="1"
     inkscape:current-layer="layer1"
     inkscape:pageshadow="2"
     showguides="false"
     inkscape:lockguides="false" />
  <defs
     id="defs132">
    <rect
       x="11.236365"
       y="7.2846913"
       width="69.72084"
       height="10.069939"
       id="rect3" />
    <rect
       x="12.94258"
       y="23.094154"
       width="88.413605"
       height="18.186064"
       id="rect1" />
    <rect
       x="-1.4777668"
       y="42.333267"
       width="127.8846"
       height="23.821753"
       id="rect3454" />
    <clipPath
       id="b983e3c625">
      <path
         d="m 142,147.30078 h 115 v 72.75 H 142 Z m 0,0"
         clip-rule="nonzero"
         id="path1144" />
    </clipPath>
    <clipPath
       id="0e8c13dd3a">
      <path
         d="m 70.261719,116.35938 h 89.156251 v 70.49999 H 70.261719 Z m 0,0"
         clip-rule="nonzero"
         id="path1147" />
    </clipPath>
    <clipPath
       id="b983e3c625-3">
      <path
         d="m 142,147.30078 h 115 v 72.75 H 142 Z m 0,0"
         clip-rule="nonzero"
         id="path1144-6" />
    </clipPath>
    <clipPath
       id="0e8c13dd3a-7">
      <path
         d="m 70.261719,116.35938 h 89.156251 v 70.49999 H 70.261719 Z m 0,0"
         clip-rule="nonzero"
         id="path1147-5" />
    </clipPath>
    <clipPath
       id="b983e3c625-3-1">
      <path
         d="m 142,147.30078 h 115 v 72.75 H 142 Z m 0,0"
         clip-rule="nonzero"
         id="path1144-6-2" />
    </clipPath>
    <clipPath
       id="b983e3c625-3-3">
      <path
         d="m 142,147.30078 h 115 v 72.75 H 142 Z m 0,0"
         clip-rule="nonzero"
         id="path1144-6-6" />
    </clipPath>
  </defs>
  <g
     inkscape:label="Layer 1"
     inkscape:groupmode="layer"
     id="layer1"
     style="display:inline">
    <text
       xml:space="preserve"
       style="font-style:normal;font-variant:normal;font-weight:normal;font-stretch:normal;font-size:19.795px;line-height:0;font-family:Manrope;-inkscape-font-specification:Manrope;letter-spacing:-0.742315px;fill:#000000;fill-opacity:1;stroke:none;stroke-width:0.2;stroke-linecap:round;stroke-linejoin:round;stroke-miterlimit:4;stroke-dasharray:none;stroke-opacity:1;paint-order:stroke markers fill"
       x="-0.78723419"
       y="32.039463"
       id="text2"
       inkscape:export-filename="/home/debian/Documents/GitHub/core/frontend-main/src/assets/logo-white.png"
       inkscape:export-xdpi="121.6"
       inkscape:export-ydpi="121.6"><tspan
         sodipodi:role="line"
         id="tspan2"
         x="-0.78723419"
         y="32.039463"
         style="font-style:normal;font-variant:normal;font-weight:bold;font-stretch:normal;font-size:21.2766px;font-family:Manrope;-inkscape-font-specification:'Manrope Bold';word-spacing:0px;fill:#000000;fill-opacity:1;stroke:#000000;stroke-width:0.2;stroke-linecap:round;stroke-linejoin:round;stroke-miterlimit:4;stroke-dasharray:none;stroke-opacity:1;paint-order:stroke markers fill">blαckdαys</tspan></text>
    <g
       id="g11677"
       transform="matrix(-1.1228096,0,0,1.1228096,215.41915,-2.8039631)">
      <path
         style="display:inline;fill:#0866ff;fill-opacity:1;stroke:none;stroke-width:0.228024;stroke-opacity:1"
         d="m 81.239959,31.396886 c 1.0875,-2.39015 1.14916,-4.022948 1.11073,-5.831543 -0.0384,-1.862754 0.554905,-3.341948 2.406415,-3.893315 7.11073,-0.746879 12.17244,0.490927 17.615606,-2.737985 0,0 -0.95809,2.335306 -4.700346,3.635676 -3.9716,1.218105 -9.33847,1.455449 -11.66,1.930458 -1.29568,0.27613 -1.333,1.134422 -1.61806,2.260241 -0.6398,2.498473 -1.37343,4.108184 -3.154345,4.636468"
         id="path33289-7"
         sodipodi:nodetypes="cccccccc" />
      <path
         style="display:inline;fill:#0866ff;fill-opacity:1;stroke:none;stroke-width:0.26242;stroke-opacity:1"
         d="m 84.825314,30.025429 c 1.99183,-0.22996 6.25241,-0.253046 6.25241,-0.253046 -2.53161,0.910559 -8.758165,3.022252 -6.25241,0.253046 z"
         id="path33287-0" />
      <path
         style="display:inline;fill:#0866ff;fill-opacity:1;stroke:none;stroke-width:0.262428;stroke-opacity:1"
         d="m 84.904344,29.189635 c -0.0614,-1.233254 1.65462,-1.478304 3.32935,-1.562654 1.00128,-0.04617 2.00375,-0.09233 2.56478,-0.12253 2.35055,-0.12253 4.73069,-0.375567 4.73069,-0.375567 0,0 -0.29708,1.103624 -2.89144,1.532465 -2.58491,0.42884 -7.73338,0.528283 -7.73338,0.528283 z"
         id="path33285-9" />
      <path
         style="display:inline;fill:#0866ff;fill-opacity:1;stroke:none;stroke-width:0.262428;stroke-opacity:1"
         d="m 85.987304,27.021451 c 0,0 -0.13254,-1.479193 1.8286,-1.670972 1.96115,-0.19178 4.61677,-0.519007 8.13078,-1.079253 3.51516,-0.559359 4.935716,-1.599725 4.935716,-1.599725 0,0 0.0402,2.364672 -4.801696,3.215252 -4.83249,0.843477 -10.0934,1.134698 -10.0934,1.134698 z"
         id="path1156-3"
         sodipodi:nodetypes="cscccc" />
    </g>
  </g>
  <g
     inkscape:groupmode="layer"
     id="layer2"
     inkscape:label="Layer 2"
     style="display:inline" />
  <g
     inkscape:groupmode="layer"
     id="layer3"
     inkscape:label="Layer 3"
     style="display:inline" />
  <g
     inkscape:groupmode="layer"
     id="layer4"
     inkscape:label="limit"
     style="display:none">
    <rect
       style="display:inline;opacity:0.557195;fill:#ff5e00;fill-opacity:1;stroke:#0069f5;stroke-width:0;stroke-linecap:round;stroke-linejoin:round;paint-order:stroke fill markers"
       id="rect1592-1"
       width="15"
       height="14.999998"
       x="1.8808064e-06"
       y="14.999999" />
    <rect
       style="display:inline;opacity:0.557195;fill:#ff0000;stroke:#0069f5;stroke-width:0;stroke-linecap:round;stroke-linejoin:round;paint-order:stroke fill markers"
       id="rect1592"
       width="120"
       height="14.999998"
       x="1.8808064e-06"
       y="6.7562792e-07" />
  </g>
</svg>
