<?xml version="1.0" encoding="UTF-8" standalone="no"?>
<!-- Created with Inkscape (http://www.inkscape.org/) -->

<svg
   width="130"
   height="48"
   viewBox="0 0 34.395819 12.7"
   version="1.1"
   id="svg5"
   inkscape:version="1.1.2 (0a00cf5339, 2022-02-04)"
   sodipodi:docname="logo.svg"
   xmlns:inkscape="http://www.inkscape.org/namespaces/inkscape"
   xmlns:sodipodi="http://sodipodi.sourceforge.net/DTD/sodipodi-0.dtd"
   xmlns="http://www.w3.org/2000/svg"
   xmlns:svg="http://www.w3.org/2000/svg">
  <sodipodi:namedview
     id="namedview7"
     pagecolor="#ffffff"
     bordercolor="#666666"
     borderopacity="1.0"
     inkscape:pageshadow="2"
     inkscape:pageopacity="0.0"
     inkscape:pagecheckerboard="0"
     inkscape:document-units="mm"
     showgrid="false"
     units="px"
     height="48px"
     inkscape:zoom="4.192802"
     inkscape:cx="63.799817"
     inkscape:cy="16.695279"
     inkscape:window-width="1708"
     inkscape:window-height="822"
     inkscape:window-x="110"
     inkscape:window-y="172"
     inkscape:window-maximized="0"
     inkscape:current-layer="layer1" />
  <defs
     id="defs2" />
  <g
     inkscape:label="Layer 1"
     inkscape:groupmode="layer"
     id="layer1">
    <path
       style="fill:#ffc94d;fill-opacity:1;stroke-width:0.0137319"
       d="M 24.452033,10.193989 C 24.394562,9.709739 24.272085,8.9307951 24.210067,8.6551026 24.027989,7.8457 23.711586,7.3340774 23.167598,6.9694345 23.030949,6.8778368 22.716531,6.7258169 22.531181,6.661729 22.236178,6.559726 21.785264,6.4611663 21.259429,6.3837516 L 21,6.3455556 l 0.293759,-0.04477 c 0.764223,-0.1164711 1.207341,-0.237934 1.622834,-0.4448338 0.464349,-0.2312281 0.779045,-0.5460276 1.010495,-1.010832 0.09104,-0.1828351 0.194185,-0.475817 0.261688,-0.7433554 0.06875,-0.2724799 0.182911,-0.9419651 0.24862,-1.4580049 0.01587,-0.1246168 0.03238,-0.2420246 0.0367,-0.2609056 0.0044,-0.019049 0.03084,0.1337463 0.05952,0.343297 0.09945,0.7267543 0.186146,1.2014089 0.274839,1.5047191 0.168671,0.5768193 0.326569,0.8694928 0.637124,1.180947 0.466505,0.4678582 1.158296,0.7322671 2.328156,0.8898435 0.0793,0.010682 0.138007,0.020066 0.130454,0.020862 -0.0076,8e-4 -0.165126,0.025874 -0.350164,0.05574 -0.741248,0.1196406 -1.078568,0.2116023 -1.462446,0.3986991 -0.375817,0.1831674 -0.592821,0.3613939 -0.836842,0.6873033 -0.304144,0.4062055 -0.468256,0.8693867 -0.617696,1.7433411 -0.03698,0.216241 -0.10503,0.699362 -0.132501,0.940635 -0.0095,0.08308 -0.02136,0.159278 -0.02643,0.169335 -0.0051,0.01006 -0.01681,-0.04556 -0.02607,-0.123587 z M 21.890991,9.887335 c -0.05246,-0.413975 -0.109352,-0.582644 -0.24688,-0.7318436 -0.11409,-0.1237719 -0.257558,-0.1921213 -0.485998,-0.23153 -0.08015,-0.013831 -0.132617,-0.028681 -0.122968,-0.034813 0.0093,-0.00587 0.03118,-0.010781 0.04873,-0.010906 0.05801,-3.837e-4 0.268833,-0.057831 0.352597,-0.09608 0.105702,-0.048269 0.176857,-0.1062181 0.250164,-0.2037339 0.108436,-0.1442444 0.161095,-0.311104 0.196965,-0.6241258 0.0093,-0.081333 0.01847,-0.1462161 0.02033,-0.1441849 0.0019,0.00204 0.01349,0.084025 0.02584,0.1822078 0.06684,0.5314172 0.221408,0.7463393 0.607821,0.8451675 0.05875,0.015025 0.139365,0.031144 0.179145,0.035819 0.03978,0.00469 0.07233,0.012625 0.07233,0.017662 0,0.00506 -0.04789,0.017038 -0.106422,0.026663 -0.148146,0.024362 -0.340386,0.090292 -0.423925,0.1453882 -0.07083,0.046712 -0.141411,0.1244287 -0.193661,0.2132277 -0.06806,0.115663 -0.110194,0.28317 -0.151997,0.604204 l -0.01162,0.08926 z m 5.219426,-5.3897682 c -0.0044,-0.01888 -0.01515,-0.096072 -0.02391,-0.1715341 -0.03361,-0.2895756 -0.113865,-0.4944354 -0.245125,-0.6256885 -0.114846,-0.11484 -0.252953,-0.172744 -0.557561,-0.2337644 l -0.08239,-0.016503 0.157917,-0.031308 c 0.08685,-0.017218 0.183074,-0.040404 0.213823,-0.051518 0.315224,-0.1139486 0.465686,-0.3488264 0.518482,-0.8093763 0.01018,-0.088778 0.02127,-0.1641873 0.02466,-0.167575 0.0034,-0.00337 0.01706,0.080424 0.03039,0.1862499 0.03899,0.3097221 0.103807,0.4770683 0.240142,0.6200009 0.114022,0.1195406 0.239327,0.1734608 0.55709,0.2397226 0.05067,0.010566 0.04483,0.013041 -0.111831,0.047345 -0.30564,0.06692 -0.453756,0.1709293 -0.563956,0.396017 -0.07048,0.1439528 -0.09347,0.2297981 -0.125053,0.4668843 -0.01508,0.1132035 -0.0278,0.1720145 -0.03268,0.1510508 z"
       id="path999" />
    <path
       style="fill:#000000;fill-opacity:0.03;stroke:#2563eb;stroke-width:0.0788786;stroke-miterlimit:4;stroke-dasharray:none;stroke-opacity:0"
       d="m 5.3138522,6.9797384 c -0.00159,-5.961e-4 -0.00697,-0.00375 -0.039667,-0.022611 -0.01457,-0.00841 -0.033222,-0.019158 -0.041454,-0.023895 -0.00823,-0.00473 -0.018462,-0.010653 -0.022743,-0.013118 -0.00426,-0.00248 -0.019436,-0.011178 -0.033683,-0.019336 -0.01425,-0.00815 -0.030442,-0.017468 -0.035985,-0.020724 -0.011768,-0.00689 -0.022156,-0.012815 -0.03656,-0.020833 -0.0057,-0.00317 -0.011093,-0.00644 -0.011971,-0.00728 -7.948e-4,-7.949e-4 -0.00225,-0.0028 -0.00302,-0.00439 l -0.00139,-0.0029 1.471e-4,-0.1275664 1.491e-4,-0.1275664 0.00213,-0.00322 c 0.00179,-0.0028 0.00295,-0.00369 0.00865,-0.00692 0.00358,-0.00203 0.011295,-0.0065 0.017151,-0.00989 0.013928,-0.0081 0.027033,-0.015719 0.034545,-0.020047 0.00332,-0.00199 0.00901,-0.00523 0.012662,-0.00733 0.00364,-0.00211 0.018801,-0.010923 0.03368,-0.019576 0.014891,-0.00865 0.031337,-0.018224 0.036561,-0.021298 0.00523,-0.00305 0.013389,-0.00778 0.018144,-0.010519 0.00475,-0.0027 0.013439,-0.00771 0.019297,-0.011093 0.00585,-0.00337 0.018164,-0.010468 0.027349,-0.015736 l 0.016698,-0.00957 h 0.00375 c 0.00375,0 0.00375,0 0.016124,0.00714 0.00681,0.00394 0.015347,0.00887 0.018997,0.011025 0.00364,0.00215 0.017884,0.010434 0.031667,0.018422 0.013777,0.00798 0.027764,0.016141 0.031091,0.018105 0.00332,0.00199 0.012528,0.00728 0.02044,0.011802 0.0079,0.00453 0.016462,0.00946 0.018998,0.010958 0.00493,0.0029 0.029175,0.016951 0.03253,0.01886 0.00119,5.962e-4 0.00708,0.00405 0.013237,0.00763 0.00617,0.00358 0.012038,0.00696 0.013051,0.00753 0.014942,0.00846 0.029523,0.017031 0.030545,0.017966 7.949e-4,5.96e-4 0.00199,0.00248 0.00273,0.00406 l 0.00139,0.0029 -6e-6,0.1266969 -6.1e-6,0.1266986 -0.00139,0.00289 c -0.00199,0.00406 -0.00415,0.00592 -0.013118,0.010873 -0.011093,0.00612 -0.023656,0.013272 -0.028396,0.016175 -0.00223,0.00139 -0.013608,0.00797 -0.025335,0.014705 -0.030072,0.01727 -0.062415,0.035908 -0.068515,0.039466 -0.00283,0.00159 -0.013338,0.00775 -0.023317,0.013541 -0.00998,0.00579 -0.020597,0.01192 -0.023607,0.013676 -0.003,0.00179 -0.010653,0.00614 -0.016992,0.00978 -0.00634,0.00364 -0.014622,0.00845 -0.018422,0.010688 -0.0066,0.0039 -0.00709,0.00408 -0.010923,0.00423 -0.00223,8.55e-5 -0.00458,-7.95e-5 -0.00525,-3.975e-4 z m -0.00369,-0.05513 V 6.895429 l -0.00787,-0.01327 c -0.00433,-0.00731 -0.00973,-0.016395 -0.011971,-0.020191 -0.00225,-0.0038 -0.00913,-0.015516 -0.015298,-0.026054 L 5.2638161,6.816776 h -0.050925 -0.050925 l -0.016428,0.00973 c -0.00904,0.00536 -0.019118,0.01121 -0.022374,0.013034 l -0.00592,0.00332 0.00564,0.00327 c 0.00776,0.00451 0.033922,0.019614 0.046811,0.027053 0.00585,0.00338 0.021792,0.012578 0.035409,0.020439 0.027195,0.015702 0.027452,0.015853 0.052681,0.030361 0.00966,0.00555 0.025204,0.014521 0.034547,0.019945 0.00934,0.00541 0.017171,0.00986 0.017409,0.00986 1.987e-4,5.9e-6 3.976e-4,-0.013119 3.976e-4,-0.029169 z m 0.028352,0.022482 c 0.023832,-0.013693 0.03488,-0.02008 0.041803,-0.024195 0.00392,-0.00233 0.0072,-0.00423 0.00736,-0.00423 1.35e-4,0 0.00119,-5.962e-4 0.00237,-0.00139 0.00119,-7.949e-4 0.012528,-0.00731 0.025178,-0.014604 0.023233,-0.013356 0.056134,-0.032375 0.063044,-0.036429 0.00206,-0.00119 0.00969,-0.00562 0.016992,-0.00981 0.019376,-0.011144 0.023317,-0.01349 0.023312,-0.013811 -2e-6,-1.59e-4 -0.00239,-0.00159 -0.00533,-0.00312 -0.00292,-0.00159 -0.00908,-0.00506 -0.013676,-0.00783 -0.00459,-0.00273 -0.012206,-0.00722 -0.01693,-0.00999 l -0.00858,-0.00498 -0.05072,9.8e-6 -0.050723,1.2e-5 -0.00326,0.0056 c -0.00179,0.00307 -0.00748,0.012865 -0.012613,0.021724 -0.00515,0.00886 -0.012731,0.021821 -0.016851,0.028788 -0.00411,0.00696 -0.00887,0.01501 -0.010552,0.017847 l -0.00305,0.00518 -5.9e-6,0.028932 c -4e-6,0.015922 1.213e-4,0.028931 1.987e-4,0.028931 1.55e-4,0 0.00553,-0.00302 0.011937,-0.00671 z m -0.011025,-0.097228 c 0.00483,-0.00823 0.011144,-0.01898 0.014064,-0.023893 l 0.0053,-0.00891 -0.028219,-1.491e-4 c -0.015516,-8.14e-5 -0.028323,-4.76e-5 -0.028446,7.56e-5 -1.253e-4,1.251e-4 0.00384,0.00731 0.00882,0.015972 0.00496,0.00867 0.011227,0.019594 0.013912,0.024293 0.00268,0.00469 0.00508,0.00833 0.00533,0.00807 1.987e-4,-1.986e-4 0.00441,-0.0072 0.00924,-0.015449 z M 5.1114937,6.8271905 c 0.00139,-9.937e-4 0.00459,-0.00278 0.00696,-0.00415 0.00236,-0.00139 0.00498,-0.0029 0.00582,-0.00337 7.949e-4,-3.976e-4 0.00692,-0.00395 0.013541,-0.00773 0.00662,-0.00379 0.013828,-0.0079 0.016023,-0.00922 l 0.00396,-0.00236 0.00862,-0.014689 c 0.016495,-0.028146 0.039577,-0.067982 0.039577,-0.068287 0,-1.032e-4 -0.00119,-0.00206 -0.0025,-0.00438 -0.003,-0.00501 -0.0129,-0.021707 -0.020914,-0.035286 -0.00317,-0.00539 -0.00793,-0.013422 -0.010569,-0.017847 -0.00262,-0.00443 -0.00506,-0.00858 -0.00541,-0.00922 -3.974e-4,-5.962e-4 -0.00252,-0.00441 -0.00485,-0.0084 l -0.00423,-0.00723 -0.014183,-0.00828 c -0.014453,-0.00843 -0.023553,-0.01376 -0.03103,-0.018164 l -0.00416,-0.00246 v 0.1113646 c 0,0.06125 1.708e-4,0.1113646 3.974e-4,0.1113646 1.987e-4,0 0.00159,-7.951e-4 0.00302,-0.00159 z M 5.5283912,6.7173731 V 6.605897 L 5.527,6.6068906 c -0.00336,0.00221 -0.032062,0.018918 -0.04114,0.023974 -0.00364,0.00203 -0.00671,0.00384 -0.00677,0.00401 -8.75e-5,1.848e-4 -0.00218,0.00382 -0.00464,0.00807 -0.00247,0.00425 -0.00936,0.016158 -0.015314,0.026447 -0.00596,0.010299 -0.011683,0.020136 -0.012714,0.021878 -0.00304,0.00513 -0.00981,0.016799 -0.01121,0.019297 -7.951e-4,0.00119 -0.00199,0.00345 -0.00273,0.00481 -0.00119,0.00179 -0.00139,0.00277 -7.95e-4,0.00347 3.974e-4,5.962e-4 0.00252,0.0043 0.00491,0.00843 0.027341,0.04724 0.041972,0.072159 0.042894,0.073051 5.962e-4,5.961e-4 0.00614,0.004 0.012308,0.00755 0.00616,0.00357 0.01675,0.00974 0.023562,0.013727 0.00682,0.004 0.012578,0.00728 0.012815,0.00729 1.986e-4,6e-6 3.974e-4,-0.050152 3.974e-4,-0.1114624 z m -0.278544,0.075058 c -5.962e-4,-9.936e-4 -0.00508,-0.00874 -0.00994,-0.017131 -0.00485,-0.0084 -0.011363,-0.019596 -0.01447,-0.024917 -0.00312,-0.0053 -0.00565,-0.00991 -0.00565,-0.010215 0,-0.00179 -0.00159,5.961e-4 -0.00805,0.011971 -0.00394,0.00689 -0.010147,0.017707 -0.013828,0.024039 -0.00369,0.00634 -0.00753,0.013001 -0.00857,0.014825 l -0.00179,0.00332 h 0.031757 0.031755 z m 0.1140272,-0.00503 c 0.00793,-0.013272 0.024134,-0.040943 0.032286,-0.055162 l 0.00835,-0.01457 -0.00722,-0.012206 c -0.00396,-0.00672 -0.00974,-0.016479 -0.012815,-0.021702 -0.00307,-0.00523 -0.00865,-0.014689 -0.012392,-0.021014 -0.00375,-0.00634 -0.00812,-0.013777 -0.00974,-0.016546 l -0.00292,-0.00503 -0.041454,-7.9e-6 -0.041455,-5.9e-6 -0.00159,0.00302 c -0.00159,0.003 -0.015837,0.027455 -0.033564,0.057988 l -0.00919,0.01582 9.938e-4,0.00179 c 0.00384,0.00676 0.015684,0.026962 0.024999,0.042626 0.0032,0.00539 0.00877,0.01479 0.012392,0.020875 l 0.0066,0.011093 0.041429,-1.469e-4 0.041432,-1.492e-4 0.00395,-0.00662 z m 0.085062,0.00649 c 0,-1.987e-4 -0.00267,-0.00501 -0.00591,-0.010586 -0.00324,-0.00559 -0.010181,-0.017688 -0.015398,-0.026886 -0.00523,-0.0092 -0.00964,-0.016732 -0.00979,-0.016732 -1.588e-4,-4e-6 -0.00337,0.00538 -0.00716,0.01192 -0.00379,0.00655 -0.00807,0.013997 -0.00956,0.016529 -0.00565,0.00969 -0.014689,0.025306 -0.014857,0.025741 -1.075e-4,1.987e-4 0.013946,3.974e-4 0.031233,3.974e-4 0.017289,0 0.031426,-1.945e-4 0.031423,-3.974e-4 z M 5.2352544,6.6686258 c 0.00858,-0.014825 0.015618,-0.027062 0.015618,-0.027204 0,-1.43e-4 -0.014385,-1.987e-4 -0.031956,-1.987e-4 -0.017568,0 -0.031954,1.094e-4 -0.031954,1.987e-4 0,1.332e-4 0.00159,0.00304 0.00369,0.00649 0.00203,0.00345 0.00512,0.00872 0.00684,0.0117 0.00317,0.0055 0.010924,0.018759 0.015955,0.027348 0.00139,0.00252 0.00332,0.0057 0.00405,0.00706 7.949e-4,0.00139 0.00159,0.00226 0.00179,0.00201 1.987e-4,-1.987e-4 0.00741,-0.012561 0.016023,-0.027383 z m 0.1855941,0.022482 c 0.00179,-0.00292 0.00582,-0.00999 0.00909,-0.015685 0.00327,-0.0057 0.00901,-0.015635 0.012764,-0.022101 0.00374,-0.00647 0.00682,-0.01182 0.00682,-0.011937 0,-1.152e-4 -0.014486,-1.987e-4 -0.032188,-1.987e-4 h -0.032191 l 0.00694,0.011937 c 0.00382,0.00659 0.00775,0.013373 0.00876,0.015112 9.937e-4,0.00179 0.0048,0.00823 0.0084,0.014385 0.0036,0.00617 0.00682,0.011802 0.00715,0.012528 3.975e-4,7.95e-4 7.949e-4,0.00139 9.936e-4,0.00139 1.989e-4,1.9e-6 0.00179,-0.00237 0.0035,-0.00533 z M 5.2643448,6.6171248 c 0.00139,-0.00226 0.020026,-0.033953 0.03624,-0.061854 l 0.00961,-0.016512 v -0.028828 c 0,-0.019957 -1.887e-4,-0.028827 -5.962e-4,-0.028827 -3.974e-4,0 -0.00337,0.00159 -0.00676,0.00367 -0.00337,0.00201 -0.00731,0.00428 -0.00875,0.00508 -0.00139,7.949e-4 -0.00649,0.00374 -0.011227,0.00652 -0.00766,0.00449 -0.023548,0.013693 -0.029075,0.016834 -0.00119,5.962e-4 -0.00575,0.00334 -0.010367,0.00604 -0.00459,0.00268 -0.012613,0.00736 -0.017847,0.010367 -0.00523,0.00302 -0.016495,0.00956 -0.025046,0.014554 -0.00855,0.00496 -0.024613,0.0143 -0.035696,0.020721 -0.017905,0.01035 -0.024586,0.01425 -0.041984,0.02441 -0.0025,0.00139 -0.00464,0.00292 -0.00475,0.00326 -1.073e-4,3.974e-4 0.00119,0.00139 0.00283,0.00215 0.00159,7.949e-4 0.00418,0.00225 0.00562,0.00307 0.028163,0.016546 0.034921,0.020562 0.03538,0.021004 3.974e-4,3.975e-4 0.021067,5.963e-4 0.050802,5.963e-4 h 0.050255 z m 0.082684,0.00179 c 0,-3.974e-4 -0.00179,-0.00357 -0.00865,-0.015246 -0.00704,-0.012055 -0.00936,-0.016074 -0.014368,-0.024759 -0.00265,-0.00459 -0.00513,-0.00872 -0.00553,-0.00911 -7.951e-4,-7.95e-4 -5.962e-4,-7.95e-4 -0.00763,0.01143 -0.00337,0.00597 -0.019335,0.033733 -0.02034,0.035362 -5.963e-4,9.936e-4 -9.937e-4,0.00199 -9.937e-4,0.00221 -1.8e-6,1.988e-4 0.012949,3.974e-4 0.028785,3.974e-4 0.015837,0 0.028785,-1.37e-4 0.028785,-3.974e-4 z m 0.1325168,-0.00364 c 0.0036,-0.00216 0.00795,-0.00473 0.00969,-0.0057 0.00179,-9.935e-4 0.0092,-0.00525 0.016581,-0.00952 l 0.013422,-0.00775 -0.013693,-0.0079 c -0.00753,-0.00436 -0.015128,-0.00876 -0.016851,-0.00979 -0.0028,-0.00159 -0.013879,-0.00805 -0.071417,-0.041183 -0.00808,-0.00464 -0.016462,-0.00954 -0.018581,-0.010823 -0.00213,-0.00139 -0.00396,-0.00236 -0.00411,-0.00236 -1.31e-4,0 -0.0037,-0.00203 -0.0079,-0.00451 -0.00421,-0.00248 -0.012055,-0.00706 -0.017448,-0.010147 -0.00539,-0.0031 -0.011869,-0.00687 -0.014386,-0.00838 -0.00956,-0.00564 -0.027871,-0.016124 -0.028178,-0.016124 -1.77e-4,0 -3.975e-4,0.013152 -3.975e-4,0.029219 l 6e-6,0.029219 0.00699,0.011802 c 0.00385,0.0065 0.00998,0.016851 0.013608,0.023032 0.00364,0.00617 0.00941,0.015905 0.012781,0.021593 0.00338,0.0057 0.00728,0.012309 0.00865,0.014689 0.00139,0.00236 0.0031,0.00528 0.00384,0.00649 l 0.00139,0.00216 h 0.049744 0.049744 l 0.00652,-0.00395 z"
       id="path1011" />
    <text
       xml:space="preserve"
       style="font-size:7.05556px;line-height:1.25;font-family:'Inter 28pt';-inkscape-font-specification:'Inter 28pt';letter-spacing:-0.079375px;fill:#000000;fill-opacity:1;stroke-width:0;stroke-miterlimit:4;stroke-dasharray:none"
       x="-0.39963132"
       y="8.2562504"
       id="text3040"><tspan
         sodipodi:role="line"
         style="font-style:normal;font-variant:normal;font-weight:bold;font-stretch:normal;font-size:7.05556px;font-family:'Inter 28pt';-inkscape-font-specification:'Inter 28pt Bold';fill:#000000;fill-opacity:1;stroke:none;stroke-width:0;stroke-miterlimit:4;stroke-dasharray:none;stroke-opacity:1"
         x="-0.39963132"
         y="8.2562504"
         id="tspan12835">Pairfy</tspan></text>
    <text
       xml:space="preserve"
       style="font-size:10.5833px;line-height:1.25;font-family:'Inter 28pt';-inkscape-font-specification:'Inter 28pt';stroke-width:0.264583"
       x="48.527615"
       y="16.411993"
       id="text5743"><tspan
         sodipodi:role="line"
         id="tspan5741"
         style="stroke-width:0.264583"
         x="48.527615"
         y="16.411993" /></text>
  </g>
</svg>
