<?xml version="1.0" encoding="UTF-8" standalone="no"?>
<!-- Created with Inkscape (http://www.inkscape.org/) -->

<svg
   width="120"
   height="50"
   viewBox="0 0 120 50"
   version="1.1"
   id="SVGRoot"
   sodipodi:docname="logo-white.svg"
   inkscape:version="1.1.2 (0a00cf5339, 2022-02-04)"
   inkscape:export-filename="/home/debian/Documents/GitHub/core/frontend-main/src/assets/logo-white.png"
   inkscape:export-xdpi="121.6"
   inkscape:export-ydpi="121.6"
   xmlns:inkscape="http://www.inkscape.org/namespaces/inkscape"
   xmlns:sodipodi="http://sodipodi.sourceforge.net/DTD/sodipodi-0.dtd"
   xmlns="http://www.w3.org/2000/svg"
   xmlns:svg="http://www.w3.org/2000/svg">
  <sodipodi:namedview
     id="namedview137"
     pagecolor="#ffffff"
     bordercolor="#000000"
     borderopacity="0.25"
     inkscape:showpageshadow="2"
     inkscape:pageopacity="0.0"
     inkscape:pagecheckerboard="0"
     inkscape:deskcolor="#d1d1d1"
     inkscape:document-units="px"
     showgrid="false"
     inkscape:zoom="5.0266175"
     inkscape:cx="72.613442"
     inkscape:cy="22.281385"
     inkscape:window-width="1920"
     inkscape:window-height="1048"
     inkscape:window-x="0"
     inkscape:window-y="0"
     inkscape:window-maximized="1"
     inkscape:current-layer="layer1"
     inkscape:pageshadow="2"
     showguides="false"
     inkscape:lockguides="false" />
  <defs
     id="defs132">
    <rect
       x="11.236365"
       y="7.2846913"
       width="69.72084"
       height="10.069939"
       id="rect3" />
    <rect
       x="12.94258"
       y="23.094154"
       width="88.413605"
       height="18.186064"
       id="rect1" />
    <rect
       x="-1.4777668"
       y="42.333267"
       width="127.8846"
       height="23.821753"
       id="rect3454" />
    <clipPath
       id="b983e3c625">
      <path
         d="m 142,147.30078 h 115 v 72.75 H 142 Z m 0,0"
         clip-rule="nonzero"
         id="path1144" />
    </clipPath>
    <clipPath
       id="0e8c13dd3a">
      <path
         d="m 70.261719,116.35938 h 89.156251 v 70.49999 H 70.261719 Z m 0,0"
         clip-rule="nonzero"
         id="path1147" />
    </clipPath>
    <clipPath
       id="b983e3c625-3">
      <path
         d="m 142,147.30078 h 115 v 72.75 H 142 Z m 0,0"
         clip-rule="nonzero"
         id="path1144-6" />
    </clipPath>
    <clipPath
       id="0e8c13dd3a-7">
      <path
         d="m 70.261719,116.35938 h 89.156251 v 70.49999 H 70.261719 Z m 0,0"
         clip-rule="nonzero"
         id="path1147-5" />
    </clipPath>
  </defs>
  <g
     inkscape:label="Layer 1"
     inkscape:groupmode="layer"
     id="layer1"
     style="display:inline">
    <text
       xml:space="preserve"
       style="font-style:normal;font-variant:normal;font-weight:normal;font-stretch:normal;font-size:19.8478px;line-height:0;font-family:Manrope;-inkscape-font-specification:Manrope;letter-spacing:-0.744293px;fill:#000000;fill-opacity:1;stroke:#ff9a00;stroke-width:0.2;stroke-linecap:round;stroke-linejoin:round;stroke-miterlimit:4;stroke-dasharray:none;paint-order:stroke markers fill"
       x="41.958847"
       y="32.081856"
       id="text2"
       inkscape:export-filename="/home/debian/Documents/GitHub/core/frontend-main/src/assets/logo-white.png"
       inkscape:export-xdpi="121.6"
       inkscape:export-ydpi="121.6"><tspan
         sodipodi:role="line"
         id="tspan2"
         x="41.958847"
         y="32.081856"
         style="font-style:normal;font-variant:normal;font-weight:600;font-stretch:normal;font-size:21.3333px;font-family:'IBM Plex Sans';-inkscape-font-specification:'IBM Plex Sans Semi-Bold';word-spacing:0px;fill:#000000;fill-opacity:1;stroke:#000000;stroke-width:0.2;stroke-linecap:round;stroke-linejoin:round;stroke-miterlimit:4;stroke-dasharray:none;stroke-opacity:1;paint-order:stroke markers fill">blackdays</tspan></text>
    <g
       clip-path="url(#b983e3c625-3)"
       id="g1154"
       style="display:inline;fill:#000000;fill-opacity:1"
       transform="matrix(0.21579754,0,0,0.21579754,-19.032274,-18.354568)"
       inkscape:export-filename="/home/debian/Documents/GitHub/core/frontend-main/src/assets/logo-white.png"
       inkscape:export-xdpi="121.6"
       inkscape:export-ydpi="121.6">
      <path
         fill="#ffffff"
         d="m 255.65234,181.28516 -5.82812,23.3164 c -0.23438,0.9375 -0.54688,1.85156 -0.9336,2.73828 -0.38671,0.88672 -0.84375,1.73438 -1.375,2.54688 -0.52734,0.8125 -1.11718,1.57422 -1.77343,2.28515 -0.65235,0.71485 -1.36328,1.36719 -2.125,1.96485 -0.76172,0.59375 -1.57032,1.12109 -2.42188,1.58203 -0.84765,0.46094 -1.73047,0.85156 -2.64844,1.16406 -0.91406,0.31641 -1.84765,0.55469 -2.80468,0.71094 -0.95313,0.16016 -1.91407,0.24219 -2.88282,0.24219 h -58 c -0.9375,0 -1.86718,-0.0742 -2.79296,-0.21875 -0.92188,-0.14844 -1.82813,-0.3711 -2.71875,-0.66407 -0.89063,-0.29296 -1.75,-0.65234 -2.57813,-1.08593 -0.83203,-0.42969 -1.625,-0.92578 -2.375,-1.48438 -0.75,-0.55859 -1.45312,-1.17187 -2.10547,-1.84375 -0.65234,-0.67187 -1.25,-1.39062 -1.78515,-2.15625 -0.53907,-0.76562 -1.01172,-1.57031 -1.41797,-2.41406 -0.41016,-0.84375 -0.7461,-1.71094 -1.01563,-2.60938 -2.1675,-6.58299 -2.66172,-15.4442 -3.60898,-22.16938 -2.56499,-18.2104 -5.51434,-29.15323 5.19221,-17.63148 5.81614,13.11291 8.73547,28.10111 11.81519,39.54693 0.52734,0.375 1.10156,0.65234 1.72266,0.83594 0.62109,0.18359 1.2539,0.26171 1.90234,0.23437 h 58.29297 c 0.66406,0.0195 1.3125,-0.0742 1.94922,-0.27734 0.63281,-0.20313 1.21484,-0.50391 1.74609,-0.91016 0.53125,-0.40234 0.97656,-0.88281 1.34375,-1.4375 0.36719,-0.55859 0.62891,-1.16016 0.78906,-1.80469 l 5.82813,-23.3164 c 0.10937,-0.4375 0.16406,-0.88282 0.17187,-1.33203 0.004,-0.44922 -0.0391,-0.89063 -0.13672,-1.33204 -0.0977,-0.4375 -0.24609,-0.85937 -0.4375,-1.26562 -0.19531,-0.40625 -0.43359,-0.78125 -0.71875,-1.13281 -0.28125,-0.35157 -0.59765,-0.66407 -0.95312,-0.9375 -0.35547,-0.27735 -0.73828,-0.51172 -1.14453,-0.69922 -0.41016,-0.1875 -0.83594,-0.32422 -1.27344,-0.41406 -0.44141,-0.0898 -0.88672,-0.12891 -1.33594,-0.11719 h -61.38281 c -0.38281,0 -0.76172,-0.0352 -1.13672,-0.11328 -0.375,-0.0742 -0.73828,-0.1836 -1.09375,-0.33203 -0.35156,-0.14454 -0.6875,-0.32422 -1.00781,-0.53907 -0.31641,-0.21093 -0.61328,-0.45312 -0.88281,-0.72265 -0.26953,-0.26953 -0.51172,-0.56641 -0.72266,-0.88282 -0.21484,-0.32031 -0.39453,-0.65625 -0.53906,-1.00781 -0.14844,-0.35547 -0.25781,-0.71875 -0.33203,-1.09375 -0.0742,-0.375 -0.11328,-0.7539 -0.11328,-1.13672 0,-0.38281 0.0391,-0.76172 0.11328,-1.13672 0.0742,-0.375 0.18359,-0.74218 0.33203,-1.09375 0.14453,-0.35546 0.32422,-0.6914 0.53906,-1.00781 0.21094,-0.3164 0.45313,-0.61328 0.72266,-0.88281 0.26953,-0.26953 0.5664,-0.51172 0.88281,-0.72656 0.32031,-0.21094 0.65625,-0.39063 1.00781,-0.53907 0.35547,-0.14453 0.71875,-0.25781 1.09375,-0.33203 0.375,-0.0742 0.75391,-0.10937 1.13672,-0.10937 h 60.85938 c 0.66015,0 1.32031,0.0352 1.98046,0.10937 0.65625,0.0781 1.3086,0.1875 1.95704,0.33594 0.64453,0.15234 1.27734,0.33594 1.90234,0.55859 0.625,0.21875 1.23437,0.47657 1.83203,0.76563 0.59375,0.29297 1.17188,0.61328 1.73047,0.97266 0.55859,0.35546 1.09375,0.74218 1.60937,1.16015 0.51563,0.41406 1.00391,0.85938 1.46875,1.33203 0.46485,0.47657 0.89844,0.97266 1.3086,1.4961 0.40625,0.51953 0.78125,1.0664 1.1289,1.6289 0.34375,0.56641 0.65625,1.14844 0.9375,1.75 0.28125,0.60157 0.52344,1.21485 0.73438,1.84375 0.20703,0.62891 0.38281,1.26563 0.51953,1.91407 0.13672,0.64843 0.23828,1.30468 0.30078,1.96484 0.0625,0.65625 0.0859,1.32031 0.0742,1.98047 -0.0117,0.66406 -0.0625,1.32422 -0.14844,1.98047 -0.0898,0.65625 -0.21484,1.30468 -0.375,1.94922 z m -60.33203,59.86718 c 0,0.57032 -0.0273,1.14453 -0.0859,1.71485 -0.0547,0.57031 -0.14062,1.13281 -0.25,1.69531 -0.11328,0.5625 -0.25,1.11719 -0.41796,1.66406 -0.16407,0.55078 -0.35938,1.08985 -0.57813,1.61719 -0.21875,0.52734 -0.46484,1.04687 -0.73437,1.55078 -0.26954,0.50781 -0.5625,0.99609 -0.88282,1.47266 -0.3164,0.47656 -0.65625,0.9375 -1.01953,1.3789 -0.36328,0.44141 -0.75,0.86719 -1.15234,1.26953 -0.40625,0.40625 -0.83203,0.78907 -1.27344,1.15235 -0.44141,0.36719 -0.90234,0.70703 -1.37891,1.02344 -0.47656,0.32031 -0.96484,0.61328 -1.47265,0.88281 -0.50391,0.26953 -1.01953,0.51562 -1.55078,0.73437 -0.52735,0.21875 -1.06641,0.41016 -1.61328,0.57813 -0.55079,0.16406 -1.10547,0.30469 -1.66797,0.41797 -0.5586,0.10937 -1.125,0.19531 -1.69532,0.25 -0.57031,0.0586 -1.14062,0.0859 -1.71484,0.0859 -0.57422,0 -1.14453,-0.0273 -1.71484,-0.0859 -0.57032,-0.0547 -1.13672,-0.14063 -1.69532,-0.25 -0.5625,-0.11328 -1.11718,-0.25391 -1.66796,-0.41797 -0.54688,-0.16797 -1.08594,-0.35938 -1.61329,-0.57813 -0.53125,-0.21875 -1.04687,-0.46484 -1.55078,-0.73437 -0.50781,-0.26953 -0.99609,-0.5625 -1.47265,-0.88281 -0.47657,-0.31641 -0.9375,-0.65625 -1.37891,-1.02344 -0.44531,-0.36328 -0.86719,-0.7461 -1.27344,-1.15235 -0.40234,-0.40234 -0.78906,-0.82812 -1.15234,-1.26953 -0.36328,-0.4414 -0.70313,-0.90234 -1.01953,-1.3789 -0.32031,-0.47657 -0.61328,-0.96485 -0.88281,-1.47266 -0.26954,-0.50391 -0.51563,-1.02344 -0.73438,-1.55078 -0.21875,-0.52734 -0.41406,-1.06641 -0.57812,-1.61719 -0.16797,-0.54687 -0.30469,-1.10156 -0.41797,-1.66406 -0.11328,-0.5625 -0.19532,-1.125 -0.25,-1.69531 -0.0586,-0.57032 -0.0859,-1.14453 -0.0859,-1.71485 0,-0.57422 0.0273,-1.14453 0.0859,-1.71484 0.0547,-0.57031 0.13672,-1.13672 0.25,-1.69922 0.11328,-0.55859 0.25,-1.11328 0.41797,-1.66406 0.16406,-0.54688 0.35937,-1.08594 0.57812,-1.61328 0.21875,-0.53125 0.46484,-1.04688 0.73438,-1.55469 0.26953,-0.50391 0.5625,-0.99609 0.88281,-1.46875 0.3164,-0.47656 0.65625,-0.9375 1.01953,-1.37891 0.36328,-0.44531 0.75,-0.86718 1.15234,-1.27343 0.40625,-0.40625 0.82813,-0.78907 1.27344,-1.15235 0.44141,-0.36328 0.90234,-0.70312 1.37891,-1.02344 0.47656,-0.3164 0.96484,-0.60937 1.47265,-0.8789 0.50391,-0.27344 1.01953,-0.51563 1.55078,-0.73438 0.52735,-0.21875 1.06641,-0.41406 1.61329,-0.57812 0.55078,-0.16797 1.10546,-0.30469 1.66796,-0.41797 0.5586,-0.11328 1.125,-0.19531 1.69532,-0.25391 0.57031,-0.0547 1.14062,-0.082 1.71484,-0.082 0.57422,0 1.14453,0.0273 1.71484,0.082 0.57032,0.0586 1.13672,0.14063 1.69532,0.25391 0.5625,0.11328 1.11718,0.25 1.66797,0.41797 0.54687,0.16406 1.08593,0.35937 1.61328,0.57812 0.53125,0.21875 1.04687,0.46094 1.55078,0.73438 0.50781,0.26953 0.99609,0.5625 1.47265,0.8789 0.47657,0.32032 0.9375,0.66016 1.37891,1.02344 0.44141,0.36328 0.86719,0.7461 1.27344,1.15235 0.40234,0.40625 0.78906,0.82812 1.15234,1.27343 0.36328,0.44141 0.70313,0.90235 1.01953,1.37891 0.32032,0.47266 0.61328,0.96484 0.88282,1.46875 0.26953,0.50781 0.51562,1.02344 0.73437,1.55469 0.21875,0.52734 0.41406,1.0664 0.57813,1.61328 0.16796,0.55078 0.30468,1.10547 0.41796,1.66406 0.10938,0.5625 0.19532,1.12891 0.25,1.69922 0.0586,0.57031 0.0859,1.14062 0.0859,1.71484 z m -11.66015,0 c 0,-0.38281 -0.0352,-0.76172 -0.10938,-1.13672 -0.0781,-0.375 -0.1875,-0.74218 -0.33203,-1.09375 -0.14844,-0.35546 -0.32813,-0.6914 -0.53906,-1.00781 -0.21485,-0.32031 -0.45703,-0.61328 -0.72657,-0.88281 -0.26953,-0.27344 -0.5664,-0.51563 -0.88281,-0.72656 -0.3164,-0.21094 -0.65234,-0.39063 -1.00781,-0.53907 -0.35547,-0.14453 -0.71875,-0.25781 -1.09375,-0.33203 -0.375,-0.0742 -0.75391,-0.11328 -1.13672,-0.11328 -0.38281,0 -0.76172,0.0391 -1.13672,0.11328 -0.375,0.0742 -0.74219,0.1875 -1.09375,0.33203 -0.35547,0.14844 -0.6914,0.32813 -1.00781,0.53907 -0.32031,0.21093 -0.61328,0.45312 -0.88281,0.72656 -0.27344,0.26953 -0.51172,0.5625 -0.72657,0.88281 -0.21093,0.31641 -0.39062,0.65235 -0.53906,1.00781 -0.14453,0.35157 -0.25781,0.71875 -0.33203,1.09375 -0.0742,0.375 -0.10937,0.75391 -0.10937,1.13672 0,0.38282 0.0352,0.76172 0.10937,1.13672 0.0742,0.375 0.1875,0.73828 0.33203,1.09375 0.14844,0.35156 0.32813,0.6875 0.53906,1.00781 0.21485,0.31641 0.45313,0.61329 0.72657,0.88282 0.26953,0.26953 0.5625,0.51172 0.88281,0.72656 0.31641,0.21094 0.65234,0.39062 1.00781,0.53906 0.35156,0.14453 0.71875,0.25391 1.09375,0.32813 0.375,0.0781 0.75391,0.11328 1.13672,0.11328 0.38281,0 0.76172,-0.0352 1.13672,-0.11328 0.375,-0.0742 0.73828,-0.1836 1.09375,-0.32813 0.35547,-0.14844 0.69141,-0.32812 1.00781,-0.53906 0.31641,-0.21484 0.61328,-0.45703 0.88281,-0.72656 0.26954,-0.26953 0.51172,-0.56641 0.72657,-0.88282 0.21093,-0.32031 0.39062,-0.65625 0.53906,-1.00781 0.14453,-0.35547 0.25391,-0.71875 0.33203,-1.09375 0.0742,-0.375 0.10938,-0.7539 0.10938,-1.13672 z m 58.29296,0 c 0,0.57032 -0.0273,1.14453 -0.082,1.71485 -0.0586,0.57031 -0.14062,1.13281 -0.2539,1.69531 -0.10938,0.5625 -0.25,1.11719 -0.41407,1.66406 -0.16796,0.55078 -0.35937,1.08985 -0.58203,1.61719 -0.21875,0.52734 -0.46093,1.04687 -0.73047,1.55078 -0.26953,0.50781 -0.5664,0.99609 -0.88281,1.47266 -0.32031,0.47656 -0.66015,0.9375 -1.02344,1.3789 -0.36328,0.44141 -0.74609,0.86719 -1.15234,1.26953 -0.40625,0.40625 -0.82812,0.78907 -1.27344,1.15235 -0.4414,0.36719 -0.89843,0.70703 -1.375,1.02344 -0.47656,0.32031 -0.96875,0.61328 -1.47265,0.88281 -0.50782,0.26953 -1.02344,0.51562 -1.55078,0.73437 -0.53125,0.21875 -1.07032,0.41016 -1.61719,0.57813 -0.54688,0.16406 -1.10156,0.30469 -1.66406,0.41797 -0.5625,0.10937 -1.12891,0.19531 -1.69922,0.25 -0.57032,0.0586 -1.14063,0.0859 -1.71485,0.0859 -0.57031,0 -1.14453,-0.0273 -1.71093,-0.0859 -0.57032,-0.0547 -1.13672,-0.14063 -1.69922,-0.25 -0.5625,-0.11328 -1.11719,-0.25391 -1.66407,-0.41797 -0.55078,-0.16797 -1.08593,-0.35938 -1.61718,-0.57813 -0.52735,-0.21875 -1.04688,-0.46484 -1.55078,-0.73437 -0.50391,-0.26953 -0.9961,-0.5625 -1.47266,-0.88281 -0.47656,-0.31641 -0.93359,-0.65625 -1.37891,-1.02344 -0.4414,-0.36328 -0.86718,-0.7461 -1.26953,-1.15235 -0.40625,-0.40234 -0.78906,-0.82812 -1.15234,-1.26953 -0.36328,-0.4414 -0.70703,-0.90234 -1.02344,-1.3789 -0.32031,-0.47657 -0.61328,-0.96485 -0.88281,-1.47266 -0.26953,-0.50391 -0.51563,-1.02344 -0.73438,-1.55078 -0.21875,-0.52734 -0.41015,-1.06641 -0.57812,-1.61719 -0.16406,-0.54687 -0.30469,-1.10156 -0.41797,-1.66406 -0.10938,-0.5625 -0.19531,-1.125 -0.25,-1.69531 -0.0547,-0.57032 -0.0859,-1.14453 -0.0859,-1.71485 0,-0.57422 0.0312,-1.14453 0.0859,-1.71484 0.0547,-0.57031 0.14062,-1.13672 0.25,-1.69922 0.11328,-0.55859 0.25391,-1.11328 0.41797,-1.66406 0.16797,-0.54688 0.35937,-1.08594 0.57812,-1.61328 0.21875,-0.53125 0.46485,-1.04688 0.73438,-1.55469 0.26953,-0.50391 0.5625,-0.99609 0.88281,-1.46875 0.31641,-0.47656 0.66016,-0.9375 1.02344,-1.37891 0.36328,-0.44531 0.74609,-0.86718 1.15234,-1.27343 0.40235,-0.40625 0.82813,-0.78907 1.26953,-1.15235 0.44532,-0.36328 0.90235,-0.70312 1.37891,-1.02344 0.47656,-0.3164 0.96875,-0.60937 1.47266,-0.8789 0.5039,-0.27344 1.02343,-0.51563 1.55078,-0.73438 0.53125,-0.21875 1.0664,-0.41406 1.61718,-0.57812 0.54688,-0.16797 1.10157,-0.30469 1.66407,-0.41797 0.5625,-0.11328 1.1289,-0.19531 1.69922,-0.25391 0.5664,-0.0547 1.14062,-0.082 1.71093,-0.082 0.57422,0 1.14453,0.0273 1.71485,0.082 0.57031,0.0586 1.13672,0.14063 1.69922,0.25391 0.5625,0.11328 1.11718,0.25 1.66406,0.41797 0.54687,0.16406 1.08594,0.35937 1.61719,0.57812 0.52734,0.21875 1.04296,0.46094 1.55078,0.73438 0.5039,0.26953 0.99609,0.5625 1.47265,0.8789 0.47657,0.32032 0.9336,0.66016 1.375,1.02344 0.44532,0.36328 0.86719,0.7461 1.27344,1.15235 0.40625,0.40625 0.78906,0.82812 1.15234,1.27343 0.36329,0.44141 0.70313,0.90235 1.02344,1.37891 0.31641,0.47266 0.61328,0.96484 0.88281,1.46875 0.26954,0.50781 0.51172,1.02344 0.73047,1.55469 0.22266,0.52734 0.41407,1.0664 0.58203,1.61328 0.16407,0.55078 0.30469,1.10547 0.41407,1.66406 0.11328,0.5625 0.19531,1.12891 0.2539,1.69922 0.0547,0.57031 0.082,1.14062 0.082,1.71484 z m -11.65625,0 c 0,-0.38281 -0.0391,-0.76172 -0.11328,-1.13672 -0.0742,-0.375 -0.18359,-0.74218 -0.33203,-1.09375 -0.14453,-0.35546 -0.32422,-0.6914 -0.53906,-1.00781 -0.21094,-0.32031 -0.45313,-0.61328 -0.72266,-0.88281 -0.27343,-0.27344 -0.5664,-0.51563 -0.88672,-0.72656 -0.3164,-0.21094 -0.65234,-0.39063 -1.00781,-0.53907 -0.35156,-0.14453 -0.71484,-0.25781 -1.08984,-0.33203 -0.37891,-0.0742 -0.75781,-0.11328 -1.14063,-0.11328 -0.38281,0 -0.76172,0.0391 -1.13672,0.11328 -0.375,0.0742 -0.73828,0.1875 -1.09375,0.33203 -0.35156,0.14844 -0.6875,0.32813 -1.00781,0.53907 -0.3164,0.21093 -0.61328,0.45312 -0.88281,0.72656 -0.26953,0.26953 -0.51172,0.5625 -0.72266,0.88281 -0.21484,0.31641 -0.39453,0.65235 -0.53906,1.00781 -0.14844,0.35157 -0.25781,0.71875 -0.33203,1.09375 -0.0742,0.375 -0.11328,0.75391 -0.11328,1.13672 0,0.38282 0.0391,0.76172 0.11328,1.13672 0.0742,0.375 0.18359,0.73828 0.33203,1.09375 0.14453,0.35156 0.32422,0.6875 0.53906,1.00781 0.21094,0.31641 0.45313,0.61329 0.72266,0.88282 0.26953,0.26953 0.56641,0.51172 0.88281,0.72656 0.32031,0.21094 0.65625,0.39062 1.00781,0.53906 0.35547,0.14453 0.71875,0.25391 1.09375,0.32813 0.375,0.0781 0.75391,0.11328 1.13672,0.11328 0.38282,0 0.76172,-0.0352 1.14063,-0.11328 0.375,-0.0742 0.73828,-0.1836 1.08984,-0.32813 0.35547,-0.14844 0.69141,-0.32812 1.00781,-0.53906 0.32032,-0.21484 0.61329,-0.45703 0.88672,-0.72656 0.26953,-0.26953 0.51172,-0.56641 0.72266,-0.88282 0.21484,-0.32031 0.39453,-0.65625 0.53906,-1.00781 0.14844,-0.35547 0.25781,-0.71875 0.33203,-1.09375 0.0742,-0.375 0.11328,-0.7539 0.11328,-1.13672 z"
         fill-opacity="1"
         fill-rule="nonzero"
         id="path1152"
         style="fill:#000000;fill-opacity:1"
         sodipodi:nodetypes="ccsccccccsscscsscccsccscccccccccccccccscccsccsssccsccssscccccccccscscscscscccsccsscccccccscccccccssccscscscccccccccccccccsccccccsccccccccssccccscssscccccsssccccccscccscccssccccccsccccccccsccccscccsccsccsssccccccccccccscscscccccscccccccsssccscccsscccccsssccscccsccccccss"
         inkscape:export-filename="/home/debian/Documents/GitHub/core/frontend-main/src/assets/path1152.png"
         inkscape:export-xdpi="121.6"
         inkscape:export-ydpi="121.6" />
    </g>
    <path
       style="fill:#000000;fill-opacity:1;stroke-width:0.186349"
       d="M 16.701521,24.112894 C 15.815635,22.153312 15.765407,20.814651 15.796707,19.331862 15.828007,17.80467 15.344663,16.591942 13.836397,16.1399 8.1876746,14.449648 5.2665001,14.801238 0.057448,11 c 0,0 0,3.135185 3.5311786,5.051819 2.5382846,1.369961 7.1504364,1.966862 9.0415944,2.356302 1.055496,0.226387 1.269506,0.980521 1.501714,1.903532 0.521198,2.048391 1.118827,3.368123 2.569586,3.801241"
       id="path33289" />
    <path
       style="fill:#f7a600;fill-opacity:1;stroke-width:0.186344"
       d="m 14.004387,22.988495 c -1.225042,-0.188534 -3.845449,-0.207461 -3.845449,-0.207461 1.557029,0.746528 5.386567,2.477814 3.845449,0.207461 z"
       id="path33287" />
    <path
       style="fill:#f7a600;fill-opacity:1;stroke-width:0.186349"
       d="m 13.955777,22.303264 c 0.03785,-1.011092 -1.017643,-1.211998 -2.047661,-1.281153 -0.615828,-0.03785 -1.232381,-0.0757 -1.577422,-0.100457 -1.4456629,-0.100458 -2.9095272,-0.307912 -2.9095272,-0.307912 0,0 0.1827106,0.904814 1.7783277,1.256403 1.5897955,0.351587 4.7562825,0.433116 4.7562825,0.433116 z"
       id="path33285" />
    <path
       style="fill:#f7a600;fill-opacity:1;stroke-width:0.186349"
       d="m 13.289723,20.525663 c 0,0 0.08152,-1.212727 -1.124649,-1.369959 C 10.958899,18.998472 8.9105079,18.753888 6.7492892,18.294565 4.5873436,17.835971 4.0726987,17.610313 4.0726987,17.610313 c 0,0 0.031308,1.287706 3.0092538,1.985059 2.9721305,0.691531 6.2077705,0.930291 6.2077705,0.930291 z"
       id="path1156" />
    <path
       fill="#ffffff"
       d="m 19.841628,29.699164 c -0.118864,0 -0.238557,0.006 -0.357416,0.01769 -0.118862,0.01182 -0.236869,0.0295 -0.354042,0.05311 -0.117177,0.02275 -0.233499,0.05226 -0.348142,0.08682 -0.113808,0.03456 -0.226754,0.07502 -0.337183,0.12054 -0.110417,0.04551 -0.218326,0.09696 -0.323696,0.153419 -0.105354,0.05647 -0.207371,0.117178 -0.306838,0.183766 -0.09946,0.06658 -0.195568,0.137402 -0.288291,0.213267 -0.09188,0.07587 -0.180393,0.155948 -0.264691,0.241087 -0.08514,0.08428 -0.16522,0.172807 -0.241084,0.265531 -0.07587,0.09188 -0.146676,0.187981 -0.213271,0.287451 -0.06658,0.09948 -0.128127,0.201465 -0.183765,0.306836 -0.05646,0.105355 -0.1079,0.213269 -0.153418,0.323697 -0.04551,0.110417 -0.08596,0.223383 -0.12054,0.338027 -0.03456,0.113808 -0.06407,0.230128 -0.08682,0.347297 -0.0236,0.117178 -0.04131,0.235188 -0.05312,0.354045 -0.01182,0.118862 -0.01769,0.238556 -0.01769,0.358258 0,0.118861 0.006,0.238557 0.01769,0.357415 0.01182,0.118862 0.0295,0.23687 0.05312,0.354041 0.02275,0.117178 0.05226,0.2335 0.08682,0.348142 0.03456,0.113798 0.07502,0.226756 0.12054,0.337184 0.04551,0.110417 0.09694,0.218327 0.153418,0.323697 0.05564,0.105354 0.117166,0.207367 0.183765,0.306839 0.06659,0.09946 0.137401,0.195563 0.213271,0.28829 0.07587,0.09188 0.155947,0.180391 0.241084,0.26469 0.08429,0.08514 0.172808,0.165219 0.264691,0.241084 0.09273,0.07587 0.188824,0.146676 0.288291,0.213271 0.09946,0.06658 0.201469,0.128128 0.306838,0.183764 0.105365,0.05647 0.213269,0.10789 0.323696,0.15342 0.110418,0.04551 0.223383,0.08596 0.337183,0.120539 0.11465,0.03456 0.23097,0.06406 0.348142,0.08682 0.117165,0.02361 0.235185,0.04131 0.354042,0.05312 0.118862,0.01181 0.238559,0.01768 0.357416,0.01768 0.1197,0 0.2394,-0.006 0.358257,-0.01769 0.118862,-0.01182 0.236873,-0.0295 0.354043,-0.05311 0.117177,-0.02275 0.2335,-0.05226 0.3473,-0.08682 0.114636,-0.03456 0.227599,-0.07502 0.338027,-0.120539 0.110441,-0.04552 0.218328,-0.09696 0.323696,-0.153419 0.105376,-0.05564 0.207367,-0.117177 0.306836,-0.183765 0.09948,-0.06659 0.195566,-0.137402 0.287447,-0.21327 0.09272,-0.07587 0.181241,-0.155948 0.265532,-0.241085 0.08518,-0.08431 0.165225,-0.172806 0.241088,-0.26469 0.07581,-0.09271 0.146676,-0.188825 0.213266,-0.28829 0.06665,-0.09948 0.127287,-0.201469 0.183764,-0.306839 0.05645,-0.105365 0.107911,-0.213269 0.153421,-0.323696 0.04558,-0.11043 0.08601,-0.223384 0.120539,-0.337184 0.03458,-0.114649 0.06401,-0.230971 0.08681,-0.348142 0.02358,-0.117178 0.04133,-0.235186 0.05313,-0.354042 0.01182,-0.118864 0.01765,-0.238558 0.01765,-0.357415 0,-0.119701 -0.0061,-0.2394 -0.01765,-0.358258 -0.01182,-0.118863 -0.02953,-0.236873 -0.05313,-0.354045 -0.02278,-0.117176 -0.05223,-0.233499 -0.08681,-0.347297 -0.03458,-0.114636 -0.075,-0.2276 -0.120539,-0.338027 -0.04547,-0.110417 -0.09699,-0.218327 -0.153421,-0.323696 -0.05645,-0.105387 -0.117164,-0.207368 -0.183764,-0.306837 -0.06665,-0.09947 -0.137403,-0.195568 -0.213266,-0.287451 -0.07581,-0.09271 -0.15595,-0.181236 -0.241088,-0.265531 -0.08427,-0.08514 -0.172805,-0.16522 -0.265532,-0.241087 -0.09188,-0.07586 -0.187978,-0.146675 -0.287447,-0.213267 -0.09947,-0.06658 -0.201467,-0.127289 -0.306836,-0.183766 -0.105365,-0.05647 -0.213267,-0.107889 -0.323696,-0.153419 -0.110418,-0.04551 -0.223387,-0.08597 -0.338027,-0.120539 -0.113798,-0.03456 -0.230128,-0.06407 -0.3473,-0.08682 -0.117177,-0.02361 -0.235185,-0.04131 -0.354043,-0.05311 -0.118857,-0.01182 -0.238559,-0.01769 -0.358257,-0.01769 z m 0,4.867245 c -0.07925,0 -0.158476,-0.0076 -0.236871,-0.02361 -0.07839,-0.01518 -0.154263,-0.03878 -0.228444,-0.06913 -0.07333,-0.03034 -0.144145,-0.06827 -0.209895,-0.112119 -0.06659,-0.04469 -0.128127,-0.09526 -0.184609,-0.151734 -0.05647,-0.05647 -0.107055,-0.118004 -0.151734,-0.18461 -0.04383,-0.06575 -0.08176,-0.136558 -0.112106,-0.209894 -0.03034,-0.07417 -0.05394,-0.150049 -0.06913,-0.228444 -0.01601,-0.07839 -0.0236,-0.157633 -0.0236,-0.236868 0,-0.08007 0.0076,-0.159324 0.0236,-0.237718 0.01518,-0.07839 0.03877,-0.154261 0.06913,-0.22844 0.03033,-0.07333 0.06827,-0.144148 0.112106,-0.209899 0.04469,-0.06658 0.09527,-0.128128 0.151734,-0.184609 0.05649,-0.05646 0.118005,-0.107044 0.184609,-0.15173 0.06575,-0.04383 0.13656,-0.08178 0.209895,-0.112108 0.07418,-0.03034 0.15005,-0.05394 0.228444,-0.06913 0.07839,-0.01601 0.157633,-0.0236 0.236871,-0.0236 0.08008,0 0.15932,0.0076 0.237714,0.0236 0.07839,0.01518 0.154261,0.03877 0.228443,0.06913 0.07333,0.03034 0.144146,0.06827 0.209896,0.112108 0.06658,0.04469 0.128127,0.09526 0.184609,0.15173 0.05647,0.05647 0.107066,0.118017 0.151732,0.184609 0.04383,0.06575 0.08177,0.136561 0.112106,0.209899 0.03034,0.07417 0.05394,0.150044 0.06913,0.22844 0.01601,0.07839 0.0236,0.157635 0.0236,0.237718 0,0.07922 -0.0076,0.158473 -0.0236,0.236868 -0.01518,0.07839 -0.03877,0.154264 -0.06913,0.228444 -0.03033,0.07333 -0.06827,0.144143 -0.112106,0.209894 -0.04469,0.06659 -0.09525,0.128128 -0.151732,0.18461 -0.05647,0.05647 -0.118005,0.107066 -0.184609,0.151734 -0.06575,0.04383 -0.136561,0.08176 -0.209896,0.112119 -0.07417,0.03033 -0.150047,0.05394 -0.228443,0.06913 -0.07839,0.01601 -0.157632,0.02361 -0.237714,0.02361 z m 0,0"
       fill-opacity="1"
       fill-rule="nonzero"
       id="path1160"
       style="display:inline;fill:#000000;fill-opacity:1;stroke-width:0.215797"
       inkscape:export-filename="/home/debian/Documents/GitHub/core/frontend-main/src/assets/logo-white.png"
       inkscape:export-xdpi="121.6"
       inkscape:export-ydpi="121.6" />
    <path
       fill="#ffffff"
       d="m 29.575272,29.699164 c -0.11885,0 -0.238547,0.006 -0.35741,0.01769 -0.118862,0.01182 -0.236875,0.0295 -0.354041,0.05311 -0.117177,0.02275 -0.233498,0.05226 -0.347298,0.08682 -0.114637,0.03456 -0.2276,0.07502 -0.338023,0.12054 -0.110442,0.04551 -0.218335,0.09696 -0.323697,0.153419 -0.105386,0.05647 -0.207378,0.117178 -0.306841,0.183766 -0.0995,0.06658 -0.195571,0.137402 -0.288292,0.213267 -0.09183,0.07587 -0.180398,0.155948 -0.26469,0.241087 -0.08518,0.08428 -0.165215,0.172807 -0.241088,0.265531 -0.07581,0.09188 -0.146676,0.187981 -0.213263,0.287451 -0.06654,0.09948 -0.12729,0.201465 -0.183767,0.306836 -0.05645,0.105355 -0.107911,0.213269 -0.153421,0.323697 -0.04558,0.110417 -0.08598,0.223383 -0.120539,0.338027 -0.03458,0.113808 -0.06412,0.230128 -0.0868,0.347297 -0.0236,0.117178 -0.04134,0.235188 -0.05314,0.354045 -0.01182,0.118862 -0.01765,0.238556 -0.01765,0.358258 0,0.118861 0.0061,0.238557 0.01765,0.357415 0.01182,0.118862 0.02953,0.23687 0.05314,0.354041 0.02278,0.117178 0.05223,0.2335 0.0868,0.348142 0.03458,0.113798 0.07501,0.226756 0.120539,0.337184 0.04558,0.110417 0.09698,0.218327 0.153421,0.323697 0.05645,0.105354 0.117177,0.207367 0.183767,0.306839 0.06665,0.09946 0.1374,0.195563 0.213263,0.28829 0.07592,0.09188 0.15595,0.180391 0.241088,0.26469 0.08427,0.08514 0.172807,0.165219 0.26469,0.241084 0.09276,0.07587 0.188817,0.146676 0.288292,0.213271 0.0995,0.06658 0.201469,0.128128 0.306841,0.183764 0.105365,0.05647 0.213264,0.10789 0.323697,0.15342 0.110418,0.04551 0.223376,0.08596 0.338023,0.120539 0.113808,0.03456 0.23013,0.06406 0.347298,0.08682 0.117165,0.02361 0.23518,0.04131 0.354041,0.05312 0.118864,0.01182 0.238559,0.01769 0.35741,0.01769 0.119713,0 0.239406,-0.006 0.358267,-0.01769 0.118849,-0.01182 0.236864,-0.0295 0.354042,-0.05312 0.117178,-0.02275 0.233498,-0.05226 0.347298,-0.08682 0.114637,-0.03456 0.2276,-0.07502 0.338023,-0.120539 0.110441,-0.04552 0.218325,-0.09696 0.323696,-0.15342 0.105387,-0.05564 0.207369,-0.117176 0.306842,-0.183764 0.09951,-0.06659 0.19556,-0.137403 0.28829,-0.213271 0.09183,-0.07586 0.180388,-0.155947 0.264691,-0.241084 0.08518,-0.08431 0.165216,-0.172806 0.241088,-0.26469 0.07581,-0.09271 0.146666,-0.188825 0.213264,-0.28829 0.06654,-0.09948 0.12729,-0.20147 0.183767,-0.306839 0.05645,-0.105365 0.107889,-0.213269 0.153421,-0.323697 0.04557,-0.110429 0.08601,-0.223383 0.120539,-0.337184 0.03458,-0.114648 0.06401,-0.230971 0.0868,-0.348142 0.02358,-0.117177 0.04133,-0.235185 0.05314,-0.354041 0.01182,-0.118864 0.01764,-0.238558 0.01764,-0.357415 0,-0.119702 -0.0061,-0.2394 -0.01764,-0.358258 -0.01182,-0.118863 -0.02954,-0.236873 -0.05314,-0.354045 -0.02278,-0.117177 -0.05223,-0.233499 -0.0868,-0.347297 -0.03458,-0.114636 -0.07501,-0.227601 -0.120539,-0.338027 -0.04547,-0.110418 -0.09699,-0.218327 -0.153421,-0.323697 -0.05645,-0.105386 -0.117177,-0.207367 -0.183767,-0.306836 -0.06665,-0.09947 -0.1374,-0.195568 -0.213264,-0.287451 -0.07592,-0.09271 -0.15595,-0.181236 -0.241088,-0.265531 -0.08427,-0.08514 -0.172808,-0.16522 -0.265538,-0.241087 -0.09184,-0.07586 -0.187979,-0.146675 -0.287443,-0.213267 -0.0995,-0.06658 -0.201469,-0.12729 -0.306842,-0.183766 -0.105375,-0.05647 -0.213263,-0.107889 -0.323696,-0.153419 -0.110417,-0.04551 -0.223386,-0.08597 -0.338023,-0.12054 -0.113808,-0.03456 -0.23013,-0.06407 -0.347298,-0.08682 -0.117166,-0.02361 -0.235191,-0.04131 -0.354042,-0.05311 -0.118861,-0.01182 -0.238558,-0.01769 -0.358267,-0.01769 z m 0,4.867245 c -0.07924,0 -0.158472,-0.0076 -0.236865,-0.02361 -0.07843,-0.01518 -0.154268,-0.03878 -0.228447,-0.06913 -0.0733,-0.03034 -0.144146,-0.06827 -0.209898,-0.112119 -0.06665,-0.04469 -0.128126,-0.09526 -0.184602,-0.151734 -0.05645,-0.05647 -0.107055,-0.118004 -0.151736,-0.18461 -0.04384,-0.06575 -0.08176,-0.136558 -0.112107,-0.209894 -0.03033,-0.07417 -0.05394,-0.150049 -0.06916,-0.228444 -0.01602,-0.07839 -0.02358,-0.157633 -0.02358,-0.236868 0,-0.08007 0.007,-0.159324 0.02358,-0.237718 0.01522,-0.07839 0.03882,-0.154261 0.06916,-0.22844 0.03036,-0.07333 0.06825,-0.144148 0.112107,-0.209899 0.04465,-0.06658 0.09528,-0.128128 0.151736,-0.184609 0.05645,-0.05646 0.118005,-0.107044 0.184602,-0.15173 0.06574,-0.04383 0.136565,-0.08178 0.209898,-0.112108 0.07421,-0.03034 0.150054,-0.05394 0.228447,-0.06913 0.07843,-0.01601 0.157635,-0.0236 0.236865,-0.0236 0.08005,0 0.159329,0.0076 0.237722,0.0236 0.07843,0.01518 0.154257,0.03877 0.228437,0.06913 0.0733,0.03034 0.144147,0.06827 0.209897,0.112108 0.06665,0.04469 0.128141,0.09526 0.184613,0.15173 0.05645,0.05647 0.107055,0.118017 0.151727,0.184609 0.04384,0.06575 0.08176,0.136561 0.112106,0.209899 0.03034,0.07417 0.05394,0.150044 0.06916,0.22844 0.01602,0.07839 0.02358,0.157635 0.02358,0.237718 0,0.07922 -0.007,0.158473 -0.02358,0.236868 -0.01522,0.07839 -0.03883,0.154264 -0.06916,0.228444 -0.03034,0.07333 -0.06825,0.144143 -0.112106,0.209894 -0.04467,0.06659 -0.09528,0.128128 -0.151727,0.18461 -0.05645,0.05647 -0.118016,0.107066 -0.184613,0.151734 -0.06574,0.04383 -0.136554,0.08176 -0.209897,0.112119 -0.0742,0.03033 -0.150043,0.05394 -0.228437,0.06913 -0.07843,0.01601 -0.157634,0.02361 -0.237722,0.02361 z m 0,0"
       fill-opacity="1"
       fill-rule="nonzero"
       id="path1162"
       style="display:inline;fill:#000000;fill-opacity:1;stroke-width:0.215797"
       inkscape:export-filename="/home/debian/Documents/GitHub/core/frontend-main/src/assets/logo-white.png"
       inkscape:export-xdpi="121.6"
       inkscape:export-ydpi="121.6" />
  </g>
  <g
     inkscape:groupmode="layer"
     id="layer2"
     inkscape:label="Layer 2"
     style="display:inline" />
  <g
     inkscape:groupmode="layer"
     id="layer3"
     inkscape:label="Layer 3"
     style="display:inline" />
  <g
     inkscape:groupmode="layer"
     id="layer4"
     inkscape:label="limit"
     style="display:none">
    <rect
       style="display:inline;opacity:0.557195;fill:#ff5e00;fill-opacity:1;stroke:#0069f5;stroke-width:0;stroke-linecap:round;stroke-linejoin:round;paint-order:stroke fill markers"
       id="rect1592-1"
       width="15"
       height="14.999998"
       x="1.8808064e-06"
       y="14.999999" />
    <rect
       style="display:inline;opacity:0.557195;fill:#ff0000;stroke:#0069f5;stroke-width:0;stroke-linecap:round;stroke-linejoin:round;paint-order:stroke fill markers"
       id="rect1592"
       width="120"
       height="14.999998"
       x="1.8808064e-06"
       y="6.7562792e-07" />
  </g>
</svg>
