<?xml version="1.0" encoding="UTF-8" standalone="no"?>
<!-- Created with Inkscape (http://www.inkscape.org/) -->

<svg
   width="120"
   height="50"
   viewBox="0 0 120 50"
   version="1.1"
   id="SVGRoot"
   sodipodi:docname="logo-white.svg"
   inkscape:version="1.1.2 (0a00cf5339, 2022-02-04)"
   inkscape:export-filename="/home/debian/Documents/GitHub/core/frontend-main/src/assets/logo-white.png"
   inkscape:export-xdpi="121.6"
   inkscape:export-ydpi="121.6"
   xmlns:inkscape="http://www.inkscape.org/namespaces/inkscape"
   xmlns:sodipodi="http://sodipodi.sourceforge.net/DTD/sodipodi-0.dtd"
   xmlns="http://www.w3.org/2000/svg"
   xmlns:svg="http://www.w3.org/2000/svg">
  <sodipodi:namedview
     id="namedview137"
     pagecolor="#ffffff"
     bordercolor="#000000"
     borderopacity="0.25"
     inkscape:showpageshadow="2"
     inkscape:pageopacity="0.0"
     inkscape:pagecheckerboard="0"
     inkscape:deskcolor="#d1d1d1"
     inkscape:document-units="px"
     showgrid="false"
     inkscape:zoom="5.0266175"
     inkscape:cx="31.432668"
     inkscape:cy="21.485621"
     inkscape:window-width="1920"
     inkscape:window-height="1048"
     inkscape:window-x="1920"
     inkscape:window-y="0"
     inkscape:window-maximized="1"
     inkscape:current-layer="layer1"
     inkscape:pageshadow="2"
     showguides="false"
     inkscape:lockguides="false" />
  <defs
     id="defs132">
    <rect
       x="11.236365"
       y="7.2846913"
       width="69.72084"
       height="10.069939"
       id="rect3" />
    <rect
       x="12.94258"
       y="23.094154"
       width="88.413605"
       height="18.186064"
       id="rect1" />
    <rect
       x="-1.4777668"
       y="42.333267"
       width="127.8846"
       height="23.821753"
       id="rect3454" />
    <clipPath
       id="b983e3c625">
      <path
         d="m 142,147.30078 h 115 v 72.75 H 142 Z m 0,0"
         clip-rule="nonzero"
         id="path1144" />
    </clipPath>
    <clipPath
       id="0e8c13dd3a">
      <path
         d="m 70.261719,116.35938 h 89.156251 v 70.49999 H 70.261719 Z m 0,0"
         clip-rule="nonzero"
         id="path1147" />
    </clipPath>
    <clipPath
       id="b983e3c625-3">
      <path
         d="m 142,147.30078 h 115 v 72.75 H 142 Z m 0,0"
         clip-rule="nonzero"
         id="path1144-6" />
    </clipPath>
    <clipPath
       id="0e8c13dd3a-7">
      <path
         d="m 70.261719,116.35938 h 89.156251 v 70.49999 H 70.261719 Z m 0,0"
         clip-rule="nonzero"
         id="path1147-5" />
    </clipPath>
  </defs>
  <g
     inkscape:label="Layer 1"
     inkscape:groupmode="layer"
     id="layer1"
     style="display:inline">
    <text
       xml:space="preserve"
       style="font-style:normal;font-variant:normal;font-weight:normal;font-stretch:normal;font-size:19.8478px;line-height:0;font-family:Manrope;-inkscape-font-specification:Manrope;letter-spacing:-0.744293px;fill:#000000;fill-opacity:1;stroke:#000000;stroke-width:0.1;stroke-linecap:round;stroke-linejoin:round;stroke-miterlimit:4;stroke-dasharray:none;stroke-opacity:1;paint-order:stroke markers fill"
       x="-1.5286642"
       y="32.081856"
       id="text2"
       inkscape:export-filename="/home/debian/Documents/GitHub/core/frontend-main/src/assets/logo-white.png"
       inkscape:export-xdpi="121.6"
       inkscape:export-ydpi="121.6"><tspan
         sodipodi:role="line"
         id="tspan2"
         x="-1.5286642"
         y="32.081856"
         style="font-style:normal;font-variant:normal;font-weight:600;font-stretch:normal;font-size:21.3333px;font-family:'IBM Plex Sans';-inkscape-font-specification:'IBM Plex Sans Semi-Bold';word-spacing:0px;fill:#000000;fill-opacity:1;stroke:#000000;stroke-width:0.1;stroke-linecap:round;stroke-linejoin:round;stroke-miterlimit:4;stroke-dasharray:none;stroke-opacity:1;paint-order:stroke markers fill">blackdays</tspan></text>
    <g
       id="g9943"
       transform="translate(6,0.5)"
       style="fill:#0866ff;fill-opacity:1">
      <path
         style="fill:#0866ff;fill-opacity:1;stroke-width:0.284118"
         d="m -9.6481286,33.492653 c -1.3506724,-2.987689 -1.4272544,-5.028687 -1.3795274,-7.289429 0.04773,-2.328443 -0.689209,-4.177437 -2.9888,-4.866645 C -22.62881,18.759526 -27.082601,19.29558 -35.024614,13.5 c 0,0 0,4.780078 5.383831,7.702285 3.870018,2.08872 10.901954,2.99879 13.785327,3.59255 1.609264,0.345163 1.935555,1.494959 2.289591,2.902232 0.794655,3.123092 1.705827,5.135229 3.9177364,5.795586"
         id="path33289" />
      <path
         style="fill:#0866ff;fill-opacity:1;stroke-width:0.284111"
         d="m -13.760329,31.778331 c -1.867763,-0.287449 -5.862991,-0.316307 -5.862991,-0.316307 2.373937,1.138199 8.212664,3.777814 5.862991,0.316307 z"
         id="path33287" />
      <path
         style="fill:#0866ff;fill-opacity:1;stroke-width:0.284118"
         d="m -13.834438,30.733589 c 0.05773,-1.541567 -1.551563,-1.84788 -3.121982,-1.953317 -0.938927,-0.05771 -1.878954,-0.115418 -2.405027,-0.153163 -2.204136,-0.153165 -4.436027,-0.46946 -4.436027,-0.46946 0,0 0.278573,1.37953 2.711336,1.915583 2.423891,0.536049 7.2517,0.660352 7.2517,0.660352 z"
         id="path33285" />
      <path
         style="fill:#0866ff;fill-opacity:1;stroke-width:0.284118"
         d="m -14.849947,28.023359 c 0,0 0.124291,-1.848992 -1.7147,-2.088715 -1.839,-0.239726 -4.9621,-0.612632 -8.257209,-1.312941 -3.296227,-0.699198 -4.080882,-1.043249 -4.080882,-1.043249 0,0 0.04773,1.963308 4.588082,3.026531 4.531473,1.054348 9.464709,1.418374 9.464709,1.418374 z"
         id="path1156" />
    </g>
    <g
       id="g9949"
       transform="translate(-2)"
       style="fill:#0866ff;fill-opacity:1">
      <path
         style="display:inline;fill:#0866ff;fill-opacity:1;stroke-width:0.284118"
         d="m 96.49377,33.86027 c 1.350673,-2.987689 1.427255,-5.028687 1.379527,-7.289429 -0.04773,-2.328443 0.689209,-4.177437 2.988803,-4.866645 8.61235,-2.577053 13.06614,-2.040999 21.00815,-7.836579 0,0 0,4.780078 -5.38383,7.702285 -3.87001,2.08872 -10.90195,2.99879 -13.78532,3.59255 -1.60927,0.345163 -1.93556,1.494959 -2.28959,2.902232 -0.794658,3.123092 -1.705831,5.135229 -3.91774,5.795586"
         id="path33289-3" />
      <path
         style="display:inline;fill:#0866ff;fill-opacity:1;stroke-width:0.284111"
         d="m 100.60597,32.145948 c 1.86776,-0.287449 5.86299,-0.316307 5.86299,-0.316307 -2.37394,1.138199 -8.212663,3.777814 -5.86299,0.316307 z"
         id="path33287-6" />
      <path
         style="display:inline;fill:#0866ff;fill-opacity:1;stroke-width:0.284118"
         d="m 100.68008,31.101206 c -0.0577,-1.541567 1.55156,-1.84788 3.12198,-1.953317 0.93893,-0.05771 1.87896,-0.115418 2.40503,-0.153163 2.20413,-0.153165 4.43603,-0.46946 4.43603,-0.46946 0,0 -0.27858,1.37953 -2.71134,1.915583 -2.42389,0.536049 -7.2517,0.660352 -7.2517,0.660352 z"
         id="path33285-7" />
      <path
         style="display:inline;fill:#0866ff;fill-opacity:1;stroke-width:0.284118"
         d="m 101.69559,28.390976 c 0,0 -0.12429,-1.848992 1.7147,-2.088715 1.839,-0.239726 4.9621,-0.612632 8.25721,-1.312941 3.29622,-0.699198 4.08088,-1.043249 4.08088,-1.043249 0,0 -0.0477,1.963308 -4.58808,3.026531 -4.53148,1.054348 -9.46471,1.418374 -9.46471,1.418374 z"
         id="path1156-5" />
    </g>
  </g>
  <g
     inkscape:groupmode="layer"
     id="layer2"
     inkscape:label="Layer 2"
     style="display:inline" />
  <g
     inkscape:groupmode="layer"
     id="layer3"
     inkscape:label="Layer 3"
     style="display:inline" />
  <g
     inkscape:groupmode="layer"
     id="layer4"
     inkscape:label="limit"
     style="display:none">
    <rect
       style="display:inline;opacity:0.557195;fill:#ff5e00;fill-opacity:1;stroke:#0069f5;stroke-width:0;stroke-linecap:round;stroke-linejoin:round;paint-order:stroke fill markers"
       id="rect1592-1"
       width="15"
       height="14.999998"
       x="1.8808064e-06"
       y="14.999999" />
    <rect
       style="display:inline;opacity:0.557195;fill:#ff0000;stroke:#0069f5;stroke-width:0;stroke-linecap:round;stroke-linejoin:round;paint-order:stroke fill markers"
       id="rect1592"
       width="120"
       height="14.999998"
       x="1.8808064e-06"
       y="6.7562792e-07" />
  </g>
</svg>
