<?xml version="1.0" encoding="UTF-8" standalone="no"?>
<!-- Created with Inkscape (http://www.inkscape.org/) -->

<svg
   width="170"
   height="48"
   viewBox="0 0 44.979159 12.7"
   version="1.1"
   id="svg5"
   inkscape:version="1.1.2 (0a00cf5339, 2022-02-04)"
   sodipodi:docname="logo.svg"
   xmlns:inkscape="http://www.inkscape.org/namespaces/inkscape"
   xmlns:sodipodi="http://sodipodi.sourceforge.net/DTD/sodipodi-0.dtd"
   xmlns="http://www.w3.org/2000/svg"
   xmlns:svg="http://www.w3.org/2000/svg">
  <sodipodi:namedview
     id="namedview7"
     pagecolor="#ffffff"
     bordercolor="#666666"
     borderopacity="1.0"
     inkscape:pageshadow="2"
     inkscape:pageopacity="0.0"
     inkscape:pagecheckerboard="0"
     inkscape:document-units="mm"
     showgrid="false"
     units="px"
     height="48px"
     inkscape:zoom="2.9647587"
     inkscape:cx="90.901158"
     inkscape:cy="5.3967293"
     inkscape:window-width="1488"
     inkscape:window-height="778"
     inkscape:window-x="282"
     inkscape:window-y="221"
     inkscape:window-maximized="0"
     inkscape:current-layer="layer1" />
  <defs
     id="defs2" />
  <g
     inkscape:label="Layer 1"
     inkscape:groupmode="layer"
     id="layer1">
    <path
       style="fill:#0866ff;stroke:none;stroke-width:0.0131445;fill-opacity:0.5"
       d="M 0.78918567,0.00840966 C 0.00408805,0.1210234 8.996299e-5,1.0821944 8.996299e-5,1.6843729 v 5.4520178 c 0,0.8587905 -0.01363815299,1.6919648 0.29492460701,2.5092419 0.53441499,1.4155544 1.80450383,2.5688854 3.29546073,2.8978464 0.9002397,0.198506 1.8323197,0.136891 2.7486819,0.136891 0.783046,0 1.6063358,0.07147 2.380439,-0.05833 0.5143589,-0.08618 1.0074123,-0.249348 1.4729788,-0.483588 0.348912,-0.175514 0.687696,-0.413827 0.973218,-0.679596 0.748588,-0.696677 1.283595,-1.6120899 1.45404,-2.6277425 0.116786,-0.6950993 0.07154,-1.4126635 0.07154,-2.1151196 V 3.9834165 1.5004495 c 0,-0.4479193 -0.02959,-0.98056169 -0.382579,-1.30994243 -0.361402,-0.33724991 -0.95638,-0.17275662 -1.287668,0.1275904 C 10.526626,0.76639779 10.030547,1.2132136 9.5349959,1.6603316 9.385856,1.7948848 9.2334293,1.9275199 9.0878416,2.0658698 8.9972271,2.1519196 8.8962227,2.2732303 8.7853543,2.3323224 8.707102,2.3740204 8.5527017,2.2992161 8.4697148,2.2835826 8.2074725,2.2341859 7.9344456,2.1868125 7.6674683,2.1836464 c -0.5697271,-0.00677 -1.1399802,0 -1.7097073,0 -0.3220681,0 -0.6519626,-0.02081 -0.9732166,0.00117 -0.2514322,0.01721 -0.5024567,0.05364 -0.749641,0.1039825 C 4.1586241,2.304327 3.9999107,2.3759651 3.9268405,2.3478118 3.8466815,2.316939 3.7707705,2.21607 3.7088397,2.1585414 3.5747723,2.0340121 3.4359177,1.9144618 3.3011402,1.790655 2.836981,1.3642547 2.3699415,0.93584445 1.8939196,0.52276544 1.5855541,0.25516982 1.2348932,-0.05546375 0.78918567,0.00846282 Z"
       id="path971" />
    <path
       style="fill:#000080;stroke-width:0.0137301"
       d="m 9.2735756,2.3846127 c -0.041693,-0.00904 -0.073896,-0.02167 -0.071563,-0.028075 0.00307,0.025439 0.096013,0.035743 0.071563,0.028075 z M 5.3418207,10.30759 C 5.1411391,10.270873 4.950874,10.190453 4.7968205,10.077229 4.6384337,9.9608207 4.4538989,9.6968883 4.4384519,9.5646644 4.4221324,9.4250027 4.5652372,9.3166824 4.7163431,9.3543182 4.7899891,9.3726611 4.8208959,9.4029925 4.892454,9.5271488 5.0575312,9.813566 5.3594686,9.9595304 5.6667336,9.9014551 5.8352144,9.8696113 5.9546934,9.8110018 6.073201,9.7020656 6.2511648,9.538476 6.3079287,9.386044 6.3079287,9.0717367 c 0,-0.1514937 -0.00237,-0.1666588 -0.027197,-0.1739094 C 6.2253343,8.8816464 6.0705581,8.7802589 5.9814193,8.7017605 5.7936447,8.5363978 5.6781687,8.3668081 5.6781687,8.2564051 c 0,-0.074601 0.014125,-0.1054805 0.075596,-0.1652609 0.070326,-0.06839 0.1170026,-0.072231 0.8189494,-0.067381 0.568504,0.00393 0.6342392,0.0066 0.6758178,0.027519 0.1016965,0.051159 0.1610893,0.1567656 0.1399247,0.2488 -0.038594,0.167825 -0.3083839,0.4503528 -0.538593,0.5640258 -0.076415,0.037732 -0.081197,0.043082 -0.090709,0.1014475 -0.01501,0.092109 0.00666,0.3555659 0.03665,0.4455283 0.083519,0.2505576 0.3328581,0.4535188 0.6070473,0.4941348 0.2385644,0.035339 0.5036375,-0.051403 0.6615392,-0.216483 0.033092,-0.034596 0.0866,-0.1124599 0.1189037,-0.1730305 C 8.2526968,9.3855744 8.2987124,9.3517871 8.4064313,9.351863 8.5357554,9.3519913 8.6264347,9.43453 8.6265363,9.5522985 8.626676,9.676553 8.4976173,9.8787439 8.318847,10.034468 8.223173,10.117808 8.1685844,10.152773 8.0512263,10.205875 7.8437629,10.299755 7.7570739,10.318365 7.5316667,10.31744 7.317853,10.316564 7.1856422,10.290309 7.0105232,10.213957 6.8344923,10.137206 6.6544012,10.002846 6.5611261,9.8786734 L 6.536403,9.8457603 6.476431,9.9116017 C 6.2986539,10.106784 6.0998976,10.224082 5.8409599,10.286629 5.6938634,10.322161 5.4723157,10.331465 5.3418207,10.30759 Z M 3.6661865,7.2966169 C 3.2343979,7.2441256 2.9375176,6.8477577 3.037553,6.4573175 3.1971158,5.8345281 4.125661,5.7376715 4.4318987,6.3118743 4.5691768,6.5692726 4.5227799,6.8742838 4.3147577,7.081963 4.2534383,7.1431798 4.1168879,7.2272272 4.0245144,7.2606078 c -0.051017,0.018436 -0.088393,0.02516 -0.2356243,0.042389 -0.01968,0.0023 -0.074897,-5.613e-4 -0.1227036,-0.00638 z m 5.5329112,-0.00156 C 9.0101953,7.2744184 8.7810759,7.1341141 8.6676649,6.9696303 8.5718104,6.830607 8.5367686,6.5911672 8.5887166,6.4301872 8.6804652,6.1458772 8.940908,5.951221 9.2563493,5.9311929 9.4780976,5.9171124 9.6839918,5.9882994 9.8381368,6.1323424 10.126789,6.4020728 10.124308,6.8307787 9.8325475,7.0986835 9.6633886,7.2540094 9.4444807,7.3218726 9.1990977,7.2950601 Z M 0.74711945,4.4488528 C 0.76105008,4.1737487 0.80896464,3.6326553 0.83382997,3.4696465 0.89702263,3.0553904 1.0670947,2.699434 1.3520763,2.3849809 1.8314556,1.8930776 2.4008799,1.7060802 2.952101,1.615978 c 0.2685776,0.1161128 0.6142317,0.4732256 0.9074023,0.7116532 0.075781,0.054505 0.04342,0.041463 -0.028626,0.063034 C 3.1417443,2.5986807 2.4368266,2.9289226 1.8852986,3.3493855 1.6832542,3.5058764 1.4069352,3.7585459 1.2554801,3.9252992 1.1258881,4.0679808 0.88540975,4.3965287 0.81134462,4.5320857 c -0.0313893,0.057451 -0.060819,0.1044566 -0.0653999,0.1044566 -0.004582,0 -0.004054,-0.08446 0.001168,-0.1876895 z"
       id="path1063"
       sodipodi:nodetypes="cccsscssssssssssssssssssccssssscsssccsssscsssscsscccccccssscc" />
    <text
       xml:space="preserve"
       style="font-size:10.6248px;line-height:1.25;font-family:'Inter 28pt';-inkscape-font-specification:'Inter 28pt';letter-spacing:-0.23906px;fill:#0866ff;fill-opacity:1;stroke-width:0.265621"
       x="16.824726"
       y="9.4636803"
       id="text3040"><tspan
         sodipodi:role="line"
         id="tspan3038"
         style="font-style:normal;font-variant:normal;font-weight:bold;font-stretch:normal;font-family:'Inter 28pt';-inkscape-font-specification:'Inter 28pt Bold';fill:#0866ff;fill-opacity:1;stroke-width:0.265621"
         x="16.824726"
         y="9.4636803">Pairfy</tspan></text>
  </g>
</svg>
