<?xml version="1.0" encoding="UTF-8" standalone="no"?>
<!-- Created with Inkscape (http://www.inkscape.org/) -->

<svg
   width="120"
   height="50"
   viewBox="0 0 120 50"
   version="1.1"
   id="SVGRoot"
   sodipodi:docname="logo-white.svg"
   inkscape:version="1.1.2 (0a00cf5339, 2022-02-04)"
   inkscape:export-filename="/home/debian/Documents/GitHub/core/frontend-main/src/assets/logo-white.png"
   inkscape:export-xdpi="121.6"
   inkscape:export-ydpi="121.6"
   xmlns:inkscape="http://www.inkscape.org/namespaces/inkscape"
   xmlns:sodipodi="http://sodipodi.sourceforge.net/DTD/sodipodi-0.dtd"
   xmlns="http://www.w3.org/2000/svg"
   xmlns:svg="http://www.w3.org/2000/svg">
  <sodipodi:namedview
     id="namedview137"
     pagecolor="#ffffff"
     bordercolor="#000000"
     borderopacity="0.25"
     inkscape:showpageshadow="2"
     inkscape:pageopacity="0.0"
     inkscape:pagecheckerboard="0"
     inkscape:deskcolor="#d1d1d1"
     inkscape:document-units="px"
     showgrid="false"
     inkscape:zoom="7.1087104"
     inkscape:cx="51.767477"
     inkscape:cy="26.446428"
     inkscape:window-width="1488"
     inkscape:window-height="778"
     inkscape:window-x="342"
     inkscape:window-y="240"
     inkscape:window-maximized="0"
     inkscape:current-layer="layer1"
     inkscape:pageshadow="2"
     showguides="false" />
  <defs
     id="defs132">
    <rect
       x="11.236365"
       y="7.2846913"
       width="69.72084"
       height="10.069939"
       id="rect3" />
    <rect
       x="12.94258"
       y="23.094154"
       width="88.413605"
       height="18.186064"
       id="rect1" />
    <rect
       x="-1.4777668"
       y="42.333267"
       width="127.8846"
       height="23.821753"
       id="rect3454" />
    <clipPath
       id="b983e3c625">
      <path
         d="m 142,147.30078 h 115 v 72.75 H 142 Z m 0,0"
         clip-rule="nonzero"
         id="path1144" />
    </clipPath>
    <clipPath
       id="0e8c13dd3a">
      <path
         d="m 70.261719,116.35938 h 89.156251 v 70.49999 H 70.261719 Z m 0,0"
         clip-rule="nonzero"
         id="path1147" />
    </clipPath>
    <clipPath
       id="b983e3c625-3">
      <path
         d="m 142,147.30078 h 115 v 72.75 H 142 Z m 0,0"
         clip-rule="nonzero"
         id="path1144-6" />
    </clipPath>
    <clipPath
       id="0e8c13dd3a-7">
      <path
         d="m 70.261719,116.35938 h 89.156251 v 70.49999 H 70.261719 Z m 0,0"
         clip-rule="nonzero"
         id="path1147-5" />
    </clipPath>
  </defs>
  <g
     inkscape:label="Layer 1"
     inkscape:groupmode="layer"
     id="layer1"
     style="display:inline">
    <text
       xml:space="preserve"
       style="font-style:normal;font-variant:normal;font-weight:normal;font-stretch:normal;font-size:19.8478px;line-height:0;font-family:Manrope;-inkscape-font-specification:Manrope;letter-spacing:-0.744293px;fill:#f9f9f9;stroke:#ff9a00;stroke-width:0.0744293;stroke-linecap:round;stroke-linejoin:round;stroke-miterlimit:4;stroke-dasharray:none;paint-order:stroke fill markers"
       x="-0.041157071"
       y="31.281778"
       id="text2"
       inkscape:export-filename="/home/debian/Documents/GitHub/core/frontend-main/src/assets/logo-white.png"
       inkscape:export-xdpi="121.6"
       inkscape:export-ydpi="121.6"><tspan
         sodipodi:role="line"
         id="tspan2"
         x="-0.041157071"
         y="31.281778"
         style="font-style:normal;font-variant:normal;font-weight:bold;font-stretch:normal;font-size:19.8478px;font-family:'IBM Plex Sans';-inkscape-font-specification:'IBM Plex Sans Bold';word-spacing:0px;fill:#f9f9f9;fill-opacity:1;stroke:#ffffff;stroke-width:0.0744293;stroke-miterlimit:4;stroke-dasharray:none;stroke-opacity:1;paint-order:stroke fill markers"
         dx="0 0 0">adausd</tspan></text>
    <g
       clip-path="url(#b983e3c625-3)"
       id="g1154"
       style="display:inline;fill:#f9f9f9"
       transform="matrix(0.19919782,0,0,0.19919782,48.436158,-15.096537)"
       inkscape:export-filename="/home/debian/Documents/GitHub/core/frontend-main/src/assets/logo-white.png"
       inkscape:export-xdpi="121.6"
       inkscape:export-ydpi="121.6">
      <path
         fill="#ffffff"
         d="m 255.65234,181.28516 -5.82812,23.3164 c -0.23438,0.9375 -0.54688,1.85156 -0.9336,2.73828 -0.38671,0.88672 -0.84375,1.73438 -1.375,2.54688 -0.52734,0.8125 -1.11718,1.57422 -1.77343,2.28515 -0.65235,0.71485 -1.36328,1.36719 -2.125,1.96485 -0.76172,0.59375 -1.57032,1.12109 -2.42188,1.58203 -0.84765,0.46094 -1.73047,0.85156 -2.64844,1.16406 -0.91406,0.31641 -1.84765,0.55469 -2.80468,0.71094 -0.95313,0.16016 -1.91407,0.24219 -2.88282,0.24219 h -58 c -0.9375,0 -1.86718,-0.0742 -2.79296,-0.21875 -0.92188,-0.14844 -1.82813,-0.3711 -2.71875,-0.66407 -0.89063,-0.29296 -1.75,-0.65234 -2.57813,-1.08593 -0.83203,-0.42969 -1.625,-0.92578 -2.375,-1.48438 -0.75,-0.55859 -1.45312,-1.17187 -2.10547,-1.84375 -0.65234,-0.67187 -1.25,-1.39062 -1.78515,-2.15625 -0.53907,-0.76562 -1.01172,-1.57031 -1.41797,-2.41406 -0.41016,-0.84375 -0.7461,-1.71094 -1.01563,-2.60938 -2.1675,-6.58299 -2.66172,-15.4442 -3.60898,-22.16938 -2.56499,-18.2104 -5.51434,-29.15323 5.19221,-17.63148 5.81614,13.11291 8.73547,28.10111 11.81519,39.54693 0.52734,0.375 1.10156,0.65234 1.72266,0.83594 0.62109,0.18359 1.2539,0.26171 1.90234,0.23437 h 58.29297 c 0.66406,0.0195 1.3125,-0.0742 1.94922,-0.27734 0.63281,-0.20313 1.21484,-0.50391 1.74609,-0.91016 0.53125,-0.40234 0.97656,-0.88281 1.34375,-1.4375 0.36719,-0.55859 0.62891,-1.16016 0.78906,-1.80469 l 5.82813,-23.3164 c 0.10937,-0.4375 0.16406,-0.88282 0.17187,-1.33203 0.004,-0.44922 -0.0391,-0.89063 -0.13672,-1.33204 -0.0977,-0.4375 -0.24609,-0.85937 -0.4375,-1.26562 -0.19531,-0.40625 -0.43359,-0.78125 -0.71875,-1.13281 -0.28125,-0.35157 -0.59765,-0.66407 -0.95312,-0.9375 -0.35547,-0.27735 -0.73828,-0.51172 -1.14453,-0.69922 -0.41016,-0.1875 -0.83594,-0.32422 -1.27344,-0.41406 -0.44141,-0.0898 -0.88672,-0.12891 -1.33594,-0.11719 h -61.38281 c -0.38281,0 -0.76172,-0.0352 -1.13672,-0.11328 -0.375,-0.0742 -0.73828,-0.1836 -1.09375,-0.33203 -0.35156,-0.14454 -0.6875,-0.32422 -1.00781,-0.53907 -0.31641,-0.21093 -0.61328,-0.45312 -0.88281,-0.72265 -0.26953,-0.26953 -0.51172,-0.56641 -0.72266,-0.88282 -0.21484,-0.32031 -0.39453,-0.65625 -0.53906,-1.00781 -0.14844,-0.35547 -0.25781,-0.71875 -0.33203,-1.09375 -0.0742,-0.375 -0.11328,-0.7539 -0.11328,-1.13672 0,-0.38281 0.0391,-0.76172 0.11328,-1.13672 0.0742,-0.375 0.18359,-0.74218 0.33203,-1.09375 0.14453,-0.35546 0.32422,-0.6914 0.53906,-1.00781 0.21094,-0.3164 0.45313,-0.61328 0.72266,-0.88281 0.26953,-0.26953 0.5664,-0.51172 0.88281,-0.72656 0.32031,-0.21094 0.65625,-0.39063 1.00781,-0.53907 0.35547,-0.14453 0.71875,-0.25781 1.09375,-0.33203 0.375,-0.0742 0.75391,-0.10937 1.13672,-0.10937 h 60.85938 c 0.66015,0 1.32031,0.0352 1.98046,0.10937 0.65625,0.0781 1.3086,0.1875 1.95704,0.33594 0.64453,0.15234 1.27734,0.33594 1.90234,0.55859 0.625,0.21875 1.23437,0.47657 1.83203,0.76563 0.59375,0.29297 1.17188,0.61328 1.73047,0.97266 0.55859,0.35546 1.09375,0.74218 1.60937,1.16015 0.51563,0.41406 1.00391,0.85938 1.46875,1.33203 0.46485,0.47657 0.89844,0.97266 1.3086,1.4961 0.40625,0.51953 0.78125,1.0664 1.1289,1.6289 0.34375,0.56641 0.65625,1.14844 0.9375,1.75 0.28125,0.60157 0.52344,1.21485 0.73438,1.84375 0.20703,0.62891 0.38281,1.26563 0.51953,1.91407 0.13672,0.64843 0.23828,1.30468 0.30078,1.96484 0.0625,0.65625 0.0859,1.32031 0.0742,1.98047 -0.0117,0.66406 -0.0625,1.32422 -0.14844,1.98047 -0.0898,0.65625 -0.21484,1.30468 -0.375,1.94922 z m -60.33203,59.86718 c 0,0.57032 -0.0273,1.14453 -0.0859,1.71485 -0.0547,0.57031 -0.14062,1.13281 -0.25,1.69531 -0.11328,0.5625 -0.25,1.11719 -0.41796,1.66406 -0.16407,0.55078 -0.35938,1.08985 -0.57813,1.61719 -0.21875,0.52734 -0.46484,1.04687 -0.73437,1.55078 -0.26954,0.50781 -0.5625,0.99609 -0.88282,1.47266 -0.3164,0.47656 -0.65625,0.9375 -1.01953,1.3789 -0.36328,0.44141 -0.75,0.86719 -1.15234,1.26953 -0.40625,0.40625 -0.83203,0.78907 -1.27344,1.15235 -0.44141,0.36719 -0.90234,0.70703 -1.37891,1.02344 -0.47656,0.32031 -0.96484,0.61328 -1.47265,0.88281 -0.50391,0.26953 -1.01953,0.51562 -1.55078,0.73437 -0.52735,0.21875 -1.06641,0.41016 -1.61328,0.57813 -0.55079,0.16406 -1.10547,0.30469 -1.66797,0.41797 -0.5586,0.10937 -1.125,0.19531 -1.69532,0.25 -0.57031,0.0586 -1.14062,0.0859 -1.71484,0.0859 -0.57422,0 -1.14453,-0.0273 -1.71484,-0.0859 -0.57032,-0.0547 -1.13672,-0.14063 -1.69532,-0.25 -0.5625,-0.11328 -1.11718,-0.25391 -1.66796,-0.41797 -0.54688,-0.16797 -1.08594,-0.35938 -1.61329,-0.57813 -0.53125,-0.21875 -1.04687,-0.46484 -1.55078,-0.73437 -0.50781,-0.26953 -0.99609,-0.5625 -1.47265,-0.88281 -0.47657,-0.31641 -0.9375,-0.65625 -1.37891,-1.02344 -0.44531,-0.36328 -0.86719,-0.7461 -1.27344,-1.15235 -0.40234,-0.40234 -0.78906,-0.82812 -1.15234,-1.26953 -0.36328,-0.4414 -0.70313,-0.90234 -1.01953,-1.3789 -0.32031,-0.47657 -0.61328,-0.96485 -0.88281,-1.47266 -0.26954,-0.50391 -0.51563,-1.02344 -0.73438,-1.55078 -0.21875,-0.52734 -0.41406,-1.06641 -0.57812,-1.61719 -0.16797,-0.54687 -0.30469,-1.10156 -0.41797,-1.66406 -0.11328,-0.5625 -0.19532,-1.125 -0.25,-1.69531 -0.0586,-0.57032 -0.0859,-1.14453 -0.0859,-1.71485 0,-0.57422 0.0273,-1.14453 0.0859,-1.71484 0.0547,-0.57031 0.13672,-1.13672 0.25,-1.69922 0.11328,-0.55859 0.25,-1.11328 0.41797,-1.66406 0.16406,-0.54688 0.35937,-1.08594 0.57812,-1.61328 0.21875,-0.53125 0.46484,-1.04688 0.73438,-1.55469 0.26953,-0.50391 0.5625,-0.99609 0.88281,-1.46875 0.3164,-0.47656 0.65625,-0.9375 1.01953,-1.37891 0.36328,-0.44531 0.75,-0.86718 1.15234,-1.27343 0.40625,-0.40625 0.82813,-0.78907 1.27344,-1.15235 0.44141,-0.36328 0.90234,-0.70312 1.37891,-1.02344 0.47656,-0.3164 0.96484,-0.60937 1.47265,-0.8789 0.50391,-0.27344 1.01953,-0.51563 1.55078,-0.73438 0.52735,-0.21875 1.06641,-0.41406 1.61329,-0.57812 0.55078,-0.16797 1.10546,-0.30469 1.66796,-0.41797 0.5586,-0.11328 1.125,-0.19531 1.69532,-0.25391 0.57031,-0.0547 1.14062,-0.082 1.71484,-0.082 0.57422,0 1.14453,0.0273 1.71484,0.082 0.57032,0.0586 1.13672,0.14063 1.69532,0.25391 0.5625,0.11328 1.11718,0.25 1.66797,0.41797 0.54687,0.16406 1.08593,0.35937 1.61328,0.57812 0.53125,0.21875 1.04687,0.46094 1.55078,0.73438 0.50781,0.26953 0.99609,0.5625 1.47265,0.8789 0.47657,0.32032 0.9375,0.66016 1.37891,1.02344 0.44141,0.36328 0.86719,0.7461 1.27344,1.15235 0.40234,0.40625 0.78906,0.82812 1.15234,1.27343 0.36328,0.44141 0.70313,0.90235 1.01953,1.37891 0.32032,0.47266 0.61328,0.96484 0.88282,1.46875 0.26953,0.50781 0.51562,1.02344 0.73437,1.55469 0.21875,0.52734 0.41406,1.0664 0.57813,1.61328 0.16796,0.55078 0.30468,1.10547 0.41796,1.66406 0.10938,0.5625 0.19532,1.12891 0.25,1.69922 0.0586,0.57031 0.0859,1.14062 0.0859,1.71484 z m -11.66015,0 c 0,-0.38281 -0.0352,-0.76172 -0.10938,-1.13672 -0.0781,-0.375 -0.1875,-0.74218 -0.33203,-1.09375 -0.14844,-0.35546 -0.32813,-0.6914 -0.53906,-1.00781 -0.21485,-0.32031 -0.45703,-0.61328 -0.72657,-0.88281 -0.26953,-0.27344 -0.5664,-0.51563 -0.88281,-0.72656 -0.3164,-0.21094 -0.65234,-0.39063 -1.00781,-0.53907 -0.35547,-0.14453 -0.71875,-0.25781 -1.09375,-0.33203 -0.375,-0.0742 -0.75391,-0.11328 -1.13672,-0.11328 -0.38281,0 -0.76172,0.0391 -1.13672,0.11328 -0.375,0.0742 -0.74219,0.1875 -1.09375,0.33203 -0.35547,0.14844 -0.6914,0.32813 -1.00781,0.53907 -0.32031,0.21093 -0.61328,0.45312 -0.88281,0.72656 -0.27344,0.26953 -0.51172,0.5625 -0.72657,0.88281 -0.21093,0.31641 -0.39062,0.65235 -0.53906,1.00781 -0.14453,0.35157 -0.25781,0.71875 -0.33203,1.09375 -0.0742,0.375 -0.10937,0.75391 -0.10937,1.13672 0,0.38282 0.0352,0.76172 0.10937,1.13672 0.0742,0.375 0.1875,0.73828 0.33203,1.09375 0.14844,0.35156 0.32813,0.6875 0.53906,1.00781 0.21485,0.31641 0.45313,0.61329 0.72657,0.88282 0.26953,0.26953 0.5625,0.51172 0.88281,0.72656 0.31641,0.21094 0.65234,0.39062 1.00781,0.53906 0.35156,0.14453 0.71875,0.25391 1.09375,0.32813 0.375,0.0781 0.75391,0.11328 1.13672,0.11328 0.38281,0 0.76172,-0.0352 1.13672,-0.11328 0.375,-0.0742 0.73828,-0.1836 1.09375,-0.32813 0.35547,-0.14844 0.69141,-0.32812 1.00781,-0.53906 0.31641,-0.21484 0.61328,-0.45703 0.88281,-0.72656 0.26954,-0.26953 0.51172,-0.56641 0.72657,-0.88282 0.21093,-0.32031 0.39062,-0.65625 0.53906,-1.00781 0.14453,-0.35547 0.25391,-0.71875 0.33203,-1.09375 0.0742,-0.375 0.10938,-0.7539 0.10938,-1.13672 z m 58.29296,0 c 0,0.57032 -0.0273,1.14453 -0.082,1.71485 -0.0586,0.57031 -0.14062,1.13281 -0.2539,1.69531 -0.10938,0.5625 -0.25,1.11719 -0.41407,1.66406 -0.16796,0.55078 -0.35937,1.08985 -0.58203,1.61719 -0.21875,0.52734 -0.46093,1.04687 -0.73047,1.55078 -0.26953,0.50781 -0.5664,0.99609 -0.88281,1.47266 -0.32031,0.47656 -0.66015,0.9375 -1.02344,1.3789 -0.36328,0.44141 -0.74609,0.86719 -1.15234,1.26953 -0.40625,0.40625 -0.82812,0.78907 -1.27344,1.15235 -0.4414,0.36719 -0.89843,0.70703 -1.375,1.02344 -0.47656,0.32031 -0.96875,0.61328 -1.47265,0.88281 -0.50782,0.26953 -1.02344,0.51562 -1.55078,0.73437 -0.53125,0.21875 -1.07032,0.41016 -1.61719,0.57813 -0.54688,0.16406 -1.10156,0.30469 -1.66406,0.41797 -0.5625,0.10937 -1.12891,0.19531 -1.69922,0.25 -0.57032,0.0586 -1.14063,0.0859 -1.71485,0.0859 -0.57031,0 -1.14453,-0.0273 -1.71093,-0.0859 -0.57032,-0.0547 -1.13672,-0.14063 -1.69922,-0.25 -0.5625,-0.11328 -1.11719,-0.25391 -1.66407,-0.41797 -0.55078,-0.16797 -1.08593,-0.35938 -1.61718,-0.57813 -0.52735,-0.21875 -1.04688,-0.46484 -1.55078,-0.73437 -0.50391,-0.26953 -0.9961,-0.5625 -1.47266,-0.88281 -0.47656,-0.31641 -0.93359,-0.65625 -1.37891,-1.02344 -0.4414,-0.36328 -0.86718,-0.7461 -1.26953,-1.15235 -0.40625,-0.40234 -0.78906,-0.82812 -1.15234,-1.26953 -0.36328,-0.4414 -0.70703,-0.90234 -1.02344,-1.3789 -0.32031,-0.47657 -0.61328,-0.96485 -0.88281,-1.47266 -0.26953,-0.50391 -0.51563,-1.02344 -0.73438,-1.55078 -0.21875,-0.52734 -0.41015,-1.06641 -0.57812,-1.61719 -0.16406,-0.54687 -0.30469,-1.10156 -0.41797,-1.66406 -0.10938,-0.5625 -0.19531,-1.125 -0.25,-1.69531 -0.0547,-0.57032 -0.0859,-1.14453 -0.0859,-1.71485 0,-0.57422 0.0312,-1.14453 0.0859,-1.71484 0.0547,-0.57031 0.14062,-1.13672 0.25,-1.69922 0.11328,-0.55859 0.25391,-1.11328 0.41797,-1.66406 0.16797,-0.54688 0.35937,-1.08594 0.57812,-1.61328 0.21875,-0.53125 0.46485,-1.04688 0.73438,-1.55469 0.26953,-0.50391 0.5625,-0.99609 0.88281,-1.46875 0.31641,-0.47656 0.66016,-0.9375 1.02344,-1.37891 0.36328,-0.44531 0.74609,-0.86718 1.15234,-1.27343 0.40235,-0.40625 0.82813,-0.78907 1.26953,-1.15235 0.44532,-0.36328 0.90235,-0.70312 1.37891,-1.02344 0.47656,-0.3164 0.96875,-0.60937 1.47266,-0.8789 0.5039,-0.27344 1.02343,-0.51563 1.55078,-0.73438 0.53125,-0.21875 1.0664,-0.41406 1.61718,-0.57812 0.54688,-0.16797 1.10157,-0.30469 1.66407,-0.41797 0.5625,-0.11328 1.1289,-0.19531 1.69922,-0.25391 0.5664,-0.0547 1.14062,-0.082 1.71093,-0.082 0.57422,0 1.14453,0.0273 1.71485,0.082 0.57031,0.0586 1.13672,0.14063 1.69922,0.25391 0.5625,0.11328 1.11718,0.25 1.66406,0.41797 0.54687,0.16406 1.08594,0.35937 1.61719,0.57812 0.52734,0.21875 1.04296,0.46094 1.55078,0.73438 0.5039,0.26953 0.99609,0.5625 1.47265,0.8789 0.47657,0.32032 0.9336,0.66016 1.375,1.02344 0.44532,0.36328 0.86719,0.7461 1.27344,1.15235 0.40625,0.40625 0.78906,0.82812 1.15234,1.27343 0.36329,0.44141 0.70313,0.90235 1.02344,1.37891 0.31641,0.47266 0.61328,0.96484 0.88281,1.46875 0.26954,0.50781 0.51172,1.02344 0.73047,1.55469 0.22266,0.52734 0.41407,1.0664 0.58203,1.61328 0.16407,0.55078 0.30469,1.10547 0.41407,1.66406 0.11328,0.5625 0.19531,1.12891 0.2539,1.69922 0.0547,0.57031 0.082,1.14062 0.082,1.71484 z m -11.65625,0 c 0,-0.38281 -0.0391,-0.76172 -0.11328,-1.13672 -0.0742,-0.375 -0.18359,-0.74218 -0.33203,-1.09375 -0.14453,-0.35546 -0.32422,-0.6914 -0.53906,-1.00781 -0.21094,-0.32031 -0.45313,-0.61328 -0.72266,-0.88281 -0.27343,-0.27344 -0.5664,-0.51563 -0.88672,-0.72656 -0.3164,-0.21094 -0.65234,-0.39063 -1.00781,-0.53907 -0.35156,-0.14453 -0.71484,-0.25781 -1.08984,-0.33203 -0.37891,-0.0742 -0.75781,-0.11328 -1.14063,-0.11328 -0.38281,0 -0.76172,0.0391 -1.13672,0.11328 -0.375,0.0742 -0.73828,0.1875 -1.09375,0.33203 -0.35156,0.14844 -0.6875,0.32813 -1.00781,0.53907 -0.3164,0.21093 -0.61328,0.45312 -0.88281,0.72656 -0.26953,0.26953 -0.51172,0.5625 -0.72266,0.88281 -0.21484,0.31641 -0.39453,0.65235 -0.53906,1.00781 -0.14844,0.35157 -0.25781,0.71875 -0.33203,1.09375 -0.0742,0.375 -0.11328,0.75391 -0.11328,1.13672 0,0.38282 0.0391,0.76172 0.11328,1.13672 0.0742,0.375 0.18359,0.73828 0.33203,1.09375 0.14453,0.35156 0.32422,0.6875 0.53906,1.00781 0.21094,0.31641 0.45313,0.61329 0.72266,0.88282 0.26953,0.26953 0.56641,0.51172 0.88281,0.72656 0.32031,0.21094 0.65625,0.39062 1.00781,0.53906 0.35547,0.14453 0.71875,0.25391 1.09375,0.32813 0.375,0.0781 0.75391,0.11328 1.13672,0.11328 0.38282,0 0.76172,-0.0352 1.14063,-0.11328 0.375,-0.0742 0.73828,-0.1836 1.08984,-0.32813 0.35547,-0.14844 0.69141,-0.32812 1.00781,-0.53906 0.32032,-0.21484 0.61329,-0.45703 0.88672,-0.72656 0.26953,-0.26953 0.51172,-0.56641 0.72266,-0.88282 0.21484,-0.32031 0.39453,-0.65625 0.53906,-1.00781 0.14844,-0.35547 0.25781,-0.71875 0.33203,-1.09375 0.0742,-0.375 0.11328,-0.7539 0.11328,-1.13672 z"
         fill-opacity="1"
         fill-rule="nonzero"
         id="path1152"
         style="fill:#f9f9f9"
         sodipodi:nodetypes="ccsccccccsscscsscccsccscccccccccccccccscccsccsssccsccssscccccccccscscscscscccsccsscccccccscccccccssccscscscccccccccccccccsccccccsccccccccssccccscssscccccsssccccccscccscccssccccccsccccccccsccccscccsccsccsssccccccccccccscscscccccscccccccsssccscccsscccccsssccscccsccccccss"
         inkscape:export-filename="/home/debian/Documents/GitHub/core/frontend-main/src/assets/path1152.png"
         inkscape:export-xdpi="121.6"
         inkscape:export-ydpi="121.6" />
    </g>
    <path
       style="fill:#f9f9f9;stroke-width:0.172015"
       d="M 81.421215,24.104215 C 80.603473,22.29537 80.557109,21.059682 80.586001,19.690953 80.614894,18.281237 80.16873,17.161795 78.776484,16.744525 73.562276,15.184292 70.865806,15.508837 66.057448,12 c 0,0 0,2.894018 3.259551,4.66322 2.343033,1.26458 6.600406,1.815565 8.346091,2.175049 0.974304,0.208972 1.171852,0.905096 1.386198,1.757107 0.481106,1.890823 1.032764,3.109038 2.371927,3.508839"
       id="path33289" />
    <path
       style="fill:#fabb05;fill-opacity:1;stroke-width:0.17201"
       d="m 78.931551,23.066308 c -1.130808,-0.174031 -3.549646,-0.191502 -3.549646,-0.191502 1.437258,0.689103 4.972218,2.287214 3.549646,0.191502 z"
       id="path33287" />
    <path
       style="fill:#fabb05;fill-opacity:1;stroke-width:0.172015"
       d="m 78.886681,22.433787 c 0.03494,-0.933316 -0.939364,-1.118768 -1.89015,-1.182603 -0.568457,-0.03494 -1.137583,-0.06988 -1.456082,-0.09273 -1.334459,-0.09273 -2.685719,-0.284227 -2.685719,-0.284227 0,0 0.168656,0.835214 1.641534,1.159758 1.467504,0.324542 4.390417,0.399799 4.390417,0.399799 z"
       id="path33285" />
    <path
       style="fill:#fabb05;fill-opacity:1;stroke-width:0.172015"
       d="m 78.271861,20.792924 c 0,0 0.07525,-1.119441 -1.038138,-1.264578 -1.113393,-0.145138 -3.004216,-0.370908 -4.999188,-0.794898 -1.995643,-0.423318 -2.4707,-0.631618 -2.4707,-0.631618 0,0 0.0289,1.188652 2.777774,1.832363 2.743506,0.638337 5.730252,0.858731 5.730252,0.858731 z"
       id="path1156" />
    <path
       fill="#ffffff"
       d="m 84.319776,29.260775 c -0.10972,0 -0.220206,0.0055 -0.329922,0.01633 -0.109719,0.01091 -0.218649,0.02723 -0.326808,0.04902 -0.108164,0.021 -0.215538,0.04824 -0.321362,0.08014 -0.105054,0.0319 -0.209312,0.06925 -0.311246,0.111267 -0.101924,0.04201 -0.201532,0.0895 -0.298797,0.141618 -0.09725,0.05213 -0.191419,0.108164 -0.283235,0.16963 -0.09181,0.06146 -0.180524,0.126833 -0.266115,0.196862 -0.08481,0.07003 -0.166517,0.143952 -0.24433,0.222542 -0.07859,0.0778 -0.152511,0.159514 -0.222539,0.245106 -0.07003,0.08481 -0.135394,0.173521 -0.196866,0.265339 -0.06146,0.09183 -0.118271,0.185968 -0.169629,0.283234 -0.05212,0.09725 -0.0996,0.196863 -0.141617,0.298797 -0.04201,0.101923 -0.07935,0.2062 -0.111268,0.312025 -0.0319,0.105054 -0.05914,0.212426 -0.08014,0.320582 -0.02179,0.108164 -0.03813,0.217097 -0.04903,0.326811 -0.01091,0.109719 -0.01633,0.220206 -0.01633,0.3307 0,0.109718 0.0055,0.220206 0.01633,0.329921 0.01091,0.109719 0.02723,0.21865 0.04903,0.326808 0.021,0.108164 0.04824,0.215538 0.08014,0.321362 0.0319,0.105044 0.06925,0.209313 0.111268,0.311247 0.04201,0.101923 0.08948,0.201532 0.141617,0.298797 0.05136,0.09725 0.108153,0.191416 0.169629,0.283236 0.06147,0.09181 0.126832,0.18052 0.196866,0.266114 0.07003,0.08481 0.143951,0.166515 0.222539,0.244329 0.07781,0.07859 0.159515,0.15251 0.24433,0.22254 0.0856,0.07003 0.174299,0.135393 0.266115,0.196865 0.09181,0.06146 0.185971,0.118272 0.283235,0.169629 0.09726,0.05213 0.196864,0.09959 0.298797,0.141618 0.101924,0.04201 0.206199,0.07935 0.311246,0.111267 0.10583,0.0319 0.213203,0.05913 0.321362,0.08014 0.108152,0.02179 0.217094,0.03813 0.326808,0.04903 0.109719,0.0109 0.220208,0.01632 0.329922,0.01632 0.110493,0 0.220985,-0.0055 0.330699,-0.01633 0.109719,-0.01091 0.218652,-0.02723 0.326809,-0.04903 0.108164,-0.021 0.215539,-0.04824 0.320585,-0.08014 0.105818,-0.0319 0.210092,-0.06925 0.312025,-0.111267 0.101946,-0.04202 0.201534,-0.0895 0.298797,-0.141618 0.09727,-0.05136 0.191415,-0.108163 0.283233,-0.169629 0.09183,-0.06147 0.180523,-0.126833 0.265336,-0.196865 0.08559,-0.07003 0.167299,-0.143952 0.245106,-0.22254 0.07863,-0.07782 0.152516,-0.159513 0.222543,-0.244329 0.06998,-0.08558 0.135394,-0.1743 0.196861,-0.266114 0.06152,-0.09183 0.117496,-0.185972 0.169629,-0.283236 0.05211,-0.09726 0.09961,-0.196864 0.141619,-0.298797 0.04207,-0.101935 0.07939,-0.2062 0.111267,-0.311247 0.03192,-0.105829 0.05909,-0.213204 0.08013,-0.321362 0.02177,-0.108164 0.03815,-0.217094 0.04904,-0.326808 0.01091,-0.10972 0.01629,-0.220207 0.01629,-0.329921 0,-0.110494 -0.0056,-0.220985 -0.01629,-0.3307 -0.01091,-0.10972 -0.02726,-0.218652 -0.04904,-0.326811 -0.02103,-0.108163 -0.04821,-0.215538 -0.08013,-0.320582 -0.03192,-0.105818 -0.06923,-0.210093 -0.111267,-0.312025 -0.04197,-0.101924 -0.08953,-0.201533 -0.141619,-0.298797 -0.05211,-0.09728 -0.108152,-0.191416 -0.169629,-0.283234 -0.06152,-0.09182 -0.126833,-0.180524 -0.196861,-0.265339 -0.06998,-0.08558 -0.143954,-0.167295 -0.222543,-0.245106 -0.07779,-0.07859 -0.159512,-0.152511 -0.245106,-0.222542 -0.08481,-0.07002 -0.173518,-0.135392 -0.265336,-0.196862 -0.09182,-0.06146 -0.18597,-0.117498 -0.283233,-0.16963 -0.09726,-0.05213 -0.196862,-0.09959 -0.298797,-0.141618 -0.101924,-0.04201 -0.206203,-0.07936 -0.312025,-0.111267 -0.105044,-0.0319 -0.212426,-0.05914 -0.320585,-0.08014 -0.108163,-0.02179 -0.217094,-0.03813 -0.326809,-0.04902 -0.109714,-0.01091 -0.220208,-0.01633 -0.330699,-0.01633 z m 0,4.492843 c -0.07315,0 -0.146285,-0.007 -0.21865,-0.02179 -0.07236,-0.01401 -0.142397,-0.0358 -0.210871,-0.06381 -0.06769,-0.02801 -0.133057,-0.06302 -0.19375,-0.103495 -0.06147,-0.04125 -0.118271,-0.08793 -0.170408,-0.140062 -0.05213,-0.05213 -0.09882,-0.108927 -0.140062,-0.170409 -0.04046,-0.06069 -0.07547,-0.126054 -0.103483,-0.193749 -0.02801,-0.06846 -0.04979,-0.138507 -0.06381,-0.210871 -0.01478,-0.07236 -0.02178,-0.145508 -0.02178,-0.218648 0,-0.07391 0.007,-0.147068 0.02178,-0.219432 0.01401,-0.07236 0.03579,-0.142395 0.06381,-0.210868 0.028,-0.06769 0.06302,-0.133059 0.103483,-0.193753 0.04125,-0.06146 0.08794,-0.118272 0.140062,-0.170408 0.05214,-0.05212 0.108928,-0.09881 0.170408,-0.140059 0.06069,-0.04046 0.126056,-0.07549 0.19375,-0.103484 0.06847,-0.02801 0.138507,-0.04979 0.210871,-0.06381 0.07236,-0.01478 0.145508,-0.02179 0.21865,-0.02179 0.07392,0 0.147065,0.007 0.219429,0.02179 0.07236,0.01401 0.142395,0.03579 0.21087,0.06381 0.06769,0.02801 0.133058,0.06302 0.193751,0.103484 0.06146,0.04125 0.118271,0.08793 0.170408,0.140059 0.05213,0.05213 0.09883,0.108939 0.14006,0.170408 0.04046,0.06069 0.07548,0.126057 0.103483,0.193753 0.02801,0.06847 0.04979,0.138503 0.06381,0.210868 0.01478,0.07236 0.02179,0.145509 0.02179,0.219432 0,0.07313 -0.007,0.146283 -0.02179,0.218648 -0.01401,0.07236 -0.03579,0.142397 -0.06381,0.210871 -0.028,0.06769 -0.06302,0.133055 -0.103483,0.193749 -0.04125,0.06147 -0.08792,0.118272 -0.14006,0.170409 -0.05213,0.05213 -0.108928,0.09883 -0.170408,0.140062 -0.06069,0.04046 -0.126057,0.07547 -0.193751,0.103495 -0.06846,0.028 -0.138505,0.04979 -0.21087,0.06381 -0.07236,0.01478 -0.145507,0.02179 -0.219429,0.02179 z m 0,0"
       fill-opacity="1"
       fill-rule="nonzero"
       id="path1160"
       style="display:inline;fill:#f9f9f9;fill-opacity:1;stroke-width:0.199197"
       inkscape:export-filename="/home/debian/Documents/GitHub/core/frontend-main/src/assets/logo-white.png"
       inkscape:export-xdpi="121.6"
       inkscape:export-ydpi="121.6" />
    <path
       fill="#ffffff"
       d="m 93.304683,29.260775 c -0.109708,0 -0.220198,0.0055 -0.329917,0.01633 -0.109719,0.01091 -0.218654,0.02723 -0.326808,0.04902 -0.108163,0.021 -0.215536,0.04824 -0.320583,0.08014 -0.105818,0.0319 -0.210092,0.06925 -0.312021,0.111267 -0.101946,0.04201 -0.20154,0.0895 -0.298797,0.141618 -0.09728,0.05213 -0.191426,0.108164 -0.283238,0.16963 -0.09185,0.06146 -0.180527,0.126833 -0.266116,0.196862 -0.08477,0.07003 -0.166521,0.143952 -0.244329,0.222542 -0.07863,0.0778 -0.152507,0.159514 -0.222543,0.245106 -0.06998,0.08481 -0.135394,0.173521 -0.196859,0.265339 -0.06142,0.09183 -0.117498,0.185968 -0.169631,0.283234 -0.05211,0.09725 -0.09961,0.196863 -0.141619,0.298797 -0.04207,0.101923 -0.07937,0.2062 -0.111267,0.312025 -0.03192,0.105054 -0.05919,0.212426 -0.08012,0.320582 -0.02178,0.108164 -0.03816,0.217097 -0.04905,0.326811 -0.01091,0.109719 -0.01629,0.220206 -0.01629,0.3307 0,0.109718 0.0056,0.220206 0.01629,0.329921 0.01091,0.109719 0.02726,0.21865 0.04905,0.326808 0.02103,0.108164 0.04821,0.215538 0.08012,0.321362 0.03192,0.105044 0.06924,0.209313 0.111267,0.311247 0.04207,0.101923 0.08952,0.201532 0.141619,0.298797 0.05211,0.09725 0.108164,0.191416 0.169631,0.283236 0.06152,0.09181 0.126831,0.18052 0.196859,0.266114 0.07008,0.08481 0.143954,0.166515 0.222543,0.244329 0.07779,0.07859 0.159514,0.15251 0.244329,0.22254 0.08562,0.07003 0.174293,0.135393 0.266116,0.196865 0.09185,0.06146 0.185971,0.118272 0.283238,0.169629 0.09726,0.05213 0.196859,0.09959 0.298797,0.141618 0.101924,0.04201 0.206193,0.07935 0.312021,0.111267 0.105054,0.0319 0.212428,0.05913 0.320583,0.08014 0.108153,0.02179 0.21709,0.03813 0.326808,0.04903 0.10972,0.01091 0.220208,0.01633 0.329917,0.01633 0.110504,0 0.22099,-0.0055 0.330708,-0.01633 0.109707,-0.01091 0.218644,-0.02723 0.326808,-0.04903 0.108164,-0.021 0.215537,-0.04824 0.320583,-0.08014 0.105819,-0.0319 0.210092,-0.06925 0.312021,-0.111267 0.101946,-0.04202 0.201531,-0.0895 0.298797,-0.141618 0.09728,-0.05136 0.191417,-0.108163 0.283239,-0.169629 0.09185,-0.06147 0.180517,-0.126833 0.266114,-0.196865 0.08477,-0.07003 0.166512,-0.143952 0.24433,-0.22254 0.07863,-0.07782 0.152507,-0.159513 0.222543,-0.244329 0.06998,-0.08558 0.135384,-0.1743 0.196859,-0.266114 0.06142,-0.09183 0.117498,-0.185972 0.169631,-0.283236 0.05211,-0.09726 0.09959,-0.196864 0.141619,-0.298797 0.04207,-0.101935 0.07939,-0.2062 0.111267,-0.311247 0.03192,-0.105829 0.05909,-0.213204 0.08012,-0.321362 0.02177,-0.108164 0.03815,-0.217094 0.04905,-0.326808 0.01091,-0.10972 0.01628,-0.220207 0.01628,-0.329921 0,-0.110494 -0.0056,-0.220985 -0.01628,-0.3307 -0.01091,-0.10972 -0.02727,-0.218652 -0.04905,-0.326811 -0.02103,-0.108163 -0.04821,-0.215538 -0.08012,-0.320582 -0.03192,-0.105818 -0.06924,-0.210093 -0.111267,-0.312025 -0.04197,-0.101924 -0.08953,-0.201533 -0.141619,-0.298797 -0.05211,-0.09728 -0.108163,-0.191416 -0.169631,-0.283234 -0.06152,-0.09182 -0.126831,-0.180524 -0.196859,-0.265339 -0.07008,-0.08558 -0.143954,-0.167295 -0.222543,-0.245106 -0.07779,-0.07859 -0.159515,-0.152511 -0.245112,-0.222542 -0.08478,-0.07002 -0.173519,-0.135392 -0.265332,-0.196862 -0.09185,-0.06146 -0.185972,-0.117498 -0.283239,-0.16963 -0.09727,-0.05213 -0.196859,-0.09959 -0.298797,-0.141618 -0.101923,-0.04201 -0.206202,-0.07936 -0.312021,-0.111267 -0.105054,-0.0319 -0.212428,-0.05914 -0.320583,-0.08014 -0.108153,-0.02179 -0.2171,-0.03813 -0.326808,-0.04902 -0.109718,-0.01091 -0.220208,-0.01633 -0.330708,-0.01633 z m 0,4.492843 c -0.07315,0 -0.146282,-0.007 -0.218645,-0.02179 -0.0724,-0.01401 -0.142401,-0.0358 -0.210874,-0.06381 -0.06766,-0.02801 -0.133058,-0.06302 -0.193752,-0.103495 -0.06152,-0.04125 -0.118271,-0.08793 -0.170402,-0.140062 -0.05211,-0.05213 -0.09882,-0.108927 -0.140064,-0.170409 -0.04047,-0.06069 -0.07547,-0.126054 -0.103484,-0.193749 -0.028,-0.06846 -0.04979,-0.138507 -0.06384,-0.210871 -0.01479,-0.07236 -0.02177,-0.145508 -0.02177,-0.218648 0,-0.07391 0.0065,-0.147068 0.02177,-0.219432 0.01405,-0.07236 0.03583,-0.142395 0.06384,-0.210868 0.02802,-0.06769 0.063,-0.133059 0.103484,-0.193753 0.04122,-0.06146 0.08795,-0.118272 0.140064,-0.170408 0.05211,-0.05212 0.108927,-0.09881 0.170402,-0.140059 0.06068,-0.04046 0.12606,-0.07549 0.193752,-0.103484 0.0685,-0.02801 0.138511,-0.04979 0.210874,-0.06381 0.0724,-0.01478 0.145509,-0.02179 0.218645,-0.02179 0.07389,0 0.147073,0.007 0.219435,0.02179 0.0724,0.01401 0.142392,0.03579 0.210865,0.06381 0.06766,0.02801 0.133059,0.06302 0.193752,0.103484 0.06152,0.04125 0.118284,0.08793 0.170412,0.140059 0.05211,0.05213 0.09882,0.108939 0.140055,0.170408 0.04047,0.06069 0.07547,0.126057 0.103483,0.193753 0.02801,0.06847 0.04979,0.138503 0.06384,0.210868 0.01479,0.07236 0.02177,0.145509 0.02177,0.219432 0,0.07313 -0.0065,0.146283 -0.02177,0.218648 -0.01405,0.07236 -0.03584,0.142397 -0.06384,0.210871 -0.02801,0.06769 -0.063,0.133055 -0.103483,0.193749 -0.04123,0.06147 -0.08795,0.118272 -0.140055,0.170409 -0.05211,0.05213 -0.108938,0.09883 -0.170412,0.140062 -0.06068,0.04046 -0.12605,0.07547 -0.193752,0.103495 -0.06849,0.028 -0.138501,0.04979 -0.210865,0.06381 -0.0724,0.01478 -0.145508,0.02179 -0.219435,0.02179 z m 0,0"
       fill-opacity="1"
       fill-rule="nonzero"
       id="path1162"
       style="display:inline;fill:#f9f9f9;fill-opacity:1;stroke-width:0.199197"
       inkscape:export-filename="/home/debian/Documents/GitHub/core/frontend-main/src/assets/logo-white.png"
       inkscape:export-xdpi="121.6"
       inkscape:export-ydpi="121.6" />
  </g>
  <g
     inkscape:groupmode="layer"
     id="layer2"
     inkscape:label="Layer 2"
     style="display:inline" />
  <g
     inkscape:groupmode="layer"
     id="layer3"
     inkscape:label="Layer 3"
     style="display:inline" />
  <g
     inkscape:groupmode="layer"
     id="layer4"
     inkscape:label="limit"
     style="display:none">
    <rect
       style="display:inline;opacity:0.557195;fill:#ff5e00;fill-opacity:1;stroke:#0069f5;stroke-width:0;stroke-linecap:round;stroke-linejoin:round;paint-order:stroke fill markers"
       id="rect1592-1"
       width="15"
       height="14.999998"
       x="1.8808064e-06"
       y="14.999999" />
    <rect
       style="display:inline;opacity:0.557195;fill:#ff0000;stroke:#0069f5;stroke-width:0;stroke-linecap:round;stroke-linejoin:round;paint-order:stroke fill markers"
       id="rect1592"
       width="120"
       height="14.999998"
       x="1.8808064e-06"
       y="6.7562792e-07" />
  </g>
</svg>
