<?xml version="1.0" encoding="UTF-8" standalone="no"?>
<!-- Created with Inkscape (http://www.inkscape.org/) -->

<svg
   width="175"
   height="48"
   viewBox="0 0 46.302074 12.7"
   version="1.1"
   id="svg5"
   inkscape:version="1.1.2 (0a00cf5339, 2022-02-04)"
   sodipodi:docname="logo.svg"
   xmlns:inkscape="http://www.inkscape.org/namespaces/inkscape"
   xmlns:sodipodi="http://sodipodi.sourceforge.net/DTD/sodipodi-0.dtd"
   xmlns="http://www.w3.org/2000/svg"
   xmlns:svg="http://www.w3.org/2000/svg">
  <sodipodi:namedview
     id="namedview7"
     pagecolor="#ffffff"
     bordercolor="#666666"
     borderopacity="1.0"
     inkscape:pageshadow="2"
     inkscape:pageopacity="0.0"
     inkscape:pagecheckerboard="0"
     inkscape:document-units="mm"
     showgrid="false"
     units="px"
     height="48px"
     inkscape:zoom="2.9647587"
     inkscape:cx="43.679777"
     inkscape:cy="-22.261508"
     inkscape:window-width="1488"
     inkscape:window-height="778"
     inkscape:window-x="432"
     inkscape:window-y="204"
     inkscape:window-maximized="0"
     inkscape:current-layer="layer1" />
  <defs
     id="defs2" />
  <g
     inkscape:label="Layer 1"
     inkscape:groupmode="layer"
     id="layer1">
    <path
       style="fill:#ff6700;fill-opacity:1;stroke-width:0.0139912"
       d="m 2.8074889,12.674702 c -0.02664,-0.0139 -0.325457,-0.20161 -0.664045,-0.41711 -0.592039,-0.37681 -1.22122195,-0.76875 -1.79770495,-1.11983 -0.241448,-0.14705 -0.276538,-0.17309 -0.306549,-0.2275 -0.05603,-0.10156 -0.0536,-0.20093 0.01778,-0.72869 0.07988,-0.5906396 0.19894,-1.5607796 0.281299,-2.2922096 0.03495,-0.31036 0.07911,-0.68498 0.09813,-0.83248 0.01902,-0.14751 0.0569,-0.46022 0.08416,-0.69493 0.02726,-0.2347 0.08707,-0.74153 0.132912,-1.12629 0.04584,-0.38476 0.111808,-0.94826 0.146595,-1.25222 0.03479,-0.30396 0.0697,-0.57598 0.07758,-0.60449 0.01831,-0.0662 0.07294,-0.13107 0.13871495,-0.16462 0.04899,-0.025 0.464654,-0.0939 1.357941,-0.22492 0.165447,-0.0243 0.302799,-0.046 0.305228,-0.0483 0.0024,-0.002 0.01013,-0.13985 0.01711,-0.30568 0.02266,-0.53807 0.06489,-0.78895 0.196001,-1.16439 0.129936,-0.3721 0.393028,-0.77130004 0.659421,-1.00058004 0.129966,-0.11186 0.343716,-0.25189 0.482064,-0.31581 0.243119,-0.11233 0.630183,-0.17619 0.897154,-0.14802 0.316225,0.0334 0.653897,0.17392 0.848256,0.35308 l 0.06052,0.0558 0.166433,0.006 c 0.485171,0.0166 0.952473,0.2843 1.235118,0.70761004 0.102773,0.15392 0.220729,0.39313 0.272737,0.5531 0.04346,0.13368 0.141852,0.55514 0.155769,0.66725 l 0.0099,0.0796 0.07195,0.0159 c 0.03957,0.009 0.326936,0.0685 0.638591,0.13278 1.153243,0.23795 1.098927,0.22443 1.173097,0.2919 0.06112,0.0556 0.07493,0.10349 0.08698,0.30168 0.0063,0.10443 0.02465,0.31579 0.04067,0.4697 0.01602,0.1539 0.05118,0.49389 0.07813,0.75552 0.02695,0.26164 0.07695,0.74644 0.111123,1.07733 0.03417,0.33089 0.0877,0.85032 0.118952,1.15428 0.03126,0.30396 0.07556,0.72579 0.09846,0.93741 0.0441,0.40761 0.134409,1.28024 0.216468,2.09169 0.02724,0.26934 0.05906,0.5672196 0.07073,0.6619696 0.02953,0.23996 0.02942,0.33563 -4.76e-4,0.39468 -0.03393,0.067 -0.07506,0.1096 -0.136138,0.14092 -0.07068,0.0363 -1.013366,0.27693 -4.402216,1.12394 -1.587857,0.39688 -2.910273,0.72159 -2.938702,0.72159 -0.02843,0 -0.07348,-0.0114 -0.100119,-0.0253 z m 1.448633,-0.88276 c 2.529072,-0.62361 5.542655,-1.37947 5.559542,-1.39443 0.0028,-0.002 -0.01136,-0.16694 -0.03137,-0.36554 -0.02001,-0.1985896 -0.05238,-0.5342296 -0.07192,-0.7458396 -0.01954,-0.21162 -0.05392,-0.53902 -0.07638,-0.72755 -0.02247,-0.18853 -0.05996,-0.53796 -0.08333,-0.77651 -0.02337,-0.23855 -0.07109,-0.7202 -0.106059,-1.07033 -0.03497,-0.35014 -0.08541,-0.86641 -0.112085,-1.14729 -0.02668,-0.28087 -0.07084,-0.7216 -0.09813,-0.97938 -0.02729,-0.25779 -0.06531,-0.62582 -0.08449,-0.81785 -0.01918,-0.19202 -0.03751,-0.35178 -0.04075,-0.35501 -0.0032,-0.003 -0.158823,0.0236 -0.34576,0.0596 -0.186938,0.036 -0.371366,0.0712 -0.409842,0.0783 -0.03848,0.007 -0.397351,0.0758 -0.797501,0.15269 -0.40015,0.0769 -0.957351,0.18403 -1.238226,0.238 -0.280874,0.054 -1.08834,0.21001 -1.794368,0.34676 l -1.283687,0.24863 -1e-5,3.75409 c -9e-6,3.5687296 0.0012,3.7537396 0.02448,3.7469496 0.01347,-0.004 0.458913,-0.11427 0.989881,-0.2452 z m 1.889082,-2.1565296 c -0.327902,-0.0374 -0.675189,-0.18239 -0.938104,-0.3916 -0.183368,-0.14591 -0.376627,-0.37838 -0.473301,-0.56934 -0.08786,-0.17355 -0.0057,-0.38583 0.16974,-0.43839 0.120943,-0.0362 0.235362,0.0376 0.342488,0.2209 0.165365,0.28301 0.471272,0.50941 0.800975,0.59278 0.151741,0.0384 0.44461,0.0452 0.601624,0.014 0.389701,-0.0773 0.766244,-0.3181 1.016118,-0.64971 0.09621,-0.12768 0.145665,-0.22058 0.213792,-0.40161 0.05248,-0.13943 0.08498,-0.18367 0.16516,-0.22479 0.112038,-0.0575 0.263809,-0.0153 0.324955,0.0902 0.07585,0.13088 0.06391,0.20391 -0.08274,0.50584 -0.153879,0.31682 -0.320321,0.54102 -0.537421,0.72392 -0.415677,0.3502 -0.825916,0.51736 -1.311142,0.53426 -0.09926,0.003 -0.230727,5.5e-4 -0.292144,-0.006 z m -0.981755,-2.20263 c -0.03963,-0.0201 -0.100489,-0.067 -0.135237,-0.10413 -0.314359,-0.33607 -0.223061,-1.03803 0.158328,-1.21732 0.0627,-0.0295 0.09769,-0.0362 0.188882,-0.0362 0.09776,-1e-5 0.121352,0.005 0.186348,0.0412 0.128371,0.0711 0.203932,0.18406 0.256443,0.38335 0.03679,0.13964 0.04008,0.365 0.0072,0.49185 -0.05164,0.19905 -0.172695,0.36723 -0.312165,0.43369 -0.04584,0.0219 -0.101869,0.0342 -0.172774,0.0382 -0.09224,0.005 -0.113655,0.001 -0.176995,-0.0307 z m 1.763443,-0.45388 c -0.07316,-0.0446 -0.108727,-0.10828 -0.114934,-0.20575 -0.0078,-0.1231 0.05144,-0.24099 0.193344,-0.38452 0.165886,-0.16778 0.354164,-0.26305 0.619219,-0.31333 0.379763,-0.072 0.745195,0.0596 0.859677,0.30965 0.08017,0.17512 0.0066,0.3614 -0.162899,0.41217 -0.08255,0.0247 -0.141244,0.006 -0.230713,-0.0718 -0.125559,-0.10988 -0.147445,-0.11807 -0.315959,-0.11829 -0.138153,-1.8e-4 -0.152909,0.003 -0.240053,0.0455 -0.07258,0.0357 -0.11772,0.073 -0.206747,0.17047 -0.06823,0.0747 -0.137839,0.13635 -0.173609,0.15367 -0.07505,0.0363 -0.169903,0.0373 -0.227326,0.002 z m -4.771328,4.2703196 c -0.481009,-0.93802 -0.54385,-1.05869 -0.551796,-1.05967 -0.01131,-0.001 -0.83836795,0.54315 -0.83787195,0.55167 2.22e-4,0.004 0.190639,0.12205 0.42314395,0.26267 0.232505,0.14063 0.599026,0.36483 0.814491,0.49822 0.215465,0.1334 0.394009,0.24065 0.396764,0.23833 0.0028,-0.002 -0.107373,-0.22336 -0.244731,-0.49122 z m 0.540534,-3.3390096 v -3.46061 l -0.225921,-0.10115 c -0.136544,-0.0611 -0.229409,-0.0955 -0.234739,-0.0869 -0.0049,0.008 -0.01995,0.21448 -0.03355,0.4592 -0.02319,0.41717 -0.105728,1.84428 -0.134575,2.32676 -0.0071,0.11927 -0.04583,0.80307 -0.08599,1.51954 l -0.07303,1.30269 0.19907,0.3902496 c 0.199251,0.39062 0.578649,1.11072 0.585233,1.11078 0.0019,10e-6 0.0035,-1.5572396 0.0035,-3.4605796 z m -1.667173,2.1559296 c 0.231521,-0.1481296 0.431195,-0.2756896 0.44372,-0.2834496 0.02532,-0.0157 0.02532,-0.0157 0.104031,-1.42698 0.02361,-0.42324 0.06774,-1.20395 0.09808,-1.73492 0.09506,-1.66365 0.143094,-2.55491 0.137902,-2.55874 -0.0028,-0.002 -0.105744,-0.0482 -0.228867,-0.10263 l -0.22386,-0.0989 -0.0098,0.065 c -0.0054,0.0357 -0.03543,0.28849 -0.06679,0.56167 -0.03136,0.27318 -0.100724,0.86501 -0.154147,1.31517 -0.14375595,1.21137 -0.28568895,2.43664 -0.35736895,3.08508 -0.05042,0.45607 -0.120104,1.0522 -0.164787,1.4096096 -0.0026,0.0212 -0.0035,0.0385 -0.0019,0.0385 0.0016,0 0.192287,-0.1212 0.42380795,-0.26933 z m 2.583599,-6.1706896 0.461712,-0.0874 0.0038,-0.27766 0.0038,-0.27766 -0.03178,0.008 c -0.01748,0.004 -0.327696,0.059 -0.68937,0.12164 -1.021794,0.17683 -1.200157,0.20874 -1.207393,0.21598 -0.0037,0.004 0.0092,0.0128 0.02866,0.0202 0.01947,0.007 0.17302,0.0732 0.341229,0.14628 0.516993,0.22452 0.540042,0.23339 0.585658,0.2255 0.02309,-0.004 0.249744,-0.0466 0.503684,-0.0947 z m 1.668135,-0.31143 c 0.839237,-0.15164 1.765473,-0.32524 1.823579,-0.34179 l 0.04987,-0.0142 -0.0047,-0.0875 c -0.01534,-0.28799 -0.0216,-0.34634 -0.03714,-0.34634 -0.07438,0 -2.208092,0.32985 -2.404967,0.37179 l -0.03848,0.008 v 0.25773 c 0,0.15844 0.0053,0.25773 0.01367,0.25773 0.0075,0 0.276674,-0.0475 0.598126,-0.10561 z m 2.674008,-0.49603 c 0.133489,-0.0231 0.246818,-0.0423 0.251842,-0.0427 0.005,-4.3e-4 -0.09475,-0.0227 -0.221719,-0.0495 -0.126971,-0.0268 -0.249162,-0.0526 -0.271535,-0.0574 -0.03758,-0.008 -0.04,-0.006 -0.03167,0.025 0.005,0.0185 0.0091,0.0636 0.0092,0.10013 1.38e-4,0.0365 0.0049,0.0664 0.01068,0.0664 0.0058,-1e-5 0.119712,-0.0189 0.2532,-0.042 z m -4.320961,-0.31356 c 0.188426,-0.0339 0.371834,-0.066 0.407575,-0.0713 0.05819,-0.009 0.06587,-0.014 0.07345,-0.052 0.0047,-0.0233 0.0085,-0.0753 0.0085,-0.11564 0,-0.14049 0.123834,-0.68128 0.201035,-0.87793 0.116376,-0.29644 0.310029,-0.58389 0.531506,-0.78894004 0.09381,-0.0868 0.264337,-0.20113 0.300128,-0.20113 0.0092,0 0.01668,-0.006 0.01668,-0.0125 0,-0.007 -0.05194,-0.0273 -0.115428,-0.0453 -0.151736,-0.0432 -0.455645,-0.0466 -0.598126,-0.007 -0.14362,0.0403 -0.388291,0.16604 -0.484762,0.24916 -0.382608,0.32968004 -0.609401,0.80480004 -0.676044,1.41628004 -0.02238,0.20533 -0.03511,0.56764 -0.01995,0.56764 0.0071,0 0.167044,-0.0278 0.35547,-0.0617 z m 1.245027,-0.16964 c 0.0731,-0.0121 0.306058,-0.0531 0.517676,-0.0911 0.211617,-0.0381 0.42411,-0.0762 0.472204,-0.0848 l 0.08745,-0.0156 v -0.0721 c 0,-0.14294 -0.02919,-0.52199 -0.04968,-0.64528 -0.027,-0.16238 -0.09464,-0.37058 -0.16736,-0.51517 -0.05417,-0.10769 -0.05998,-0.11417 -0.09864,-0.10995 -0.05497,0.006 -0.236789,0.0979 -0.3302,0.16693 -0.101017,0.0746 -0.238958,0.21541 -0.296811,0.30293 -0.149818,0.22664 -0.253334,0.52817 -0.309043,0.9002 -0.02903,0.19388 -0.02863,0.20161 0.01002,0.19296 0.01731,-0.004 0.09129,-0.0169 0.164398,-0.029 z m 1.899923,-0.3008 c 0.318137,-0.0389 0.300475,-0.0327 0.289657,-0.10269 -0.05362,-0.34715 -0.278307,-0.80298 -0.481555,-0.97695 -0.0578,-0.0495 -0.235495,-0.15109 -0.264215,-0.15109 -0.0078,0 0.0073,0.0602 0.0336,0.13371 0.08501,0.23784 0.130956,0.52212 0.153088,0.94712 0.0052,0.10005 0.01528,0.17838 0.02292,0.17838 0.0075,0 0.118421,-0.0128 0.246502,-0.0285 z"
       id="path881" />
    <text
       xml:space="preserve"
       style="font-size:7.05556px;line-height:1.25;font-family:'Inter 28pt';-inkscape-font-specification:'Inter 28pt';letter-spacing:-0.15875px;fill:#ff6700;fill-opacity:1;stroke-width:0.132292;stroke-miterlimit:4;stroke-dasharray:none"
       x="13.841015"
       y="9.004137"
       id="text3040"><tspan
         sodipodi:role="line"
         style="font-style:normal;font-variant:normal;font-weight:600;font-stretch:normal;font-size:7.05556px;font-family:'Inter 28pt';-inkscape-font-specification:'Inter 28pt Semi-Bold';fill:#ff6700;fill-opacity:1;stroke-width:0.132292;stroke-miterlimit:4;stroke-dasharray:none"
         x="13.841015"
         y="9.004137"
         id="tspan13110"><tspan
           style="fill:#ff6700;fill-opacity:1"
           id="tspan2625">Pairfy</tspan></tspan></text>
    <text
       xml:space="preserve"
       style="font-size:10.5833px;line-height:1.25;font-family:'Inter 28pt';-inkscape-font-specification:'Inter 28pt';stroke-width:0.264583"
       x="48.527615"
       y="16.411993"
       id="text5743"><tspan
         sodipodi:role="line"
         id="tspan5741"
         style="stroke-width:0.264583"
         x="48.527615"
         y="16.411993" /></text>
  </g>
</svg>
