<?xml version="1.0" encoding="UTF-8" standalone="no"?>
<!-- Created with Inkscape (http://www.inkscape.org/) -->

<svg
   width="175"
   height="48"
   viewBox="0 0 46.302074 12.7"
   version="1.1"
   id="svg5"
   inkscape:version="1.1.2 (0a00cf5339, 2022-02-04)"
   sodipodi:docname="logo.svg"
   xmlns:inkscape="http://www.inkscape.org/namespaces/inkscape"
   xmlns:sodipodi="http://sodipodi.sourceforge.net/DTD/sodipodi-0.dtd"
   xmlns="http://www.w3.org/2000/svg"
   xmlns:svg="http://www.w3.org/2000/svg">
  <sodipodi:namedview
     id="namedview7"
     pagecolor="#ffffff"
     bordercolor="#666666"
     borderopacity="1.0"
     inkscape:pageshadow="2"
     inkscape:pageopacity="0.0"
     inkscape:pagecheckerboard="0"
     inkscape:document-units="mm"
     showgrid="false"
     units="px"
     height="48px"
     inkscape:zoom="2.096401"
     inkscape:cx="128.07664"
     inkscape:cy="9.0631516"
     inkscape:window-width="1920"
     inkscape:window-height="1048"
     inkscape:window-x="0"
     inkscape:window-y="0"
     inkscape:window-maximized="1"
     inkscape:current-layer="layer1" />
  <defs
     id="defs2" />
  <g
     inkscape:label="Layer 1"
     inkscape:groupmode="layer"
     id="layer1">
    <text
       xml:space="preserve"
       style="font-size:10.6248px;line-height:1.25;font-family:'Inter 28pt';-inkscape-font-specification:'Inter 28pt';letter-spacing:-0.23906px;fill:#000000;fill-opacity:0.5;stroke-width:0.211667;stroke-miterlimit:4;stroke-dasharray:none"
       x="18.098206"
       y="9.4636803"
       id="text3040"><tspan
         sodipodi:role="line"
         style="font-style:normal;font-variant:normal;font-weight:bold;font-stretch:normal;font-family:'Inter 28pt';-inkscape-font-specification:'Inter 28pt Bold';fill:#000000;fill-opacity:1;stroke-width:0.211667;stroke-miterlimit:4;stroke-dasharray:none"
         x="18.098206"
         y="9.4636803"
         id="tspan13110">Pairfy</tspan></text>
    <path
       style="fill:#0866ff;fill-opacity:0.998655;stroke:#000000;stroke-width:0.52916667;stroke-linecap:round;stroke-linejoin:round;stroke-miterlimit:4;stroke-dasharray:none;stroke-opacity:0;paint-order:fill markers stroke"
       d="m 0.92182801,0.1412071 c -0.785097,0.112614 -0.789095,1.073785 -0.789095,1.675963 v 5.4520172 c 0,0.8587905 -0.01364,1.6919648 0.294924,2.5092419 0.534415,1.4155548 1.80450399,2.5688858 3.29546039,2.8978468 0.9002397,0.198506 1.8323197,0.136891 2.7486819,0.136891 0.783046,0 1.6063358,0.07147 2.380439,-0.05833 0.5143589,-0.08618 1.0074123,-0.249348 1.4729787,-0.483588 0.348912,-0.175514 0.687696,-0.413827 0.973218,-0.679596 0.748588,-0.696677 1.283595,-1.6120903 1.45404,-2.6277429 0.116786,-0.6950993 0.07154,-1.4126635 0.07154,-2.1151196 V 4.1162131 1.6332471 c 0,-0.447919 -0.02959,-0.980562 -0.382579,-1.309943 -0.361402,-0.337249 -0.95638,-0.172756 -1.287668,0.127591 -0.4945,0.4483 -0.990579,0.895116 -1.48613,1.342234 -0.1491399,0.134553 -0.3015666,0.267188 -0.4471543,0.405538 -0.090615,0.08605 -0.1916189,0.207361 -0.3024873,0.266453 -0.078252,0.0417 -0.2326526,-0.03311 -0.3156395,-0.04874 -0.2622423,-0.0494 -0.5352692,-0.09677 -0.8022465,-0.09994 -0.5697271,-0.0068 -1.1399802,0 -1.7097073,0 -0.3220681,0 -0.6519626,-0.02081 -0.9732166,0.0012 -0.2514322,0.01721 -0.5024567,0.05364 -0.749641,0.103982 -0.076279,0.01553 -0.2349927,0.08717 -0.3080629,0.05901 -0.080159,-0.03087 -0.15607,-0.131742 -0.2180008,-0.18927 C 3.7074144,2.1668321 3.5685598,2.0472821 3.4337823,1.9234751 2.9696231,1.4970751 2.502584,1.0686651 2.026562,0.6555861 1.718197,0.3879901 1.367536,0.0773571 0.92182801,0.1412831 Z"
       id="path971" />
  </g>
</svg>
