<?xml version="1.0" encoding="UTF-8" standalone="no"?>
<!-- Created with Inkscape (http://www.inkscape.org/) -->

<svg
   width="120"
   height="50"
   viewBox="0 0 120 50"
   version="1.1"
   id="SVGRoot"
   sodipodi:docname="logo-white.svg"
   inkscape:version="1.1.2 (0a00cf5339, 2022-02-04)"
   inkscape:export-filename="/home/debian/Documents/GitHub/core/frontend-main/src/assets/logo-white.png"
   inkscape:export-xdpi="121.6"
   inkscape:export-ydpi="121.6"
   xmlns:inkscape="http://www.inkscape.org/namespaces/inkscape"
   xmlns:sodipodi="http://sodipodi.sourceforge.net/DTD/sodipodi-0.dtd"
   xmlns="http://www.w3.org/2000/svg"
   xmlns:svg="http://www.w3.org/2000/svg">
  <sodipodi:namedview
     id="namedview137"
     pagecolor="#ffffff"
     bordercolor="#000000"
     borderopacity="0.25"
     inkscape:showpageshadow="2"
     inkscape:pageopacity="0.0"
     inkscape:pagecheckerboard="0"
     inkscape:deskcolor="#d1d1d1"
     inkscape:document-units="px"
     showgrid="false"
     inkscape:zoom="7.1087104"
     inkscape:cx="64.709346"
     inkscape:cy="29.259878"
     inkscape:window-width="1488"
     inkscape:window-height="778"
     inkscape:window-x="342"
     inkscape:window-y="240"
     inkscape:window-maximized="0"
     inkscape:current-layer="layer1"
     inkscape:pageshadow="2"
     showguides="false" />
  <defs
     id="defs132">
    <rect
       x="11.236365"
       y="7.2846913"
       width="69.72084"
       height="10.069939"
       id="rect3" />
    <rect
       x="12.94258"
       y="23.094154"
       width="88.413605"
       height="18.186064"
       id="rect1" />
    <rect
       x="-1.4777668"
       y="42.333267"
       width="127.8846"
       height="23.821753"
       id="rect3454" />
    <clipPath
       id="b983e3c625">
      <path
         d="m 142,147.30078 h 115 v 72.75 H 142 Z m 0,0"
         clip-rule="nonzero"
         id="path1144" />
    </clipPath>
    <clipPath
       id="0e8c13dd3a">
      <path
         d="m 70.261719,116.35938 h 89.156251 v 70.49999 H 70.261719 Z m 0,0"
         clip-rule="nonzero"
         id="path1147" />
    </clipPath>
  </defs>
  <g
     inkscape:label="Layer 1"
     inkscape:groupmode="layer"
     id="layer1"
     style="display:inline">
    <text
       xml:space="preserve"
       style="font-style:normal;font-variant:normal;font-weight:normal;font-stretch:normal;font-size:19.8478px;line-height:0;font-family:Manrope;-inkscape-font-specification:Manrope;letter-spacing:-0.744293px;fill:#f9f9f9;stroke:#ff9a00;stroke-width:0.0744293;stroke-linecap:round;stroke-linejoin:round;stroke-miterlimit:4;stroke-dasharray:none;paint-order:stroke fill markers"
       x="-0.041157071"
       y="31.281778"
       id="text2"
       inkscape:export-filename="/home/debian/Documents/GitHub/core/frontend-main/src/assets/logo-white.png"
       inkscape:export-xdpi="121.6"
       inkscape:export-ydpi="121.6"><tspan
         sodipodi:role="line"
         id="tspan2"
         x="-0.041157071"
         y="31.281778"
         style="font-style:normal;font-variant:normal;font-weight:bold;font-stretch:normal;font-size:19.8478px;font-family:Manrope;-inkscape-font-specification:'Manrope Bold';fill:#f9f9f9;fill-opacity:1;stroke:#ffffff;stroke-width:0.0744293;stroke-miterlimit:4;stroke-dasharray:none;stroke-opacity:1;paint-order:stroke fill markers"
         dx="0 0 0"><tspan
           style="font-style:normal;font-variant:normal;font-weight:bold;font-stretch:normal;font-family:'IBM Plex Sans';-inkscape-font-specification:'IBM Plex Sans Bold';word-spacing:0px;fill:#f9f9f9;stroke-width:0.0744293"
           id="tspan202002">adausd</tspan></tspan></text>
    <g
       clip-path="url(#b983e3c625)"
       id="g1154"
       style="fill:#f9f9f9"
       transform="matrix(0.21405284,0,0,0.21405284,42.988229,-19.022056)"
       inkscape:export-filename="/home/debian/Documents/GitHub/core/frontend-main/src/assets/logo-white.png"
       inkscape:export-xdpi="121.6"
       inkscape:export-ydpi="121.6">
      <path
         fill="#ffffff"
         d="m 255.65234,181.28516 -5.82812,23.3164 c -0.23438,0.9375 -0.54688,1.85156 -0.9336,2.73828 -0.38671,0.88672 -0.84375,1.73438 -1.375,2.54688 -0.52734,0.8125 -1.11718,1.57422 -1.77343,2.28515 -0.65235,0.71485 -1.36328,1.36719 -2.125,1.96485 -0.76172,0.59375 -1.57032,1.12109 -2.42188,1.58203 -0.84765,0.46094 -1.73047,0.85156 -2.64844,1.16406 -0.91406,0.31641 -1.84765,0.55469 -2.80468,0.71094 -0.95313,0.16016 -1.91407,0.24219 -2.88282,0.24219 h -58 c -0.9375,0 -1.86718,-0.0742 -2.79296,-0.21875 -0.92188,-0.14844 -1.82813,-0.3711 -2.71875,-0.66407 -0.89063,-0.29296 -1.75,-0.65234 -2.57813,-1.08593 -0.83203,-0.42969 -1.625,-0.92578 -2.375,-1.48438 -0.75,-0.55859 -1.45312,-1.17187 -2.10547,-1.84375 -0.65234,-0.67187 -1.25,-1.39062 -1.78515,-2.15625 -0.53907,-0.76562 -1.01172,-1.57031 -1.41797,-2.41406 -0.41016,-0.84375 -0.7461,-1.71094 -1.01563,-2.60938 l -15.21484,-49.95703 c -0.10938,-0.38281 -0.1836,-0.77343 -0.21875,-1.16797 -0.0312,-0.39843 -0.0273,-0.79687 0.0156,-1.1914 0.043,-0.39453 0.125,-0.78516 0.2461,-1.16406 0.12109,-0.37891 0.27734,-0.7461 0.46875,-1.09375 0.1914,-0.34766 0.41797,-0.67579 0.67578,-0.98047 0.2539,-0.30469 0.53906,-0.58203 0.85156,-0.83203 0.30859,-0.25 0.64063,-0.46485 0.99609,-0.64844 0.35157,-0.1836 0.72266,-0.33203 1.10547,-0.44141 0.38282,-0.10937 0.76953,-0.18359 1.16797,-0.21875 0.39844,-0.0352 0.79297,-0.0273 1.19141,0.0156 0.39453,0.043 0.78125,0.125 1.16406,0.24609 0.37891,0.12109 0.74219,0.27734 1.09375,0.46875 0.34766,0.19141 0.67578,0.41797 0.98047,0.67188 0.30469,0.25781 0.58203,0.54296 0.83203,0.85156 0.24609,0.3125 0.46484,0.64453 0.64844,1 0.18359,0.35156 0.32812,0.71875 0.4414,1.10156 l 14.7461,50.01563 c 0.1875,0.62109 0.46875,1.19531 0.84765,1.71875 0.37891,0.52734 0.83204,0.97656 1.35938,1.35156 0.52734,0.375 1.10156,0.65234 1.72266,0.83594 0.62109,0.18359 1.2539,0.26171 1.90234,0.23437 h 58.29297 c 0.66406,0.0195 1.3125,-0.0742 1.94922,-0.27734 0.63281,-0.20313 1.21484,-0.50391 1.74609,-0.91016 0.53125,-0.40234 0.97656,-0.88281 1.34375,-1.4375 0.36719,-0.55859 0.62891,-1.16016 0.78906,-1.80469 l 5.82813,-23.3164 c 0.10937,-0.4375 0.16406,-0.88282 0.17187,-1.33203 0.004,-0.44922 -0.0391,-0.89063 -0.13672,-1.33204 -0.0977,-0.4375 -0.24609,-0.85937 -0.4375,-1.26562 -0.19531,-0.40625 -0.43359,-0.78125 -0.71875,-1.13281 -0.28125,-0.35157 -0.59765,-0.66407 -0.95312,-0.9375 -0.35547,-0.27735 -0.73828,-0.51172 -1.14453,-0.69922 -0.41016,-0.1875 -0.83594,-0.32422 -1.27344,-0.41406 -0.44141,-0.0898 -0.88672,-0.12891 -1.33594,-0.11719 h -61.38281 c -0.38281,0 -0.76172,-0.0352 -1.13672,-0.11328 -0.375,-0.0742 -0.73828,-0.1836 -1.09375,-0.33203 -0.35156,-0.14454 -0.6875,-0.32422 -1.00781,-0.53907 -0.31641,-0.21093 -0.61328,-0.45312 -0.88281,-0.72265 -0.26953,-0.26953 -0.51172,-0.56641 -0.72266,-0.88282 -0.21484,-0.32031 -0.39453,-0.65625 -0.53906,-1.00781 -0.14844,-0.35547 -0.25781,-0.71875 -0.33203,-1.09375 -0.0742,-0.375 -0.11328,-0.7539 -0.11328,-1.13672 0,-0.38281 0.0391,-0.76172 0.11328,-1.13672 0.0742,-0.375 0.18359,-0.74218 0.33203,-1.09375 0.14453,-0.35546 0.32422,-0.6914 0.53906,-1.00781 0.21094,-0.3164 0.45313,-0.61328 0.72266,-0.88281 0.26953,-0.26953 0.5664,-0.51172 0.88281,-0.72656 0.32031,-0.21094 0.65625,-0.39063 1.00781,-0.53907 0.35547,-0.14453 0.71875,-0.25781 1.09375,-0.33203 0.375,-0.0742 0.75391,-0.10937 1.13672,-0.10937 h 60.85938 c 0.66015,0 1.32031,0.0352 1.98046,0.10937 0.65625,0.0781 1.3086,0.1875 1.95704,0.33594 0.64453,0.15234 1.27734,0.33594 1.90234,0.55859 0.625,0.21875 1.23437,0.47657 1.83203,0.76563 0.59375,0.29297 1.17188,0.61328 1.73047,0.97266 0.55859,0.35546 1.09375,0.74218 1.60937,1.16015 0.51563,0.41406 1.00391,0.85938 1.46875,1.33203 0.46485,0.47657 0.89844,0.97266 1.3086,1.4961 0.40625,0.51953 0.78125,1.0664 1.1289,1.6289 0.34375,0.56641 0.65625,1.14844 0.9375,1.75 0.28125,0.60157 0.52344,1.21485 0.73438,1.84375 0.20703,0.62891 0.38281,1.26563 0.51953,1.91407 0.13672,0.64843 0.23828,1.30468 0.30078,1.96484 0.0625,0.65625 0.0859,1.32031 0.0742,1.98047 -0.0117,0.66406 -0.0625,1.32422 -0.14844,1.98047 -0.0898,0.65625 -0.21484,1.30468 -0.375,1.94922 z m -60.33203,59.86718 c 0,0.57032 -0.0273,1.14453 -0.0859,1.71485 -0.0547,0.57031 -0.14062,1.13281 -0.25,1.69531 -0.11328,0.5625 -0.25,1.11719 -0.41796,1.66406 -0.16407,0.55078 -0.35938,1.08985 -0.57813,1.61719 -0.21875,0.52734 -0.46484,1.04687 -0.73437,1.55078 -0.26954,0.50781 -0.5625,0.99609 -0.88282,1.47266 -0.3164,0.47656 -0.65625,0.9375 -1.01953,1.3789 -0.36328,0.44141 -0.75,0.86719 -1.15234,1.26953 -0.40625,0.40625 -0.83203,0.78907 -1.27344,1.15235 -0.44141,0.36719 -0.90234,0.70703 -1.37891,1.02344 -0.47656,0.32031 -0.96484,0.61328 -1.47265,0.88281 -0.50391,0.26953 -1.01953,0.51562 -1.55078,0.73437 -0.52735,0.21875 -1.06641,0.41016 -1.61328,0.57813 -0.55079,0.16406 -1.10547,0.30469 -1.66797,0.41797 -0.5586,0.10937 -1.125,0.19531 -1.69532,0.25 -0.57031,0.0586 -1.14062,0.0859 -1.71484,0.0859 -0.57422,0 -1.14453,-0.0273 -1.71484,-0.0859 -0.57032,-0.0547 -1.13672,-0.14063 -1.69532,-0.25 -0.5625,-0.11328 -1.11718,-0.25391 -1.66796,-0.41797 -0.54688,-0.16797 -1.08594,-0.35938 -1.61329,-0.57813 -0.53125,-0.21875 -1.04687,-0.46484 -1.55078,-0.73437 -0.50781,-0.26953 -0.99609,-0.5625 -1.47265,-0.88281 -0.47657,-0.31641 -0.9375,-0.65625 -1.37891,-1.02344 -0.44531,-0.36328 -0.86719,-0.7461 -1.27344,-1.15235 -0.40234,-0.40234 -0.78906,-0.82812 -1.15234,-1.26953 -0.36328,-0.4414 -0.70313,-0.90234 -1.01953,-1.3789 -0.32031,-0.47657 -0.61328,-0.96485 -0.88281,-1.47266 -0.26954,-0.50391 -0.51563,-1.02344 -0.73438,-1.55078 -0.21875,-0.52734 -0.41406,-1.06641 -0.57812,-1.61719 -0.16797,-0.54687 -0.30469,-1.10156 -0.41797,-1.66406 -0.11328,-0.5625 -0.19532,-1.125 -0.25,-1.69531 -0.0586,-0.57032 -0.0859,-1.14453 -0.0859,-1.71485 0,-0.57422 0.0273,-1.14453 0.0859,-1.71484 0.0547,-0.57031 0.13672,-1.13672 0.25,-1.69922 0.11328,-0.55859 0.25,-1.11328 0.41797,-1.66406 0.16406,-0.54688 0.35937,-1.08594 0.57812,-1.61328 0.21875,-0.53125 0.46484,-1.04688 0.73438,-1.55469 0.26953,-0.50391 0.5625,-0.99609 0.88281,-1.46875 0.3164,-0.47656 0.65625,-0.9375 1.01953,-1.37891 0.36328,-0.44531 0.75,-0.86718 1.15234,-1.27343 0.40625,-0.40625 0.82813,-0.78907 1.27344,-1.15235 0.44141,-0.36328 0.90234,-0.70312 1.37891,-1.02344 0.47656,-0.3164 0.96484,-0.60937 1.47265,-0.8789 0.50391,-0.27344 1.01953,-0.51563 1.55078,-0.73438 0.52735,-0.21875 1.06641,-0.41406 1.61329,-0.57812 0.55078,-0.16797 1.10546,-0.30469 1.66796,-0.41797 0.5586,-0.11328 1.125,-0.19531 1.69532,-0.25391 0.57031,-0.0547 1.14062,-0.082 1.71484,-0.082 0.57422,0 1.14453,0.0273 1.71484,0.082 0.57032,0.0586 1.13672,0.14063 1.69532,0.25391 0.5625,0.11328 1.11718,0.25 1.66797,0.41797 0.54687,0.16406 1.08593,0.35937 1.61328,0.57812 0.53125,0.21875 1.04687,0.46094 1.55078,0.73438 0.50781,0.26953 0.99609,0.5625 1.47265,0.8789 0.47657,0.32032 0.9375,0.66016 1.37891,1.02344 0.44141,0.36328 0.86719,0.7461 1.27344,1.15235 0.40234,0.40625 0.78906,0.82812 1.15234,1.27343 0.36328,0.44141 0.70313,0.90235 1.01953,1.37891 0.32032,0.47266 0.61328,0.96484 0.88282,1.46875 0.26953,0.50781 0.51562,1.02344 0.73437,1.55469 0.21875,0.52734 0.41406,1.0664 0.57813,1.61328 0.16796,0.55078 0.30468,1.10547 0.41796,1.66406 0.10938,0.5625 0.19532,1.12891 0.25,1.69922 0.0586,0.57031 0.0859,1.14062 0.0859,1.71484 z m -11.66015,0 c 0,-0.38281 -0.0352,-0.76172 -0.10938,-1.13672 -0.0781,-0.375 -0.1875,-0.74218 -0.33203,-1.09375 -0.14844,-0.35546 -0.32813,-0.6914 -0.53906,-1.00781 -0.21485,-0.32031 -0.45703,-0.61328 -0.72657,-0.88281 -0.26953,-0.27344 -0.5664,-0.51563 -0.88281,-0.72656 -0.3164,-0.21094 -0.65234,-0.39063 -1.00781,-0.53907 -0.35547,-0.14453 -0.71875,-0.25781 -1.09375,-0.33203 -0.375,-0.0742 -0.75391,-0.11328 -1.13672,-0.11328 -0.38281,0 -0.76172,0.0391 -1.13672,0.11328 -0.375,0.0742 -0.74219,0.1875 -1.09375,0.33203 -0.35547,0.14844 -0.6914,0.32813 -1.00781,0.53907 -0.32031,0.21093 -0.61328,0.45312 -0.88281,0.72656 -0.27344,0.26953 -0.51172,0.5625 -0.72657,0.88281 -0.21093,0.31641 -0.39062,0.65235 -0.53906,1.00781 -0.14453,0.35157 -0.25781,0.71875 -0.33203,1.09375 -0.0742,0.375 -0.10937,0.75391 -0.10937,1.13672 0,0.38282 0.0352,0.76172 0.10937,1.13672 0.0742,0.375 0.1875,0.73828 0.33203,1.09375 0.14844,0.35156 0.32813,0.6875 0.53906,1.00781 0.21485,0.31641 0.45313,0.61329 0.72657,0.88282 0.26953,0.26953 0.5625,0.51172 0.88281,0.72656 0.31641,0.21094 0.65234,0.39062 1.00781,0.53906 0.35156,0.14453 0.71875,0.25391 1.09375,0.32813 0.375,0.0781 0.75391,0.11328 1.13672,0.11328 0.38281,0 0.76172,-0.0352 1.13672,-0.11328 0.375,-0.0742 0.73828,-0.1836 1.09375,-0.32813 0.35547,-0.14844 0.69141,-0.32812 1.00781,-0.53906 0.31641,-0.21484 0.61328,-0.45703 0.88281,-0.72656 0.26954,-0.26953 0.51172,-0.56641 0.72657,-0.88282 0.21093,-0.32031 0.39062,-0.65625 0.53906,-1.00781 0.14453,-0.35547 0.25391,-0.71875 0.33203,-1.09375 0.0742,-0.375 0.10938,-0.7539 0.10938,-1.13672 z m 58.29296,0 c 0,0.57032 -0.0273,1.14453 -0.082,1.71485 -0.0586,0.57031 -0.14062,1.13281 -0.2539,1.69531 -0.10938,0.5625 -0.25,1.11719 -0.41407,1.66406 -0.16796,0.55078 -0.35937,1.08985 -0.58203,1.61719 -0.21875,0.52734 -0.46093,1.04687 -0.73047,1.55078 -0.26953,0.50781 -0.5664,0.99609 -0.88281,1.47266 -0.32031,0.47656 -0.66015,0.9375 -1.02344,1.3789 -0.36328,0.44141 -0.74609,0.86719 -1.15234,1.26953 -0.40625,0.40625 -0.82812,0.78907 -1.27344,1.15235 -0.4414,0.36719 -0.89843,0.70703 -1.375,1.02344 -0.47656,0.32031 -0.96875,0.61328 -1.47265,0.88281 -0.50782,0.26953 -1.02344,0.51562 -1.55078,0.73437 -0.53125,0.21875 -1.07032,0.41016 -1.61719,0.57813 -0.54688,0.16406 -1.10156,0.30469 -1.66406,0.41797 -0.5625,0.10937 -1.12891,0.19531 -1.69922,0.25 -0.57032,0.0586 -1.14063,0.0859 -1.71485,0.0859 -0.57031,0 -1.14453,-0.0273 -1.71093,-0.0859 -0.57032,-0.0547 -1.13672,-0.14063 -1.69922,-0.25 -0.5625,-0.11328 -1.11719,-0.25391 -1.66407,-0.41797 -0.55078,-0.16797 -1.08593,-0.35938 -1.61718,-0.57813 -0.52735,-0.21875 -1.04688,-0.46484 -1.55078,-0.73437 -0.50391,-0.26953 -0.9961,-0.5625 -1.47266,-0.88281 -0.47656,-0.31641 -0.93359,-0.65625 -1.37891,-1.02344 -0.4414,-0.36328 -0.86718,-0.7461 -1.26953,-1.15235 -0.40625,-0.40234 -0.78906,-0.82812 -1.15234,-1.26953 -0.36328,-0.4414 -0.70703,-0.90234 -1.02344,-1.3789 -0.32031,-0.47657 -0.61328,-0.96485 -0.88281,-1.47266 -0.26953,-0.50391 -0.51563,-1.02344 -0.73438,-1.55078 -0.21875,-0.52734 -0.41015,-1.06641 -0.57812,-1.61719 -0.16406,-0.54687 -0.30469,-1.10156 -0.41797,-1.66406 -0.10938,-0.5625 -0.19531,-1.125 -0.25,-1.69531 -0.0547,-0.57032 -0.0859,-1.14453 -0.0859,-1.71485 0,-0.57422 0.0312,-1.14453 0.0859,-1.71484 0.0547,-0.57031 0.14062,-1.13672 0.25,-1.69922 0.11328,-0.55859 0.25391,-1.11328 0.41797,-1.66406 0.16797,-0.54688 0.35937,-1.08594 0.57812,-1.61328 0.21875,-0.53125 0.46485,-1.04688 0.73438,-1.55469 0.26953,-0.50391 0.5625,-0.99609 0.88281,-1.46875 0.31641,-0.47656 0.66016,-0.9375 1.02344,-1.37891 0.36328,-0.44531 0.74609,-0.86718 1.15234,-1.27343 0.40235,-0.40625 0.82813,-0.78907 1.26953,-1.15235 0.44532,-0.36328 0.90235,-0.70312 1.37891,-1.02344 0.47656,-0.3164 0.96875,-0.60937 1.47266,-0.8789 0.5039,-0.27344 1.02343,-0.51563 1.55078,-0.73438 0.53125,-0.21875 1.0664,-0.41406 1.61718,-0.57812 0.54688,-0.16797 1.10157,-0.30469 1.66407,-0.41797 0.5625,-0.11328 1.1289,-0.19531 1.69922,-0.25391 0.5664,-0.0547 1.14062,-0.082 1.71093,-0.082 0.57422,0 1.14453,0.0273 1.71485,0.082 0.57031,0.0586 1.13672,0.14063 1.69922,0.25391 0.5625,0.11328 1.11718,0.25 1.66406,0.41797 0.54687,0.16406 1.08594,0.35937 1.61719,0.57812 0.52734,0.21875 1.04296,0.46094 1.55078,0.73438 0.5039,0.26953 0.99609,0.5625 1.47265,0.8789 0.47657,0.32032 0.9336,0.66016 1.375,1.02344 0.44532,0.36328 0.86719,0.7461 1.27344,1.15235 0.40625,0.40625 0.78906,0.82812 1.15234,1.27343 0.36329,0.44141 0.70313,0.90235 1.02344,1.37891 0.31641,0.47266 0.61328,0.96484 0.88281,1.46875 0.26954,0.50781 0.51172,1.02344 0.73047,1.55469 0.22266,0.52734 0.41407,1.0664 0.58203,1.61328 0.16407,0.55078 0.30469,1.10547 0.41407,1.66406 0.11328,0.5625 0.19531,1.12891 0.2539,1.69922 0.0547,0.57031 0.082,1.14062 0.082,1.71484 z m -11.65625,0 c 0,-0.38281 -0.0391,-0.76172 -0.11328,-1.13672 -0.0742,-0.375 -0.18359,-0.74218 -0.33203,-1.09375 -0.14453,-0.35546 -0.32422,-0.6914 -0.53906,-1.00781 -0.21094,-0.32031 -0.45313,-0.61328 -0.72266,-0.88281 -0.27343,-0.27344 -0.5664,-0.51563 -0.88672,-0.72656 -0.3164,-0.21094 -0.65234,-0.39063 -1.00781,-0.53907 -0.35156,-0.14453 -0.71484,-0.25781 -1.08984,-0.33203 -0.37891,-0.0742 -0.75781,-0.11328 -1.14063,-0.11328 -0.38281,0 -0.76172,0.0391 -1.13672,0.11328 -0.375,0.0742 -0.73828,0.1875 -1.09375,0.33203 -0.35156,0.14844 -0.6875,0.32813 -1.00781,0.53907 -0.3164,0.21093 -0.61328,0.45312 -0.88281,0.72656 -0.26953,0.26953 -0.51172,0.5625 -0.72266,0.88281 -0.21484,0.31641 -0.39453,0.65235 -0.53906,1.00781 -0.14844,0.35157 -0.25781,0.71875 -0.33203,1.09375 -0.0742,0.375 -0.11328,0.75391 -0.11328,1.13672 0,0.38282 0.0391,0.76172 0.11328,1.13672 0.0742,0.375 0.18359,0.73828 0.33203,1.09375 0.14453,0.35156 0.32422,0.6875 0.53906,1.00781 0.21094,0.31641 0.45313,0.61329 0.72266,0.88282 0.26953,0.26953 0.56641,0.51172 0.88281,0.72656 0.32031,0.21094 0.65625,0.39062 1.00781,0.53906 0.35547,0.14453 0.71875,0.25391 1.09375,0.32813 0.375,0.0781 0.75391,0.11328 1.13672,0.11328 0.38282,0 0.76172,-0.0352 1.14063,-0.11328 0.375,-0.0742 0.73828,-0.1836 1.08984,-0.32813 0.35547,-0.14844 0.69141,-0.32812 1.00781,-0.53906 0.32032,-0.21484 0.61329,-0.45703 0.88672,-0.72656 0.26953,-0.26953 0.51172,-0.56641 0.72266,-0.88282 0.21484,-0.32031 0.39453,-0.65625 0.53906,-1.00781 0.14844,-0.35547 0.25781,-0.71875 0.33203,-1.09375 0.0742,-0.375 0.11328,-0.7539 0.11328,-1.13672 z"
         fill-opacity="1"
         fill-rule="nonzero"
         id="path1152"
         style="fill:#f9f9f9"
         sodipodi:nodetypes="ccsccccccsscscssccccccsscccsscccccccccsscccccccccccccccscccsccsssccsccssscccccccccscscscscscccsccsscccccccscccccccssccscscscccccccccccccccsccccccsccccccccssccccscssscccccsssccccccscccscccssccccccsccccccccsccccscccsccsccsssccccccccccccscscscccccscccccccsssccscccsscccccsssccscccsccccccss" />
    </g>
    <g
       clip-path="url(#0e8c13dd3a)"
       id="g1158"
       style="fill:#f9f9f9"
       transform="matrix(0.21405284,0,0,0.21405284,44.37928,-15.090505)"
       inkscape:export-filename="/home/debian/Documents/GitHub/core/frontend-main/src/assets/logo-white.png"
       inkscape:export-xdpi="121.6"
       inkscape:export-ydpi="121.6">
      <path
         fill="#ffffff"
         d="m 141.1875,167.47656 c 0,0 0.4375,-6.50781 -6.03516,-7.35156 -6.47265,-0.84375 -17.46484,-2.15625 -29.0625,-4.62109 -11.601559,-2.46094 -14.363278,-3.67188 -14.363278,-3.67188 0,0 0.167969,6.91016 16.148438,10.65234 15.94922,3.71094 33.3125,4.99219 33.3125,4.99219 z m 3.57422,9.53906 c 0.20312,-5.42578 -5.46094,-6.5039 -10.98828,-6.875 -3.30469,-0.20312 -6.61328,-0.40625 -8.46485,-0.53906 -7.75781,-0.53906 -15.61328,-1.65234 -15.61328,-1.65234 0,0 0.98047,4.85547 9.54297,6.74219 8.53125,1.88671 25.52344,2.32421 25.52344,2.32421 z m 5.69922,8.73438 c 0,0 -0.26953,-4.07813 -6.84375,-5.05469 -6.57422,-1.01172 -20.63672,-1.11328 -20.63672,-1.11328 0,0 8.09375,6.33594 16.82422,6.94531 8.76953,0.64063 10.65625,-0.77734 10.65625,-0.77734 z m 9.03515,0.97656 c -4.7539,-10.51562 -5.02343,-17.69922 -4.85547,-25.65625 0.16797,-8.19531 -2.42578,-14.70312 -10.51953,-17.1289 -30.3125,-9.07032 -45.988278,-7.1836 -73.941402,-27.58203 0,0 0,16.82421 18.949218,27.10937 13.621094,7.35156 38.371094,10.55469 48.519534,12.64453 5.66406,1.21484 6.8125,5.26172 8.05859,10.21484 2.79688,10.99219 6.00391,18.07422 13.78906,20.39844"
         fill-opacity="1"
         fill-rule="evenodd"
         id="path1156"
         style="fill:#f9f9f9" />
    </g>
    <path
       fill="#ffffff"
       d="m 81.54784,28.643169 c -0.117896,0 -0.236627,0.0058 -0.354525,0.01755 -0.117896,0.01171 -0.234955,0.02926 -0.35118,0.05267 -0.116224,0.02257 -0.231611,0.05184 -0.345327,0.08612 -0.112881,0.03428 -0.224922,0.07442 -0.334457,0.119568 -0.109535,0.04515 -0.216562,0.09616 -0.321079,0.152178 -0.104518,0.05603 -0.205693,0.116225 -0.304358,0.182279 -0.09866,0.06605 -0.193985,0.136292 -0.28596,0.211544 -0.09114,0.07525 -0.178935,0.154688 -0.262551,0.239138 -0.08445,0.08361 -0.163883,0.17141 -0.239135,0.263385 -0.07525,0.09114 -0.14549,0.18646 -0.211546,0.285126 -0.06605,0.09867 -0.127094,0.199837 -0.182279,0.304355 -0.05602,0.104518 -0.107027,0.211544 -0.152179,0.321079 -0.04515,0.109535 -0.08528,0.221579 -0.119567,0.335295 -0.03428,0.112878 -0.06355,0.228268 -0.08612,0.34449 -0.02341,0.116224 -0.04097,0.233286 -0.05268,0.351182 -0.01171,0.117896 -0.01755,0.236628 -0.01755,0.355361 0,0.117896 0.0058,0.236628 0.01755,0.354525 0.01171,0.117896 0.02926,0.234956 0.05268,0.351179 0.02257,0.116225 0.05184,0.231612 0.08612,0.345328 0.03428,0.112881 0.07442,0.224922 0.119567,0.334458 0.04515,0.109535 0.09616,0.216561 0.152179,0.321079 0.05519,0.104518 0.116224,0.205691 0.182279,0.304358 0.06606,0.09866 0.136291,0.193984 0.211546,0.285959 0.07525,0.09114 0.154686,0.178934 0.239135,0.26255 0.08362,0.08445 0.17141,0.163884 0.262551,0.239136 0.09198,0.07525 0.187296,0.14549 0.28596,0.211547 0.09867,0.06605 0.19984,0.127093 0.304358,0.182278 0.104517,0.05602 0.211544,0.107027 0.321079,0.152179 0.109535,0.04515 0.221576,0.08528 0.334457,0.119568 0.113716,0.03428 0.229103,0.06354 0.345327,0.08612 0.116225,0.02341 0.233284,0.04097 0.35118,0.05268 0.117898,0.0117 0.236629,0.01755 0.354525,0.01755 0.118732,0 0.237466,-0.0058 0.355362,-0.01755 0.117896,-0.0117 0.234957,-0.02926 0.351181,-0.05268 0.116223,-0.02257 0.231612,-0.05184 0.344491,-0.08612 0.113715,-0.03428 0.225759,-0.07442 0.335294,-0.119568 0.109536,-0.04516 0.216562,-0.09616 0.32108,-0.152179 0.104517,-0.05519 0.205689,-0.116224 0.304355,-0.182278 0.09867,-0.06606 0.193985,-0.136292 0.285124,-0.211547 0.09198,-0.07525 0.179773,-0.154686 0.263386,-0.239136 0.08445,-0.08362 0.163886,-0.171408 0.239138,-0.26255 0.07525,-0.09197 0.145489,-0.187297 0.211544,-0.285959 0.06605,-0.09867 0.126257,-0.19984 0.182279,-0.304358 0.05602,-0.104518 0.107026,-0.211544 0.152178,-0.321079 0.04515,-0.109536 0.08529,-0.221577 0.119569,-0.334458 0.03428,-0.113716 0.06354,-0.229103 0.08612,-0.345328 0.02341,-0.116223 0.04097,-0.233283 0.05267,-0.351179 0.01171,-0.117897 0.01755,-0.236629 0.01755,-0.354525 0,-0.118733 -0.0058,-0.237465 -0.01755,-0.355361 -0.01171,-0.117896 -0.02926,-0.234958 -0.05267,-0.351182 -0.02257,-0.116222 -0.05184,-0.231612 -0.08612,-0.34449 -0.03428,-0.113716 -0.07442,-0.22576 -0.119569,-0.335295 -0.04515,-0.109535 -0.09616,-0.216561 -0.152178,-0.321079 -0.05603,-0.104518 -0.116224,-0.20569 -0.182279,-0.304355 -0.06605,-0.09867 -0.136292,-0.193986 -0.211544,-0.285126 -0.07525,-0.09197 -0.154687,-0.179772 -0.239138,-0.263385 -0.08361,-0.08445 -0.171409,-0.163885 -0.263386,-0.239138 -0.09114,-0.07525 -0.186459,-0.145489 -0.285124,-0.211544 -0.09867,-0.06605 -0.199838,-0.126257 -0.304355,-0.182279 -0.104518,-0.05602 -0.211544,-0.107026 -0.32108,-0.152178 -0.109535,-0.04515 -0.221579,-0.08529 -0.335294,-0.119568 -0.112879,-0.03428 -0.228268,-0.06355 -0.344491,-0.08612 -0.116224,-0.02341 -0.233285,-0.04097 -0.351181,-0.05267 -0.117896,-0.01171 -0.23663,-0.01755 -0.355362,-0.01755 z m 0,4.827893 c -0.0786,0 -0.157194,-0.0075 -0.234955,-0.02341 -0.07776,-0.01505 -0.153016,-0.03847 -0.226597,-0.06857 -0.07274,-0.0301 -0.142979,-0.06773 -0.208198,-0.111207 -0.06606,-0.04432 -0.127094,-0.09449 -0.183116,-0.150507 -0.05603,-0.05603 -0.106189,-0.117059 -0.150507,-0.183116 -0.04348,-0.06522 -0.0811,-0.135455 -0.111207,-0.208198 -0.0301,-0.07358 -0.05351,-0.148836 -0.06857,-0.226596 -0.01588,-0.07776 -0.02341,-0.15636 -0.02341,-0.234955 0,-0.07943 0.0075,-0.158034 0.02341,-0.235795 0.01505,-0.07776 0.03847,-0.153014 0.06857,-0.226594 0.0301,-0.07274 0.06773,-0.142981 0.111207,-0.208201 0.04432,-0.06605 0.09449,-0.127094 0.150507,-0.183115 0.05602,-0.05602 0.117059,-0.10619 0.183116,-0.150506 0.06522,-0.04348 0.135455,-0.08111 0.208198,-0.111206 0.07358,-0.0301 0.148836,-0.05351 0.226597,-0.06857 0.07776,-0.01588 0.156359,-0.02341 0.234955,-0.02341 0.07944,0 0.158033,0.0075 0.235794,0.02341 0.07776,0.01505 0.153013,0.03846 0.226595,0.06857 0.07274,0.0301 0.14298,0.06773 0.2082,0.111206 0.06605,0.04432 0.127094,0.09449 0.183116,0.150506 0.05602,0.05602 0.106189,0.117061 0.150504,0.183115 0.04348,0.06522 0.08111,0.135457 0.111207,0.208201 0.0301,0.07358 0.05351,0.148833 0.06857,0.226594 0.01589,0.07776 0.02341,0.15636 0.02341,0.235795 0,0.07859 -0.0075,0.157193 -0.02341,0.234955 -0.01505,0.07776 -0.03846,0.153015 -0.06857,0.226596 -0.0301,0.07274 -0.06773,0.142978 -0.111207,0.208198 -0.04432,0.06606 -0.09448,0.127094 -0.150504,0.183116 -0.05603,0.05602 -0.117062,0.10619 -0.183116,0.150507 -0.06522,0.04348 -0.135457,0.0811 -0.2082,0.111207 -0.07358,0.0301 -0.148834,0.05351 -0.226595,0.06857 -0.07776,0.01588 -0.156359,0.02341 -0.235794,0.02341 z m 0,0"
       fill-opacity="1"
       fill-rule="nonzero"
       id="path1160"
       style="fill:#f9f9f9;stroke-width:0.214052"
       inkscape:export-filename="/home/debian/Documents/GitHub/core/frontend-main/src/assets/logo-white.png"
       inkscape:export-xdpi="121.6"
       inkscape:export-ydpi="121.6" />
    <path
       fill="#ffffff"
       d="m 91.202793,28.643169 c -0.117895,0 -0.236628,0.0058 -0.354524,0.01755 -0.117896,0.01171 -0.234955,0.02926 -0.35118,0.05267 -0.116223,0.02257 -0.231611,0.05184 -0.344491,0.08612 -0.113716,0.03428 -0.225758,0.07442 -0.335293,0.119568 -0.109535,0.04515 -0.216562,0.09616 -0.321079,0.152178 -0.104518,0.05603 -0.205692,0.116225 -0.304358,0.182279 -0.09867,0.06605 -0.193985,0.136292 -0.285962,0.211544 -0.09114,0.07525 -0.178932,0.154688 -0.262549,0.239138 -0.08445,0.08361 -0.163882,0.17141 -0.239137,0.263385 -0.07525,0.09114 -0.145488,0.18646 -0.211544,0.285126 -0.06605,0.09867 -0.126257,0.199837 -0.182279,0.304355 -0.05602,0.104518 -0.107026,0.211544 -0.152179,0.321079 -0.04515,0.109535 -0.08528,0.221579 -0.119567,0.335295 -0.03428,0.112878 -0.06355,0.228268 -0.08612,0.34449 -0.02341,0.116224 -0.04097,0.233286 -0.05268,0.351182 -0.01171,0.117896 -0.01755,0.236628 -0.01755,0.355361 0,0.117896 0.0058,0.236628 0.01755,0.354525 0.01171,0.117896 0.02926,0.234956 0.05268,0.351179 0.02257,0.116225 0.05184,0.231612 0.08612,0.345328 0.03428,0.112881 0.07442,0.224922 0.119567,0.334458 0.04516,0.109535 0.09616,0.216561 0.152179,0.321079 0.05602,0.104518 0.116224,0.205691 0.182279,0.304358 0.06606,0.09866 0.136292,0.193984 0.211544,0.285959 0.07525,0.09114 0.154687,0.178934 0.239137,0.26255 0.08362,0.08445 0.17141,0.163884 0.262549,0.239136 0.09198,0.07525 0.187296,0.14549 0.285962,0.211547 0.09867,0.06605 0.19984,0.127093 0.304358,0.182278 0.104517,0.05602 0.211544,0.107027 0.321079,0.152179 0.109535,0.04515 0.221577,0.08528 0.335293,0.119568 0.11288,0.03428 0.228268,0.06354 0.344491,0.08612 0.116225,0.02341 0.233284,0.04097 0.35118,0.05268 0.117896,0.0117 0.236629,0.01755 0.354524,0.01755 0.118734,0 0.237468,-0.0058 0.355363,-0.01755 0.117895,-0.0117 0.234958,-0.02926 0.351179,-0.05268 0.116224,-0.02257 0.231614,-0.05184 0.344492,-0.08612 0.113717,-0.03428 0.225761,-0.07442 0.335295,-0.119568 0.109534,-0.04516 0.21656,-0.09616 0.32108,-0.152179 0.104517,-0.05519 0.205689,-0.116224 0.304356,-0.182278 0.09866,-0.06606 0.193985,-0.136292 0.285961,-0.211547 0.09114,-0.07525 0.178936,-0.154686 0.262548,-0.239136 0.08445,-0.08362 0.163885,-0.171408 0.239139,-0.26255 0.07525,-0.09197 0.145488,-0.187297 0.211544,-0.285959 0.06605,-0.09867 0.126256,-0.19984 0.182278,-0.304358 0.05602,-0.104518 0.107027,-0.211544 0.152179,-0.321079 0.04515,-0.109536 0.08529,-0.221577 0.119569,-0.334458 0.03428,-0.113716 0.06354,-0.229103 0.08612,-0.345328 0.02341,-0.116223 0.04097,-0.233283 0.05267,-0.351179 0.0117,-0.117897 0.01755,-0.236629 0.01755,-0.354525 0,-0.118733 -0.0058,-0.237465 -0.01755,-0.355361 -0.0117,-0.117896 -0.02926,-0.234958 -0.05267,-0.351182 -0.02257,-0.116222 -0.05184,-0.231612 -0.08612,-0.34449 -0.03428,-0.113716 -0.07442,-0.22576 -0.119569,-0.335295 -0.04515,-0.109535 -0.09616,-0.216561 -0.152179,-0.321079 -0.05603,-0.104518 -0.116224,-0.20569 -0.182278,-0.304355 -0.06605,-0.09867 -0.136292,-0.193986 -0.211544,-0.285126 -0.07525,-0.09197 -0.154689,-0.179772 -0.239139,-0.263385 -0.08361,-0.08445 -0.171408,-0.163885 -0.263385,-0.239138 -0.09114,-0.07525 -0.18646,-0.145489 -0.285124,-0.211544 -0.09867,-0.06605 -0.199839,-0.126257 -0.304356,-0.182279 -0.10452,-0.05602 -0.211546,-0.107026 -0.32108,-0.152178 -0.109534,-0.04515 -0.221578,-0.08529 -0.335295,-0.119568 -0.112878,-0.03428 -0.228268,-0.06355 -0.344492,-0.08612 -0.116221,-0.02341 -0.233284,-0.04097 -0.351179,-0.05267 -0.117895,-0.01171 -0.236629,-0.01755 -0.355363,-0.01755 z m 0,4.827893 c -0.07859,0 -0.157193,-0.0075 -0.234954,-0.02341 -0.07776,-0.01505 -0.153016,-0.03847 -0.226596,-0.06857 -0.07274,-0.0301 -0.142981,-0.06773 -0.208199,-0.111207 -0.06606,-0.04432 -0.127094,-0.09449 -0.183116,-0.150507 -0.05602,-0.05603 -0.106191,-0.117059 -0.150507,-0.183116 -0.04348,-0.06522 -0.0811,-0.135455 -0.111207,-0.208198 -0.0301,-0.07358 -0.05351,-0.148836 -0.06857,-0.226596 -0.01588,-0.07776 -0.02341,-0.15636 -0.02341,-0.234955 0,-0.07943 0.0075,-0.158034 0.02341,-0.235795 0.01505,-0.07776 0.03847,-0.153014 0.06857,-0.226594 0.0301,-0.07274 0.06773,-0.142981 0.111207,-0.208201 0.04432,-0.06605 0.09449,-0.127094 0.150507,-0.183115 0.05603,-0.05602 0.11706,-0.10619 0.183116,-0.150506 0.06521,-0.04348 0.135455,-0.08111 0.208199,-0.111206 0.07358,-0.0301 0.148835,-0.05351 0.226596,-0.06857 0.07776,-0.01588 0.15636,-0.02341 0.234954,-0.02341 0.07944,0 0.158033,0.0075 0.235795,0.02341 0.07776,0.01505 0.153014,0.03846 0.226595,0.06857 0.07274,0.0301 0.14298,0.06773 0.208201,0.111206 0.06605,0.04432 0.127092,0.09449 0.183113,0.150506 0.05602,0.05602 0.106192,0.117061 0.150507,0.183115 0.04348,0.06522 0.08111,0.135457 0.111206,0.208201 0.0301,0.07358 0.05351,0.148833 0.06857,0.226594 0.01588,0.07776 0.02341,0.15636 0.02341,0.235795 0,0.07859 -0.0075,0.157193 -0.02341,0.234955 -0.01505,0.07776 -0.03846,0.153015 -0.06857,0.226596 -0.0301,0.07274 -0.06773,0.142978 -0.111206,0.208198 -0.04432,0.06606 -0.09448,0.127094 -0.150507,0.183116 -0.05602,0.05602 -0.117059,0.10619 -0.183113,0.150507 -0.06522,0.04348 -0.135457,0.0811 -0.208201,0.111207 -0.07358,0.0301 -0.148833,0.05351 -0.226595,0.06857 -0.07776,0.01588 -0.156359,0.02341 -0.235795,0.02341 z m 0,0"
       fill-opacity="1"
       fill-rule="nonzero"
       id="path1162"
       style="fill:#f9f9f9;stroke-width:0.214052"
       inkscape:export-filename="/home/debian/Documents/GitHub/core/frontend-main/src/assets/logo-white.png"
       inkscape:export-xdpi="121.6"
       inkscape:export-ydpi="121.6" />
  </g>
  <g
     inkscape:groupmode="layer"
     id="layer2"
     inkscape:label="Layer 2"
     style="display:inline" />
  <g
     inkscape:groupmode="layer"
     id="layer3"
     inkscape:label="Layer 3"
     style="display:inline" />
  <g
     inkscape:groupmode="layer"
     id="layer4"
     inkscape:label="limit"
     style="display:none">
    <rect
       style="display:inline;opacity:0.557195;fill:#ff5e00;fill-opacity:1;stroke:#0069f5;stroke-width:0;stroke-linecap:round;stroke-linejoin:round;paint-order:stroke fill markers"
       id="rect1592-1"
       width="15"
       height="14.999998"
       x="1.8808064e-06"
       y="14.999999" />
    <rect
       style="display:inline;opacity:0.557195;fill:#ff0000;stroke:#0069f5;stroke-width:0;stroke-linecap:round;stroke-linejoin:round;paint-order:stroke fill markers"
       id="rect1592"
       width="120"
       height="14.999998"
       x="1.8808064e-06"
       y="6.7562792e-07" />
  </g>
</svg>
