<?xml version="1.0" encoding="UTF-8" standalone="no"?>
<!-- Created with Inkscape (http://www.inkscape.org/) -->

<svg
   width="175"
   height="48"
   viewBox="0 0 46.302074 12.7"
   version="1.1"
   id="svg5"
   inkscape:version="1.1.2 (0a00cf5339, 2022-02-04)"
   sodipodi:docname="logo.svg"
   xmlns:inkscape="http://www.inkscape.org/namespaces/inkscape"
   xmlns:sodipodi="http://sodipodi.sourceforge.net/DTD/sodipodi-0.dtd"
   xmlns="http://www.w3.org/2000/svg"
   xmlns:svg="http://www.w3.org/2000/svg">
  <sodipodi:namedview
     id="namedview7"
     pagecolor="#ffffff"
     bordercolor="#666666"
     borderopacity="1.0"
     inkscape:pageshadow="2"
     inkscape:pageopacity="0.0"
     inkscape:pagecheckerboard="0"
     inkscape:document-units="mm"
     showgrid="false"
     units="px"
     height="48px"
     inkscape:zoom="2.9647587"
     inkscape:cx="88.540089"
     inkscape:cy="3.7102513"
     inkscape:window-width="1920"
     inkscape:window-height="1048"
     inkscape:window-x="0"
     inkscape:window-y="0"
     inkscape:window-maximized="1"
     inkscape:current-layer="layer1" />
  <defs
     id="defs2" />
  <g
     inkscape:label="Layer 1"
     inkscape:groupmode="layer"
     id="layer1">
    <text
       xml:space="preserve"
       style="font-size:10.6248px;line-height:1.25;font-family:'Inter 28pt';-inkscape-font-specification:'Inter 28pt';letter-spacing:-0.15875px;fill:#1573ff;fill-opacity:0;stroke-width:0.132292;stroke-miterlimit:4;stroke-dasharray:none"
       x="15.73343"
       y="9.0892801"
       id="text3040"><tspan
         sodipodi:role="line"
         style="font-style:normal;font-variant:normal;font-weight:600;font-stretch:normal;font-family:'Inter 28pt';-inkscape-font-specification:'Inter 28pt Semi-Bold';fill:#000000;fill-opacity:1;stroke-width:0.132292;stroke-miterlimit:4;stroke-dasharray:none"
         x="15.73343"
         y="9.0892801"
         id="tspan13110">pairfy</tspan></text>
    <text
       xml:space="preserve"
       style="font-size:10.5833px;line-height:1.25;font-family:'Inter 28pt';-inkscape-font-specification:'Inter 28pt';stroke-width:0.264583"
       x="48.527615"
       y="16.411993"
       id="text5743"><tspan
         sodipodi:role="line"
         id="tspan5741"
         style="stroke-width:0.264583"
         x="48.527615"
         y="16.411993" /></text>
    <path
       style="fill:#000000;stroke-width:0.0140045"
       d="M 2.8216017,12.67375 C 2.7907917,12.65961 2.7165847,12.61542 2.6566967,12.57558 2.4906627,12.465115 1.5503747,11.880044 0.56687475,11.275243 0.33580075,11.133141 0.12557175,11.00088 0.09970075,10.981326 0.03295075,10.930906 3.7074881e-4,10.850433 7.4881497e-7,10.735084 -1.6825119e-4,10.682624 0.02829075,10.42738 0.06324075,10.167901 c 0.08086,-0.600336 0.216761,-1.7008867 0.272692,-2.2083387 0.02377,-0.2156654 0.07102,-0.6126893 0.105,-0.8822805 0.03398,-0.2695818 0.08419,-0.6855173 0.111563,-0.9242991 0.02738,-0.2387725 0.0747,-0.6452569 0.105142,-0.9032852 0.06058,-0.5134128 0.175135,-1.5556749 0.189324,-1.7225589 0.01596,-0.1877864 0.04852,-0.252512 0.15652595,-0.311247 0.05739,-0.031163 0.14239,-0.048279 0.564713,-0.1133955 0.273438,-0.04214 0.643884,-0.097768 0.823214,-0.123563 l 0.326055,-0.046884 -0.0089,-0.1120839 c -0.0049,-0.061674 -0.0018,-0.2286702 0.0071,-0.3711634 0.0248,-0.4006239 0.06554,-0.6395731 0.156017,-0.9151179 0.156392,-0.4762889 0.437802,-0.88897799 0.784041,-1.14979701 0.35758,-0.26935858 0.628855,-0.36598199 1.070533,-0.38131224 0.173576,-0.005581 0.253965,-0.002791002 0.356713,0.0153489 0.224965,0.0392559 0.495073,0.16361887 0.680485,0.31329353 l 0.08489,0.0685582 0.167192,0.008372 c 0.220124,0.0107908 0.401704,0.0579537 0.60313,0.15663292 0.27624,0.13530256 0.476408,0.31184239 0.642994,0.5670986 0.114976,0.1761678 0.194452,0.3350331 0.251017,0.501759 0.04093,0.1206421 0.131626,0.4856753 0.175103,0.7047547 l 0.01558,0.078512 0.107964,0.024 c 0.05938,0.013209 0.328535,0.070512 0.598123,0.1273769 1.148447,0.2422609 1.144532,0.2411725 1.209864,0.3365215 0.03971,0.057954 0.01648,-0.1429956 0.226509,1.9599846 0.2232853,2.2357803 0.2964523,2.9535675 0.4559643,4.4732165 0.113981,1.085881 0.131924,1.288393 0.11821,1.334169 -0.01861,0.06214 -0.08101,0.138327 -0.145426,0.177611 -0.05667,0.03451 -0.7871473,0.22121 -4.3893823,1.121583 -1.604014,0.400912 -2.936893,0.728801 -2.961954,0.728634 -0.02506,-1.58e-4 -0.07077,-0.01191 -0.101584,-0.02605 z m 2.701503,-1.19283 c 2.642928,-0.657136 4.315803,-1.079928 4.328218,-1.093882 0.0051,-0.0056 -0.05927,-0.603006 -0.187844,-1.7412493 C 9.6095347,8.1682344 9.5526337,7.6514708 9.5370367,7.497424 9.4742647,6.8774324 9.3544237,5.6433094 9.3269377,5.3337182 c -0.01607,-0.1810049 -0.05699,-0.58748 -0.09092,-0.9032851 -0.03393,-0.3158052 -0.07212,-0.6781686 -0.08486,-0.8052571 -0.01273,-0.1270979 -0.02446,-0.2324469 -0.02606,-0.2341213 -0.0016,-0.00186 -0.292477,0.053675 -0.646399,0.1230141 -0.353924,0.069302 -1.33672,0.2610888 -2.183992,0.4261123 -1.481799,0.2886237 -2.401719,0.4727078 -2.839415,0.5682149 l -0.206565,0.045116 v 3.7442107 c 0,2.0593153 0.0041,3.7442023 0.0091,3.7442023 0.005,0 1.024378,-0.252428 2.265229,-0.560959 z M 4.8125757,9.9318747 c -0.0051,-0.0056 -0.0093,-1.0325693 -0.0093,-2.283176 0,-1.8069796 0.0036,-2.274906 0.01751,-2.2790176 0.04314,-0.012744 1.590853,-0.2197771 1.751447,-0.2342702 0.302766,-0.027349 0.53679,0.010233 0.761033,0.1222049 0.354253,0.1768747 0.56617,0.5479358 0.591344,1.0354156 0.03925,0.7600198 -0.233232,1.2919928 -0.810584,1.5825514 -0.236139,0.1188374 -0.366495,0.1534142 -0.898603,0.2383353 -0.218248,0.034791 -0.433052,0.070326 -0.477341,0.078884 l -0.08053,0.015535 V 8.9967754 9.785214 l -0.07353,0.01488 c -0.125857,0.02549 -0.742156,0.1411247 -0.752379,0.1411247 -0.0053,0 -0.0139,-0.0047 -0.01903,-0.0093 z m 1.221436,-2.5259578 c 0.15701,-0.023163 0.342919,-0.054698 0.413134,-0.069954 0.424282,-0.092558 0.652833,-0.381089 0.652833,-0.8241967 0,-0.3585587 -0.134886,-0.5603264 -0.413133,-0.6179916 -0.108368,-0.022419 -0.244598,-0.012558 -0.679219,0.049302 -0.188711,0.026884 -0.344686,0.048837 -0.346611,0.048837 -0.002,0 -0.0035,0.3311447 -0.0035,0.7358709 v 0.735871 l 0.04552,-0.00744 c 0.02503,-0.00465 0.173975,-0.026791 0.330983,-0.049954 z m -3.809434,3.9271141 c -0.169011,-0.332354 -0.590741,-1.131398 -0.607439,-1.150896 -0.0049,-0.0056 -0.84684795,0.548616 -0.84704095,0.557807 -1.38e-4,0.0037 0.02033,0.01935 0.04536,0.03395 0.02503,0.01451 0.37006995,0.224818 0.76674695,0.467256 0.872073,0.532987 0.84633,0.517452 0.851233,0.513554 0.0021,-0.0019 -0.09181,-0.191479 -0.208858,-0.421656 z M 2.7025627,7.9138991 V 4.4581354 l -0.218857,-0.097879 c -0.120371,-0.05386 -0.223672,-0.099749 -0.229557,-0.1020374 -0.01443,-0.00558 -0.02106,0.083349 -0.0771,1.0334901 -0.02658,0.450596 -0.06715,1.1343646 -0.09017,1.5194908 -0.03899,0.6522243 -0.09482,1.6349142 -0.149713,2.6350834 l -0.02318,0.4223724 0.27354,0.5299373 c 0.282579,0.547442 0.505418,0.970364 0.511534,0.97082 0.002,1.58e-4 0.0035,-1.5548408 0.0035,-3.4555137 z m -1.638528,2.1343479 0.441142,-0.282912 0.01704,-0.3146891 c 0.0094,-0.1730887 0.03629,-0.670764 0.0598,-1.1059554 0.02352,-0.4351914 0.05837,-1.0748482 0.07744,-1.4214534 0.06054,-1.1003088 0.146186,-2.6856043 0.150067,-2.7777905 l 0.0037,-0.08893 -0.227572,-0.1026145 c -0.140831,-0.063535 -0.227574,-0.095786 -0.227574,-0.084651 0,0.027907 -0.132419,1.207081 -0.195916,1.7445981 -0.17399595,1.4729233 -0.31395395,2.6704601 -0.36407895,3.1151957 -0.0312,0.2768377 -0.0598,0.5257684 -0.06356,0.5531731 -0.0037,0.027442 -0.03207,0.2609493 -0.06291,0.5189773 -0.03085,0.2580387 -0.0583,0.4833317 -0.06099,0.5006627 -0.0027,0.0173 -0.001,0.03107 0.0036,0.03042 0.0047,-6.04e-4 0.207075,-0.1284 0.44970295,-0.283991 z m 2.450789,-6.1344008 c 0.219522,-0.043814 0.436941,-0.087349 0.483156,-0.096754 l 0.08403,-0.017116 0.0038,-0.2776283 0.0038,-0.2776284 -0.03881,0.00837 c -0.06062,0.012558 -0.784793,0.1371631 -1.348233,0.2320841 -0.281141,0.047349 -0.520316,0.08921 -0.531498,0.09293 -0.01118,0.00372 0.121158,0.071721 0.294094,0.1511072 0.172935,0.079349 0.374298,0.1733212 0.447471,0.2087632 0.07694,0.037302 0.147807,0.062605 0.168054,0.060186 0.01926,-0.00279 0.214619,-0.040093 0.43414,-0.083907 z m 1.939625,-0.3768099 c 0.377422,-0.072837 0.918455,-0.1757491 1.202297,-0.2287074 l 0.516077,-0.096288 -0.0083,-0.070047 c -0.0046,-0.038512 -0.0084,-0.1353491 -0.0084,-0.2151911 l -1.38e-4,-0.1451537 -0.08053,0.0093 C 6.8711657,2.8146721 6.1566977,2.92204 5.4544307,3.0346355 l -0.770247,0.1234886 -0.0038,0.2633864 -0.0038,0.2633865 0.04583,-0.00744 c 0.02521,-0.00465 0.35463,-0.067349 0.732051,-0.1401676 z m 2.541818,-0.4772194 c 0.192271,-0.035256 0.191358,-0.037675 -0.02801,-0.071442 -0.08087,-0.012465 -0.161227,-0.025674 -0.178558,-0.029302 -0.02968,-0.00651 -0.03151,-0.00186 -0.03151,0.070884 0,0.073396 0.0017,0.077116 0.03151,0.069768 0.01733,-0.00465 0.110286,-0.022233 0.206566,-0.039907 z m -4.362404,-0.294326 c 0.146347,-0.026233 0.313351,-0.055628 0.371119,-0.065396 0.05777,-0.00977 0.10688,-0.019163 0.109136,-0.020744 0.0022,-0.00186 0.0097,-0.072372 0.01663,-0.1571538 0.01254,-0.1543072 0.08389,-0.5043356 0.147643,-0.724336 0.09661,-0.3333867 0.269335,-0.6251267 0.521172,-0.88029921 0.107322,-0.10874432 0.346189,-0.28932142 0.382712,-0.28932142 0.0072,0 0.01309,-0.005581 0.01309,-0.0128372 0,-0.0176745 -0.155625,-0.0671629 -0.266086,-0.0845583 -0.127738,-0.0201858 -0.222178,-0.0180463 -0.347202,0.007442 -0.419159,0.0861397 -0.813496,0.42280072 -1.049985,0.89638283 -0.151407,0.3032006 -0.24134,0.7480013 -0.24134,1.1936392 v 0.2007634 l 0.03851,-0.00837 c 0.02118,-0.00465 0.158251,-0.029395 0.304598,-0.055628 z m 1.633376,-0.2527818 c 0.310933,-0.049581 0.594668,-0.094317 0.630523,-0.099423 l 0.06519,-0.0093 0.0095,-0.1701677 c 0.01536,-0.2749335 -0.02015,-0.52912 -0.11254,-0.8051949 -0.04921,-0.1470607 -0.137952,-0.3314796 -0.188783,-0.3923262 -0.02734,-0.032744 -0.02817,-0.032837 -0.08713,-0.0093 -0.08345,0.033395 -0.225496,0.1304282 -0.331745,0.2266888 -0.274157,0.2483725 -0.461436,0.6570802 -0.539532,1.1774252 -0.02285,0.1522235 -0.02468,0.1716468 -0.01618,0.1716468 0.003,0 0.259753,-0.040558 0.570683,-0.09014 z m 1.572363,-0.226819 c 0.119549,-0.013116 0.224679,-0.028372 0.233625,-0.033954 0.01212,-0.00744 0.01006,-0.038139 -0.0081,-0.1201769 -0.07886,-0.3565025 -0.272903,-0.7398241 -0.462017,-0.9126709 -0.06595,-0.060279 -0.240093,-0.1667166 -0.252483,-0.1543259 -0.0028,0.00279 0.0169,0.071163 0.04382,0.151898 0.09677,0.2901307 0.122529,0.4508007 0.139935,0.8728201 l 0.0097,0.2358887 0.03906,-0.00744 c 0.02148,-0.00465 0.136871,-0.018512 0.256419,-0.031721 z"
       id="path863" />
  </g>
</svg>
