<?xml version="1.0" encoding="UTF-8" standalone="no"?>
<!-- Created with Inkscape (http://www.inkscape.org/) -->

<svg
   width="160"
   height="30"
   viewBox="0 0 160 30"
   version="1.1"
   id="SVGRoot"
   sodipodi:docname="logo-white.svg"
   inkscape:version="1.1.2 (0a00cf5339, 2022-02-04)"
   inkscape:export-filename="/home/debian/Documents/GitHub/core/frontend-main/src/assets/logo-white.png"
   inkscape:export-xdpi="121.6"
   inkscape:export-ydpi="121.6"
   xmlns:inkscape="http://www.inkscape.org/namespaces/inkscape"
   xmlns:sodipodi="http://sodipodi.sourceforge.net/DTD/sodipodi-0.dtd"
   xmlns="http://www.w3.org/2000/svg"
   xmlns:svg="http://www.w3.org/2000/svg">
  <sodipodi:namedview
     id="namedview137"
     pagecolor="#ffffff"
     bordercolor="#000000"
     borderopacity="0.25"
     inkscape:showpageshadow="2"
     inkscape:pageopacity="0.0"
     inkscape:pagecheckerboard="0"
     inkscape:deskcolor="#d1d1d1"
     inkscape:document-units="px"
     showgrid="false"
     inkscape:zoom="4.0000001"
     inkscape:cx="60.874998"
     inkscape:cy="-1.5"
     inkscape:window-width="1920"
     inkscape:window-height="1020"
     inkscape:window-x="3840"
     inkscape:window-y="28"
     inkscape:window-maximized="1"
     inkscape:current-layer="layer1"
     inkscape:pageshadow="2"
     showguides="false"
     inkscape:lockguides="false"
     width="165px"
     height="30px" />
  <defs
     id="defs132">
    <rect
       x="11.236365"
       y="7.2846913"
       width="69.72084"
       height="10.069939"
       id="rect3" />
    <rect
       x="12.94258"
       y="23.094154"
       width="88.413605"
       height="18.186064"
       id="rect1" />
    <rect
       x="-1.4777668"
       y="42.333267"
       width="127.8846"
       height="23.821753"
       id="rect3454" />
    <clipPath
       id="b983e3c625">
      <path
         d="m 142,147.30078 h 115 v 72.75 H 142 Z m 0,0"
         clip-rule="nonzero"
         id="path1144" />
    </clipPath>
    <clipPath
       id="0e8c13dd3a">
      <path
         d="m 70.261719,116.35938 h 89.156251 v 70.49999 H 70.261719 Z m 0,0"
         clip-rule="nonzero"
         id="path1147" />
    </clipPath>
    <clipPath
       id="b983e3c625-3">
      <path
         d="m 142,147.30078 h 115 v 72.75 H 142 Z m 0,0"
         clip-rule="nonzero"
         id="path1144-6" />
    </clipPath>
    <clipPath
       id="0e8c13dd3a-7">
      <path
         d="m 70.261719,116.35938 h 89.156251 v 70.49999 H 70.261719 Z m 0,0"
         clip-rule="nonzero"
         id="path1147-5" />
    </clipPath>
    <clipPath
       id="b983e3c625-3-1">
      <path
         d="m 142,147.30078 h 115 v 72.75 H 142 Z m 0,0"
         clip-rule="nonzero"
         id="path1144-6-2" />
    </clipPath>
    <clipPath
       id="b983e3c625-3-3">
      <path
         d="m 142,147.30078 h 115 v 72.75 H 142 Z m 0,0"
         clip-rule="nonzero"
         id="path1144-6-6" />
    </clipPath>
  </defs>
  <g
     inkscape:label="Layer 1"
     inkscape:groupmode="layer"
     id="layer1"
     style="display:inline">
    <text
       xml:space="preserve"
       style="font-style:italic;font-variant:normal;font-weight:600;font-stretch:normal;font-size:18.6667px;line-height:0;font-family:'IBM Plex Sans';-inkscape-font-specification:'IBM Plex Sans Semi-Bold Italic';letter-spacing:-0.74px;word-spacing:0px;display:inline;fill:#ff385c;fill-opacity:1;stroke:#000000;stroke-width:0;stroke-linecap:round;stroke-linejoin:round;stroke-miterlimit:4;stroke-dasharray:none;stroke-opacity:1;paint-order:stroke markers fill"
       x="37.676666"
       y="21.773342"
       id="text2-3-3"
       inkscape:export-filename="/home/debian/Documents/GitHub/core/frontend-main/src/assets/logo-white.png"
       inkscape:export-xdpi="121.6"
       inkscape:export-ydpi="121.6"><tspan
         sodipodi:role="line"
         x="37.676666"
         y="21.773342"
         style="font-style:normal;font-variant:normal;font-weight:bold;font-stretch:normal;font-size:18.6667px;font-family:Manrope;-inkscape-font-specification:'Manrope Bold';fill:#000000;fill-opacity:1;stroke:#000000;stroke-width:0;stroke-linecap:square;stroke-linejoin:miter;stroke-miterlimit:4;stroke-dasharray:none;stroke-opacity:1;paint-order:stroke markers fill"
         id="tspan541421-5-5">adamarket</tspan></text>
    <rect
       style="fill:#ff385c;fill-opacity:1;stroke:none;stroke-width:0.168;stroke-linecap:round;stroke-linejoin:round;stroke-miterlimit:4;stroke-dasharray:none;paint-order:stroke markers fill"
       id="rect1078"
       width="30"
       height="30"
       x="0"
       y="0"
       rx="8"
       ry="8" />
    <path
       style="color:#000000;fill:#ffffff;stroke-width:0;stroke-linecap:round;stroke-linejoin:round;stroke-miterlimit:4;stroke-dasharray:none"
       d="m 15.061678,3.452018 c -1.104165,0 -2.218411,0.3645 -3.076172,1.126953 -0.85776,0.762454 -1.423828,1.935549 -1.423828,3.373047 v 0.75 H 8.5753502 c -0.953203,-1.74e-4 -1.765254,0.72979 -1.865235,1.677734 l -1.263671,12 c -0.115579,1.095831 0.763326,2.073447 1.865234,2.072266 H 22.811678 c 1.100987,0 1.980452,-0.977703 1.865234,-2.072266 L 23.41324,10.381706 C 23.31379,9.433614 22.501609,8.702018 21.548006,8.702018 h -1.986328 v -0.75 C 19.561678,6.51452 18.99561,5.341425 18.13785,4.578971 17.280089,3.816518 16.165843,3.452018 15.061678,3.452018 Z m 0,1.5 c 0.770833,0 1.53159,0.260502 2.080078,0.748047 0.548488,0.487545 0.919922,1.189455 0.919922,2.251953 v 0.75 h -6 v -0.75 c 0,-1.062498 0.371434,-1.764408 0.919922,-2.251953 0.548488,-0.487545 1.309245,-0.748047 2.080078,-0.748047 z m -6.4863278,5.25 h 1.9863278 v 1.40625 c -0.0017,0.0015 -0.0041,4.24e-4 -0.0059,0.002 -0.224948,0.199957 -0.36914,0.5293 -0.36914,0.8418 0,0.3125 0.144192,0.641843 0.369141,0.841797 0.224948,0.199954 0.495443,0.283203 0.755859,0.283203 0.260416,0 0.530911,-0.08325 0.755859,-0.283203 0.224949,-0.199954 0.369141,-0.529297 0.369141,-0.841797 0,-0.3125 -0.144192,-0.641843 -0.369141,-0.841797 -0.0017,-0.0015 -0.0041,-4.38e-4 -0.0059,-0.002 v -1.406253 h 6 v 1.40625 c -0.0017,0.0015 -0.0041,4.24e-4 -0.0059,0.002 -0.224908,0.199957 -0.3691,0.5293 -0.3691,0.8418 0,0.3125 0.144192,0.641843 0.369141,0.841797 0.224948,0.199954 0.495443,0.283203 0.755859,0.283203 0.260416,0 0.530911,-0.08325 0.755859,-0.283203 0.224949,-0.199954 0.369141,-0.529297 0.369141,-0.841797 0,-0.3125 -0.144192,-0.641843 -0.369141,-0.841797 -0.0017,-0.0015 -0.0041,-4.38e-4 -0.0059,-0.002 v -1.406253 h 1.986328 c 0.198396,0 0.352497,0.14003 0.373047,0.335938 l 1.263713,11.999999 c 0.02486,0.235436 -0.135954,0.414063 -0.372966,0.414063 H 7.3116782 c -0.235065,2.52e-4 -0.399656,-0.180294 -0.375,-0.414063 l 1.265625,-11.999999 c 0.02079,-0.197141 0.174813,-0.335974 0.373047,-0.335938 z"
       id="path2" />
  </g>
  <g
     inkscape:groupmode="layer"
     id="layer2"
     inkscape:label="Layer 2"
     style="display:inline" />
  <g
     inkscape:groupmode="layer"
     id="layer3"
     inkscape:label="Layer 3"
     style="display:inline" />
  <g
     inkscape:groupmode="layer"
     id="layer4"
     inkscape:label="limit"
     style="display:none">
    <rect
       style="display:inline;opacity:0.557195;fill:#ff5e00;fill-opacity:1;stroke:#0069f5;stroke-width:0;stroke-linecap:round;stroke-linejoin:round;paint-order:stroke fill markers"
       id="rect1592-1"
       width="15"
       height="14.999998"
       x="1.8808064e-06"
       y="14.999999" />
    <rect
       style="display:inline;opacity:0.557195;fill:#ff0000;stroke:#0069f5;stroke-width:0;stroke-linecap:round;stroke-linejoin:round;paint-order:stroke fill markers"
       id="rect1592"
       width="120"
       height="14.999998"
       x="1.8808064e-06"
       y="6.7562792e-07" />
  </g>
</svg>
