<?xml version="1.0" encoding="UTF-8" standalone="no"?>
<!-- Created with Inkscape (http://www.inkscape.org/) -->

<svg
   width="175"
   height="48"
   viewBox="0 0 46.302074 12.7"
   version="1.1"
   id="svg5"
   inkscape:version="1.1.2 (0a00cf5339, 2022-02-04)"
   sodipodi:docname="logo.svg"
   xmlns:inkscape="http://www.inkscape.org/namespaces/inkscape"
   xmlns:sodipodi="http://sodipodi.sourceforge.net/DTD/sodipodi-0.dtd"
   xmlns="http://www.w3.org/2000/svg"
   xmlns:svg="http://www.w3.org/2000/svg">
  <sodipodi:namedview
     id="namedview7"
     pagecolor="#ffffff"
     bordercolor="#666666"
     borderopacity="1.0"
     inkscape:pageshadow="2"
     inkscape:pageopacity="0.0"
     inkscape:pagecheckerboard="0"
     inkscape:document-units="mm"
     showgrid="false"
     units="px"
     height="48px"
     inkscape:zoom="4.192802"
     inkscape:cx="79.064072"
     inkscape:cy="19.080319"
     inkscape:window-width="1920"
     inkscape:window-height="1048"
     inkscape:window-x="0"
     inkscape:window-y="0"
     inkscape:window-maximized="1"
     inkscape:current-layer="layer1" />
  <defs
     id="defs2" />
  <g
     inkscape:label="Layer 1"
     inkscape:groupmode="layer"
     id="layer1">
    <text
       xml:space="preserve"
       style="font-size:10.6248px;line-height:1.25;font-family:'Inter 28pt';-inkscape-font-specification:'Inter 28pt';letter-spacing:-0.23906px;fill:#0866ff;fill-opacity:0.5;stroke-width:0.211667;stroke-miterlimit:4;stroke-dasharray:none"
       x="17.898205"
       y="9.4636803"
       id="text3040"><tspan
         sodipodi:role="line"
         style="font-style:normal;font-variant:normal;font-weight:bold;font-stretch:normal;font-family:'Inter 28pt';-inkscape-font-specification:'Inter 28pt Bold';fill:#0866ff;fill-opacity:1;stroke-width:0.211667;stroke-miterlimit:4;stroke-dasharray:none"
         x="17.898205"
         y="9.4636803"
         id="tspan13110">Pairfy</tspan></text>
    <path
       style="fill:#0866ff;fill-opacity:0.998655;stroke:#000000;stroke-width:0.264583;stroke-linecap:round;stroke-linejoin:round;stroke-miterlimit:4;stroke-dasharray:none;stroke-opacity:0;paint-order:fill markers stroke"
       d="m 12.043454,12.824411 c 0.785097,-0.112614 0.789095,-1.073785 0.789095,-1.675963 V 5.6964308 c 0,-0.8587905 0.01364,-1.6919648 -0.294924,-2.5092419 C 12.00321,1.7716345 10.733121,0.61830344 9.2421641,0.28934244 c -0.9002397,-0.198506 -1.8323197,-0.136891 -2.7486819,-0.136891 -0.783046,0 -1.6063358,-0.07147 -2.380439,0.05833 -0.5143589,0.08618 -1.0074123,0.249348 -1.4729789,0.483588 -0.348912,0.175514 -0.687696,0.41382696 -0.973218,0.67959606 -0.748588,0.696677 -1.283595,1.6120899 -1.45404,2.6277425 -0.116786,0.6950993 -0.07154,1.4126635 -0.07154,2.1151196 v 2.7325774 2.482966 c 0,0.447919 0.02959,0.980562 0.382579,1.309943 0.361402,0.337249 0.95638,0.172756 1.287668,-0.127591 0.4945,-0.4483 0.990579,-0.895116 1.4861302,-1.342234 0.1491399,-0.134553 0.3015666,-0.267188 0.4471543,-0.405538 0.090615,-0.08605 0.1916189,-0.207361 0.3024873,-0.266453 0.078252,-0.0417 0.2326526,0.03311 0.3156395,0.04874 0.2622423,0.0494 0.5352692,0.09677 0.8022465,0.09994 0.5697271,0.0068 1.1399802,0 1.7097073,0 0.3220681,0 0.6519626,0.02081 0.9732166,-0.0012 0.2514322,-0.01721 0.5024567,-0.05364 0.749641,-0.103982 0.076279,-0.01553 0.2349927,-0.08717 0.3080629,-0.05901 0.080159,0.03087 0.15607,0.131742 0.2180008,0.18927 0.1340674,0.12453 0.272922,0.24408 0.4076995,0.367887 0.4641592,0.4264 0.9311988,0.85481 1.4072208,1.267889 0.308365,0.267596 0.659026,0.578229 1.104734,0.514303 z"
       id="path971" />
  </g>
</svg>
