<?xml version="1.0" encoding="UTF-8" standalone="no"?>
<!-- Created with Inkscape (http://www.inkscape.org/) -->

<svg
   width="175"
   height="48"
   viewBox="0 0 46.302074 12.7"
   version="1.1"
   id="svg5"
   inkscape:version="1.1.2 (0a00cf5339, 2022-02-04)"
   sodipodi:docname="logo.svg"
   xmlns:inkscape="http://www.inkscape.org/namespaces/inkscape"
   xmlns:sodipodi="http://sodipodi.sourceforge.net/DTD/sodipodi-0.dtd"
   xmlns="http://www.w3.org/2000/svg"
   xmlns:svg="http://www.w3.org/2000/svg">
  <sodipodi:namedview
     id="namedview7"
     pagecolor="#ffffff"
     bordercolor="#666666"
     borderopacity="1.0"
     inkscape:pageshadow="2"
     inkscape:pageopacity="0.0"
     inkscape:pagecheckerboard="0"
     inkscape:document-units="mm"
     showgrid="false"
     units="px"
     height="48px"
     inkscape:zoom="4.192802"
     inkscape:cx="71.193441"
     inkscape:cy="-14.548743"
     inkscape:window-width="1920"
     inkscape:window-height="1048"
     inkscape:window-x="0"
     inkscape:window-y="0"
     inkscape:window-maximized="1"
     inkscape:current-layer="layer1" />
  <defs
     id="defs2" />
  <g
     inkscape:label="Layer 1"
     inkscape:groupmode="layer"
     id="layer1">
    <text
       xml:space="preserve"
       style="font-size:10.6248px;line-height:1.25;font-family:'Inter 28pt';-inkscape-font-specification:'Inter 28pt';letter-spacing:-0.23906px;fill:#0866ff;fill-opacity:0.5;stroke-width:0.211667;stroke-miterlimit:4;stroke-dasharray:none"
       x="17.898205"
       y="9.4636803"
       id="text3040"><tspan
         sodipodi:role="line"
         style="font-style:normal;font-variant:normal;font-weight:bold;font-stretch:normal;font-family:'Inter 28pt';-inkscape-font-specification:'Inter 28pt Bold';fill:#0866ff;fill-opacity:1;stroke-width:0.211667;stroke-miterlimit:4;stroke-dasharray:none"
         x="17.898205"
         y="9.4636803"
         id="tspan13110">Pairfy</tspan></text>
    <path
       style="fill:#0866ff;fill-opacity:0.998655;stroke:none;stroke-width:0.0131445"
       d="M 0.78918567,0.00840966 C 0.00408805,0.1210234 8.996299e-5,1.0821944 8.996299e-5,1.6843729 v 5.4520178 c 0,0.8587905 -0.01363815299,1.6919648 0.29492460701,2.5092419 0.53441499,1.4155544 1.80450383,2.5688854 3.29546073,2.8978464 0.9002397,0.198506 1.8323197,0.136891 2.7486819,0.136891 0.783046,0 1.6063358,0.07147 2.380439,-0.05833 0.5143589,-0.08618 1.0074123,-0.249348 1.4729788,-0.483588 0.348912,-0.175514 0.687696,-0.413827 0.973218,-0.679596 0.748588,-0.696677 1.283595,-1.6120899 1.45404,-2.6277425 0.116786,-0.6950993 0.07154,-1.4126635 0.07154,-2.1151196 V 3.9834165 1.5004495 c 0,-0.4479193 -0.02959,-0.98056169 -0.382579,-1.30994243 -0.361402,-0.33724991 -0.95638,-0.17275662 -1.287668,0.1275904 C 10.526626,0.76639779 10.030547,1.2132136 9.5349959,1.6603316 9.385856,1.7948848 9.2334293,1.9275199 9.0878416,2.0658698 8.9972271,2.1519196 8.8962227,2.2732303 8.7853543,2.3323224 8.707102,2.3740204 8.5527017,2.2992161 8.4697148,2.2835826 8.2074725,2.2341859 7.9344456,2.1868125 7.6674683,2.1836464 c -0.5697271,-0.00677 -1.1399802,0 -1.7097073,0 -0.3220681,0 -0.6519626,-0.02081 -0.9732166,0.00117 -0.2514322,0.01721 -0.5024567,0.05364 -0.749641,0.1039825 C 4.1586241,2.304327 3.9999107,2.3759651 3.9268405,2.3478118 3.8466815,2.316939 3.7707705,2.21607 3.7088397,2.1585414 3.5747723,2.0340121 3.4359177,1.9144618 3.3011402,1.790655 2.836981,1.3642547 2.3699415,0.93584445 1.8939196,0.52276544 1.5855541,0.25516982 1.2348932,-0.05546375 0.78918567,0.00846282 Z"
       id="path971" />
  </g>
</svg>
