<?xml version="1.0" encoding="UTF-8" standalone="no"?>
<!-- Created with Inkscape (http://www.inkscape.org/) -->

<svg
   width="120"
   height="50"
   viewBox="0 0 120 50"
   version="1.1"
   id="SVGRoot"
   sodipodi:docname="logo-white.svg"
   inkscape:version="1.1.2 (0a00cf5339, 2022-02-04)"
   inkscape:export-filename="/home/debian/Documents/GitHub/core/frontend-main/src/assets/logo-white.png"
   inkscape:export-xdpi="121.6"
   inkscape:export-ydpi="121.6"
   xmlns:inkscape="http://www.inkscape.org/namespaces/inkscape"
   xmlns:sodipodi="http://sodipodi.sourceforge.net/DTD/sodipodi-0.dtd"
   xmlns="http://www.w3.org/2000/svg"
   xmlns:svg="http://www.w3.org/2000/svg">
  <sodipodi:namedview
     id="namedview137"
     pagecolor="#ffffff"
     bordercolor="#000000"
     borderopacity="0.25"
     inkscape:showpageshadow="2"
     inkscape:pageopacity="0.0"
     inkscape:pagecheckerboard="0"
     inkscape:deskcolor="#d1d1d1"
     inkscape:document-units="px"
     showgrid="false"
     inkscape:zoom="7.1087106"
     inkscape:cx="37.137537"
     inkscape:cy="27.853152"
     inkscape:window-width="1920"
     inkscape:window-height="1048"
     inkscape:window-x="0"
     inkscape:window-y="0"
     inkscape:window-maximized="1"
     inkscape:current-layer="layer1"
     inkscape:pageshadow="2"
     showguides="false"
     inkscape:lockguides="false" />
  <defs
     id="defs132">
    <rect
       x="11.236365"
       y="7.2846913"
       width="69.72084"
       height="10.069939"
       id="rect3" />
    <rect
       x="12.94258"
       y="23.094154"
       width="88.413605"
       height="18.186064"
       id="rect1" />
    <rect
       x="-1.4777668"
       y="42.333267"
       width="127.8846"
       height="23.821753"
       id="rect3454" />
    <clipPath
       id="b983e3c625">
      <path
         d="m 142,147.30078 h 115 v 72.75 H 142 Z m 0,0"
         clip-rule="nonzero"
         id="path1144" />
    </clipPath>
    <clipPath
       id="0e8c13dd3a">
      <path
         d="m 70.261719,116.35938 h 89.156251 v 70.49999 H 70.261719 Z m 0,0"
         clip-rule="nonzero"
         id="path1147" />
    </clipPath>
    <clipPath
       id="b983e3c625-3">
      <path
         d="m 142,147.30078 h 115 v 72.75 H 142 Z m 0,0"
         clip-rule="nonzero"
         id="path1144-6" />
    </clipPath>
    <clipPath
       id="0e8c13dd3a-7">
      <path
         d="m 70.261719,116.35938 h 89.156251 v 70.49999 H 70.261719 Z m 0,0"
         clip-rule="nonzero"
         id="path1147-5" />
    </clipPath>
    <clipPath
       id="b983e3c625-3-1">
      <path
         d="m 142,147.30078 h 115 v 72.75 H 142 Z m 0,0"
         clip-rule="nonzero"
         id="path1144-6-2" />
    </clipPath>
  </defs>
  <g
     inkscape:label="Layer 1"
     inkscape:groupmode="layer"
     id="layer1"
     style="display:inline">
    <text
       xml:space="preserve"
       style="font-style:normal;font-variant:normal;font-weight:normal;font-stretch:normal;font-size:19.6724px;line-height:0;font-family:Manrope;-inkscape-font-specification:Manrope;letter-spacing:-0.737717px;fill:#0866ff;fill-opacity:1;stroke:none;stroke-width:0.0991165;stroke-linecap:round;stroke-linejoin:round;stroke-miterlimit:4;stroke-dasharray:none;stroke-opacity:1;paint-order:stroke markers fill"
       x="0.48387277"
       y="31.941935"
       id="text2"
       inkscape:export-filename="/home/debian/Documents/GitHub/core/frontend-main/src/assets/logo-white.png"
       inkscape:export-xdpi="121.6"
       inkscape:export-ydpi="121.6"><tspan
         sodipodi:role="line"
         id="tspan2"
         x="0.48387277"
         y="31.941935"
         style="font-style:normal;font-variant:normal;font-weight:600;font-stretch:normal;font-size:21.1448px;font-family:'IBM Plex Sans';-inkscape-font-specification:'IBM Plex Sans Semi-Bold';word-spacing:0px;fill:#0866ff;fill-opacity:1;stroke:none;stroke-width:0.0991165;stroke-linecap:round;stroke-linejoin:round;stroke-miterlimit:4;stroke-dasharray:none;stroke-opacity:1;paint-order:stroke markers fill">adazone</tspan></text>
    <g
       clip-path="url(#b983e3c625-3-1)"
       id="g1154"
       style="display:inline;fill:#0866ff;fill-opacity:1"
       transform="matrix(0.21579754,0,0,0.21579754,96.990892,8.4948981)"
       inkscape:export-filename="/home/debian/Documents/GitHub/core/frontend-main/src/assets/logo-white.png"
       inkscape:export-xdpi="121.6"
       inkscape:export-ydpi="121.6">
      <path
         fill="#ffffff"
         d="m 255.65234,181.28516 -5.82812,23.3164 c -0.23438,0.9375 -0.54688,1.85156 -0.9336,2.73828 -0.38671,0.88672 -0.84375,1.73438 -1.375,2.54688 -0.52734,0.8125 -1.11718,1.57422 -1.77343,2.28515 -0.65235,0.71485 -1.36328,1.36719 -2.125,1.96485 -0.76172,0.59375 -1.57032,1.12109 -2.42188,1.58203 -0.84765,0.46094 -1.73047,0.85156 -2.64844,1.16406 -0.91406,0.31641 -1.84765,0.55469 -2.80468,0.71094 -0.95313,0.16016 -1.91407,0.24219 -2.88282,0.24219 h -58 c -0.9375,0 -1.86718,-0.0742 -2.79296,-0.21875 -0.92188,-0.14844 -1.82813,-0.3711 -2.71875,-0.66407 -0.89063,-0.29296 -1.75,-0.65234 -2.57813,-1.08593 -0.83203,-0.42969 -1.625,-0.92578 -2.375,-1.48438 -0.75,-0.55859 -1.45312,-1.17187 -2.10547,-1.84375 -0.65234,-0.67187 -1.25,-1.39062 -1.78515,-2.15625 -0.53907,-0.76562 -1.01172,-1.57031 -1.41797,-2.41406 -0.41016,-0.84375 -0.7461,-1.71094 -1.01563,-2.60938 -2.1675,-6.58299 -2.66172,-15.4442 -3.60898,-22.16938 -2.56499,-18.2104 -5.51434,-29.15323 5.19221,-17.63148 5.81614,13.11291 8.73547,28.10111 11.81519,39.54693 0.52734,0.375 1.10156,0.65234 1.72266,0.83594 0.62109,0.18359 1.2539,0.26171 1.90234,0.23437 h 58.29297 c 0.66406,0.0195 1.3125,-0.0742 1.94922,-0.27734 0.63281,-0.20313 1.21484,-0.50391 1.74609,-0.91016 0.53125,-0.40234 0.97656,-0.88281 1.34375,-1.4375 0.36719,-0.55859 0.62891,-1.16016 0.78906,-1.80469 l 5.82813,-23.3164 c 0.10937,-0.4375 0.16406,-0.88282 0.17187,-1.33203 0.004,-0.44922 -0.0391,-0.89063 -0.13672,-1.33204 -0.0977,-0.4375 -0.24609,-0.85937 -0.4375,-1.26562 -0.19531,-0.40625 -0.43359,-0.78125 -0.71875,-1.13281 -0.28125,-0.35157 -0.59765,-0.66407 -0.95312,-0.9375 -0.35547,-0.27735 -0.73828,-0.51172 -1.14453,-0.69922 -0.41016,-0.1875 -0.83594,-0.32422 -1.27344,-0.41406 -0.44141,-0.0898 -0.88672,-0.12891 -1.33594,-0.11719 h -61.38281 c -0.38281,0 -0.76172,-0.0352 -1.13672,-0.11328 -0.375,-0.0742 -0.73828,-0.1836 -1.09375,-0.33203 -0.35156,-0.14454 -0.6875,-0.32422 -1.00781,-0.53907 -0.31641,-0.21093 -0.61328,-0.45312 -0.88281,-0.72265 -0.26953,-0.26953 -0.51172,-0.56641 -0.72266,-0.88282 -0.21484,-0.32031 -0.39453,-0.65625 -0.53906,-1.00781 -0.14844,-0.35547 -0.25781,-0.71875 -0.33203,-1.09375 -0.0742,-0.375 -0.11328,-0.7539 -0.11328,-1.13672 0,-0.38281 0.0391,-0.76172 0.11328,-1.13672 0.0742,-0.375 0.18359,-0.74218 0.33203,-1.09375 0.14453,-0.35546 0.32422,-0.6914 0.53906,-1.00781 0.21094,-0.3164 0.45313,-0.61328 0.72266,-0.88281 0.26953,-0.26953 0.5664,-0.51172 0.88281,-0.72656 0.32031,-0.21094 0.65625,-0.39063 1.00781,-0.53907 0.35547,-0.14453 0.71875,-0.25781 1.09375,-0.33203 0.375,-0.0742 0.75391,-0.10937 1.13672,-0.10937 h 60.85938 c 0.66015,0 1.32031,0.0352 1.98046,0.10937 0.65625,0.0781 1.3086,0.1875 1.95704,0.33594 0.64453,0.15234 1.27734,0.33594 1.90234,0.55859 0.625,0.21875 1.23437,0.47657 1.83203,0.76563 0.59375,0.29297 1.17188,0.61328 1.73047,0.97266 0.55859,0.35546 1.09375,0.74218 1.60937,1.16015 0.51563,0.41406 1.00391,0.85938 1.46875,1.33203 0.46485,0.47657 0.89844,0.97266 1.3086,1.4961 0.40625,0.51953 0.78125,1.0664 1.1289,1.6289 0.34375,0.56641 0.65625,1.14844 0.9375,1.75 0.28125,0.60157 0.52344,1.21485 0.73438,1.84375 0.20703,0.62891 0.38281,1.26563 0.51953,1.91407 0.13672,0.64843 0.23828,1.30468 0.30078,1.96484 0.0625,0.65625 0.0859,1.32031 0.0742,1.98047 -0.0117,0.66406 -0.0625,1.32422 -0.14844,1.98047 -0.0898,0.65625 -0.21484,1.30468 -0.375,1.94922 z m -60.33203,59.86718 c 0,0.57032 -0.0273,1.14453 -0.0859,1.71485 -0.0547,0.57031 -0.14062,1.13281 -0.25,1.69531 -0.11328,0.5625 -0.25,1.11719 -0.41796,1.66406 -0.16407,0.55078 -0.35938,1.08985 -0.57813,1.61719 -0.21875,0.52734 -0.46484,1.04687 -0.73437,1.55078 -0.26954,0.50781 -0.5625,0.99609 -0.88282,1.47266 -0.3164,0.47656 -0.65625,0.9375 -1.01953,1.3789 -0.36328,0.44141 -0.75,0.86719 -1.15234,1.26953 -0.40625,0.40625 -0.83203,0.78907 -1.27344,1.15235 -0.44141,0.36719 -0.90234,0.70703 -1.37891,1.02344 -0.47656,0.32031 -0.96484,0.61328 -1.47265,0.88281 -0.50391,0.26953 -1.01953,0.51562 -1.55078,0.73437 -0.52735,0.21875 -1.06641,0.41016 -1.61328,0.57813 -0.55079,0.16406 -1.10547,0.30469 -1.66797,0.41797 -0.5586,0.10937 -1.125,0.19531 -1.69532,0.25 -0.57031,0.0586 -1.14062,0.0859 -1.71484,0.0859 -0.57422,0 -1.14453,-0.0273 -1.71484,-0.0859 -0.57032,-0.0547 -1.13672,-0.14063 -1.69532,-0.25 -0.5625,-0.11328 -1.11718,-0.25391 -1.66796,-0.41797 -0.54688,-0.16797 -1.08594,-0.35938 -1.61329,-0.57813 -0.53125,-0.21875 -1.04687,-0.46484 -1.55078,-0.73437 -0.50781,-0.26953 -0.99609,-0.5625 -1.47265,-0.88281 -0.47657,-0.31641 -0.9375,-0.65625 -1.37891,-1.02344 -0.44531,-0.36328 -0.86719,-0.7461 -1.27344,-1.15235 -0.40234,-0.40234 -0.78906,-0.82812 -1.15234,-1.26953 -0.36328,-0.4414 -0.70313,-0.90234 -1.01953,-1.3789 -0.32031,-0.47657 -0.61328,-0.96485 -0.88281,-1.47266 -0.26954,-0.50391 -0.51563,-1.02344 -0.73438,-1.55078 -0.21875,-0.52734 -0.41406,-1.06641 -0.57812,-1.61719 -0.16797,-0.54687 -0.30469,-1.10156 -0.41797,-1.66406 -0.11328,-0.5625 -0.19532,-1.125 -0.25,-1.69531 -0.0586,-0.57032 -0.0859,-1.14453 -0.0859,-1.71485 0,-0.57422 0.0273,-1.14453 0.0859,-1.71484 0.0547,-0.57031 0.13672,-1.13672 0.25,-1.69922 0.11328,-0.55859 0.25,-1.11328 0.41797,-1.66406 0.16406,-0.54688 0.35937,-1.08594 0.57812,-1.61328 0.21875,-0.53125 0.46484,-1.04688 0.73438,-1.55469 0.26953,-0.50391 0.5625,-0.99609 0.88281,-1.46875 0.3164,-0.47656 0.65625,-0.9375 1.01953,-1.37891 0.36328,-0.44531 0.75,-0.86718 1.15234,-1.27343 0.40625,-0.40625 0.82813,-0.78907 1.27344,-1.15235 0.44141,-0.36328 0.90234,-0.70312 1.37891,-1.02344 0.47656,-0.3164 0.96484,-0.60937 1.47265,-0.8789 0.50391,-0.27344 1.01953,-0.51563 1.55078,-0.73438 0.52735,-0.21875 1.06641,-0.41406 1.61329,-0.57812 0.55078,-0.16797 1.10546,-0.30469 1.66796,-0.41797 0.5586,-0.11328 1.125,-0.19531 1.69532,-0.25391 0.57031,-0.0547 1.14062,-0.082 1.71484,-0.082 0.57422,0 1.14453,0.0273 1.71484,0.082 0.57032,0.0586 1.13672,0.14063 1.69532,0.25391 0.5625,0.11328 1.11718,0.25 1.66797,0.41797 0.54687,0.16406 1.08593,0.35937 1.61328,0.57812 0.53125,0.21875 1.04687,0.46094 1.55078,0.73438 0.50781,0.26953 0.99609,0.5625 1.47265,0.8789 0.47657,0.32032 0.9375,0.66016 1.37891,1.02344 0.44141,0.36328 0.86719,0.7461 1.27344,1.15235 0.40234,0.40625 0.78906,0.82812 1.15234,1.27343 0.36328,0.44141 0.70313,0.90235 1.01953,1.37891 0.32032,0.47266 0.61328,0.96484 0.88282,1.46875 0.26953,0.50781 0.51562,1.02344 0.73437,1.55469 0.21875,0.52734 0.41406,1.0664 0.57813,1.61328 0.16796,0.55078 0.30468,1.10547 0.41796,1.66406 0.10938,0.5625 0.19532,1.12891 0.25,1.69922 0.0586,0.57031 0.0859,1.14062 0.0859,1.71484 z m -11.66015,0 c 0,-0.38281 -0.0352,-0.76172 -0.10938,-1.13672 -0.0781,-0.375 -0.1875,-0.74218 -0.33203,-1.09375 -0.14844,-0.35546 -0.32813,-0.6914 -0.53906,-1.00781 -0.21485,-0.32031 -0.45703,-0.61328 -0.72657,-0.88281 -0.26953,-0.27344 -0.5664,-0.51563 -0.88281,-0.72656 -0.3164,-0.21094 -0.65234,-0.39063 -1.00781,-0.53907 -0.35547,-0.14453 -0.71875,-0.25781 -1.09375,-0.33203 -0.375,-0.0742 -0.75391,-0.11328 -1.13672,-0.11328 -0.38281,0 -0.76172,0.0391 -1.13672,0.11328 -0.375,0.0742 -0.74219,0.1875 -1.09375,0.33203 -0.35547,0.14844 -0.6914,0.32813 -1.00781,0.53907 -0.32031,0.21093 -0.61328,0.45312 -0.88281,0.72656 -0.27344,0.26953 -0.51172,0.5625 -0.72657,0.88281 -0.21093,0.31641 -0.39062,0.65235 -0.53906,1.00781 -0.14453,0.35157 -0.25781,0.71875 -0.33203,1.09375 -0.0742,0.375 -0.10937,0.75391 -0.10937,1.13672 0,0.38282 0.0352,0.76172 0.10937,1.13672 0.0742,0.375 0.1875,0.73828 0.33203,1.09375 0.14844,0.35156 0.32813,0.6875 0.53906,1.00781 0.21485,0.31641 0.45313,0.61329 0.72657,0.88282 0.26953,0.26953 0.5625,0.51172 0.88281,0.72656 0.31641,0.21094 0.65234,0.39062 1.00781,0.53906 0.35156,0.14453 0.71875,0.25391 1.09375,0.32813 0.375,0.0781 0.75391,0.11328 1.13672,0.11328 0.38281,0 0.76172,-0.0352 1.13672,-0.11328 0.375,-0.0742 0.73828,-0.1836 1.09375,-0.32813 0.35547,-0.14844 0.69141,-0.32812 1.00781,-0.53906 0.31641,-0.21484 0.61328,-0.45703 0.88281,-0.72656 0.26954,-0.26953 0.51172,-0.56641 0.72657,-0.88282 0.21093,-0.32031 0.39062,-0.65625 0.53906,-1.00781 0.14453,-0.35547 0.25391,-0.71875 0.33203,-1.09375 0.0742,-0.375 0.10938,-0.7539 0.10938,-1.13672 z m 58.29296,0 c 0,0.57032 -0.0273,1.14453 -0.082,1.71485 -0.0586,0.57031 -0.14062,1.13281 -0.2539,1.69531 -0.10938,0.5625 -0.25,1.11719 -0.41407,1.66406 -0.16796,0.55078 -0.35937,1.08985 -0.58203,1.61719 -0.21875,0.52734 -0.46093,1.04687 -0.73047,1.55078 -0.26953,0.50781 -0.5664,0.99609 -0.88281,1.47266 -0.32031,0.47656 -0.66015,0.9375 -1.02344,1.3789 -0.36328,0.44141 -0.74609,0.86719 -1.15234,1.26953 -0.40625,0.40625 -0.82812,0.78907 -1.27344,1.15235 -0.4414,0.36719 -0.89843,0.70703 -1.375,1.02344 -0.47656,0.32031 -0.96875,0.61328 -1.47265,0.88281 -0.50782,0.26953 -1.02344,0.51562 -1.55078,0.73437 -0.53125,0.21875 -1.07032,0.41016 -1.61719,0.57813 -0.54688,0.16406 -1.10156,0.30469 -1.66406,0.41797 -0.5625,0.10937 -1.12891,0.19531 -1.69922,0.25 -0.57032,0.0586 -1.14063,0.0859 -1.71485,0.0859 -0.57031,0 -1.14453,-0.0273 -1.71093,-0.0859 -0.57032,-0.0547 -1.13672,-0.14063 -1.69922,-0.25 -0.5625,-0.11328 -1.11719,-0.25391 -1.66407,-0.41797 -0.55078,-0.16797 -1.08593,-0.35938 -1.61718,-0.57813 -0.52735,-0.21875 -1.04688,-0.46484 -1.55078,-0.73437 -0.50391,-0.26953 -0.9961,-0.5625 -1.47266,-0.88281 -0.47656,-0.31641 -0.93359,-0.65625 -1.37891,-1.02344 -0.4414,-0.36328 -0.86718,-0.7461 -1.26953,-1.15235 -0.40625,-0.40234 -0.78906,-0.82812 -1.15234,-1.26953 -0.36328,-0.4414 -0.70703,-0.90234 -1.02344,-1.3789 -0.32031,-0.47657 -0.61328,-0.96485 -0.88281,-1.47266 -0.26953,-0.50391 -0.51563,-1.02344 -0.73438,-1.55078 -0.21875,-0.52734 -0.41015,-1.06641 -0.57812,-1.61719 -0.16406,-0.54687 -0.30469,-1.10156 -0.41797,-1.66406 -0.10938,-0.5625 -0.19531,-1.125 -0.25,-1.69531 -0.0547,-0.57032 -0.0859,-1.14453 -0.0859,-1.71485 0,-0.57422 0.0312,-1.14453 0.0859,-1.71484 0.0547,-0.57031 0.14062,-1.13672 0.25,-1.69922 0.11328,-0.55859 0.25391,-1.11328 0.41797,-1.66406 0.16797,-0.54688 0.35937,-1.08594 0.57812,-1.61328 0.21875,-0.53125 0.46485,-1.04688 0.73438,-1.55469 0.26953,-0.50391 0.5625,-0.99609 0.88281,-1.46875 0.31641,-0.47656 0.66016,-0.9375 1.02344,-1.37891 0.36328,-0.44531 0.74609,-0.86718 1.15234,-1.27343 0.40235,-0.40625 0.82813,-0.78907 1.26953,-1.15235 0.44532,-0.36328 0.90235,-0.70312 1.37891,-1.02344 0.47656,-0.3164 0.96875,-0.60937 1.47266,-0.8789 0.5039,-0.27344 1.02343,-0.51563 1.55078,-0.73438 0.53125,-0.21875 1.0664,-0.41406 1.61718,-0.57812 0.54688,-0.16797 1.10157,-0.30469 1.66407,-0.41797 0.5625,-0.11328 1.1289,-0.19531 1.69922,-0.25391 0.5664,-0.0547 1.14062,-0.082 1.71093,-0.082 0.57422,0 1.14453,0.0273 1.71485,0.082 0.57031,0.0586 1.13672,0.14063 1.69922,0.25391 0.5625,0.11328 1.11718,0.25 1.66406,0.41797 0.54687,0.16406 1.08594,0.35937 1.61719,0.57812 0.52734,0.21875 1.04296,0.46094 1.55078,0.73438 0.5039,0.26953 0.99609,0.5625 1.47265,0.8789 0.47657,0.32032 0.9336,0.66016 1.375,1.02344 0.44532,0.36328 0.86719,0.7461 1.27344,1.15235 0.40625,0.40625 0.78906,0.82812 1.15234,1.27343 0.36329,0.44141 0.70313,0.90235 1.02344,1.37891 0.31641,0.47266 0.61328,0.96484 0.88281,1.46875 0.26954,0.50781 0.51172,1.02344 0.73047,1.55469 0.22266,0.52734 0.41407,1.0664 0.58203,1.61328 0.16407,0.55078 0.30469,1.10547 0.41407,1.66406 0.11328,0.5625 0.19531,1.12891 0.2539,1.69922 0.0547,0.57031 0.082,1.14062 0.082,1.71484 z m -11.65625,0 c 0,-0.38281 -0.0391,-0.76172 -0.11328,-1.13672 -0.0742,-0.375 -0.18359,-0.74218 -0.33203,-1.09375 -0.14453,-0.35546 -0.32422,-0.6914 -0.53906,-1.00781 -0.21094,-0.32031 -0.45313,-0.61328 -0.72266,-0.88281 -0.27343,-0.27344 -0.5664,-0.51563 -0.88672,-0.72656 -0.3164,-0.21094 -0.65234,-0.39063 -1.00781,-0.53907 -0.35156,-0.14453 -0.71484,-0.25781 -1.08984,-0.33203 -0.37891,-0.0742 -0.75781,-0.11328 -1.14063,-0.11328 -0.38281,0 -0.76172,0.0391 -1.13672,0.11328 -0.375,0.0742 -0.73828,0.1875 -1.09375,0.33203 -0.35156,0.14844 -0.6875,0.32813 -1.00781,0.53907 -0.3164,0.21093 -0.61328,0.45312 -0.88281,0.72656 -0.26953,0.26953 -0.51172,0.5625 -0.72266,0.88281 -0.21484,0.31641 -0.39453,0.65235 -0.53906,1.00781 -0.14844,0.35157 -0.25781,0.71875 -0.33203,1.09375 -0.0742,0.375 -0.11328,0.75391 -0.11328,1.13672 0,0.38282 0.0391,0.76172 0.11328,1.13672 0.0742,0.375 0.18359,0.73828 0.33203,1.09375 0.14453,0.35156 0.32422,0.6875 0.53906,1.00781 0.21094,0.31641 0.45313,0.61329 0.72266,0.88282 0.26953,0.26953 0.56641,0.51172 0.88281,0.72656 0.32031,0.21094 0.65625,0.39062 1.00781,0.53906 0.35547,0.14453 0.71875,0.25391 1.09375,0.32813 0.375,0.0781 0.75391,0.11328 1.13672,0.11328 0.38282,0 0.76172,-0.0352 1.14063,-0.11328 0.375,-0.0742 0.73828,-0.1836 1.08984,-0.32813 0.35547,-0.14844 0.69141,-0.32812 1.00781,-0.53906 0.32032,-0.21484 0.61329,-0.45703 0.88672,-0.72656 0.26953,-0.26953 0.51172,-0.56641 0.72266,-0.88282 0.21484,-0.32031 0.39453,-0.65625 0.53906,-1.00781 0.14844,-0.35547 0.25781,-0.71875 0.33203,-1.09375 0.0742,-0.375 0.11328,-0.7539 0.11328,-1.13672 z"
         fill-opacity="1"
         fill-rule="nonzero"
         id="path1152"
         style="fill:#0866ff;fill-opacity:1"
         sodipodi:nodetypes="ccsccccccsscscsscccsccscccccccccccccccscccsccsssccsccssscccccccccscscscscscccsccsscccccccscccccccssccscscscccccccccccccccsccccccsccccccccssccccscssscccccsssccccccscccscccssccccccsccccccccsccccscccsccsccsssccccccccccccscscscccccscccccccsssccscccsscccccsssccscccsccccccss"
         inkscape:export-filename="/home/debian/Documents/GitHub/core/frontend-main/src/assets/path1152.png"
         inkscape:export-xdpi="121.6"
         inkscape:export-ydpi="121.6" />
    </g>
    <g
       id="g34807"
       transform="translate(-110.64643,3.961265)"
       style="fill:#0866ff;fill-opacity:1;stroke:none;stroke-opacity:1">
      <path
         style="display:inline;fill:#0866ff;fill-opacity:1;stroke-width:0.198883;stroke:none;stroke-opacity:1"
         d="m 108.88098,28.233592 c -0.94548,-2.091382 -0.99909,-3.52008 -0.96568,-5.102601 0.0334,-1.629909 -0.48244,-2.924204 -2.09216,-3.40665 -6.028657,-1.803937 -9.146302,-1.4287 -14.705711,-5.485606 0,0 0,3.346055 3.768683,5.3916 2.709006,1.462104 7.631378,2.099152 9.649738,2.514785 1.12648,0.241614 1.35488,1.04647 1.60271,2.031562 0.55625,2.186164 1.19408,3.594661 2.74242,4.05691"
         id="path33289" />
      <path
         style="display:inline;fill:#0866ff;fill-opacity:1;stroke-width:0.198877;stroke:none;stroke-opacity:1"
         d="m 106.00243,27.033567 c -1.30744,-0.201215 -4.10408,-0.221415 -4.10408,-0.221415 1.66175,0.796739 5.74885,2.64447 4.10408,0.221415 z"
         id="path33287" />
      <path
         style="display:inline;fill:#0866ff;fill-opacity:1;stroke-width:0.198883;stroke:none;stroke-opacity:1"
         d="m 105.95055,26.302247 c 0.0403,-1.079097 -1.08609,-1.293516 -2.18538,-1.367322 -0.65724,-0.0404 -1.31526,-0.08079 -1.68352,-0.107214 -1.5429,-0.107214 -3.105221,-0.328621 -3.105221,-0.328621 0,0 0.194999,0.965671 1.897941,1.340907 1.69673,0.375235 5.07618,0.462247 5.07618,0.462247 z"
         id="path33285" />
      <path
         style="display:inline;fill:#0866ff;fill-opacity:1;stroke-width:0.198883;stroke:none;stroke-opacity:1"
         d="m 105.2397,24.405086 c 0,0 0.087,-1.294294 -1.20029,-1.462101 -1.2873,-0.167807 -3.47346,-0.428842 -5.780051,-0.919058 -2.307357,-0.489439 -2.856616,-0.730275 -2.856616,-0.730275 0,0 0.03342,1.374316 3.21165,2.118573 3.172047,0.738043 6.625307,0.992861 6.625307,0.992861 z"
         id="path1156" />
    </g>
    <path
       fill="#ffffff"
       d="m 135.86479,56.54863 c -0.11886,0 -0.23855,0.006 -0.35741,0.01769 -0.11886,0.01182 -0.23687,0.0295 -0.35404,0.05311 -0.11718,0.02275 -0.2335,0.05226 -0.34815,0.08682 -0.1138,0.03456 -0.22675,0.07502 -0.33718,0.12054 -0.11042,0.04551 -0.21832,0.09696 -0.32369,0.153419 -0.10536,0.05647 -0.20738,0.117178 -0.30684,0.183766 -0.0995,0.06658 -0.19557,0.137402 -0.28829,0.213267 -0.0919,0.07587 -0.1804,0.155948 -0.26469,0.241087 -0.0851,0.08428 -0.16522,0.172807 -0.24109,0.265531 -0.0759,0.09188 -0.14667,0.187981 -0.21327,0.287451 -0.0666,0.09948 -0.12813,0.201465 -0.18376,0.306836 -0.0565,0.105355 -0.1079,0.213269 -0.15342,0.323697 -0.0455,0.110417 -0.086,0.223383 -0.12054,0.338027 -0.0346,0.113808 -0.0641,0.230128 -0.0868,0.347297 -0.0236,0.117178 -0.0413,0.235188 -0.0531,0.354045 -0.0118,0.118862 -0.0177,0.238556 -0.0177,0.358258 0,0.118861 0.006,0.238557 0.0177,0.357415 0.0118,0.118862 0.0295,0.23687 0.0531,0.354041 0.0228,0.117178 0.0523,0.2335 0.0868,0.348142 0.0346,0.113798 0.075,0.226756 0.12054,0.337184 0.0455,0.110417 0.0969,0.218327 0.15342,0.323697 0.0556,0.105354 0.11716,0.207367 0.18376,0.306839 0.0666,0.09946 0.1374,0.195563 0.21327,0.28829 0.0759,0.09188 0.15595,0.180391 0.24109,0.26469 0.0843,0.08514 0.1728,0.165219 0.26469,0.241084 0.0927,0.07587 0.18882,0.146676 0.28829,0.213271 0.0995,0.06658 0.20147,0.128128 0.30684,0.183764 0.10536,0.05647 0.21326,0.10789 0.32369,0.15342 0.11042,0.04551 0.22338,0.08596 0.33718,0.120539 0.11465,0.03456 0.23097,0.06406 0.34815,0.08682 0.11716,0.02361 0.23518,0.04131 0.35404,0.05312 0.11886,0.01181 0.23856,0.01768 0.35741,0.01768 0.1197,0 0.2394,-0.006 0.35826,-0.01769 0.11886,-0.01182 0.23687,-0.0295 0.35404,-0.05311 0.11718,-0.02275 0.2335,-0.05226 0.3473,-0.08682 0.11464,-0.03456 0.2276,-0.07502 0.33803,-0.120539 0.11044,-0.04552 0.21833,-0.09696 0.3237,-0.153419 0.10537,-0.05564 0.20736,-0.117177 0.30683,-0.183765 0.0995,-0.06659 0.19557,-0.137402 0.28745,-0.21327 0.0927,-0.07587 0.18124,-0.155948 0.26553,-0.241085 0.0852,-0.08431 0.16523,-0.172806 0.24109,-0.26469 0.0758,-0.09271 0.14668,-0.188825 0.21327,-0.28829 0.0667,-0.09948 0.12728,-0.201469 0.18376,-0.306839 0.0564,-0.105365 0.10791,-0.213269 0.15342,-0.323696 0.0456,-0.11043 0.086,-0.223384 0.12054,-0.337184 0.0346,-0.114649 0.064,-0.230971 0.0868,-0.348142 0.0236,-0.117178 0.0413,-0.235186 0.0531,-0.354042 0.0118,-0.118864 0.0177,-0.238558 0.0177,-0.357415 0,-0.119701 -0.006,-0.2394 -0.0177,-0.358258 -0.0118,-0.118863 -0.0295,-0.236873 -0.0531,-0.354045 -0.0228,-0.117176 -0.0522,-0.233499 -0.0868,-0.347297 -0.0346,-0.114636 -0.075,-0.2276 -0.12054,-0.338027 -0.0455,-0.110417 -0.097,-0.218327 -0.15342,-0.323696 -0.0564,-0.105387 -0.11716,-0.207368 -0.18376,-0.306837 -0.0666,-0.09947 -0.13741,-0.195568 -0.21327,-0.287451 -0.0758,-0.09271 -0.15595,-0.181236 -0.24109,-0.265531 -0.0843,-0.08514 -0.1728,-0.16522 -0.26553,-0.241087 -0.0919,-0.07586 -0.18798,-0.146675 -0.28745,-0.213267 -0.0995,-0.06658 -0.20146,-0.127289 -0.30683,-0.183766 -0.10537,-0.05647 -0.21327,-0.107889 -0.3237,-0.153419 -0.11042,-0.04551 -0.22339,-0.08597 -0.33803,-0.120539 -0.11379,-0.03456 -0.23012,-0.06407 -0.3473,-0.08682 -0.11717,-0.02361 -0.23518,-0.04131 -0.35404,-0.05311 -0.11886,-0.01182 -0.23856,-0.01769 -0.35826,-0.01769 z m 0,4.867245 c -0.0793,0 -0.15847,-0.0076 -0.23687,-0.02361 -0.0784,-0.01518 -0.15426,-0.03878 -0.22844,-0.06913 -0.0733,-0.03034 -0.14415,-0.06827 -0.2099,-0.112119 -0.0666,-0.04469 -0.12812,-0.09526 -0.1846,-0.151734 -0.0565,-0.05647 -0.10706,-0.118004 -0.15174,-0.18461 -0.0438,-0.06575 -0.0818,-0.136558 -0.1121,-0.209894 -0.0303,-0.07417 -0.0539,-0.150049 -0.0691,-0.228444 -0.016,-0.07839 -0.0236,-0.157633 -0.0236,-0.236868 0,-0.08007 0.008,-0.159324 0.0236,-0.237718 0.0152,-0.07839 0.0388,-0.154261 0.0691,-0.22844 0.0303,-0.07333 0.0683,-0.144148 0.1121,-0.209899 0.0447,-0.06658 0.0953,-0.128128 0.15174,-0.184609 0.0565,-0.05646 0.118,-0.107044 0.1846,-0.15173 0.0657,-0.04383 0.13656,-0.08178 0.2099,-0.112108 0.0742,-0.03034 0.15005,-0.05394 0.22844,-0.06913 0.0784,-0.01601 0.15764,-0.0236 0.23687,-0.0236 0.0801,0 0.15932,0.0076 0.23772,0.0236 0.0784,0.01518 0.15426,0.03877 0.22844,0.06913 0.0733,0.03034 0.14415,0.06827 0.2099,0.112108 0.0666,0.04469 0.12812,0.09526 0.18461,0.15173 0.0565,0.05647 0.10706,0.118017 0.15173,0.184609 0.0438,0.06575 0.0818,0.136561 0.1121,0.209899 0.0303,0.07417 0.0539,0.150044 0.0691,0.22844 0.016,0.07839 0.0236,0.157635 0.0236,0.237718 0,0.07922 -0.008,0.158473 -0.0236,0.236868 -0.0152,0.07839 -0.0388,0.154264 -0.0691,0.228444 -0.0303,0.07333 -0.0683,0.144143 -0.1121,0.209894 -0.0447,0.06659 -0.0952,0.128128 -0.15173,0.18461 -0.0565,0.05647 -0.11801,0.107066 -0.18461,0.151734 -0.0658,0.04383 -0.13656,0.08176 -0.2099,0.112119 -0.0742,0.03033 -0.15005,0.05394 -0.22844,0.06913 -0.0784,0.01601 -0.15763,0.02361 -0.23772,0.02361 z m 0,0"
       fill-opacity="1"
       fill-rule="nonzero"
       id="path1160"
       style="display:inline;fill:#0866ff;fill-opacity:1;stroke-width:0.215797"
       inkscape:export-filename="/home/debian/Documents/GitHub/core/frontend-main/src/assets/logo-white.png"
       inkscape:export-xdpi="121.6"
       inkscape:export-ydpi="121.6" />
    <path
       fill="#ffffff"
       d="m 145.59844,56.54863 c -0.11885,0 -0.23855,0.006 -0.35741,0.01769 -0.11886,0.01182 -0.23688,0.0295 -0.35404,0.05311 -0.11718,0.02275 -0.2335,0.05226 -0.3473,0.08682 -0.11464,0.03456 -0.2276,0.07502 -0.33802,0.12054 -0.11045,0.04551 -0.21834,0.09696 -0.3237,0.153419 -0.10539,0.05647 -0.20738,0.117178 -0.30684,0.183766 -0.0995,0.06658 -0.19557,0.137402 -0.28829,0.213267 -0.0918,0.07587 -0.1804,0.155948 -0.26469,0.241087 -0.0852,0.08428 -0.16522,0.172807 -0.24109,0.265531 -0.0758,0.09188 -0.14668,0.187981 -0.21326,0.287451 -0.0665,0.09948 -0.12729,0.201465 -0.18377,0.306836 -0.0564,0.105355 -0.10791,0.213269 -0.15342,0.323697 -0.0456,0.110417 -0.086,0.223383 -0.12054,0.338027 -0.0346,0.113808 -0.0641,0.230128 -0.0868,0.347297 -0.0236,0.117178 -0.0413,0.235188 -0.0531,0.354045 -0.0118,0.118862 -0.0177,0.238556 -0.0177,0.358258 0,0.118861 0.006,0.238557 0.0177,0.357415 0.0118,0.118862 0.0295,0.23687 0.0531,0.354041 0.0228,0.117178 0.0522,0.2335 0.0868,0.348142 0.0346,0.113798 0.075,0.226756 0.12054,0.337184 0.0456,0.110417 0.097,0.218327 0.15342,0.323697 0.0564,0.105354 0.11718,0.207367 0.18377,0.306839 0.0666,0.09946 0.1374,0.195563 0.21326,0.28829 0.0759,0.09188 0.15595,0.180391 0.24109,0.26469 0.0843,0.08514 0.1728,0.165219 0.26469,0.241084 0.0928,0.07587 0.18881,0.146676 0.28829,0.213271 0.0995,0.06658 0.20147,0.128128 0.30684,0.183764 0.10536,0.05647 0.21326,0.10789 0.3237,0.15342 0.11041,0.04551 0.22337,0.08596 0.33802,0.120539 0.11381,0.03456 0.23013,0.06406 0.3473,0.08682 0.11716,0.02361 0.23518,0.04131 0.35404,0.05312 0.11886,0.01182 0.23856,0.01769 0.35741,0.01769 0.11971,0 0.2394,-0.006 0.35827,-0.01769 0.11884,-0.01182 0.23686,-0.0295 0.35404,-0.05312 0.11718,-0.02275 0.2335,-0.05226 0.3473,-0.08682 0.11463,-0.03456 0.2276,-0.07502 0.33802,-0.120539 0.11044,-0.04552 0.21832,-0.09696 0.32369,-0.15342 0.10539,-0.05564 0.20737,-0.117176 0.30685,-0.183764 0.0995,-0.06659 0.19556,-0.137403 0.28829,-0.213271 0.0918,-0.07586 0.18038,-0.155947 0.26469,-0.241084 0.0852,-0.08431 0.16521,-0.172806 0.24109,-0.26469 0.0758,-0.09271 0.14666,-0.188825 0.21326,-0.28829 0.0665,-0.09948 0.12729,-0.20147 0.18377,-0.306839 0.0564,-0.105365 0.10789,-0.213269 0.15342,-0.323697 0.0456,-0.110429 0.086,-0.223383 0.12054,-0.337184 0.0346,-0.114648 0.064,-0.230971 0.0868,-0.348142 0.0236,-0.117177 0.0413,-0.235185 0.0531,-0.354041 0.0118,-0.118864 0.0176,-0.238558 0.0176,-0.357415 0,-0.119702 -0.006,-0.2394 -0.0176,-0.358258 -0.0118,-0.118863 -0.0295,-0.236873 -0.0531,-0.354045 -0.0228,-0.117177 -0.0522,-0.233499 -0.0868,-0.347297 -0.0346,-0.114636 -0.075,-0.227601 -0.12054,-0.338027 -0.0455,-0.110418 -0.097,-0.218327 -0.15342,-0.323697 -0.0564,-0.105386 -0.11718,-0.207367 -0.18377,-0.306836 -0.0666,-0.09947 -0.1374,-0.195568 -0.21326,-0.287451 -0.0759,-0.09271 -0.15595,-0.181236 -0.24109,-0.265531 -0.0843,-0.08514 -0.17281,-0.16522 -0.26554,-0.241087 -0.0918,-0.07586 -0.18798,-0.146675 -0.28744,-0.213267 -0.0995,-0.06658 -0.20147,-0.12729 -0.30685,-0.183766 -0.10537,-0.05647 -0.21326,-0.107889 -0.32369,-0.153419 -0.11042,-0.04551 -0.22339,-0.08597 -0.33802,-0.12054 -0.11381,-0.03456 -0.23013,-0.06407 -0.3473,-0.08682 -0.11717,-0.02361 -0.23519,-0.04131 -0.35404,-0.05311 -0.11887,-0.01182 -0.23856,-0.01769 -0.35827,-0.01769 z m 0,4.867245 c -0.0792,0 -0.15847,-0.0076 -0.23687,-0.02361 -0.0784,-0.01518 -0.15426,-0.03878 -0.22844,-0.06913 -0.0733,-0.03034 -0.14415,-0.06827 -0.2099,-0.112119 -0.0666,-0.04469 -0.12813,-0.09526 -0.1846,-0.151734 -0.0564,-0.05647 -0.10706,-0.118004 -0.15174,-0.18461 -0.0438,-0.06575 -0.0818,-0.136558 -0.11211,-0.209894 -0.0303,-0.07417 -0.0539,-0.150049 -0.0692,-0.228444 -0.016,-0.07839 -0.0236,-0.157633 -0.0236,-0.236868 0,-0.08007 0.007,-0.159324 0.0236,-0.237718 0.0152,-0.07839 0.0388,-0.154261 0.0692,-0.22844 0.0304,-0.07333 0.0683,-0.144148 0.11211,-0.209899 0.0447,-0.06658 0.0953,-0.128128 0.15174,-0.184609 0.0564,-0.05646 0.118,-0.107044 0.1846,-0.15173 0.0657,-0.04383 0.13656,-0.08178 0.2099,-0.112108 0.0742,-0.03034 0.15005,-0.05394 0.22844,-0.06913 0.0784,-0.01601 0.15764,-0.0236 0.23687,-0.0236 0.08,0 0.15933,0.0076 0.23772,0.0236 0.0784,0.01518 0.15426,0.03877 0.22844,0.06913 0.0733,0.03034 0.14414,0.06827 0.20989,0.112108 0.0666,0.04469 0.12815,0.09526 0.18462,0.15173 0.0565,0.05647 0.10705,0.118017 0.15172,0.184609 0.0438,0.06575 0.0818,0.136561 0.11211,0.209899 0.0303,0.07417 0.0539,0.150044 0.0692,0.22844 0.016,0.07839 0.0236,0.157635 0.0236,0.237718 0,0.07922 -0.007,0.158473 -0.0236,0.236868 -0.0152,0.07839 -0.0388,0.154264 -0.0692,0.228444 -0.0303,0.07333 -0.0683,0.144143 -0.11211,0.209894 -0.0447,0.06659 -0.0953,0.128128 -0.15172,0.18461 -0.0564,0.05647 -0.11802,0.107066 -0.18462,0.151734 -0.0657,0.04383 -0.13655,0.08176 -0.20989,0.112119 -0.0742,0.03033 -0.15005,0.05394 -0.22844,0.06913 -0.0784,0.01601 -0.15763,0.02361 -0.23772,0.02361 z m 0,0"
       fill-opacity="1"
       fill-rule="nonzero"
       id="path1162"
       style="display:inline;fill:#0866ff;fill-opacity:1;stroke-width:0.215797"
       inkscape:export-filename="/home/debian/Documents/GitHub/core/frontend-main/src/assets/logo-white.png"
       inkscape:export-xdpi="121.6"
       inkscape:export-ydpi="121.6" />
    <g
       id="g34801"
       transform="translate(-31.96431,5.167282)"
       inkscape:export-filename="/home/debian/Documents/GitHub/core/frontend-main/src/assets/g34801.png"
       inkscape:export-xdpi="121.6"
       inkscape:export-ydpi="121.6"
       style="fill:#0866ff;fill-opacity:1;stroke:none;stroke-opacity:1">
      <path
         style="display:inline;fill:#0866ff;fill-opacity:1;stroke-width:0.198883;stroke:none;stroke-opacity:1"
         d="m 113.16431,27.027575 c 0.94548,-2.091382 0.99909,-3.52008 0.96568,-5.102601 -0.0334,-1.629909 0.48244,-2.924204 2.09216,-3.40665 6.02865,-1.803937 9.1463,-1.4287 14.70571,-5.485606 0,0 0,3.346055 -3.76868,5.3916 -2.70901,1.462104 -7.63138,2.099152 -9.64974,2.514785 -1.12648,0.241614 -1.35488,1.04647 -1.60271,2.031562 -0.55625,2.186164 -1.19408,3.594661 -2.74242,4.05691"
         id="path33289-7" />
      <path
         style="display:inline;fill:#0866ff;fill-opacity:1;stroke-width:0.198877;stroke:none;stroke-opacity:1"
         d="m 116.04286,25.82755 c 1.30744,-0.201215 4.10408,-0.221415 4.10408,-0.221415 -1.66175,0.796739 -5.74885,2.64447 -4.10408,0.221415 z"
         id="path33287-0" />
      <path
         style="display:inline;fill:#0866ff;fill-opacity:1;stroke-width:0.198883;stroke:none;stroke-opacity:1"
         d="m 116.09474,25.09623 c -0.0403,-1.079097 1.08609,-1.293516 2.18538,-1.367322 0.65724,-0.0404 1.31526,-0.08079 1.68352,-0.107214 1.5429,-0.107214 3.10522,-0.328621 3.10522,-0.328621 0,0 -0.195,0.965671 -1.89794,1.340907 -1.69673,0.375235 -5.07618,0.462247 -5.07618,0.462247 z"
         id="path33285-9" />
      <path
         style="display:inline;fill:#0866ff;fill-opacity:1;stroke-width:0.198883;stroke:none;stroke-opacity:1"
         d="m 116.80559,23.199069 c 0,0 -0.087,-1.294294 1.20029,-1.462101 1.2873,-0.167807 3.47346,-0.428842 5.78005,-0.919058 2.30735,-0.489439 2.85661,-0.730275 2.85661,-0.730275 0,0 -0.0334,1.374316 -3.21165,2.118573 -3.17204,0.738043 -6.6253,0.992861 -6.6253,0.992861 z"
         id="path1156-3" />
    </g>
  </g>
  <g
     inkscape:groupmode="layer"
     id="layer2"
     inkscape:label="Layer 2"
     style="display:inline" />
  <g
     inkscape:groupmode="layer"
     id="layer3"
     inkscape:label="Layer 3"
     style="display:inline" />
  <g
     inkscape:groupmode="layer"
     id="layer4"
     inkscape:label="limit"
     style="display:none">
    <rect
       style="display:inline;opacity:0.557195;fill:#ff5e00;fill-opacity:1;stroke:#0069f5;stroke-width:0;stroke-linecap:round;stroke-linejoin:round;paint-order:stroke fill markers"
       id="rect1592-1"
       width="15"
       height="14.999998"
       x="1.8808064e-06"
       y="14.999999" />
    <rect
       style="display:inline;opacity:0.557195;fill:#ff0000;stroke:#0069f5;stroke-width:0;stroke-linecap:round;stroke-linejoin:round;paint-order:stroke fill markers"
       id="rect1592"
       width="120"
       height="14.999998"
       x="1.8808064e-06"
       y="6.7562792e-07" />
  </g>
</svg>
