<?xml version="1.0" encoding="UTF-8" standalone="no"?>
<!-- Created with Inkscape (http://www.inkscape.org/) -->

<svg
   width="120"
   height="50"
   viewBox="0 0 120 50"
   version="1.1"
   id="SVGRoot"
   sodipodi:docname="logo-white.svg"
   inkscape:version="1.1.2 (0a00cf5339, 2022-02-04)"
   inkscape:export-filename="/home/debian/Documents/GitHub/core/frontend-main/src/assets/logo-white.png"
   inkscape:export-xdpi="121.6"
   inkscape:export-ydpi="121.6"
   xmlns:inkscape="http://www.inkscape.org/namespaces/inkscape"
   xmlns:sodipodi="http://sodipodi.sourceforge.net/DTD/sodipodi-0.dtd"
   xmlns="http://www.w3.org/2000/svg"
   xmlns:svg="http://www.w3.org/2000/svg">
  <sodipodi:namedview
     id="namedview137"
     pagecolor="#ffffff"
     bordercolor="#000000"
     borderopacity="0.25"
     inkscape:showpageshadow="2"
     inkscape:pageopacity="0.0"
     inkscape:pagecheckerboard="0"
     inkscape:deskcolor="#d1d1d1"
     inkscape:document-units="px"
     showgrid="false"
     inkscape:zoom="7.1087104"
     inkscape:cx="49.376044"
     inkscape:cy="28.697188"
     inkscape:window-width="1488"
     inkscape:window-height="778"
     inkscape:window-x="342"
     inkscape:window-y="240"
     inkscape:window-maximized="0"
     inkscape:current-layer="layer1"
     inkscape:pageshadow="2"
     showguides="false" />
  <defs
     id="defs132">
    <rect
       x="11.236365"
       y="7.2846913"
       width="69.72084"
       height="10.069939"
       id="rect3" />
    <rect
       x="12.94258"
       y="23.094154"
       width="88.413605"
       height="18.186064"
       id="rect1" />
    <rect
       x="-1.4777668"
       y="42.333267"
       width="127.8846"
       height="23.821753"
       id="rect3454" />
    <clipPath
       id="b983e3c625">
      <path
         d="m 142,147.30078 h 115 v 72.75 H 142 Z m 0,0"
         clip-rule="nonzero"
         id="path1144" />
    </clipPath>
    <clipPath
       id="0e8c13dd3a">
      <path
         d="m 70.261719,116.35938 h 89.156251 v 70.49999 H 70.261719 Z m 0,0"
         clip-rule="nonzero"
         id="path1147" />
    </clipPath>
    <clipPath
       id="b983e3c625-3">
      <path
         d="m 142,147.30078 h 115 v 72.75 H 142 Z m 0,0"
         clip-rule="nonzero"
         id="path1144-6" />
    </clipPath>
    <clipPath
       id="0e8c13dd3a-7">
      <path
         d="m 70.261719,116.35938 h 89.156251 v 70.49999 H 70.261719 Z m 0,0"
         clip-rule="nonzero"
         id="path1147-5" />
    </clipPath>
  </defs>
  <g
     inkscape:label="Layer 1"
     inkscape:groupmode="layer"
     id="layer1"
     style="display:inline">
    <text
       xml:space="preserve"
       style="font-style:normal;font-variant:normal;font-weight:normal;font-stretch:normal;font-size:19.8478px;line-height:0;font-family:Manrope;-inkscape-font-specification:Manrope;letter-spacing:-0.744293px;fill:#f9f9f9;stroke:#ff9a00;stroke-width:0.0744293;stroke-linecap:round;stroke-linejoin:round;stroke-miterlimit:4;stroke-dasharray:none;paint-order:stroke fill markers"
       x="-0.041157071"
       y="31.281778"
       id="text2"
       inkscape:export-filename="/home/debian/Documents/GitHub/core/frontend-main/src/assets/logo-white.png"
       inkscape:export-xdpi="121.6"
       inkscape:export-ydpi="121.6"><tspan
         sodipodi:role="line"
         id="tspan2"
         x="-0.041157071"
         y="31.281778"
         style="font-style:normal;font-variant:normal;font-weight:bold;font-stretch:normal;font-size:19.8478px;font-family:'IBM Plex Sans';-inkscape-font-specification:'IBM Plex Sans Bold';word-spacing:0px;fill:#f9f9f9;fill-opacity:1;stroke:#ffffff;stroke-width:0.0744293;stroke-miterlimit:4;stroke-dasharray:none;stroke-opacity:1;paint-order:stroke fill markers"
         dx="0 0 0">ada<tspan
   style="fill:#fabb05;fill-opacity:1"
   id="tspan40017">usd</tspan></tspan></text>
    <g
       id="g35956"
       transform="matrix(1.1088845,0,0,1.1088845,62.837984,1.2091405)">
      <g
         clip-path="url(#b983e3c625-3)"
         id="g1154"
         style="display:inline;fill:#f9f9f9"
         transform="matrix(0.16466809,0,0,0.16466809,-11.663411,-12.668243)"
         inkscape:export-filename="/home/debian/Documents/GitHub/core/frontend-main/src/assets/logo-white.png"
         inkscape:export-xdpi="121.6"
         inkscape:export-ydpi="121.6">
        <path
           fill="#ffffff"
           d="m 255.65234,181.28516 -5.82812,23.3164 c -0.23438,0.9375 -0.54688,1.85156 -0.9336,2.73828 -0.38671,0.88672 -0.84375,1.73438 -1.375,2.54688 -0.52734,0.8125 -1.11718,1.57422 -1.77343,2.28515 -0.65235,0.71485 -1.36328,1.36719 -2.125,1.96485 -0.76172,0.59375 -1.57032,1.12109 -2.42188,1.58203 -0.84765,0.46094 -1.73047,0.85156 -2.64844,1.16406 -0.91406,0.31641 -1.84765,0.55469 -2.80468,0.71094 -0.95313,0.16016 -1.91407,0.24219 -2.88282,0.24219 h -58 c -0.9375,0 -1.86718,-0.0742 -2.79296,-0.21875 -0.92188,-0.14844 -1.82813,-0.3711 -2.71875,-0.66407 -0.89063,-0.29296 -1.75,-0.65234 -2.57813,-1.08593 -0.83203,-0.42969 -1.625,-0.92578 -2.375,-1.48438 -0.75,-0.55859 -1.45312,-1.17187 -2.10547,-1.84375 -0.65234,-0.67187 -1.25,-1.39062 -1.78515,-2.15625 -0.53907,-0.76562 -1.01172,-1.57031 -1.41797,-2.41406 -0.41016,-0.84375 -0.7461,-1.71094 -1.01563,-2.60938 -2.1675,-6.58299 -2.66172,-15.4442 -3.60898,-22.16938 -2.56499,-18.2104 -5.51434,-29.15323 5.19221,-17.63148 5.81614,13.11291 8.73547,28.10111 11.81519,39.54693 0.52734,0.375 1.10156,0.65234 1.72266,0.83594 0.62109,0.18359 1.2539,0.26171 1.90234,0.23437 h 58.29297 c 0.66406,0.0195 1.3125,-0.0742 1.94922,-0.27734 0.63281,-0.20313 1.21484,-0.50391 1.74609,-0.91016 0.53125,-0.40234 0.97656,-0.88281 1.34375,-1.4375 0.36719,-0.55859 0.62891,-1.16016 0.78906,-1.80469 l 5.82813,-23.3164 c 0.10937,-0.4375 0.16406,-0.88282 0.17187,-1.33203 0.004,-0.44922 -0.0391,-0.89063 -0.13672,-1.33204 -0.0977,-0.4375 -0.24609,-0.85937 -0.4375,-1.26562 -0.19531,-0.40625 -0.43359,-0.78125 -0.71875,-1.13281 -0.28125,-0.35157 -0.59765,-0.66407 -0.95312,-0.9375 -0.35547,-0.27735 -0.73828,-0.51172 -1.14453,-0.69922 -0.41016,-0.1875 -0.83594,-0.32422 -1.27344,-0.41406 -0.44141,-0.0898 -0.88672,-0.12891 -1.33594,-0.11719 h -61.38281 c -0.38281,0 -0.76172,-0.0352 -1.13672,-0.11328 -0.375,-0.0742 -0.73828,-0.1836 -1.09375,-0.33203 -0.35156,-0.14454 -0.6875,-0.32422 -1.00781,-0.53907 -0.31641,-0.21093 -0.61328,-0.45312 -0.88281,-0.72265 -0.26953,-0.26953 -0.51172,-0.56641 -0.72266,-0.88282 -0.21484,-0.32031 -0.39453,-0.65625 -0.53906,-1.00781 -0.14844,-0.35547 -0.25781,-0.71875 -0.33203,-1.09375 -0.0742,-0.375 -0.11328,-0.7539 -0.11328,-1.13672 0,-0.38281 0.0391,-0.76172 0.11328,-1.13672 0.0742,-0.375 0.18359,-0.74218 0.33203,-1.09375 0.14453,-0.35546 0.32422,-0.6914 0.53906,-1.00781 0.21094,-0.3164 0.45313,-0.61328 0.72266,-0.88281 0.26953,-0.26953 0.5664,-0.51172 0.88281,-0.72656 0.32031,-0.21094 0.65625,-0.39063 1.00781,-0.53907 0.35547,-0.14453 0.71875,-0.25781 1.09375,-0.33203 0.375,-0.0742 0.75391,-0.10937 1.13672,-0.10937 h 60.85938 c 0.66015,0 1.32031,0.0352 1.98046,0.10937 0.65625,0.0781 1.3086,0.1875 1.95704,0.33594 0.64453,0.15234 1.27734,0.33594 1.90234,0.55859 0.625,0.21875 1.23437,0.47657 1.83203,0.76563 0.59375,0.29297 1.17188,0.61328 1.73047,0.97266 0.55859,0.35546 1.09375,0.74218 1.60937,1.16015 0.51563,0.41406 1.00391,0.85938 1.46875,1.33203 0.46485,0.47657 0.89844,0.97266 1.3086,1.4961 0.40625,0.51953 0.78125,1.0664 1.1289,1.6289 0.34375,0.56641 0.65625,1.14844 0.9375,1.75 0.28125,0.60157 0.52344,1.21485 0.73438,1.84375 0.20703,0.62891 0.38281,1.26563 0.51953,1.91407 0.13672,0.64843 0.23828,1.30468 0.30078,1.96484 0.0625,0.65625 0.0859,1.32031 0.0742,1.98047 -0.0117,0.66406 -0.0625,1.32422 -0.14844,1.98047 -0.0898,0.65625 -0.21484,1.30468 -0.375,1.94922 z m -60.33203,59.86718 c 0,0.57032 -0.0273,1.14453 -0.0859,1.71485 -0.0547,0.57031 -0.14062,1.13281 -0.25,1.69531 -0.11328,0.5625 -0.25,1.11719 -0.41796,1.66406 -0.16407,0.55078 -0.35938,1.08985 -0.57813,1.61719 -0.21875,0.52734 -0.46484,1.04687 -0.73437,1.55078 -0.26954,0.50781 -0.5625,0.99609 -0.88282,1.47266 -0.3164,0.47656 -0.65625,0.9375 -1.01953,1.3789 -0.36328,0.44141 -0.75,0.86719 -1.15234,1.26953 -0.40625,0.40625 -0.83203,0.78907 -1.27344,1.15235 -0.44141,0.36719 -0.90234,0.70703 -1.37891,1.02344 -0.47656,0.32031 -0.96484,0.61328 -1.47265,0.88281 -0.50391,0.26953 -1.01953,0.51562 -1.55078,0.73437 -0.52735,0.21875 -1.06641,0.41016 -1.61328,0.57813 -0.55079,0.16406 -1.10547,0.30469 -1.66797,0.41797 -0.5586,0.10937 -1.125,0.19531 -1.69532,0.25 -0.57031,0.0586 -1.14062,0.0859 -1.71484,0.0859 -0.57422,0 -1.14453,-0.0273 -1.71484,-0.0859 -0.57032,-0.0547 -1.13672,-0.14063 -1.69532,-0.25 -0.5625,-0.11328 -1.11718,-0.25391 -1.66796,-0.41797 -0.54688,-0.16797 -1.08594,-0.35938 -1.61329,-0.57813 -0.53125,-0.21875 -1.04687,-0.46484 -1.55078,-0.73437 -0.50781,-0.26953 -0.99609,-0.5625 -1.47265,-0.88281 -0.47657,-0.31641 -0.9375,-0.65625 -1.37891,-1.02344 -0.44531,-0.36328 -0.86719,-0.7461 -1.27344,-1.15235 -0.40234,-0.40234 -0.78906,-0.82812 -1.15234,-1.26953 -0.36328,-0.4414 -0.70313,-0.90234 -1.01953,-1.3789 -0.32031,-0.47657 -0.61328,-0.96485 -0.88281,-1.47266 -0.26954,-0.50391 -0.51563,-1.02344 -0.73438,-1.55078 -0.21875,-0.52734 -0.41406,-1.06641 -0.57812,-1.61719 -0.16797,-0.54687 -0.30469,-1.10156 -0.41797,-1.66406 -0.11328,-0.5625 -0.19532,-1.125 -0.25,-1.69531 -0.0586,-0.57032 -0.0859,-1.14453 -0.0859,-1.71485 0,-0.57422 0.0273,-1.14453 0.0859,-1.71484 0.0547,-0.57031 0.13672,-1.13672 0.25,-1.69922 0.11328,-0.55859 0.25,-1.11328 0.41797,-1.66406 0.16406,-0.54688 0.35937,-1.08594 0.57812,-1.61328 0.21875,-0.53125 0.46484,-1.04688 0.73438,-1.55469 0.26953,-0.50391 0.5625,-0.99609 0.88281,-1.46875 0.3164,-0.47656 0.65625,-0.9375 1.01953,-1.37891 0.36328,-0.44531 0.75,-0.86718 1.15234,-1.27343 0.40625,-0.40625 0.82813,-0.78907 1.27344,-1.15235 0.44141,-0.36328 0.90234,-0.70312 1.37891,-1.02344 0.47656,-0.3164 0.96484,-0.60937 1.47265,-0.8789 0.50391,-0.27344 1.01953,-0.51563 1.55078,-0.73438 0.52735,-0.21875 1.06641,-0.41406 1.61329,-0.57812 0.55078,-0.16797 1.10546,-0.30469 1.66796,-0.41797 0.5586,-0.11328 1.125,-0.19531 1.69532,-0.25391 0.57031,-0.0547 1.14062,-0.082 1.71484,-0.082 0.57422,0 1.14453,0.0273 1.71484,0.082 0.57032,0.0586 1.13672,0.14063 1.69532,0.25391 0.5625,0.11328 1.11718,0.25 1.66797,0.41797 0.54687,0.16406 1.08593,0.35937 1.61328,0.57812 0.53125,0.21875 1.04687,0.46094 1.55078,0.73438 0.50781,0.26953 0.99609,0.5625 1.47265,0.8789 0.47657,0.32032 0.9375,0.66016 1.37891,1.02344 0.44141,0.36328 0.86719,0.7461 1.27344,1.15235 0.40234,0.40625 0.78906,0.82812 1.15234,1.27343 0.36328,0.44141 0.70313,0.90235 1.01953,1.37891 0.32032,0.47266 0.61328,0.96484 0.88282,1.46875 0.26953,0.50781 0.51562,1.02344 0.73437,1.55469 0.21875,0.52734 0.41406,1.0664 0.57813,1.61328 0.16796,0.55078 0.30468,1.10547 0.41796,1.66406 0.10938,0.5625 0.19532,1.12891 0.25,1.69922 0.0586,0.57031 0.0859,1.14062 0.0859,1.71484 z m -11.66015,0 c 0,-0.38281 -0.0352,-0.76172 -0.10938,-1.13672 -0.0781,-0.375 -0.1875,-0.74218 -0.33203,-1.09375 -0.14844,-0.35546 -0.32813,-0.6914 -0.53906,-1.00781 -0.21485,-0.32031 -0.45703,-0.61328 -0.72657,-0.88281 -0.26953,-0.27344 -0.5664,-0.51563 -0.88281,-0.72656 -0.3164,-0.21094 -0.65234,-0.39063 -1.00781,-0.53907 -0.35547,-0.14453 -0.71875,-0.25781 -1.09375,-0.33203 -0.375,-0.0742 -0.75391,-0.11328 -1.13672,-0.11328 -0.38281,0 -0.76172,0.0391 -1.13672,0.11328 -0.375,0.0742 -0.74219,0.1875 -1.09375,0.33203 -0.35547,0.14844 -0.6914,0.32813 -1.00781,0.53907 -0.32031,0.21093 -0.61328,0.45312 -0.88281,0.72656 -0.27344,0.26953 -0.51172,0.5625 -0.72657,0.88281 -0.21093,0.31641 -0.39062,0.65235 -0.53906,1.00781 -0.14453,0.35157 -0.25781,0.71875 -0.33203,1.09375 -0.0742,0.375 -0.10937,0.75391 -0.10937,1.13672 0,0.38282 0.0352,0.76172 0.10937,1.13672 0.0742,0.375 0.1875,0.73828 0.33203,1.09375 0.14844,0.35156 0.32813,0.6875 0.53906,1.00781 0.21485,0.31641 0.45313,0.61329 0.72657,0.88282 0.26953,0.26953 0.5625,0.51172 0.88281,0.72656 0.31641,0.21094 0.65234,0.39062 1.00781,0.53906 0.35156,0.14453 0.71875,0.25391 1.09375,0.32813 0.375,0.0781 0.75391,0.11328 1.13672,0.11328 0.38281,0 0.76172,-0.0352 1.13672,-0.11328 0.375,-0.0742 0.73828,-0.1836 1.09375,-0.32813 0.35547,-0.14844 0.69141,-0.32812 1.00781,-0.53906 0.31641,-0.21484 0.61328,-0.45703 0.88281,-0.72656 0.26954,-0.26953 0.51172,-0.56641 0.72657,-0.88282 0.21093,-0.32031 0.39062,-0.65625 0.53906,-1.00781 0.14453,-0.35547 0.25391,-0.71875 0.33203,-1.09375 0.0742,-0.375 0.10938,-0.7539 0.10938,-1.13672 z m 58.29296,0 c 0,0.57032 -0.0273,1.14453 -0.082,1.71485 -0.0586,0.57031 -0.14062,1.13281 -0.2539,1.69531 -0.10938,0.5625 -0.25,1.11719 -0.41407,1.66406 -0.16796,0.55078 -0.35937,1.08985 -0.58203,1.61719 -0.21875,0.52734 -0.46093,1.04687 -0.73047,1.55078 -0.26953,0.50781 -0.5664,0.99609 -0.88281,1.47266 -0.32031,0.47656 -0.66015,0.9375 -1.02344,1.3789 -0.36328,0.44141 -0.74609,0.86719 -1.15234,1.26953 -0.40625,0.40625 -0.82812,0.78907 -1.27344,1.15235 -0.4414,0.36719 -0.89843,0.70703 -1.375,1.02344 -0.47656,0.32031 -0.96875,0.61328 -1.47265,0.88281 -0.50782,0.26953 -1.02344,0.51562 -1.55078,0.73437 -0.53125,0.21875 -1.07032,0.41016 -1.61719,0.57813 -0.54688,0.16406 -1.10156,0.30469 -1.66406,0.41797 -0.5625,0.10937 -1.12891,0.19531 -1.69922,0.25 -0.57032,0.0586 -1.14063,0.0859 -1.71485,0.0859 -0.57031,0 -1.14453,-0.0273 -1.71093,-0.0859 -0.57032,-0.0547 -1.13672,-0.14063 -1.69922,-0.25 -0.5625,-0.11328 -1.11719,-0.25391 -1.66407,-0.41797 -0.55078,-0.16797 -1.08593,-0.35938 -1.61718,-0.57813 -0.52735,-0.21875 -1.04688,-0.46484 -1.55078,-0.73437 -0.50391,-0.26953 -0.9961,-0.5625 -1.47266,-0.88281 -0.47656,-0.31641 -0.93359,-0.65625 -1.37891,-1.02344 -0.4414,-0.36328 -0.86718,-0.7461 -1.26953,-1.15235 -0.40625,-0.40234 -0.78906,-0.82812 -1.15234,-1.26953 -0.36328,-0.4414 -0.70703,-0.90234 -1.02344,-1.3789 -0.32031,-0.47657 -0.61328,-0.96485 -0.88281,-1.47266 -0.26953,-0.50391 -0.51563,-1.02344 -0.73438,-1.55078 -0.21875,-0.52734 -0.41015,-1.06641 -0.57812,-1.61719 -0.16406,-0.54687 -0.30469,-1.10156 -0.41797,-1.66406 -0.10938,-0.5625 -0.19531,-1.125 -0.25,-1.69531 -0.0547,-0.57032 -0.0859,-1.14453 -0.0859,-1.71485 0,-0.57422 0.0312,-1.14453 0.0859,-1.71484 0.0547,-0.57031 0.14062,-1.13672 0.25,-1.69922 0.11328,-0.55859 0.25391,-1.11328 0.41797,-1.66406 0.16797,-0.54688 0.35937,-1.08594 0.57812,-1.61328 0.21875,-0.53125 0.46485,-1.04688 0.73438,-1.55469 0.26953,-0.50391 0.5625,-0.99609 0.88281,-1.46875 0.31641,-0.47656 0.66016,-0.9375 1.02344,-1.37891 0.36328,-0.44531 0.74609,-0.86718 1.15234,-1.27343 0.40235,-0.40625 0.82813,-0.78907 1.26953,-1.15235 0.44532,-0.36328 0.90235,-0.70312 1.37891,-1.02344 0.47656,-0.3164 0.96875,-0.60937 1.47266,-0.8789 0.5039,-0.27344 1.02343,-0.51563 1.55078,-0.73438 0.53125,-0.21875 1.0664,-0.41406 1.61718,-0.57812 0.54688,-0.16797 1.10157,-0.30469 1.66407,-0.41797 0.5625,-0.11328 1.1289,-0.19531 1.69922,-0.25391 0.5664,-0.0547 1.14062,-0.082 1.71093,-0.082 0.57422,0 1.14453,0.0273 1.71485,0.082 0.57031,0.0586 1.13672,0.14063 1.69922,0.25391 0.5625,0.11328 1.11718,0.25 1.66406,0.41797 0.54687,0.16406 1.08594,0.35937 1.61719,0.57812 0.52734,0.21875 1.04296,0.46094 1.55078,0.73438 0.5039,0.26953 0.99609,0.5625 1.47265,0.8789 0.47657,0.32032 0.9336,0.66016 1.375,1.02344 0.44532,0.36328 0.86719,0.7461 1.27344,1.15235 0.40625,0.40625 0.78906,0.82812 1.15234,1.27343 0.36329,0.44141 0.70313,0.90235 1.02344,1.37891 0.31641,0.47266 0.61328,0.96484 0.88281,1.46875 0.26954,0.50781 0.51172,1.02344 0.73047,1.55469 0.22266,0.52734 0.41407,1.0664 0.58203,1.61328 0.16407,0.55078 0.30469,1.10547 0.41407,1.66406 0.11328,0.5625 0.19531,1.12891 0.2539,1.69922 0.0547,0.57031 0.082,1.14062 0.082,1.71484 z m -11.65625,0 c 0,-0.38281 -0.0391,-0.76172 -0.11328,-1.13672 -0.0742,-0.375 -0.18359,-0.74218 -0.33203,-1.09375 -0.14453,-0.35546 -0.32422,-0.6914 -0.53906,-1.00781 -0.21094,-0.32031 -0.45313,-0.61328 -0.72266,-0.88281 -0.27343,-0.27344 -0.5664,-0.51563 -0.88672,-0.72656 -0.3164,-0.21094 -0.65234,-0.39063 -1.00781,-0.53907 -0.35156,-0.14453 -0.71484,-0.25781 -1.08984,-0.33203 -0.37891,-0.0742 -0.75781,-0.11328 -1.14063,-0.11328 -0.38281,0 -0.76172,0.0391 -1.13672,0.11328 -0.375,0.0742 -0.73828,0.1875 -1.09375,0.33203 -0.35156,0.14844 -0.6875,0.32813 -1.00781,0.53907 -0.3164,0.21093 -0.61328,0.45312 -0.88281,0.72656 -0.26953,0.26953 -0.51172,0.5625 -0.72266,0.88281 -0.21484,0.31641 -0.39453,0.65235 -0.53906,1.00781 -0.14844,0.35157 -0.25781,0.71875 -0.33203,1.09375 -0.0742,0.375 -0.11328,0.75391 -0.11328,1.13672 0,0.38282 0.0391,0.76172 0.11328,1.13672 0.0742,0.375 0.18359,0.73828 0.33203,1.09375 0.14453,0.35156 0.32422,0.6875 0.53906,1.00781 0.21094,0.31641 0.45313,0.61329 0.72266,0.88282 0.26953,0.26953 0.56641,0.51172 0.88281,0.72656 0.32031,0.21094 0.65625,0.39062 1.00781,0.53906 0.35547,0.14453 0.71875,0.25391 1.09375,0.32813 0.375,0.0781 0.75391,0.11328 1.13672,0.11328 0.38282,0 0.76172,-0.0352 1.14063,-0.11328 0.375,-0.0742 0.73828,-0.1836 1.08984,-0.32813 0.35547,-0.14844 0.69141,-0.32812 1.00781,-0.53906 0.32032,-0.21484 0.61329,-0.45703 0.88672,-0.72656 0.26953,-0.26953 0.51172,-0.56641 0.72266,-0.88282 0.21484,-0.32031 0.39453,-0.65625 0.53906,-1.00781 0.14844,-0.35547 0.25781,-0.71875 0.33203,-1.09375 0.0742,-0.375 0.11328,-0.7539 0.11328,-1.13672 z"
           fill-opacity="1"
           fill-rule="nonzero"
           id="path1152"
           style="fill:#f9f9f9"
           sodipodi:nodetypes="ccsccccccsscscsscccsccscccccccccccccccscccsccsssccsccssscccccccccscscscscscccsccsscccccccscccccccssccscscscccccccccccccccsccccccsccccccccssccccscssscccccsssccccccscccscccssccccccsccccccccsccccscccsccsccsssccccccccccccscscscccccscccccccsssccscccsscccccsssccscccsccccccss"
           inkscape:export-filename="/home/debian/Documents/GitHub/core/frontend-main/src/assets/path1152.png"
           inkscape:export-xdpi="121.6"
           inkscape:export-ydpi="121.6" />
      </g>
      <g
         clip-path="url(#0e8c13dd3a-7)"
         id="g1158"
         style="display:inline;fill:#f9f9f9"
         transform="matrix(0.14219731,0,0,0.14219731,-7.0760274,-6.8147163)"
         inkscape:export-filename="/home/debian/Documents/GitHub/core/frontend-main/src/assets/logo-white.png"
         inkscape:export-xdpi="121.6"
         inkscape:export-ydpi="121.6">
        <path
           style="fill:#f9f9f9"
           d="m 159.49609,186.72656 c -4.7539,-10.51562 -5.02343,-17.69922 -4.85547,-25.65625 0.16797,-8.19531 -2.42578,-14.70312 -10.51953,-17.1289 -30.3125,-9.07032 -45.988278,-7.1836 -73.941402,-27.58203 0,0 0,16.82421 18.949218,27.10937 13.621094,7.35156 38.371094,10.55469 48.519534,12.64453 5.66406,1.21484 6.8125,5.26172 8.05859,10.21484 2.79688,10.99219 6.00391,18.07422 13.78906,20.39844"
           id="path33289" />
        <path
           style="fill:#f9f9f9;stroke-width:0.999974"
           d="m 145.02257,180.69275 c -6.57389,-1.01173 -20.63567,-1.11329 -20.63567,-1.11329 8.35542,4.00606 28.90571,13.29659 20.63567,1.11329 z"
           id="path33287" />
        <path
           style="fill:#f9f9f9"
           d="m 144.76172,177.01562 c 0.20312,-5.42578 -5.46094,-6.5039 -10.98828,-6.875 -3.30469,-0.20312 -6.61328,-0.40625 -8.46485,-0.53906 -7.75781,-0.53906 -15.61328,-1.65234 -15.61328,-1.65234 0,0 0.98047,4.85547 9.54297,6.74219 8.53125,1.88671 25.52344,2.32421 25.52344,2.32421 z"
           id="path33285" />
        <path
           style="fill:#f9f9f9"
           d="m 141.1875,167.47656 c 0,0 0.4375,-6.50781 -6.03516,-7.35156 -6.47265,-0.84375 -17.46484,-2.15625 -29.0625,-4.62109 -11.601559,-2.46094 -14.363278,-3.67188 -14.363278,-3.67188 0,0 0.167969,6.91016 16.148438,10.65234 15.94922,3.71094 33.3125,4.99219 33.3125,4.99219 z"
           id="path1156" />
      </g>
      <path
         fill="#ffffff"
         d="m 18,24 c -0.0907,0 -0.182034,0.0045 -0.272732,0.0135 -0.0907,0.009 -0.180747,0.02251 -0.270158,0.04052 -0.08941,0.01736 -0.178175,0.03988 -0.265655,0.06625 -0.08684,0.02637 -0.17303,0.05725 -0.257294,0.09198 -0.08426,0.03473 -0.166598,0.07398 -0.247002,0.117069 -0.0804,0.0431 -0.158237,0.08941 -0.234138,0.140225 -0.0759,0.05081 -0.149231,0.104848 -0.219986,0.162738 -0.07011,0.05789 -0.137652,0.118999 -0.201977,0.183966 -0.06497,0.06432 -0.126073,0.131863 -0.183963,0.202618 -0.05789,0.07011 -0.111924,0.143442 -0.16274,0.219344 -0.05081,0.07591 -0.09777,0.153732 -0.140225,0.234137 -0.04309,0.0804 -0.08233,0.162738 -0.117069,0.247002 -0.03473,0.08426 -0.0656,0.170457 -0.09198,0.257938 -0.02637,0.08684 -0.04889,0.175603 -0.06625,0.265011 -0.01801,0.08941 -0.03152,0.179464 -0.04053,0.27016 -0.009,0.0907 -0.0135,0.182035 -0.0135,0.273375 0,0.0907 0.0045,0.182035 0.0135,0.272731 0.009,0.0907 0.02251,0.180749 0.04053,0.270158 0.01736,0.08941 0.03988,0.178176 0.06625,0.265656 0.02637,0.08684 0.05725,0.17303 0.09198,0.257294 0.03473,0.08426 0.07397,0.166598 0.117069,0.247002 0.04246,0.0804 0.08941,0.158236 0.140225,0.234139 0.05082,0.0759 0.104847,0.149229 0.16274,0.219985 0.05789,0.07011 0.118998,0.137651 0.183963,0.201976 0.06433,0.06497 0.131864,0.126074 0.201977,0.183964 0.07076,0.05789 0.144085,0.111924 0.219986,0.16274 0.0759,0.05081 0.153734,0.09777 0.234138,0.140225 0.0804,0.0431 0.162738,0.08233 0.247002,0.117069 0.08426,0.03473 0.170456,0.0656 0.257294,0.09198 0.08748,0.02637 0.176246,0.04888 0.265655,0.06625 0.08941,0.01801 0.179463,0.03152 0.270158,0.04053 0.0907,0.009 0.182036,0.0135 0.272732,0.0135 0.09134,0 0.182679,-0.0045 0.273375,-0.0135 0.0907,-0.009 0.18075,-0.02251 0.270159,-0.04053 0.08941,-0.01736 0.178176,-0.03988 0.265013,-0.06625 0.08748,-0.02637 0.173673,-0.05725 0.257937,-0.09198 0.08427,-0.03474 0.166599,-0.07398 0.247003,-0.117069 0.0804,-0.04246 0.158234,-0.08941 0.234136,-0.140225 0.07591,-0.05082 0.14923,-0.104847 0.219342,-0.16274 0.07076,-0.05789 0.138298,-0.118998 0.202618,-0.183964 0.065,-0.06433 0.126078,-0.131862 0.183967,-0.201976 0.05785,-0.07075 0.111924,-0.144086 0.162735,-0.219985 0.05085,-0.07591 0.09713,-0.153734 0.140226,-0.234139 0.04308,-0.0804 0.08234,-0.162738 0.11707,-0.247002 0.03477,-0.08426 0.06562,-0.170456 0.09198,-0.257294 0.02639,-0.08748 0.04885,-0.176246 0.06624,-0.265656 0.018,-0.08941 0.03154,-0.179462 0.04054,-0.270158 0.009,-0.0907 0.01346,-0.182035 0.01346,-0.272731 0,-0.09134 -0.0046,-0.182679 -0.01346,-0.273375 -0.009,-0.0907 -0.02254,-0.18075 -0.04054,-0.27016 -0.01739,-0.08941 -0.03985,-0.178176 -0.06624,-0.265011 -0.02639,-0.08748 -0.05723,-0.173675 -0.09198,-0.257938 -0.03469,-0.08426 -0.07401,-0.166598 -0.11707,-0.247002 -0.04308,-0.08041 -0.08941,-0.158235 -0.140226,-0.234137 -0.05085,-0.07591 -0.104846,-0.149231 -0.162735,-0.219344 -0.05785,-0.07075 -0.119001,-0.138296 -0.183967,-0.202618 -0.06431,-0.06497 -0.131861,-0.126075 -0.202618,-0.183966 -0.07011,-0.05789 -0.14344,-0.111923 -0.219342,-0.162738 -0.07591,-0.05081 -0.153733,-0.09713 -0.234136,-0.140225 -0.0804,-0.0431 -0.162738,-0.08233 -0.247003,-0.117069 -0.08426,-0.03473 -0.170458,-0.06561 -0.257937,-0.09198 C 18.721707,24.0939 18.632943,24.07138 18.543534,24.05402 18.454124,24.03601 18.364071,24.0225 18.273375,24.0135 18.182679,24.004493 18.091339,24 18,24 Z m 0,3.714036 c -0.06047,0 -0.120927,-0.0058 -0.180748,-0.01801 -0.05982,-0.01158 -0.117713,-0.0296 -0.174318,-0.05275 -0.05596,-0.02316 -0.109992,-0.0521 -0.160164,-0.08555 -0.05082,-0.0341 -0.09777,-0.07269 -0.140869,-0.115783 -0.0431,-0.0431 -0.08169,-0.09005 -0.115783,-0.140869 -0.03345,-0.05017 -0.06239,-0.104204 -0.08555,-0.160164 -0.02316,-0.0566 -0.04116,-0.114498 -0.05275,-0.174318 -0.01222,-0.05982 -0.01801,-0.120285 -0.01801,-0.180747 0,-0.0611 0.0058,-0.121574 0.01801,-0.181395 0.01158,-0.05982 0.02959,-0.117711 0.05275,-0.174315 0.02315,-0.05596 0.0521,-0.109994 0.08555,-0.160167 0.0341,-0.05081 0.07269,-0.09777 0.115783,-0.140868 0.0431,-0.04309 0.09005,-0.08169 0.140869,-0.115782 0.05017,-0.03345 0.104204,-0.0624 0.160164,-0.08555 0.0566,-0.02316 0.114498,-0.04116 0.174318,-0.05275 0.05982,-0.01222 0.120285,-0.01801 0.180748,-0.01801 0.06111,0 0.121573,0.0058 0.181393,0.01801 0.05982,0.01158 0.117711,0.02959 0.174317,0.05275 0.05596,0.02316 0.109993,0.0521 0.160165,0.08555 0.05081,0.0341 0.09777,0.07269 0.140869,0.115782 0.0431,0.0431 0.08169,0.09005 0.115781,0.140868 0.03345,0.05017 0.0624,0.104206 0.08555,0.160167 0.02316,0.0566 0.04116,0.114495 0.05275,0.174315 0.01222,0.05982 0.01801,0.120286 0.01801,0.181395 0,0.06046 -0.0058,0.120926 -0.01801,0.180747 -0.01158,0.05982 -0.02959,0.117713 -0.05275,0.174318 -0.02315,0.05596 -0.0521,0.109991 -0.08555,0.160164 -0.0341,0.05082 -0.07268,0.09777 -0.115781,0.140869 -0.0431,0.0431 -0.09005,0.08169 -0.140869,0.115783 -0.05017,0.03345 -0.104205,0.06239 -0.160165,0.08555 -0.0566,0.02315 -0.114496,0.04116 -0.174317,0.05275 -0.05982,0.01222 -0.120285,0.01801 -0.181393,0.01801 z m 0,0"
         fill-opacity="1"
         fill-rule="nonzero"
         id="path1160"
         style="display:inline;fill:#f9f9f9;stroke-width:0.164667"
         inkscape:export-filename="/home/debian/Documents/GitHub/core/frontend-main/src/assets/logo-white.png"
         inkscape:export-xdpi="121.6"
         inkscape:export-ydpi="121.6" />
      <path
         fill="#ffffff"
         d="m 25.427428,24 c -0.09069,0 -0.182028,0.0045 -0.272727,0.0135 -0.0907,0.009 -0.180752,0.02251 -0.270158,0.04052 -0.08941,0.01736 -0.178175,0.03988 -0.265012,0.06625 -0.08748,0.02637 -0.173674,0.05725 -0.257934,0.09198 -0.08427,0.03473 -0.166605,0.07398 -0.247003,0.117069 -0.08041,0.0431 -0.158243,0.08941 -0.23414,0.140225 -0.07593,0.05081 -0.149234,0.104848 -0.219986,0.162738 -0.07008,0.05789 -0.137656,0.118999 -0.201976,0.183966 -0.065,0.06432 -0.126071,0.131863 -0.183967,0.202618 -0.05785,0.07011 -0.111924,0.143442 -0.162735,0.219344 -0.05077,0.07591 -0.09713,0.153732 -0.140226,0.234137 -0.04308,0.0804 -0.08234,0.162738 -0.11707,0.247002 -0.03477,0.08426 -0.06562,0.170457 -0.09198,0.257938 -0.02639,0.08684 -0.04893,0.175603 -0.06623,0.265011 -0.018,0.08941 -0.03154,0.179464 -0.04054,0.27016 -0.009,0.0907 -0.01346,0.182035 -0.01346,0.273375 0,0.0907 0.0046,0.182035 0.01346,0.272731 0.009,0.0907 0.02254,0.180749 0.04054,0.270158 0.01739,0.08941 0.03985,0.178176 0.06623,0.265656 0.02639,0.08684 0.05724,0.17303 0.09198,0.257294 0.03477,0.08426 0.074,0.166598 0.11707,0.247002 0.04308,0.0804 0.08941,0.158236 0.140226,0.234139 0.05085,0.0759 0.104846,0.149229 0.162735,0.219985 0.05793,0.07011 0.119001,0.137651 0.183967,0.201976 0.06431,0.06497 0.131863,0.126074 0.201976,0.183964 0.07077,0.05789 0.14408,0.111924 0.219986,0.16274 0.07593,0.05081 0.153734,0.09777 0.23414,0.140225 0.0804,0.0431 0.162735,0.08233 0.247003,0.117069 0.08426,0.03473 0.17045,0.0656 0.257934,0.09198 0.08684,0.02637 0.175605,0.04888 0.265012,0.06625 0.08941,0.01801 0.179459,0.03152 0.270158,0.04053 0.0907,0.009 0.182036,0.0135 0.272727,0.0135 0.09135,0 0.182683,-0.0045 0.273382,-0.0135 0.09069,-0.009 0.180744,-0.02251 0.270158,-0.04053 0.08941,-0.01736 0.178175,-0.03988 0.265012,-0.06625 0.08748,-0.02637 0.173674,-0.05725 0.257934,-0.09198 0.08427,-0.03474 0.166597,-0.07398 0.247003,-0.117069 0.08041,-0.04246 0.158235,-0.08941 0.23414,-0.140225 0.07593,-0.05082 0.149226,-0.104847 0.219985,-0.16274 0.07008,-0.05789 0.137649,-0.118998 0.201977,-0.183964 0.065,-0.06433 0.126071,-0.131862 0.183967,-0.201976 0.05785,-0.07075 0.111916,-0.144086 0.162735,-0.219985 0.05077,-0.07591 0.09713,-0.153734 0.140226,-0.234139 0.04308,-0.0804 0.08233,-0.162738 0.11707,-0.247002 0.03477,-0.08426 0.06562,-0.170456 0.09198,-0.257294 0.02639,-0.08748 0.04885,-0.176246 0.06623,-0.265656 0.018,-0.08941 0.03154,-0.179462 0.04054,-0.270158 0.009,-0.0907 0.01346,-0.182035 0.01346,-0.272731 0,-0.09134 -0.0046,-0.182679 -0.01346,-0.273375 -0.009,-0.0907 -0.02254,-0.18075 -0.04054,-0.27016 -0.01739,-0.08941 -0.03985,-0.178176 -0.06623,-0.265011 -0.02639,-0.08748 -0.05724,-0.173675 -0.09198,-0.257938 -0.03469,-0.08426 -0.07401,-0.166598 -0.11707,-0.247002 -0.04308,-0.08041 -0.08941,-0.158235 -0.140226,-0.234137 -0.05085,-0.07591 -0.104846,-0.149231 -0.162735,-0.219344 -0.05793,-0.07075 -0.119001,-0.138296 -0.183967,-0.202618 -0.06431,-0.06497 -0.131864,-0.126075 -0.202623,-0.183966 -0.07008,-0.05789 -0.143441,-0.111923 -0.219339,-0.162738 -0.07593,-0.05081 -0.153734,-0.09713 -0.23414,-0.140225 -0.08041,-0.0431 -0.162735,-0.08233 -0.247003,-0.117069 C 26.409654,24.17752 26.323456,24.14664 26.23598,24.12027 26.14914,24.0939 26.060375,24.07138 25.970968,24.05402 25.881558,24.03601 25.791501,24.0225 25.70081,24.0135 25.610111,24.004493 25.518774,24 25.427428,24 Z m 0,3.714036 c -0.06047,0 -0.120924,-0.0058 -0.180744,-0.01801 -0.05985,-0.01158 -0.117716,-0.0296 -0.17432,-0.05275 -0.05593,-0.02316 -0.109993,-0.0521 -0.160166,-0.08555 -0.05085,-0.0341 -0.09777,-0.07269 -0.140864,-0.115783 -0.04308,-0.0431 -0.08169,-0.09005 -0.115785,-0.140869 -0.03346,-0.05017 -0.06239,-0.104204 -0.08555,-0.160164 -0.02315,-0.0566 -0.04116,-0.114498 -0.05277,-0.174318 -0.01223,-0.05982 -0.018,-0.120285 -0.018,-0.180747 0,-0.0611 0.0054,-0.121574 0.018,-0.181395 0.01162,-0.05982 0.02962,-0.117711 0.05277,-0.174315 0.02316,-0.05596 0.05208,-0.109994 0.08555,-0.160167 0.03408,-0.05081 0.0727,-0.09777 0.115785,-0.140868 0.04308,-0.04309 0.09005,-0.08169 0.140864,-0.115782 0.05016,-0.03345 0.104208,-0.0624 0.160166,-0.08555 0.05662,-0.02316 0.114501,-0.04116 0.17432,-0.05275 0.05985,-0.01222 0.120286,-0.01801 0.180744,-0.01801 0.06108,0 0.121579,0.0058 0.181398,0.01801 0.05985,0.01158 0.117709,0.02959 0.174313,0.05275 0.05593,0.02316 0.109993,0.0521 0.160166,0.08555 0.05085,0.0341 0.09778,0.07269 0.140872,0.115782 0.04308,0.0431 0.08169,0.09005 0.115777,0.140868 0.03346,0.05017 0.06239,0.104206 0.08555,0.160167 0.02316,0.0566 0.04116,0.114495 0.05277,0.174315 0.01223,0.05982 0.018,0.120286 0.018,0.181395 0,0.06046 -0.0054,0.120926 -0.018,0.180747 -0.01162,0.05982 -0.02962,0.117713 -0.05277,0.174318 -0.02316,0.05596 -0.05208,0.109991 -0.08555,0.160164 -0.03408,0.05082 -0.0727,0.09777 -0.115777,0.140869 -0.04308,0.0431 -0.09005,0.08169 -0.140872,0.115783 -0.05016,0.03345 -0.1042,0.06239 -0.160166,0.08555 -0.05662,0.02315 -0.114493,0.04116 -0.174313,0.05275 -0.05985,0.01222 -0.120285,0.01801 -0.181398,0.01801 z m 0,0"
         fill-opacity="1"
         fill-rule="nonzero"
         id="path1162"
         style="display:inline;fill:#f9f9f9;stroke-width:0.164667"
         inkscape:export-filename="/home/debian/Documents/GitHub/core/frontend-main/src/assets/logo-white.png"
         inkscape:export-xdpi="121.6"
         inkscape:export-ydpi="121.6" />
    </g>
  </g>
  <g
     inkscape:groupmode="layer"
     id="layer2"
     inkscape:label="Layer 2"
     style="display:inline" />
  <g
     inkscape:groupmode="layer"
     id="layer3"
     inkscape:label="Layer 3"
     style="display:inline" />
  <g
     inkscape:groupmode="layer"
     id="layer4"
     inkscape:label="limit"
     style="display:none">
    <rect
       style="display:inline;opacity:0.557195;fill:#ff5e00;fill-opacity:1;stroke:#0069f5;stroke-width:0;stroke-linecap:round;stroke-linejoin:round;paint-order:stroke fill markers"
       id="rect1592-1"
       width="15"
       height="14.999998"
       x="1.8808064e-06"
       y="14.999999" />
    <rect
       style="display:inline;opacity:0.557195;fill:#ff0000;stroke:#0069f5;stroke-width:0;stroke-linecap:round;stroke-linejoin:round;paint-order:stroke fill markers"
       id="rect1592"
       width="120"
       height="14.999998"
       x="1.8808064e-06"
       y="6.7562792e-07" />
  </g>
</svg>
