<?xml version="1.0" encoding="UTF-8" standalone="no"?>
<!-- Created with Inkscape (http://www.inkscape.org/) -->

<svg
   width="120"
   height="50"
   viewBox="0 0 120 50"
   version="1.1"
   id="SVGRoot"
   sodipodi:docname="logo-white.svg"
   inkscape:version="1.1.2 (0a00cf5339, 2022-02-04)"
   inkscape:export-filename="/home/debian/Documents/GitHub/core/frontend-main/src/assets/logo-white.png"
   inkscape:export-xdpi="121.6"
   inkscape:export-ydpi="121.6"
   xmlns:inkscape="http://www.inkscape.org/namespaces/inkscape"
   xmlns:sodipodi="http://sodipodi.sourceforge.net/DTD/sodipodi-0.dtd"
   xmlns="http://www.w3.org/2000/svg"
   xmlns:svg="http://www.w3.org/2000/svg">
  <sodipodi:namedview
     id="namedview137"
     pagecolor="#ffffff"
     bordercolor="#000000"
     borderopacity="0.25"
     inkscape:showpageshadow="2"
     inkscape:pageopacity="0.0"
     inkscape:pagecheckerboard="0"
     inkscape:deskcolor="#d1d1d1"
     inkscape:document-units="px"
     showgrid="false"
     inkscape:zoom="4"
     inkscape:cx="31"
     inkscape:cy="17.25"
     inkscape:window-width="1920"
     inkscape:window-height="1048"
     inkscape:window-x="0"
     inkscape:window-y="0"
     inkscape:window-maximized="1"
     inkscape:current-layer="layer1"
     inkscape:pageshadow="2"
     showguides="false"
     inkscape:lockguides="false" />
  <defs
     id="defs132">
    <rect
       x="11.236365"
       y="7.2846913"
       width="69.72084"
       height="10.069939"
       id="rect3" />
    <rect
       x="12.94258"
       y="23.094154"
       width="88.413605"
       height="18.186064"
       id="rect1" />
    <rect
       x="-1.4777668"
       y="42.333267"
       width="127.8846"
       height="23.821753"
       id="rect3454" />
    <clipPath
       id="b983e3c625">
      <path
         d="m 142,147.30078 h 115 v 72.75 H 142 Z m 0,0"
         clip-rule="nonzero"
         id="path1144" />
    </clipPath>
    <clipPath
       id="0e8c13dd3a">
      <path
         d="m 70.261719,116.35938 h 89.156251 v 70.49999 H 70.261719 Z m 0,0"
         clip-rule="nonzero"
         id="path1147" />
    </clipPath>
    <clipPath
       id="b983e3c625-3">
      <path
         d="m 142,147.30078 h 115 v 72.75 H 142 Z m 0,0"
         clip-rule="nonzero"
         id="path1144-6" />
    </clipPath>
    <clipPath
       id="0e8c13dd3a-7">
      <path
         d="m 70.261719,116.35938 h 89.156251 v 70.49999 H 70.261719 Z m 0,0"
         clip-rule="nonzero"
         id="path1147-5" />
    </clipPath>
    <clipPath
       id="b983e3c625-3-1">
      <path
         d="m 142,147.30078 h 115 v 72.75 H 142 Z m 0,0"
         clip-rule="nonzero"
         id="path1144-6-2" />
    </clipPath>
  </defs>
  <g
     inkscape:label="Layer 1"
     inkscape:groupmode="layer"
     id="layer1"
     style="display:inline">
    <text
       xml:space="preserve"
       style="font-style:normal;font-variant:normal;font-weight:normal;font-stretch:normal;font-size:19.795px;line-height:0;font-family:Manrope;-inkscape-font-specification:Manrope;letter-spacing:-0.742315px;fill:#0866ff;fill-opacity:1;stroke:none;stroke-width:0.2;stroke-linecap:round;stroke-linejoin:round;stroke-miterlimit:4;stroke-dasharray:none;stroke-opacity:1;paint-order:stroke markers fill"
       x="-0.78723419"
       y="32.039463"
       id="text2"
       inkscape:export-filename="/home/debian/Documents/GitHub/core/frontend-main/src/assets/logo-white.png"
       inkscape:export-xdpi="121.6"
       inkscape:export-ydpi="121.6"><tspan
         sodipodi:role="line"
         id="tspan2"
         x="-0.78723419"
         y="32.039463"
         style="font-style:normal;font-variant:normal;font-weight:600;font-stretch:normal;font-size:21.2766px;font-family:'IBM Plex Sans';-inkscape-font-specification:'IBM Plex Sans Semi-Bold';word-spacing:0px;fill:#0866ff;fill-opacity:1;stroke:#0866ff;stroke-width:0.2;stroke-linecap:round;stroke-linejoin:round;stroke-miterlimit:4;stroke-dasharray:none;stroke-opacity:1;paint-order:stroke markers fill">blackdays</tspan></text>
    <path
       fill="#ffffff"
       d="m 103.79155,30.359548 c -0.0977,0 -0.19605,0.0049 -0.29373,0.01454 -0.0977,0.0097 -0.19466,0.02424 -0.29096,0.04365 -0.0963,0.0187 -0.19189,0.04295 -0.28611,0.07135 -0.0935,0.0284 -0.18635,0.06165 -0.27711,0.09906 -0.0907,0.0374 -0.17942,0.07968 -0.26601,0.126083 -0.0866,0.04641 -0.17043,0.0963 -0.25217,0.151023 -0.0818,0.05472 -0.16072,0.11292 -0.23692,0.175268 -0.0755,0.06235 -0.14826,0.128162 -0.21753,0.198131 -0.0699,0.06926 -0.13578,0.142016 -0.19813,0.218219 -0.0624,0.07551 -0.12054,0.154487 -0.17528,0.236234 -0.0547,0.08176 -0.1053,0.165568 -0.15101,0.252164 -0.0464,0.08658 -0.0887,0.17527 -0.12609,0.266022 -0.0374,0.09074 -0.0707,0.183581 -0.0991,0.277798 -0.0284,0.09353 -0.0527,0.189124 -0.0713,0.285417 -0.0194,0.0963 -0.0339,0.193282 -0.0436,0.290962 -0.01,0.09768 -0.0145,0.19605 -0.0145,0.294424 0,0.09768 0.005,0.196052 0.0145,0.293732 0.01,0.09768 0.0242,0.194665 0.0436,0.290959 0.0187,0.0963 0.043,0.191895 0.0713,0.286111 0.0284,0.09352 0.0616,0.186353 0.0991,0.277105 0.0374,0.09074 0.0796,0.179426 0.12609,0.266021 0.0457,0.08658 0.0963,0.170419 0.15101,0.252168 0.0547,0.08174 0.11293,0.160718 0.17528,0.236923 0.0624,0.07551 0.12816,0.148249 0.19813,0.217528 0.0693,0.06997 0.14201,0.135781 0.21753,0.198128 0.0762,0.06235 0.15517,0.120542 0.23692,0.175271 0.0818,0.05472 0.16557,0.105299 0.25217,0.151021 0.0866,0.04641 0.17526,0.08867 0.26601,0.126084 0.0907,0.0374 0.18358,0.07064 0.27711,0.09906 0.0942,0.0284 0.18981,0.05265 0.28611,0.07135 0.0963,0.0194 0.19328,0.03395 0.29096,0.04366 0.0977,0.0097 0.19606,0.01453 0.29373,0.01453 0.0984,0 0.19674,-0.0049 0.29443,-0.01454 0.0977,-0.0097 0.19466,-0.02424 0.29095,-0.04365 0.0963,-0.0187 0.1919,-0.04295 0.28542,-0.07135 0.0942,-0.0284 0.18705,-0.06165 0.2778,-0.09906 0.0908,-0.03741 0.17943,-0.07968 0.26603,-0.126083 0.0866,-0.04573 0.17041,-0.0963 0.25216,-0.151022 0.0818,-0.05473 0.16072,-0.11292 0.23623,-0.17527 0.0762,-0.06235 0.14895,-0.128162 0.21822,-0.198129 0.07,-0.06929 0.13579,-0.142016 0.19813,-0.217528 0.0623,-0.07619 0.12055,-0.155181 0.17527,-0.236923 0.0548,-0.08176 0.1046,-0.165572 0.15102,-0.252168 0.0464,-0.08659 0.0887,-0.175269 0.12609,-0.26602 0.0375,-0.09075 0.0707,-0.183582 0.0991,-0.277106 0.0284,-0.09422 0.0526,-0.189817 0.0713,-0.286111 0.0194,-0.0963 0.0339,-0.193281 0.0436,-0.290959 0.01,-0.09768 0.0145,-0.196053 0.0145,-0.293732 0,-0.09837 -0.005,-0.196744 -0.0145,-0.294424 -0.01,-0.09769 -0.0242,-0.194668 -0.0436,-0.290962 -0.0187,-0.0963 -0.0429,-0.191895 -0.0713,-0.285417 -0.0284,-0.09421 -0.0616,-0.187047 -0.0991,-0.277798 -0.0374,-0.09074 -0.0797,-0.179426 -0.12609,-0.266021 -0.0464,-0.08661 -0.0963,-0.170419 -0.15102,-0.252165 -0.0547,-0.08175 -0.11292,-0.160722 -0.17527,-0.236234 -0.0623,-0.07619 -0.12816,-0.148944 -0.19813,-0.218219 -0.0693,-0.06997 -0.14201,-0.135782 -0.21822,-0.198131 -0.0755,-0.06234 -0.15449,-0.120541 -0.23623,-0.175268 -0.0818,-0.05472 -0.16557,-0.104609 -0.25216,-0.151023 -0.0866,-0.04641 -0.17527,-0.08867 -0.26603,-0.126083 -0.0907,-0.0374 -0.18358,-0.07065 -0.2778,-0.09906 -0.0935,-0.0284 -0.18911,-0.05265 -0.28542,-0.07135 -0.0963,-0.0194 -0.19327,-0.03395 -0.29095,-0.04365 -0.0977,-0.0097 -0.19606,-0.01454 -0.29443,-0.01454 z m 0,4.000011 c -0.0652,0 -0.13023,-0.0062 -0.19466,-0.0194 -0.0644,-0.01247 -0.12678,-0.03187 -0.18774,-0.05681 -0.0602,-0.02493 -0.11847,-0.05611 -0.1725,-0.09214 -0.0547,-0.03673 -0.10529,-0.07829 -0.15171,-0.124699 -0.0464,-0.04641 -0.088,-0.09698 -0.1247,-0.151717 -0.036,-0.05403 -0.0672,-0.112226 -0.0921,-0.172495 -0.0249,-0.06095 -0.0443,-0.123314 -0.0568,-0.187741 -0.0131,-0.06442 -0.0194,-0.129546 -0.0194,-0.194663 0,-0.0658 0.007,-0.130936 0.0194,-0.195362 0.0125,-0.06442 0.0319,-0.126775 0.0568,-0.187737 0.0249,-0.06026 0.0561,-0.118464 0.0921,-0.1725 0.0367,-0.05472 0.0783,-0.105298 0.1247,-0.151716 0.0464,-0.0464 0.097,-0.08797 0.15171,-0.124695 0.054,-0.03602 0.11223,-0.06721 0.1725,-0.09213 0.061,-0.02493 0.12331,-0.04433 0.18774,-0.05681 0.0644,-0.01316 0.12955,-0.01939 0.19466,-0.01939 0.0658,0 0.13093,0.0062 0.19536,0.01939 0.0644,0.01248 0.12678,0.03186 0.18774,0.05681 0.0602,0.02493 0.11847,0.05611 0.1725,0.09213 0.0547,0.03673 0.10529,0.07829 0.15172,0.124695 0.0464,0.04641 0.088,0.09699 0.12469,0.151716 0.036,0.05404 0.0672,0.112229 0.0921,0.1725 0.0249,0.06095 0.0443,0.123309 0.0568,0.187737 0.0132,0.06442 0.0194,0.129548 0.0194,0.195362 0,0.06511 -0.007,0.130237 -0.0194,0.194663 -0.0125,0.06442 -0.0319,0.126778 -0.0568,0.187741 -0.0249,0.06026 -0.0561,0.11846 -0.0921,0.172495 -0.0367,0.05473 -0.0782,0.105299 -0.12469,0.151717 -0.0464,0.04641 -0.097,0.08799 -0.15172,0.124699 -0.0541,0.03602 -0.11223,0.06719 -0.1725,0.09214 -0.061,0.02493 -0.12331,0.04433 -0.18774,0.05681 -0.0644,0.01316 -0.12954,0.0194 -0.19536,0.0194 z m 0,0"
       fill-opacity="1"
       fill-rule="nonzero"
       id="path1160"
       style="display:inline;fill:#0866ff;fill-opacity:1;stroke-width:0.177347"
       inkscape:export-filename="/home/debian/Documents/GitHub/core/frontend-main/src/assets/logo-white.png"
       inkscape:export-xdpi="121.6"
       inkscape:export-ydpi="121.6" />
    <path
       fill="#ffffff"
       d="m 111.79088,30.359548 c -0.0977,0 -0.19605,0.0049 -0.29373,0.01454 -0.0977,0.0097 -0.19467,0.02424 -0.29096,0.04365 -0.0963,0.0187 -0.19189,0.04295 -0.28542,0.07135 -0.0942,0.0284 -0.18704,0.06165 -0.27779,0.09906 -0.0908,0.0374 -0.17943,0.07968 -0.26602,0.126083 -0.0866,0.04641 -0.17043,0.0963 -0.25217,0.151023 -0.0818,0.05472 -0.16072,0.11292 -0.23692,0.175268 -0.0754,0.06235 -0.14826,0.128162 -0.21753,0.198131 -0.07,0.06926 -0.13578,0.142016 -0.19813,0.218219 -0.0623,0.07551 -0.12055,0.154487 -0.17526,0.236234 -0.0546,0.08176 -0.10461,0.165568 -0.15103,0.252164 -0.0463,0.08658 -0.0887,0.17527 -0.12608,0.266022 -0.0375,0.09074 -0.0707,0.183581 -0.0991,0.277798 -0.0284,0.09353 -0.0527,0.189124 -0.0713,0.285417 -0.0194,0.0963 -0.0339,0.193282 -0.0436,0.290962 -0.01,0.09768 -0.0145,0.19605 -0.0145,0.294424 0,0.09768 0.005,0.196052 0.0145,0.293732 0.01,0.09768 0.0242,0.194665 0.0436,0.290959 0.0187,0.0963 0.0429,0.191895 0.0713,0.286111 0.0284,0.09352 0.0616,0.186353 0.0991,0.277105 0.0375,0.09074 0.0797,0.179426 0.12608,0.266021 0.0464,0.08658 0.0963,0.170419 0.15103,0.252168 0.0547,0.08174 0.11291,0.160718 0.17526,0.236923 0.0624,0.07551 0.12816,0.148249 0.19813,0.217528 0.0693,0.06997 0.14201,0.135781 0.21753,0.198128 0.0763,0.06235 0.15517,0.120542 0.23692,0.175271 0.0818,0.05472 0.16557,0.105299 0.25217,0.151021 0.0866,0.04641 0.17526,0.08867 0.26602,0.126084 0.0907,0.0374 0.18357,0.07064 0.27779,0.09906 0.0935,0.0284 0.18913,0.05265 0.28542,0.07135 0.0963,0.0194 0.19328,0.03395 0.29096,0.04366 0.0977,0.0097 0.19606,0.01454 0.29373,0.01454 0.0984,0 0.19674,-0.0049 0.29443,-0.01454 0.0977,-0.0097 0.19466,-0.02424 0.29096,-0.04366 0.0963,-0.0187 0.1919,-0.04295 0.28542,-0.07135 0.0942,-0.0284 0.18705,-0.06165 0.27779,-0.09906 0.0908,-0.03741 0.17942,-0.07968 0.26602,-0.126084 0.0866,-0.04573 0.17042,-0.0963 0.25218,-0.151021 0.0818,-0.05473 0.16071,-0.112921 0.23692,-0.175271 0.0754,-0.06234 0.14824,-0.128161 0.21753,-0.198128 0.07,-0.06929 0.13577,-0.142016 0.19813,-0.217528 0.0623,-0.07619 0.12053,-0.155181 0.17526,-0.236923 0.0546,-0.08176 0.10461,-0.165573 0.15103,-0.252168 0.0463,-0.08659 0.0887,-0.175269 0.12608,-0.266021 0.0375,-0.09075 0.0707,-0.183581 0.0991,-0.277105 0.0284,-0.09422 0.0526,-0.189818 0.0713,-0.286111 0.0194,-0.0963 0.0339,-0.193281 0.0436,-0.290959 0.01,-0.09768 0.0145,-0.196053 0.0145,-0.293732 0,-0.09837 -0.005,-0.196744 -0.0145,-0.294424 -0.01,-0.09769 -0.0243,-0.194668 -0.0436,-0.290962 -0.0187,-0.0963 -0.0429,-0.191895 -0.0713,-0.285417 -0.0284,-0.09421 -0.0616,-0.187048 -0.0991,-0.277798 -0.0374,-0.09074 -0.0797,-0.179426 -0.12608,-0.266022 -0.0464,-0.08661 -0.0963,-0.170418 -0.15103,-0.252164 -0.0547,-0.08175 -0.11292,-0.160722 -0.17526,-0.236234 -0.0624,-0.07619 -0.12816,-0.148944 -0.19813,-0.218219 -0.0693,-0.06997 -0.14202,-0.135782 -0.21823,-0.198131 -0.0754,-0.06234 -0.15449,-0.120541 -0.23622,-0.175268 -0.0818,-0.05472 -0.16558,-0.104609 -0.25218,-0.151023 -0.0866,-0.04641 -0.17526,-0.08867 -0.26602,-0.126083 -0.0907,-0.0374 -0.18358,-0.07065 -0.27779,-0.09906 -0.0935,-0.0284 -0.18913,-0.05265 -0.28542,-0.07135 -0.0963,-0.0194 -0.19328,-0.03395 -0.29096,-0.04365 -0.0977,-0.0097 -0.19605,-0.01454 -0.29443,-0.01454 z m 0,4.000011 c -0.0651,0 -0.13023,-0.0062 -0.19467,-0.0194 -0.0644,-0.01247 -0.12677,-0.03187 -0.18773,-0.05681 -0.0602,-0.02493 -0.11847,-0.05611 -0.1725,-0.09214 -0.0547,-0.03673 -0.10531,-0.07829 -0.15171,-0.124699 -0.0464,-0.04641 -0.088,-0.09698 -0.12471,-0.151717 -0.036,-0.05403 -0.0672,-0.112226 -0.0921,-0.172495 -0.0249,-0.06095 -0.0443,-0.123314 -0.0569,-0.187741 -0.0132,-0.06442 -0.0194,-0.129546 -0.0194,-0.194663 0,-0.0658 0.006,-0.130936 0.0194,-0.195362 0.0125,-0.06442 0.0319,-0.126775 0.0569,-0.187737 0.025,-0.06026 0.0561,-0.118464 0.0921,-0.1725 0.0367,-0.05472 0.0783,-0.105298 0.12471,-0.151716 0.0464,-0.0464 0.097,-0.08797 0.15171,-0.124695 0.054,-0.03602 0.11222,-0.06721 0.1725,-0.09213 0.061,-0.02493 0.12331,-0.04433 0.18773,-0.05681 0.0644,-0.01316 0.12956,-0.01939 0.19467,-0.01939 0.0658,0 0.13094,0.0062 0.19536,0.01939 0.0644,0.01248 0.12678,0.03186 0.18774,0.05681 0.0602,0.02493 0.11846,0.05611 0.17249,0.09213 0.0547,0.03673 0.10532,0.07829 0.15173,0.124695 0.0464,0.04641 0.088,0.09699 0.12468,0.151716 0.036,0.05404 0.0672,0.112229 0.0921,0.1725 0.0249,0.06095 0.0443,0.123309 0.0569,0.187737 0.0131,0.06442 0.0194,0.129548 0.0194,0.195362 0,0.06511 -0.006,0.130237 -0.0194,0.194663 -0.0125,0.06442 -0.0319,0.126778 -0.0569,0.187741 -0.0249,0.06026 -0.0561,0.11846 -0.0921,0.172495 -0.0367,0.05473 -0.0783,0.105299 -0.12468,0.151717 -0.0464,0.04641 -0.097,0.08799 -0.15173,0.124699 -0.054,0.03602 -0.11222,0.06719 -0.17249,0.09214 -0.061,0.02493 -0.12331,0.04433 -0.18774,0.05681 -0.0644,0.01316 -0.12954,0.0194 -0.19536,0.0194 z m 0,0"
       fill-opacity="1"
       fill-rule="nonzero"
       id="path1162"
       style="display:inline;fill:#0866ff;fill-opacity:1;stroke-width:0.177347"
       inkscape:export-filename="/home/debian/Documents/GitHub/core/frontend-main/src/assets/logo-white.png"
       inkscape:export-xdpi="121.6"
       inkscape:export-ydpi="121.6" />
    <path
       style="display:inline;fill:#0866ff;fill-opacity:1;stroke:none;stroke-width:0.228024;stroke-opacity:1"
       d="m 100.79177,28.359548 c 1.0875,-2.39015 1.14916,-4.022948 1.11073,-5.831543 -0.0384,-1.862754 0.5549,-3.341948 2.40641,-3.893315 7.11073,-0.746879 12.17244,0.490927 17.61561,-2.737985 0,0 -0.95809,2.335306 -4.70035,3.635676 -3.9716,1.218105 -9.33847,1.455449 -11.66,1.930458 -1.29568,0.27613 -1.333,1.134422 -1.61806,2.260241 -0.6398,2.498473 -1.37343,4.108184 -3.15434,4.636468"
       id="path33289-7"
       sodipodi:nodetypes="cccccccc" />
    <path
       style="display:inline;fill:#0866ff;fill-opacity:1;stroke:none;stroke-width:0.26242;stroke-opacity:1"
       d="m 104.37712,26.988091 c 1.99183,-0.22996 6.25241,-0.253046 6.25241,-0.253046 -2.53161,0.910559 -8.75816,3.022252 -6.25241,0.253046 z"
       id="path33287-0" />
    <path
       style="display:inline;fill:#0866ff;fill-opacity:1;stroke:none;stroke-width:0.262428;stroke-opacity:1"
       d="m 104.45615,26.152297 c -0.0614,-1.233254 1.65462,-1.478304 3.32935,-1.562654 1.00128,-0.04617 2.00375,-0.09233 2.56478,-0.12253 2.35055,-0.12253 4.73069,-0.375567 4.73069,-0.375567 0,0 -0.29708,1.103624 -2.89144,1.532465 -2.58491,0.42884 -7.73338,0.528283 -7.73338,0.528283 z"
       id="path33285-9" />
    <path
       style="display:inline;fill:#0866ff;fill-opacity:1;stroke:none;stroke-width:0.262428;stroke-opacity:1"
       d="m 105.53911,23.984113 c 0,0 -0.13254,-1.479193 1.8286,-1.670972 1.96115,-0.19178 4.61677,-0.519007 8.13078,-1.079253 3.51516,-0.559359 4.93572,-1.599725 4.93572,-1.599725 0,0 0.0402,2.364672 -4.8017,3.215252 -4.83249,0.843477 -10.0934,1.134698 -10.0934,1.134698 z"
       id="path1156-3"
       sodipodi:nodetypes="cscccc" />
  </g>
  <g
     inkscape:groupmode="layer"
     id="layer2"
     inkscape:label="Layer 2"
     style="display:inline" />
  <g
     inkscape:groupmode="layer"
     id="layer3"
     inkscape:label="Layer 3"
     style="display:inline" />
  <g
     inkscape:groupmode="layer"
     id="layer4"
     inkscape:label="limit"
     style="display:none">
    <rect
       style="display:inline;opacity:0.557195;fill:#ff5e00;fill-opacity:1;stroke:#0069f5;stroke-width:0;stroke-linecap:round;stroke-linejoin:round;paint-order:stroke fill markers"
       id="rect1592-1"
       width="15"
       height="14.999998"
       x="1.8808064e-06"
       y="14.999999" />
    <rect
       style="display:inline;opacity:0.557195;fill:#ff0000;stroke:#0069f5;stroke-width:0;stroke-linecap:round;stroke-linejoin:round;paint-order:stroke fill markers"
       id="rect1592"
       width="120"
       height="14.999998"
       x="1.8808064e-06"
       y="6.7562792e-07" />
  </g>
</svg>
