<?xml version="1.0" encoding="UTF-8" standalone="no"?>
<!-- Created with Inkscape (http://www.inkscape.org/) -->

<svg
   width="175"
   height="48"
   viewBox="0 0 46.302054 12.7"
   version="1.1"
   id="svg5"
   inkscape:version="1.1.2 (0a00cf5339, 2022-02-04)"
   sodipodi:docname="logo.svg"
   xmlns:inkscape="http://www.inkscape.org/namespaces/inkscape"
   xmlns:sodipodi="http://sodipodi.sourceforge.net/DTD/sodipodi-0.dtd"
   xmlns="http://www.w3.org/2000/svg"
   xmlns:svg="http://www.w3.org/2000/svg">
  <sodipodi:namedview
     id="namedview7"
     pagecolor="#ffffff"
     bordercolor="#666666"
     borderopacity="1.0"
     inkscape:pageshadow="2"
     inkscape:pageopacity="0.0"
     inkscape:pagecheckerboard="0"
     inkscape:document-units="mm"
     showgrid="false"
     units="px"
     height="48px"
     inkscape:zoom="2.9647587"
     inkscape:cx="87.190907"
     inkscape:cy="-10.456163"
     inkscape:window-width="1488"
     inkscape:window-height="778"
     inkscape:window-x="330"
     inkscape:window-y="216"
     inkscape:window-maximized="0"
     inkscape:current-layer="layer1" />
  <defs
     id="defs2" />
  <g
     inkscape:label="Layer 1"
     inkscape:groupmode="layer"
     id="layer1">
    <path
       style="fill:#ff2e4d;fill-opacity:1;stroke:#ff2e4d;stroke-width:0.079375;stroke-linecap:round;stroke-linejoin:round;stroke-miterlimit:4;stroke-dasharray:none;stroke-opacity:1;paint-order:markers stroke fill"
       d="M 2.7896826,12.595184 C 2.7632092,12.581371 2.466261,12.394835 2.1297906,12.180682 1.5414542,11.806229 0.91620626,11.41674 0.34332865,11.067856 0.10339069,10.921726 0.06852014,10.895848 0.03869683,10.841779 -0.01698275,10.740854 -0.01456795,10.642105 0.05636564,10.117646 0.13574606,9.5307004 0.25406145,8.5666277 0.33590536,7.8397721 0.37063678,7.5313532 0.4145206,7.1590761 0.43342165,7.0124986 0.4523227,6.8659111 0.48996579,6.5551568 0.5170553,6.3219147 0.54414482,6.0886826 0.60358076,5.5850223 0.64913606,5.2026686 0.69468937,4.820315 0.7602448,4.2603392 0.79481424,3.9582802 0.82938666,3.6562212 0.86407833,3.3859024 0.87190905,3.3575707 0.89010453,3.2917847 0.94439287,3.2273204 1.0097565,3.1939802 1.0584401,3.1691366 1.4715045,3.1006675 2.3592048,2.9704669 2.523617,2.9463189 2.66011,2.9247546 2.6625238,2.922469 2.6649088,2.9204815 2.6725905,2.7834936 2.6795268,2.6187007 2.7020451,2.0839959 2.744011,1.8346849 2.874302,1.461593 3.0034254,1.0918201 3.264872,0.6951167 3.5295989,0.46727064 3.6587521,0.35611023 3.8711653,0.21695599 4.0086481,0.15343575 4.2502466,0.04180827 4.6348898,-0.02165234 4.9001912,0.00634148 5.2144385,0.0395326 5.5499986,0.17917377 5.7431421,0.35721329 l 0.060142,0.055451 0.1653921,0.005962 c 0.4821367,0.0164962 0.9465161,0.28252196 1.2273934,0.70318461 0.1021303,0.1529573 0.2193486,0.3906713 0.2710313,0.5496408 0.043188,0.132844 0.1409649,0.5516681 0.1547948,0.663077 l 0.00984,0.079102 0.0715,0.015801 c 0.039323,0.00894 0.3248913,0.068072 0.6345972,0.1319496 1.1460305,0.2364618 1.0920542,0.2230264 1.1657604,0.2900744 0.060738,0.055252 0.074461,0.1028428 0.086436,0.2997933 0.00626,0.1037769 0.024496,0.313815 0.040416,0.4667624 0.01592,0.1529375 0.05086,0.4908012 0.077641,0.7507949 0.026781,0.2600037 0.076469,0.7417717 0.110428,1.0705923 0.033956,0.3288206 0.087151,0.845002 0.1182081,1.147061 0.031065,0.302059 0.075087,0.7212508 0.097844,0.9315474 0.04382,0.4050607 0.133569,1.2722332 0.215114,2.0786083 0.02707,0.2676555 0.05869,0.5636727 0.07029,0.6578297 0.02934,0.238459 0.02924,0.333531 -4.73e-4,0.392212 -0.03372,0.06658 -0.07459,0.108914 -0.135287,0.140038 -0.07024,0.03607 -1.0069995,0.275198 -4.3746553,1.116911 -1.5779263,0.394398 -2.8920718,0.717077 -2.920323,0.717077 -0.028252,0 -0.073021,-0.01133 -0.099493,-0.02514 z m 1.4395731,-0.877239 c 2.5132549,-0.61971 5.5079907,-1.370843 5.524772,-1.385709 0.00278,-0.002 -0.011289,-0.165896 -0.031174,-0.3632544 C 9.7029691,9.771634 9.6708015,9.4380932 9.6513837,9.2278066 9.6319659,9.0175101 9.5978009,8.6921577 9.5754814,8.5048068 9.5531519,8.3174559 9.5158964,7.9702112 9.4926726,7.7331531 9.4694487,7.4960951 9.4220272,7.0174573 9.3872769,6.6695171 9.3525256,6.3215669 9.302401,5.8085257 9.2758929,5.5294024 9.2493797,5.2502889 9.2054959,4.8123153 9.1783766,4.5561475 9.1512573,4.2999697 9.113475,3.9342414 9.094415,3.7434124 9.0753549,3.5525933 9.0571396,3.3938325 9.0539198,3.3906227 c -0.00318,-0.00298 -0.1578297,0.023452 -0.3435975,0.059227 -0.1857689,0.035775 -0.3690435,0.070755 -0.4072788,0.07781 -0.038239,0.00696 -0.394866,0.075326 -0.7925134,0.1517351 -0.3976474,0.07642 -0.9513636,0.1828796 -1.230482,0.236512 -0.2791174,0.053662 -1.0815334,0.2086966 -1.7831459,0.3445914 l -1.2756586,0.247075 -1e-5,3.7306115 c -8.9e-6,3.5464103 0.00119,3.7302633 0.024327,3.7235163 0.013386,-0.004 0.4560429,-0.113556 0.9836902,-0.243667 z M 6.1065232,9.5749022 C 5.7806719,9.5377361 5.4355569,9.3936529 5.1742862,9.1857513 4.992065,9.0407538 4.8000146,8.8097377 4.7039452,8.619972 4.6166347,8.4475074 4.6982809,8.236555 4.8726237,8.1843237 c 0.1201866,-0.035974 0.23389,0.037365 0.340346,0.2195185 0.1643308,0.28124 0.4683246,0.5062241 0.7959656,0.5890727 0.150792,0.03816 0.4418294,0.044917 0.5978614,0.013912 C 6.9940605,8.9300109 7.3682485,8.6907164 7.6165598,8.3611803 7.7121678,8.2342988 7.7613138,8.1419798 7.8290147,7.962082 7.8811667,7.823524 7.9134637,7.7795607 7.9931418,7.7386978 c 0.1113373,-0.05714 0.2621591,-0.015204 0.3229227,0.089636 0.075376,0.1300615 0.06351,0.2026348 -0.082223,0.5026765 C 8.0809253,8.6458491 7.9155243,8.868647 7.6997821,9.0504031 7.2867047,9.3984129 6.8790314,9.5645275 6.3968401,9.5813218 6.2982008,9.584303 6.1675561,9.5818683 6.1065232,9.5753593 Z M 5.1309082,7.3860476 C 5.091526,7.3660733 5.0310476,7.3194667 4.9965169,7.2825689 4.684124,6.9486007 4.774851,6.2510308 5.1538547,6.0728621 c 0.062308,-0.029316 0.097079,-0.035974 0.1877008,-0.035974 0.097149,-9.9e-6 0.120593,0.00497 0.1851825,0.040942 0.1275682,0.070655 0.2026566,0.1829089 0.2548392,0.3809525 0.03656,0.1387667 0.039829,0.3627173 0.00716,0.488774 -0.051322,0.1978058 -0.17162,0.364934 -0.3102177,0.4309783 C 5.4329662,7.400298 5.3772876,7.412521 5.306826,7.416496 5.2151629,7.4214647 5.1938818,7.4174898 5.130938,7.385988 Z M 6.8833224,6.9350062 C 6.81062,6.8906852 6.7752754,6.8274034 6.7691072,6.730543 6.761356,6.6082129 6.8202255,6.4910602 6.961242,6.3484279 7.1260906,6.1816972 7.313191,6.087023 7.5765884,6.0370575 7.9539763,5.9655077 8.3171228,6.0962847 8.4308889,6.3447709 8.5105575,6.5187957 8.4374476,6.7039106 8.2690086,6.7543631 8.1869749,6.7789086 8.128648,6.7603256 8.0397385,6.6830122 7.9149648,6.5738194 7.8932157,6.5656806 7.7257556,6.565462 7.5884666,6.5652831 7.5738029,6.5684432 7.4872039,6.6106774 7.4150778,6.6461541 7.3702201,6.6832209 7.2817499,6.7800813 7.2139466,6.8543141 7.144773,6.9155785 7.1092267,6.9327902 7.0346461,6.9688632 6.9403863,6.9698569 6.8833224,6.9347777 Z M 2.1418348,11.178619 C 1.663834,10.246465 1.6013861,10.12655 1.5934898,10.125576 c -0.011239,-9.94e-4 -0.83312476,0.539753 -0.83263186,0.54822 2.2061e-4,0.004 0.18944673,0.121287 0.42049756,0.261027 0.2310509,0.139751 0.5952796,0.362548 0.8093971,0.495104 0.2141175,0.132566 0.3915448,0.239145 0.3942826,0.23684 0.00278,-0.002 -0.1067015,-0.221963 -0.2432004,-0.488148 z M 2.6789882,7.8604917 V 4.4215247 L 2.4544801,4.3210073 c -0.13569,-0.060718 -0.2279742,-0.094903 -0.2332709,-0.086356 -0.00487,0.00795 -0.019825,0.2131386 -0.03334,0.4563281 -0.023045,0.414561 -0.1050668,1.8327457 -0.1337334,2.3122083 -0.00706,0.118524 -0.045543,0.7980475 -0.085452,1.5100366 l -0.072573,1.2945428 0.197825,0.3878099 c 0.1980049,0.388177 0.5750301,1.103773 0.5815729,1.103832 0.00189,10e-6 0.00348,-1.5475003 0.00348,-3.4389366 z M 1.0222419,10.002938 C 1.2523149,9.8557348 1.4507401,9.7289725 1.4631868,9.7212611 1.4883485,9.7056593 1.4883485,9.7056593 1.5665672,8.3032055 1.5900295,7.8826125 1.6338835,7.1067852 1.6640338,6.5791359 1.7584993,4.9258905 1.8062329,4.0402046 1.8010733,4.0363985 1.7982908,4.034411 1.6959907,3.9885 1.5736377,3.9344104 l -0.22246,-0.098282 -0.00974,0.064593 C 1.3360728,3.9361991 1.3062306,4.1874081 1.2750667,4.4588797 1.2439029,4.7303512 1.1749727,5.3184798 1.1218838,5.7658244 0.9790269,6.9696184 0.83798157,8.1872255 0.76674986,8.83161 0.71664519,9.2848277 0.647397,9.8772295 0.60299346,10.232404 c -0.002584,0.02107 -0.003478,0.03826 -0.001888,0.03826 0.00159,0 0.19108442,-0.120442 0.42115744,-0.267646 z m 2.5674409,-6.1320975 0.4588244,-0.086853 0.00378,-0.2759235 0.00378,-0.2759235 -0.031581,0.00795 C 4.0071077,3.244065 3.6988319,3.2987211 3.3394198,3.3609693 2.3240162,3.5366934 2.1467687,3.5684038 2.139578,3.5755985 c -0.00368,0.00398 0.00914,0.01272 0.028481,0.020074 0.019348,0.00696 0.1719379,0.072742 0.339095,0.1453652 0.5137596,0.2231158 0.5366645,0.2319303 0.5819952,0.2240897 0.022946,-0.00398 0.2481821,-0.046309 0.5005339,-0.094108 z M 5.2473851,3.5613582 C 6.0813734,3.4106665 7.0018167,3.2381523 7.0595593,3.2217058 l 0.049558,-0.014111 -0.00467,-0.086953 c -0.015244,-0.2861889 -0.021465,-0.344174 -0.036908,-0.344174 -0.073915,0 -2.1942823,0.3277871 -2.389926,0.3694648 l -0.038239,0.00795 v 0.2561181 c 0,0.1574491 0.00527,0.2561182 0.013585,0.2561182 0.00745,0 0.2749437,-0.047203 0.5943853,-0.1049495 z M 7.9046696,3.0684304 C 8.0373237,3.0454749 8.149944,3.0263949 8.1549366,3.0259974 8.1599053,3.0255701 8.0607791,3.0034394 7.9346042,2.976807 7.8084273,2.9501746 7.6870005,2.924536 7.6647674,2.919766 c -0.037345,-0.00795 -0.03975,-0.00596 -0.031472,0.024844 0.00497,0.018384 0.00904,0.063202 0.00914,0.099504 1.372e-4,0.036272 0.00487,0.065985 0.010613,0.065985 0.00576,-1e-5 0.1189633,-0.018782 0.2516164,-0.041737 z M 3.6107323,2.7568314 c 0.1872476,-0.033688 0.3695085,-0.065587 0.405026,-0.070854 0.057826,-0.00894 0.065458,-0.013912 0.072991,-0.051675 0.00467,-0.023154 0.00845,-0.074829 0.00845,-0.1149168 0,-0.1396114 0.1230595,-0.6770192 0.1997777,-0.8724394 0.1156482,-0.294586 0.30809,-0.5802383 0.5281819,-0.78400589 0.093223,-0.0862571 0.2626838,-0.19987211 0.298251,-0.19987211 0.00914,0 0.016576,-0.005962 0.016576,-0.0124218 0,-0.006956 -0.051615,-0.0271293 -0.1147062,-0.0450167 C 4.8744889,0.56270006 4.5724806,0.55932133 4.4308907,0.59867366 4.2881689,0.63872162 4.0450281,0.76367523 3.9491604,0.84627539 3.5689453,1.1738936 3.3435707,1.6460421 3.2773445,2.2536979 c -0.02224,0.2040458 -0.03489,0.5640899 -0.019825,0.5640899 0.00706,0 0.1659992,-0.027626 0.3532468,-0.061314 z m 1.2372405,-0.168579 c 0.072643,-0.012024 0.3041439,-0.052768 0.5144384,-0.09053 0.2102935,-0.037862 0.4214576,-0.075723 0.4692508,-0.08427 L 5.9185651,2.39795 V 2.326301 c 0,-0.1420461 -0.029008,-0.5187255 -0.049369,-0.6412444 C 5.8423646,1.5236921 5.7751477,1.3167942 5.7028825,1.1731085 5.6490512,1.066092 5.6432776,1.0596526 5.6048594,1.0638462 5.5502332,1.0698086 5.3695513,1.1611339 5.2767245,1.2297322 5.1763392,1.3038656 5.0392609,1.443795 4.9817698,1.5307676 4.8328887,1.7559902 4.7300201,2.0556344 4.6746595,2.4253377 c -0.028848,0.1926674 -0.028451,0.2003491 0.00996,0.1917532 0.017202,-0.00398 0.090719,-0.016794 0.1633698,-0.028819 z M 6.7360135,2.2893336 C 7.0521608,2.2506769 7.0346093,2.2568381 7.0238589,2.1872858 6.9705743,1.8423069 6.7472925,1.3893278 6.5453156,1.2164458 6.4878771,1.1672554 6.3112934,1.0663007 6.2827531,1.0663007 c -0.00775,0 0.00725,0.059824 0.03339,0.1328738 0.084478,0.2363525 0.130137,0.5188546 0.1521306,0.9411966 0.00517,0.099424 0.015184,0.1772644 0.022777,0.1772644 0.00745,0 0.1176803,-0.01272 0.2449603,-0.028322 z"
       id="path881" />
    <path
       style="fill:#000000;fill-opacity:0.03;stroke:#2563eb;stroke-width:0.0788786;stroke-miterlimit:4;stroke-dasharray:none;stroke-opacity:0"
       d="m 5.3138522,6.9797384 c -0.00159,-5.961e-4 -0.00697,-0.00375 -0.039667,-0.022611 -0.01457,-0.00841 -0.033222,-0.019158 -0.041454,-0.023895 -0.00823,-0.00473 -0.018462,-0.010653 -0.022743,-0.013118 -0.00426,-0.00248 -0.019436,-0.011178 -0.033683,-0.019336 -0.01425,-0.00815 -0.030442,-0.017468 -0.035985,-0.020724 -0.011768,-0.00689 -0.022156,-0.012815 -0.03656,-0.020833 -0.0057,-0.00317 -0.011093,-0.00644 -0.011971,-0.00728 -7.948e-4,-7.949e-4 -0.00225,-0.0028 -0.00302,-0.00439 l -0.00139,-0.0029 1.471e-4,-0.1275664 1.491e-4,-0.1275664 0.00213,-0.00322 c 0.00179,-0.0028 0.00295,-0.00369 0.00865,-0.00692 0.00358,-0.00203 0.011295,-0.0065 0.017151,-0.00989 0.013928,-0.0081 0.027033,-0.015719 0.034545,-0.020047 0.00332,-0.00199 0.00901,-0.00523 0.012662,-0.00733 0.00364,-0.00211 0.018801,-0.010923 0.03368,-0.019576 0.014891,-0.00865 0.031337,-0.018224 0.036561,-0.021298 0.00523,-0.00305 0.013389,-0.00778 0.018144,-0.010519 0.00475,-0.0027 0.013439,-0.00771 0.019297,-0.011093 0.00585,-0.00337 0.018164,-0.010468 0.027349,-0.015736 l 0.016698,-0.00957 h 0.00375 c 0.00375,0 0.00375,0 0.016124,0.00714 0.00681,0.00394 0.015347,0.00887 0.018997,0.011025 0.00364,0.00215 0.017884,0.010434 0.031667,0.018422 0.013777,0.00798 0.027764,0.016141 0.031091,0.018105 0.00332,0.00199 0.012528,0.00728 0.02044,0.011802 0.0079,0.00453 0.016462,0.00946 0.018998,0.010958 0.00493,0.0029 0.029175,0.016951 0.03253,0.01886 0.00119,5.962e-4 0.00708,0.00405 0.013237,0.00763 0.00617,0.00358 0.012038,0.00696 0.013051,0.00753 0.014942,0.00846 0.029523,0.017031 0.030545,0.017966 7.949e-4,5.96e-4 0.00199,0.00248 0.00273,0.00406 l 0.00139,0.0029 -6e-6,0.1266969 -6.1e-6,0.1266986 -0.00139,0.00289 c -0.00199,0.00406 -0.00415,0.00592 -0.013118,0.010873 -0.011093,0.00612 -0.023656,0.013272 -0.028396,0.016175 -0.00223,0.00139 -0.013608,0.00797 -0.025335,0.014705 -0.030072,0.01727 -0.062415,0.035908 -0.068515,0.039466 -0.00283,0.00159 -0.013338,0.00775 -0.023317,0.013541 -0.00998,0.00579 -0.020597,0.01192 -0.023607,0.013676 -0.003,0.00179 -0.010653,0.00614 -0.016992,0.00978 -0.00634,0.00364 -0.014622,0.00845 -0.018422,0.010688 -0.0066,0.0039 -0.00709,0.00408 -0.010923,0.00423 -0.00223,8.55e-5 -0.00458,-7.95e-5 -0.00525,-3.975e-4 z m -0.00369,-0.05513 V 6.895429 l -0.00787,-0.01327 c -0.00433,-0.00731 -0.00973,-0.016395 -0.011971,-0.020191 -0.00225,-0.0038 -0.00913,-0.015516 -0.015298,-0.026054 L 5.2638161,6.816776 h -0.050925 -0.050925 l -0.016428,0.00973 c -0.00904,0.00536 -0.019118,0.01121 -0.022374,0.013034 l -0.00592,0.00332 0.00564,0.00327 c 0.00776,0.00451 0.033922,0.019614 0.046811,0.027053 0.00585,0.00338 0.021792,0.012578 0.035409,0.020439 0.027195,0.015702 0.027452,0.015853 0.052681,0.030361 0.00966,0.00555 0.025204,0.014521 0.034547,0.019945 0.00934,0.00541 0.017171,0.00986 0.017409,0.00986 1.987e-4,5.9e-6 3.976e-4,-0.013119 3.976e-4,-0.029169 z m 0.028352,0.022482 c 0.023832,-0.013693 0.03488,-0.02008 0.041803,-0.024195 0.00392,-0.00233 0.0072,-0.00423 0.00736,-0.00423 1.35e-4,0 0.00119,-5.962e-4 0.00237,-0.00139 0.00119,-7.949e-4 0.012528,-0.00731 0.025178,-0.014604 0.023233,-0.013356 0.056134,-0.032375 0.063044,-0.036429 0.00206,-0.00119 0.00969,-0.00562 0.016992,-0.00981 0.019376,-0.011144 0.023317,-0.01349 0.023312,-0.013811 -2e-6,-1.59e-4 -0.00239,-0.00159 -0.00533,-0.00312 -0.00292,-0.00159 -0.00908,-0.00506 -0.013676,-0.00783 -0.00459,-0.00273 -0.012206,-0.00722 -0.01693,-0.00999 l -0.00858,-0.00498 -0.05072,9.8e-6 -0.050723,1.2e-5 -0.00326,0.0056 c -0.00179,0.00307 -0.00748,0.012865 -0.012613,0.021724 -0.00515,0.00886 -0.012731,0.021821 -0.016851,0.028788 -0.00411,0.00696 -0.00887,0.01501 -0.010552,0.017847 l -0.00305,0.00518 -5.9e-6,0.028932 c -4e-6,0.015922 1.213e-4,0.028931 1.987e-4,0.028931 1.55e-4,0 0.00553,-0.00302 0.011937,-0.00671 z m -0.011025,-0.097228 c 0.00483,-0.00823 0.011144,-0.01898 0.014064,-0.023893 l 0.0053,-0.00891 -0.028219,-1.491e-4 c -0.015516,-8.14e-5 -0.028323,-4.76e-5 -0.028446,7.56e-5 -1.253e-4,1.251e-4 0.00384,0.00731 0.00882,0.015972 0.00496,0.00867 0.011227,0.019594 0.013912,0.024293 0.00268,0.00469 0.00508,0.00833 0.00533,0.00807 1.987e-4,-1.986e-4 0.00441,-0.0072 0.00924,-0.015449 z M 5.1114937,6.8271905 c 0.00139,-9.937e-4 0.00459,-0.00278 0.00696,-0.00415 0.00236,-0.00139 0.00498,-0.0029 0.00582,-0.00337 7.949e-4,-3.976e-4 0.00692,-0.00395 0.013541,-0.00773 0.00662,-0.00379 0.013828,-0.0079 0.016023,-0.00922 l 0.00396,-0.00236 0.00862,-0.014689 c 0.016495,-0.028146 0.039577,-0.067982 0.039577,-0.068287 0,-1.032e-4 -0.00119,-0.00206 -0.0025,-0.00438 -0.003,-0.00501 -0.0129,-0.021707 -0.020914,-0.035286 -0.00317,-0.00539 -0.00793,-0.013422 -0.010569,-0.017847 -0.00262,-0.00443 -0.00506,-0.00858 -0.00541,-0.00922 -3.974e-4,-5.962e-4 -0.00252,-0.00441 -0.00485,-0.0084 l -0.00423,-0.00723 -0.014183,-0.00828 c -0.014453,-0.00843 -0.023553,-0.01376 -0.03103,-0.018164 l -0.00416,-0.00246 v 0.1113646 c 0,0.06125 1.708e-4,0.1113646 3.974e-4,0.1113646 1.987e-4,0 0.00159,-7.951e-4 0.00302,-0.00159 z M 5.5283912,6.7173731 V 6.605897 L 5.527,6.6068906 c -0.00336,0.00221 -0.032062,0.018918 -0.04114,0.023974 -0.00364,0.00203 -0.00671,0.00384 -0.00677,0.00401 -8.75e-5,1.848e-4 -0.00218,0.00382 -0.00464,0.00807 -0.00247,0.00425 -0.00936,0.016158 -0.015314,0.026447 -0.00596,0.010299 -0.011683,0.020136 -0.012714,0.021878 -0.00304,0.00513 -0.00981,0.016799 -0.01121,0.019297 -7.951e-4,0.00119 -0.00199,0.00345 -0.00273,0.00481 -0.00119,0.00179 -0.00139,0.00277 -7.95e-4,0.00347 3.974e-4,5.962e-4 0.00252,0.0043 0.00491,0.00843 0.027341,0.04724 0.041972,0.072159 0.042894,0.073051 5.962e-4,5.961e-4 0.00614,0.004 0.012308,0.00755 0.00616,0.00357 0.01675,0.00974 0.023562,0.013727 0.00682,0.004 0.012578,0.00728 0.012815,0.00729 1.986e-4,6e-6 3.974e-4,-0.050152 3.974e-4,-0.1114624 z m -0.278544,0.075058 c -5.962e-4,-9.936e-4 -0.00508,-0.00874 -0.00994,-0.017131 -0.00485,-0.0084 -0.011363,-0.019596 -0.01447,-0.024917 -0.00312,-0.0053 -0.00565,-0.00991 -0.00565,-0.010215 0,-0.00179 -0.00159,5.961e-4 -0.00805,0.011971 -0.00394,0.00689 -0.010147,0.017707 -0.013828,0.024039 -0.00369,0.00634 -0.00753,0.013001 -0.00857,0.014825 l -0.00179,0.00332 h 0.031757 0.031755 z m 0.1140272,-0.00503 c 0.00793,-0.013272 0.024134,-0.040943 0.032286,-0.055162 l 0.00835,-0.01457 -0.00722,-0.012206 c -0.00396,-0.00672 -0.00974,-0.016479 -0.012815,-0.021702 -0.00307,-0.00523 -0.00865,-0.014689 -0.012392,-0.021014 -0.00375,-0.00634 -0.00812,-0.013777 -0.00974,-0.016546 l -0.00292,-0.00503 -0.041454,-7.9e-6 -0.041455,-5.9e-6 -0.00159,0.00302 c -0.00159,0.003 -0.015837,0.027455 -0.033564,0.057988 l -0.00919,0.01582 9.938e-4,0.00179 c 0.00384,0.00676 0.015684,0.026962 0.024999,0.042626 0.0032,0.00539 0.00877,0.01479 0.012392,0.020875 l 0.0066,0.011093 0.041429,-1.469e-4 0.041432,-1.492e-4 0.00395,-0.00662 z m 0.085062,0.00649 c 0,-1.987e-4 -0.00267,-0.00501 -0.00591,-0.010586 -0.00324,-0.00559 -0.010181,-0.017688 -0.015398,-0.026886 -0.00523,-0.0092 -0.00964,-0.016732 -0.00979,-0.016732 -1.588e-4,-4e-6 -0.00337,0.00538 -0.00716,0.01192 -0.00379,0.00655 -0.00807,0.013997 -0.00956,0.016529 -0.00565,0.00969 -0.014689,0.025306 -0.014857,0.025741 -1.075e-4,1.987e-4 0.013946,3.974e-4 0.031233,3.974e-4 0.017289,0 0.031426,-1.945e-4 0.031423,-3.974e-4 z M 5.2352544,6.6686258 c 0.00858,-0.014825 0.015618,-0.027062 0.015618,-0.027204 0,-1.43e-4 -0.014385,-1.987e-4 -0.031956,-1.987e-4 -0.017568,0 -0.031954,1.094e-4 -0.031954,1.987e-4 0,1.332e-4 0.00159,0.00304 0.00369,0.00649 0.00203,0.00345 0.00512,0.00872 0.00684,0.0117 0.00317,0.0055 0.010924,0.018759 0.015955,0.027348 0.00139,0.00252 0.00332,0.0057 0.00405,0.00706 7.949e-4,0.00139 0.00159,0.00226 0.00179,0.00201 1.987e-4,-1.987e-4 0.00741,-0.012561 0.016023,-0.027383 z m 0.1855941,0.022482 c 0.00179,-0.00292 0.00582,-0.00999 0.00909,-0.015685 0.00327,-0.0057 0.00901,-0.015635 0.012764,-0.022101 0.00374,-0.00647 0.00682,-0.01182 0.00682,-0.011937 0,-1.152e-4 -0.014486,-1.987e-4 -0.032188,-1.987e-4 h -0.032191 l 0.00694,0.011937 c 0.00382,0.00659 0.00775,0.013373 0.00876,0.015112 9.937e-4,0.00179 0.0048,0.00823 0.0084,0.014385 0.0036,0.00617 0.00682,0.011802 0.00715,0.012528 3.975e-4,7.95e-4 7.949e-4,0.00139 9.936e-4,0.00139 1.989e-4,1.9e-6 0.00179,-0.00237 0.0035,-0.00533 z M 5.2643448,6.6171248 c 0.00139,-0.00226 0.020026,-0.033953 0.03624,-0.061854 l 0.00961,-0.016512 v -0.028828 c 0,-0.019957 -1.887e-4,-0.028827 -5.962e-4,-0.028827 -3.974e-4,0 -0.00337,0.00159 -0.00676,0.00367 -0.00337,0.00201 -0.00731,0.00428 -0.00875,0.00508 -0.00139,7.949e-4 -0.00649,0.00374 -0.011227,0.00652 -0.00766,0.00449 -0.023548,0.013693 -0.029075,0.016834 -0.00119,5.962e-4 -0.00575,0.00334 -0.010367,0.00604 -0.00459,0.00268 -0.012613,0.00736 -0.017847,0.010367 -0.00523,0.00302 -0.016495,0.00956 -0.025046,0.014554 -0.00855,0.00496 -0.024613,0.0143 -0.035696,0.020721 -0.017905,0.01035 -0.024586,0.01425 -0.041984,0.02441 -0.0025,0.00139 -0.00464,0.00292 -0.00475,0.00326 -1.073e-4,3.974e-4 0.00119,0.00139 0.00283,0.00215 0.00159,7.949e-4 0.00418,0.00225 0.00562,0.00307 0.028163,0.016546 0.034921,0.020562 0.03538,0.021004 3.974e-4,3.975e-4 0.021067,5.963e-4 0.050802,5.963e-4 h 0.050255 z m 0.082684,0.00179 c 0,-3.974e-4 -0.00179,-0.00357 -0.00865,-0.015246 -0.00704,-0.012055 -0.00936,-0.016074 -0.014368,-0.024759 -0.00265,-0.00459 -0.00513,-0.00872 -0.00553,-0.00911 -7.951e-4,-7.95e-4 -5.962e-4,-7.95e-4 -0.00763,0.01143 -0.00337,0.00597 -0.019335,0.033733 -0.02034,0.035362 -5.963e-4,9.936e-4 -9.937e-4,0.00199 -9.937e-4,0.00221 -1.8e-6,1.988e-4 0.012949,3.974e-4 0.028785,3.974e-4 0.015837,0 0.028785,-1.37e-4 0.028785,-3.974e-4 z m 0.1325168,-0.00364 c 0.0036,-0.00216 0.00795,-0.00473 0.00969,-0.0057 0.00179,-9.935e-4 0.0092,-0.00525 0.016581,-0.00952 l 0.013422,-0.00775 -0.013693,-0.0079 c -0.00753,-0.00436 -0.015128,-0.00876 -0.016851,-0.00979 -0.0028,-0.00159 -0.013879,-0.00805 -0.071417,-0.041183 -0.00808,-0.00464 -0.016462,-0.00954 -0.018581,-0.010823 -0.00213,-0.00139 -0.00396,-0.00236 -0.00411,-0.00236 -1.31e-4,0 -0.0037,-0.00203 -0.0079,-0.00451 -0.00421,-0.00248 -0.012055,-0.00706 -0.017448,-0.010147 -0.00539,-0.0031 -0.011869,-0.00687 -0.014386,-0.00838 -0.00956,-0.00564 -0.027871,-0.016124 -0.028178,-0.016124 -1.77e-4,0 -3.975e-4,0.013152 -3.975e-4,0.029219 l 6e-6,0.029219 0.00699,0.011802 c 0.00385,0.0065 0.00998,0.016851 0.013608,0.023032 0.00364,0.00617 0.00941,0.015905 0.012781,0.021593 0.00338,0.0057 0.00728,0.012309 0.00865,0.014689 0.00139,0.00236 0.0031,0.00528 0.00384,0.00649 l 0.00139,0.00216 h 0.049744 0.049744 l 0.00652,-0.00395 z"
       id="path1011" />
    <text
       xml:space="preserve"
       style="font-size:6.35px;line-height:1.25;font-family:'Inter 28pt';-inkscape-font-specification:'Inter 28pt';letter-spacing:-0.15875px;fill:#ff6700;fill-opacity:1;stroke-width:0.132292;stroke-miterlimit:4;stroke-dasharray:none"
       x="13.58725"
       y="8.4823313"
       id="text3040"><tspan
         sodipodi:role="line"
         style="font-style:normal;font-variant:normal;font-weight:600;font-stretch:normal;font-size:6.35px;font-family:'Fira Sans';-inkscape-font-specification:'Fira Sans Semi-Bold';fill:#ff2e4d;fill-opacity:1;stroke-width:0.132292;stroke-miterlimit:4;stroke-dasharray:none"
         x="13.58725"
         y="8.4823313"
         id="tspan12835">lovelacers</tspan></text>
    <text
       xml:space="preserve"
       style="font-size:10.5833px;line-height:1.25;font-family:'Inter 28pt';-inkscape-font-specification:'Inter 28pt';stroke-width:0.264583"
       x="48.527615"
       y="16.411993"
       id="text5743"><tspan
         sodipodi:role="line"
         id="tspan5741"
         style="stroke-width:0.264583"
         x="48.527615"
         y="16.411993" /></text>
  </g>
</svg>
