<?xml version="1.0" encoding="UTF-8" standalone="no"?>
<!-- Created with Inkscape (http://www.inkscape.org/) -->

<svg
   width="175"
   height="48"
   viewBox="0 0 46.302074 12.7"
   version="1.1"
   id="svg5"
   inkscape:version="1.1.2 (0a00cf5339, 2022-02-04)"
   sodipodi:docname="logo.svg"
   xmlns:inkscape="http://www.inkscape.org/namespaces/inkscape"
   xmlns:sodipodi="http://sodipodi.sourceforge.net/DTD/sodipodi-0.dtd"
   xmlns="http://www.w3.org/2000/svg"
   xmlns:svg="http://www.w3.org/2000/svg">
  <sodipodi:namedview
     id="namedview7"
     pagecolor="#ffffff"
     bordercolor="#666666"
     borderopacity="1.0"
     inkscape:pageshadow="2"
     inkscape:pageopacity="0.0"
     inkscape:pagecheckerboard="0"
     inkscape:document-units="mm"
     showgrid="false"
     units="px"
     height="48px"
     inkscape:zoom="4.192802"
     inkscape:cx="79.064072"
     inkscape:cy="19.080319"
     inkscape:window-width="1920"
     inkscape:window-height="1048"
     inkscape:window-x="0"
     inkscape:window-y="1080"
     inkscape:window-maximized="1"
     inkscape:current-layer="layer1" />
  <defs
     id="defs2" />
  <g
     inkscape:label="Layer 1"
     inkscape:groupmode="layer"
     id="layer1">
    <text
       xml:space="preserve"
       style="font-size:10.6248px;line-height:1.25;font-family:'Inter 28pt';-inkscape-font-specification:'Inter 28pt';letter-spacing:-0.23906px;fill:#0866ff;fill-opacity:0.5;stroke-width:0.211667;stroke-miterlimit:4;stroke-dasharray:none"
       x="17.898205"
       y="9.4636803"
       id="text3040"><tspan
         sodipodi:role="line"
         style="font-style:normal;font-variant:normal;font-weight:bold;font-stretch:normal;font-family:'Inter 28pt';-inkscape-font-specification:'Inter 28pt Bold';fill:#0866ff;fill-opacity:1;stroke-width:0.211667;stroke-miterlimit:4;stroke-dasharray:none"
         x="17.898205"
         y="9.4636803"
         id="tspan13110">Pairfy</tspan></text>
    <path
       style="fill:none;fill-opacity:0.998655;stroke:#0866ff;stroke-width:0.507948;stroke-linecap:round;stroke-linejoin:round;stroke-miterlimit:4;stroke-dasharray:none;stroke-opacity:1;paint-order:fill markers stroke"
       d="M 0.87956913,0.13024815 C 0.12595368,0.23834645 0.122116,1.1609755 0.122116,1.7390068 v 5.2333971 c 0,0.824354 -0.0130931,1.6241189 0.28309786,2.408624 0.51298553,1.3587921 1.73214534,2.4658761 3.16331594,2.7816461 0.864141,0.190546 1.7588456,0.131402 2.6384627,0.131402 0.7516467,0 1.5419234,0.0686 2.2849859,-0.05599 0.4937337,-0.08272 0.9670162,-0.239349 1.4139138,-0.464197 0.3349208,-0.168476 0.6601198,-0.397233 0.9341928,-0.652345 0.718571,-0.668741 1.232124,-1.5474468 1.395735,-2.5223728 0.112103,-0.6672266 0.06867,-1.3560172 0.06867,-2.0303056 V 3.9458606 1.5624589 c 0,-0.4299579 -0.0284,-0.94124248 -0.367238,-1.25741565 -0.34691,-0.32372567 -0.91803,-0.16582867 -1.236034,0.12247474 C 10.226548,0.85784164 9.7503614,1.2867408 9.2746815,1.7159298 9.1315219,1.8450874 8.9852074,1.9724039 8.8454576,2.1052062 8.7584761,2.1878057 8.6615224,2.3042522 8.5550997,2.3609747 8.4799855,2.4010026 8.3317762,2.3291924 8.252117,2.3141891 8.0003903,2.26677 7.7383115,2.2212995 7.4820397,2.2182566 c -0.5468816,-0.00653 -1.0942682,0 -1.6411498,0 -0.3091535,0 -0.6258196,-0.019976 -0.9341917,0.00115 -0.24135,0.01652 -0.4823087,0.051489 -0.7195812,0.099812 -0.07322,0.014907 -0.2255697,0.083675 -0.2957099,0.056644 C 3.8144624,2.3462326 3.7415954,2.2494054 3.6821479,2.1941842 3.5534565,2.0746477 3.4201698,1.9598916 3.2907967,1.8410491 2.8452498,1.4317473 2.3969385,1.0205161 1.9400045,0.6240011 1.6440046,0.36713541 1.3074047,0.06895846 0.87956913,0.1303211 Z"
       id="path971" />
  </g>
</svg>
