<?xml version="1.0" encoding="UTF-8" standalone="no"?>
<!-- Created with Inkscape (http://www.inkscape.org/) -->

<svg
   width="120"
   height="50"
   viewBox="0 0 120 50"
   version="1.1"
   id="SVGRoot"
   sodipodi:docname="logo-white.svg"
   inkscape:version="1.1.2 (0a00cf5339, 2022-02-04)"
   inkscape:export-filename="/home/debian/Documents/GitHub/core/frontend-main/src/assets/logo-white.png"
   inkscape:export-xdpi="121.6"
   inkscape:export-ydpi="121.6"
   xmlns:inkscape="http://www.inkscape.org/namespaces/inkscape"
   xmlns:sodipodi="http://sodipodi.sourceforge.net/DTD/sodipodi-0.dtd"
   xmlns="http://www.w3.org/2000/svg"
   xmlns:svg="http://www.w3.org/2000/svg">
  <sodipodi:namedview
     id="namedview137"
     pagecolor="#ffffff"
     bordercolor="#000000"
     borderopacity="0.25"
     inkscape:showpageshadow="2"
     inkscape:pageopacity="0.0"
     inkscape:pagecheckerboard="0"
     inkscape:deskcolor="#d1d1d1"
     inkscape:document-units="px"
     showgrid="false"
     inkscape:zoom="5.6568543"
     inkscape:cx="76.102367"
     inkscape:cy="32.438523"
     inkscape:window-width="1779"
     inkscape:window-height="867"
     inkscape:window-x="61"
     inkscape:window-y="100"
     inkscape:window-maximized="0"
     inkscape:current-layer="layer1"
     inkscape:pageshadow="2"
     showguides="false"
     inkscape:lockguides="false" />
  <defs
     id="defs132">
    <rect
       x="11.236365"
       y="7.2846913"
       width="69.72084"
       height="10.069939"
       id="rect3" />
    <rect
       x="12.94258"
       y="23.094154"
       width="88.413605"
       height="18.186064"
       id="rect1" />
    <rect
       x="-1.4777668"
       y="42.333267"
       width="127.8846"
       height="23.821753"
       id="rect3454" />
    <clipPath
       id="b983e3c625">
      <path
         d="m 142,147.30078 h 115 v 72.75 H 142 Z m 0,0"
         clip-rule="nonzero"
         id="path1144" />
    </clipPath>
    <clipPath
       id="0e8c13dd3a">
      <path
         d="m 70.261719,116.35938 h 89.156251 v 70.49999 H 70.261719 Z m 0,0"
         clip-rule="nonzero"
         id="path1147" />
    </clipPath>
    <clipPath
       id="b983e3c625-3">
      <path
         d="m 142,147.30078 h 115 v 72.75 H 142 Z m 0,0"
         clip-rule="nonzero"
         id="path1144-6" />
    </clipPath>
    <clipPath
       id="0e8c13dd3a-7">
      <path
         d="m 70.261719,116.35938 h 89.156251 v 70.49999 H 70.261719 Z m 0,0"
         clip-rule="nonzero"
         id="path1147-5" />
    </clipPath>
    <clipPath
       id="b983e3c625-3-1">
      <path
         d="m 142,147.30078 h 115 v 72.75 H 142 Z m 0,0"
         clip-rule="nonzero"
         id="path1144-6-2" />
    </clipPath>
    <clipPath
       id="b983e3c625-3-3">
      <path
         d="m 142,147.30078 h 115 v 72.75 H 142 Z m 0,0"
         clip-rule="nonzero"
         id="path1144-6-6" />
    </clipPath>
  </defs>
  <g
     inkscape:label="Layer 1"
     inkscape:groupmode="layer"
     id="layer1"
     style="display:inline">
    <text
       xml:space="preserve"
       style="font-style:normal;font-variant:normal;font-weight:normal;font-stretch:normal;font-size:19.7242px;line-height:0;font-family:Manrope;-inkscape-font-specification:Manrope;letter-spacing:-0.739659px;fill:#ff385c;fill-opacity:1;stroke:#000000;stroke-width:0.2;stroke-linecap:round;stroke-linejoin:round;stroke-miterlimit:4;stroke-dasharray:none;stroke-opacity:1;paint-order:stroke markers fill"
       x="31.503109"
       y="31.581631"
       id="text2"
       inkscape:export-filename="/home/debian/Documents/GitHub/core/frontend-main/src/assets/logo-white.png"
       inkscape:export-xdpi="121.6"
       inkscape:export-ydpi="121.6"><tspan
         sodipodi:role="line"
         id="tspan2"
         x="31.503109"
         y="31.581631"
         style="font-style:normal;font-variant:normal;font-weight:bold;font-stretch:normal;font-size:21.2005px;font-family:Manrope;-inkscape-font-specification:'Manrope Bold';word-spacing:0px;fill:#ff385c;fill-opacity:1;stroke:#ff385c;stroke-width:0.2;stroke-linecap:round;stroke-linejoin:round;stroke-miterlimit:4;stroke-dasharray:none;stroke-opacity:1;paint-order:stroke markers fill">whitedαys</tspan></text>
    <g
       id="g116471">
      <path
         style="display:inline;fill:#ff385c;fill-opacity:1;stroke:none;stroke-width:0.328836;stroke-opacity:1"
         d="M 27.999999,31.498731 C 26.559107,27.747103 26.477409,25.184232 26.528327,22.345425 26.579202,19.42161 25.793102,17.099838 23.339929,16.2344 13.91851,15.062084 7.211959,17.004969 0,11.936805 c 0,0 1.2694216,3.665543 6.227754,5.706631 5.262201,1.91196 12.37308,2.284501 15.449008,3.030084 1.716721,0.433417 1.76617,1.780611 2.143863,3.54772 0.847708,3.921652 1.819736,6.448285 4.179374,7.277491"
         id="path33289-7"
         sodipodi:nodetypes="cccccccc" />
      <path
         style="display:inline;fill:#fcbc05;fill-opacity:1;stroke:none;stroke-width:0.372385;stroke-opacity:1"
         d="m 22.877648,29.067581 c -2.596875,-0.355175 -8.151664,-0.390831 -8.151664,-0.390831 3.30062,1.406368 11.418576,4.667904 8.151664,0.390831 z"
         id="path33287-0" />
      <path
         style="display:inline;fill:#fcbc05;fill-opacity:1;stroke:none;stroke-width:0.372397;stroke-opacity:1"
         d="m 22.774612,27.776688 c 0.08006,-1.904775 -2.157234,-2.283257 -4.340687,-2.413538 -1.30543,-0.07131 -2.612416,-0.142608 -3.343865,-0.189249 -3.064562,-0.189248 -6.1677012,-0.580066 -6.1677012,-0.580066 0,0 0.3873223,1.704559 3.7697522,2.36691 3.370113,0.662348 10.082501,0.81594 10.082501,0.81594 z"
         id="path33285-9" />
      <path
         style="display:inline;fill:#ff385c;fill-opacity:1;stroke:none;stroke-width:0.372397;stroke-opacity:1"
         d="m 21.362688,24.427903 c 0,0 0.172801,-2.284631 -2.384063,-2.580837 C 16.421751,21.55086 12.95945,21.045453 8.3780106,20.180148 3.7950728,19.316211 1.9430044,17.709354 1.9430044,17.709354 c 0,0 -0.052411,3.652264 6.2602763,4.965994 6.3004243,1.302761 13.1594073,1.752555 13.1594073,1.752555 z"
         id="path1156-3"
         sodipodi:nodetypes="cscccc" />
    </g>
  </g>
  <g
     inkscape:groupmode="layer"
     id="layer2"
     inkscape:label="Layer 2"
     style="display:inline" />
  <g
     inkscape:groupmode="layer"
     id="layer3"
     inkscape:label="Layer 3"
     style="display:inline" />
  <g
     inkscape:groupmode="layer"
     id="layer4"
     inkscape:label="limit"
     style="display:none">
    <rect
       style="display:inline;opacity:0.557195;fill:#ff5e00;fill-opacity:1;stroke:#0069f5;stroke-width:0;stroke-linecap:round;stroke-linejoin:round;paint-order:stroke fill markers"
       id="rect1592-1"
       width="15"
       height="14.999998"
       x="1.8808064e-06"
       y="14.999999" />
    <rect
       style="display:inline;opacity:0.557195;fill:#ff0000;stroke:#0069f5;stroke-width:0;stroke-linecap:round;stroke-linejoin:round;paint-order:stroke fill markers"
       id="rect1592"
       width="120"
       height="14.999998"
       x="1.8808064e-06"
       y="6.7562792e-07" />
  </g>
</svg>
