<?xml version="1.0" encoding="UTF-8" standalone="no"?>
<!-- Created with Inkscape (http://www.inkscape.org/) -->

<svg
   width="165"
   height="50"
   viewBox="0 0 165 50"
   version="1.1"
   id="SVGRoot"
   sodipodi:docname="logo-white.svg"
   inkscape:version="1.1.2 (0a00cf5339, 2022-02-04)"
   inkscape:export-filename="/home/debian/Documents/GitHub/core/frontend-main/src/assets/logo-white.png"
   inkscape:export-xdpi="121.6"
   inkscape:export-ydpi="121.6"
   xmlns:inkscape="http://www.inkscape.org/namespaces/inkscape"
   xmlns:sodipodi="http://sodipodi.sourceforge.net/DTD/sodipodi-0.dtd"
   xmlns="http://www.w3.org/2000/svg"
   xmlns:svg="http://www.w3.org/2000/svg">
  <sodipodi:namedview
     id="namedview137"
     pagecolor="#ffffff"
     bordercolor="#000000"
     borderopacity="0.25"
     inkscape:showpageshadow="2"
     inkscape:pageopacity="0.0"
     inkscape:pagecheckerboard="0"
     inkscape:deskcolor="#d1d1d1"
     inkscape:document-units="px"
     showgrid="false"
     inkscape:zoom="8.0000001"
     inkscape:cx="6.4374999"
     inkscape:cy="22.25"
     inkscape:window-width="1530"
     inkscape:window-height="934"
     inkscape:window-x="3840"
     inkscape:window-y="115"
     inkscape:window-maximized="0"
     inkscape:current-layer="layer1"
     inkscape:pageshadow="2"
     showguides="false"
     inkscape:lockguides="false"
     width="165px" />
  <defs
     id="defs132">
    <rect
       x="11.236365"
       y="7.2846913"
       width="69.72084"
       height="10.069939"
       id="rect3" />
    <rect
       x="12.94258"
       y="23.094154"
       width="88.413605"
       height="18.186064"
       id="rect1" />
    <rect
       x="-1.4777668"
       y="42.333267"
       width="127.8846"
       height="23.821753"
       id="rect3454" />
    <clipPath
       id="b983e3c625">
      <path
         d="m 142,147.30078 h 115 v 72.75 H 142 Z m 0,0"
         clip-rule="nonzero"
         id="path1144" />
    </clipPath>
    <clipPath
       id="0e8c13dd3a">
      <path
         d="m 70.261719,116.35938 h 89.156251 v 70.49999 H 70.261719 Z m 0,0"
         clip-rule="nonzero"
         id="path1147" />
    </clipPath>
    <clipPath
       id="b983e3c625-3">
      <path
         d="m 142,147.30078 h 115 v 72.75 H 142 Z m 0,0"
         clip-rule="nonzero"
         id="path1144-6" />
    </clipPath>
    <clipPath
       id="0e8c13dd3a-7">
      <path
         d="m 70.261719,116.35938 h 89.156251 v 70.49999 H 70.261719 Z m 0,0"
         clip-rule="nonzero"
         id="path1147-5" />
    </clipPath>
    <clipPath
       id="b983e3c625-3-1">
      <path
         d="m 142,147.30078 h 115 v 72.75 H 142 Z m 0,0"
         clip-rule="nonzero"
         id="path1144-6-2" />
    </clipPath>
    <clipPath
       id="b983e3c625-3-3">
      <path
         d="m 142,147.30078 h 115 v 72.75 H 142 Z m 0,0"
         clip-rule="nonzero"
         id="path1144-6-6" />
    </clipPath>
  </defs>
  <g
     inkscape:label="Layer 1"
     inkscape:groupmode="layer"
     id="layer1"
     style="display:inline">
    <text
       xml:space="preserve"
       style="font-style:italic;font-variant:normal;font-weight:600;font-stretch:normal;font-size:18.6667px;line-height:0;font-family:'IBM Plex Sans';-inkscape-font-specification:'IBM Plex Sans Semi-Bold Italic';letter-spacing:-0.74px;word-spacing:0px;display:inline;fill:#ff385c;fill-opacity:1;stroke:#000000;stroke-width:0.1;stroke-linecap:round;stroke-linejoin:round;stroke-miterlimit:4;stroke-dasharray:none;stroke-opacity:1;paint-order:stroke markers fill"
       x="37.726665"
       y="30.544643"
       id="text2-3-3"
       inkscape:export-filename="/home/debian/Documents/GitHub/core/frontend-main/src/assets/logo-white.png"
       inkscape:export-xdpi="121.6"
       inkscape:export-ydpi="121.6"><tspan
         sodipodi:role="line"
         x="37.726665"
         y="30.544643"
         style="font-style:normal;font-variant:normal;font-weight:bold;font-stretch:normal;font-size:18.6667px;font-family:Manrope;-inkscape-font-specification:'Manrope Bold';fill:#000000;fill-opacity:1;stroke:#000000;stroke-width:0.1;stroke-linecap:square;stroke-linejoin:miter;stroke-miterlimit:4;stroke-dasharray:none;stroke-opacity:1;paint-order:stroke markers fill"
         id="tspan541421-5-5"
         dx="0">adaheaven</tspan></text>
    <rect
       style="fill:#ff4500;fill-opacity:1;stroke:none;stroke-width:0.168;stroke-linecap:round;stroke-linejoin:round;stroke-miterlimit:4;stroke-dasharray:none;paint-order:stroke markers fill"
       id="rect1078"
       width="30"
       height="30"
       x="0"
       y="8.4799995"
       rx="8"
       ry="8" />
    <path
       style="display:inline;fill:#ffffff;fill-opacity:1;stroke:none;stroke-width:0.243363;stroke-opacity:1"
       d="M 25.178095,30.97 C 24.148886,28.093268 24.09053,26.128069 24.1269,23.951285 24.163239,21.709316 23.601741,19.928991 21.849473,19.265377 15.119888,18.36645 10.329495,19.856246 5.1780952,15.97 c 0,0 0.9067298,2.810722 4.4483958,4.37582 3.758716,1.466082 8.837915,1.751745 11.035006,2.323455 1.226229,0.332342 1.26155,1.365365 1.531331,2.720376 0.605505,3.007106 1.299811,4.944517 2.985267,5.580349"
       id="path33289-7"
       sodipodi:nodetypes="cccccccc" />
    <path
       style="display:inline;fill:#ffffff;fill-opacity:1;stroke:none;stroke-width:0.275593;stroke-opacity:1"
       d="m 21.519273,29.105805 c -1.854911,-0.272347 -5.822617,-0.299688 -5.822617,-0.299688 2.357585,1.078397 8.156125,3.579329 5.822617,0.299688 z"
       id="path33287-0"
       inkscape:export-filename="/home/debian/Documents/GitHub/core/frontend-main/src/assets/path33287-0.png"
       inkscape:export-xdpi="121.6"
       inkscape:export-ydpi="121.6" />
    <path
       style="display:inline;fill:#ffffff;fill-opacity:1;stroke:none;stroke-width:0.275601;stroke-opacity:1"
       d="m 21.445676,28.115954 c 0.05719,-1.460574 -1.540882,-1.750792 -3.100491,-1.850691 -0.93245,-0.05468 -1.866012,-0.109351 -2.388475,-0.145115 -2.188972,-0.145115 -4.405501,-0.444792 -4.405501,-0.444792 0,0 0.276659,1.307048 2.69268,1.814936 2.407224,0.507886 7.201787,0.625659 7.201787,0.625659 z"
       id="path33285-9"
       inkscape:export-filename="/home/debian/Documents/GitHub/core/frontend-main/src/assets/path33287-0.png"
       inkscape:export-xdpi="121.6"
       inkscape:export-ydpi="121.6" />
    <path
       style="display:inline;fill:#ffffff;fill-opacity:1;stroke:none;stroke-width:0.275601;stroke-opacity:1"
       d="m 20.437158,25.54812 c 0,0 0.123431,-1.751845 -1.702902,-1.978975 -1.826339,-0.227129 -4.299411,-0.614673 -7.571868,-1.278185 -3.2735264,-0.662464 -4.5964325,-1.894595 -4.5964325,-1.894595 0,0 -0.037437,2.800541 4.4716265,3.807903 4.500302,0.998952 9.399576,1.343852 9.399576,1.343852 z"
       id="path1156-3"
       sodipodi:nodetypes="cscccc"
       inkscape:export-filename="/home/debian/Documents/GitHub/core/frontend-main/src/assets/path33287-0.png"
       inkscape:export-xdpi="121.6"
       inkscape:export-ydpi="121.6" />
  </g>
  <g
     inkscape:groupmode="layer"
     id="layer2"
     inkscape:label="Layer 2"
     style="display:inline" />
  <g
     inkscape:groupmode="layer"
     id="layer3"
     inkscape:label="Layer 3"
     style="display:inline" />
  <g
     inkscape:groupmode="layer"
     id="layer4"
     inkscape:label="limit"
     style="display:none">
    <rect
       style="display:inline;opacity:0.557195;fill:#ff5e00;fill-opacity:1;stroke:#0069f5;stroke-width:0;stroke-linecap:round;stroke-linejoin:round;paint-order:stroke fill markers"
       id="rect1592-1"
       width="15"
       height="14.999998"
       x="1.8808064e-06"
       y="14.999999" />
    <rect
       style="display:inline;opacity:0.557195;fill:#ff0000;stroke:#0069f5;stroke-width:0;stroke-linecap:round;stroke-linejoin:round;paint-order:stroke fill markers"
       id="rect1592"
       width="120"
       height="14.999998"
       x="1.8808064e-06"
       y="6.7562792e-07" />
  </g>
</svg>
