<?xml version="1.0" encoding="UTF-8" standalone="no"?>
<!-- Created with Inkscape (http://www.inkscape.org/) -->

<svg
   width="120"
   height="50"
   viewBox="0 0 120 50"
   version="1.1"
   id="SVGRoot"
   sodipodi:docname="logo-white.svg"
   inkscape:version="1.1.2 (0a00cf5339, 2022-02-04)"
   inkscape:export-filename="/home/debian/Documents/GitHub/core/frontend-main/src/assets/logo-white.png"
   inkscape:export-xdpi="121.6"
   inkscape:export-ydpi="121.6"
   xmlns:inkscape="http://www.inkscape.org/namespaces/inkscape"
   xmlns:sodipodi="http://sodipodi.sourceforge.net/DTD/sodipodi-0.dtd"
   xmlns="http://www.w3.org/2000/svg"
   xmlns:svg="http://www.w3.org/2000/svg">
  <sodipodi:namedview
     id="namedview137"
     pagecolor="#ffffff"
     bordercolor="#000000"
     borderopacity="0.25"
     inkscape:showpageshadow="2"
     inkscape:pageopacity="0.0"
     inkscape:pagecheckerboard="0"
     inkscape:deskcolor="#d1d1d1"
     inkscape:document-units="px"
     showgrid="false"
     inkscape:zoom="22.627417"
     inkscape:cx="97.890095"
     inkscape:cy="26.339728"
     inkscape:window-width="1920"
     inkscape:window-height="1048"
     inkscape:window-x="0"
     inkscape:window-y="0"
     inkscape:window-maximized="1"
     inkscape:current-layer="layer1"
     inkscape:pageshadow="2"
     showguides="false"
     inkscape:lockguides="false" />
  <defs
     id="defs132">
    <rect
       x="11.236365"
       y="7.2846913"
       width="69.72084"
       height="10.069939"
       id="rect3" />
    <rect
       x="12.94258"
       y="23.094154"
       width="88.413605"
       height="18.186064"
       id="rect1" />
    <rect
       x="-1.4777668"
       y="42.333267"
       width="127.8846"
       height="23.821753"
       id="rect3454" />
    <clipPath
       id="b983e3c625">
      <path
         d="m 142,147.30078 h 115 v 72.75 H 142 Z m 0,0"
         clip-rule="nonzero"
         id="path1144" />
    </clipPath>
    <clipPath
       id="0e8c13dd3a">
      <path
         d="m 70.261719,116.35938 h 89.156251 v 70.49999 H 70.261719 Z m 0,0"
         clip-rule="nonzero"
         id="path1147" />
    </clipPath>
    <clipPath
       id="b983e3c625-3">
      <path
         d="m 142,147.30078 h 115 v 72.75 H 142 Z m 0,0"
         clip-rule="nonzero"
         id="path1144-6" />
    </clipPath>
    <clipPath
       id="0e8c13dd3a-7">
      <path
         d="m 70.261719,116.35938 h 89.156251 v 70.49999 H 70.261719 Z m 0,0"
         clip-rule="nonzero"
         id="path1147-5" />
    </clipPath>
    <clipPath
       id="b983e3c625-3-1">
      <path
         d="m 142,147.30078 h 115 v 72.75 H 142 Z m 0,0"
         clip-rule="nonzero"
         id="path1144-6-2" />
    </clipPath>
  </defs>
  <g
     inkscape:label="Layer 1"
     inkscape:groupmode="layer"
     id="layer1"
     style="display:inline">
    <text
       xml:space="preserve"
       style="font-style:normal;font-variant:normal;font-weight:normal;font-stretch:normal;font-size:19.795px;line-height:0;font-family:Manrope;-inkscape-font-specification:Manrope;letter-spacing:-0.742315px;fill:#0866ff;fill-opacity:1;stroke:none;stroke-width:0.0997343;stroke-linecap:round;stroke-linejoin:round;stroke-miterlimit:4;stroke-dasharray:none;stroke-opacity:1;paint-order:stroke markers fill"
       x="0.47899634"
       y="32.039463"
       id="text2"
       inkscape:export-filename="/home/debian/Documents/GitHub/core/frontend-main/src/assets/logo-white.png"
       inkscape:export-xdpi="121.6"
       inkscape:export-ydpi="121.6"><tspan
         sodipodi:role="line"
         id="tspan2"
         x="0.47899634"
         y="32.039463"
         style="font-style:normal;font-variant:normal;font-weight:600;font-stretch:normal;font-size:21.2766px;font-family:'IBM Plex Sans';-inkscape-font-specification:'IBM Plex Sans Semi-Bold';word-spacing:0px;fill:#0866ff;fill-opacity:1;stroke:none;stroke-width:0.0997343;stroke-linecap:round;stroke-linejoin:round;stroke-miterlimit:4;stroke-dasharray:none;stroke-opacity:1;paint-order:stroke markers fill">adazone</tspan></text>
    <path
       fill="#ffffff"
       d="m 87.229973,30.205708 c -0.11886,0 -0.23855,0.006 -0.35741,0.01769 -0.11886,0.01182 -0.23687,0.0295 -0.35404,0.05311 -0.11718,0.02275 -0.2335,0.05226 -0.34815,0.08682 -0.1138,0.03456 -0.22675,0.07502 -0.33718,0.12054 -0.11042,0.04551 -0.21832,0.09696 -0.32369,0.153419 -0.10536,0.05647 -0.20738,0.117178 -0.30684,0.183766 -0.0995,0.06658 -0.19557,0.137402 -0.28829,0.213267 -0.0919,0.07587 -0.1804,0.155948 -0.26469,0.241087 -0.0851,0.08428 -0.16522,0.172807 -0.24109,0.265531 -0.0759,0.09188 -0.146673,0.187981 -0.213273,0.287451 -0.0666,0.09948 -0.12813,0.201465 -0.18376,0.306836 -0.0565,0.105355 -0.1079,0.213269 -0.15342,0.323697 -0.0455,0.110417 -0.086,0.223383 -0.12054,0.338027 -0.0346,0.113808 -0.0641,0.230128 -0.0868,0.347297 -0.0236,0.117178 -0.0413,0.235188 -0.0531,0.354045 -0.0118,0.118862 -0.0177,0.238556 -0.0177,0.358258 0,0.118861 0.006,0.238557 0.0177,0.357415 0.0118,0.118862 0.0295,0.23687 0.0531,0.354041 0.0228,0.117178 0.0523,0.2335 0.0868,0.348142 0.0346,0.113798 0.075,0.226756 0.12054,0.337184 0.0455,0.110417 0.0969,0.218327 0.15342,0.323697 0.0556,0.105354 0.11716,0.207367 0.18376,0.306839 0.0666,0.09946 0.137403,0.195563 0.213273,0.28829 0.0759,0.09188 0.15595,0.180391 0.24109,0.26469 0.0843,0.08514 0.1728,0.165219 0.26469,0.241084 0.0927,0.07587 0.18882,0.146676 0.28829,0.213271 0.0995,0.06658 0.20147,0.128128 0.30684,0.183764 0.10536,0.05647 0.21326,0.10789 0.32369,0.15342 0.11042,0.04551 0.22338,0.08596 0.33718,0.120539 0.11465,0.03456 0.23097,0.06406 0.34815,0.08682 0.11716,0.02361 0.23518,0.04131 0.35404,0.05312 0.11886,0.01181 0.23856,0.01768 0.35741,0.01768 0.1197,0 0.2394,-0.006 0.35826,-0.01769 0.11886,-0.01182 0.23687,-0.0295 0.35404,-0.05311 0.11718,-0.02275 0.2335,-0.05226 0.3473,-0.08682 0.11464,-0.03456 0.2276,-0.07502 0.33803,-0.120539 0.11044,-0.04552 0.21833,-0.09696 0.3237,-0.153419 0.10537,-0.05564 0.20736,-0.117177 0.30683,-0.183765 0.0995,-0.06659 0.19557,-0.137402 0.28745,-0.21327 0.0927,-0.07587 0.18124,-0.155948 0.26553,-0.241085 0.0852,-0.08431 0.165231,-0.172806 0.241091,-0.26469 0.0758,-0.09271 0.14668,-0.188825 0.21327,-0.28829 0.0667,-0.09948 0.12728,-0.201469 0.18376,-0.306839 0.0564,-0.105365 0.10791,-0.213269 0.15342,-0.323696 0.0456,-0.11043 0.086,-0.223384 0.12054,-0.337184 0.0346,-0.114649 0.064,-0.230971 0.0868,-0.348142 0.0236,-0.117178 0.0413,-0.235186 0.0531,-0.354042 0.0118,-0.118864 0.0177,-0.238558 0.0177,-0.357415 0,-0.119701 -0.006,-0.2394 -0.0177,-0.358258 -0.0118,-0.118863 -0.0295,-0.236873 -0.0531,-0.354045 -0.0228,-0.117176 -0.0522,-0.233499 -0.0868,-0.347297 -0.0346,-0.114636 -0.075,-0.2276 -0.12054,-0.338027 -0.0455,-0.110417 -0.097,-0.218327 -0.15342,-0.323696 -0.0564,-0.105387 -0.11716,-0.207368 -0.18376,-0.306837 -0.0666,-0.09947 -0.13741,-0.195568 -0.21327,-0.287451 -0.0758,-0.09271 -0.155951,-0.181236 -0.241091,-0.265531 -0.0843,-0.08514 -0.1728,-0.16522 -0.26553,-0.241087 -0.0919,-0.07586 -0.18798,-0.146675 -0.28745,-0.213267 -0.0995,-0.06658 -0.20146,-0.127289 -0.30683,-0.183766 -0.10537,-0.05647 -0.21327,-0.107889 -0.3237,-0.153419 -0.11042,-0.04551 -0.22339,-0.08597 -0.33803,-0.120539 -0.11379,-0.03456 -0.23012,-0.06407 -0.3473,-0.08682 -0.11717,-0.02361 -0.23518,-0.04131 -0.35404,-0.05311 -0.11886,-0.01182 -0.23856,-0.01769 -0.35826,-0.01769 z m 0,4.867245 c -0.0793,0 -0.15847,-0.0076 -0.23687,-0.02361 -0.0784,-0.01518 -0.15426,-0.03878 -0.22844,-0.06913 -0.0733,-0.03034 -0.14415,-0.06827 -0.2099,-0.112119 -0.0666,-0.04469 -0.12812,-0.09526 -0.1846,-0.151734 -0.0565,-0.05647 -0.10706,-0.118004 -0.15174,-0.18461 -0.0438,-0.06575 -0.0818,-0.136558 -0.1121,-0.209894 -0.0303,-0.07417 -0.0539,-0.150049 -0.0691,-0.228444 -0.016,-0.07839 -0.0236,-0.157633 -0.0236,-0.236868 0,-0.08007 0.008,-0.159324 0.0236,-0.237718 0.0152,-0.07839 0.0388,-0.154261 0.0691,-0.22844 0.0303,-0.07333 0.0683,-0.144148 0.1121,-0.209899 0.0447,-0.06658 0.0953,-0.128128 0.15174,-0.184609 0.0565,-0.05646 0.118,-0.107044 0.1846,-0.15173 0.0657,-0.04383 0.13656,-0.08178 0.2099,-0.112108 0.0742,-0.03034 0.15005,-0.05394 0.22844,-0.06913 0.0784,-0.01601 0.15764,-0.0236 0.23687,-0.0236 0.0801,0 0.15932,0.0076 0.23772,0.0236 0.0784,0.01518 0.15426,0.03877 0.22844,0.06913 0.0733,0.03034 0.14415,0.06827 0.2099,0.112108 0.0666,0.04469 0.12812,0.09526 0.18461,0.15173 0.0565,0.05647 0.10706,0.118017 0.15173,0.184609 0.0438,0.06575 0.0818,0.136561 0.1121,0.209899 0.0303,0.07417 0.0539,0.150044 0.0691,0.22844 0.016,0.07839 0.0236,0.157635 0.0236,0.237718 0,0.07922 -0.008,0.158473 -0.0236,0.236868 -0.0152,0.07839 -0.0388,0.154264 -0.0691,0.228444 -0.0303,0.07333 -0.0683,0.144143 -0.1121,0.209894 -0.0447,0.06659 -0.0952,0.128128 -0.15173,0.18461 -0.0565,0.05647 -0.11801,0.107066 -0.18461,0.151734 -0.0658,0.04383 -0.13656,0.08176 -0.2099,0.112119 -0.0742,0.03033 -0.15005,0.05394 -0.22844,0.06913 -0.0784,0.01601 -0.15763,0.02361 -0.23772,0.02361 z m 0,0"
       fill-opacity="1"
       fill-rule="nonzero"
       id="path1160"
       style="display:inline;fill:#0866ff;fill-opacity:1;stroke-width:0.215797"
       inkscape:export-filename="/home/debian/Documents/GitHub/core/frontend-main/src/assets/logo-white.png"
       inkscape:export-xdpi="121.6"
       inkscape:export-ydpi="121.6" />
    <path
       fill="#ffffff"
       d="m 96.963624,30.205708 c -0.11885,0 -0.23855,0.006 -0.35741,0.01769 -0.11886,0.01182 -0.23688,0.0295 -0.35404,0.05311 -0.11718,0.02275 -0.2335,0.05226 -0.3473,0.08682 -0.11464,0.03456 -0.2276,0.07502 -0.33802,0.12054 -0.11045,0.04551 -0.21834,0.09696 -0.3237,0.153419 -0.10539,0.05647 -0.20738,0.117178 -0.30684,0.183766 -0.0995,0.06658 -0.19557,0.137402 -0.28829,0.213267 -0.0918,0.07587 -0.1804,0.155948 -0.26469,0.241087 -0.0852,0.08428 -0.16522,0.172807 -0.24109,0.265531 -0.0758,0.09188 -0.14668,0.187981 -0.21326,0.287451 -0.0665,0.09948 -0.12729,0.201465 -0.18377,0.306836 -0.0564,0.105355 -0.10791,0.213269 -0.15342,0.323697 -0.0456,0.110417 -0.086,0.223383 -0.12054,0.338027 -0.0346,0.113808 -0.0641,0.230128 -0.0868,0.347297 -0.0236,0.117178 -0.0413,0.235188 -0.0531,0.354045 -0.0118,0.118862 -0.0177,0.238556 -0.0177,0.358258 0,0.118861 0.006,0.238557 0.0177,0.357415 0.0118,0.118862 0.0295,0.23687 0.0531,0.354041 0.0228,0.117178 0.0522,0.2335 0.0868,0.348142 0.0346,0.113798 0.075,0.226756 0.12054,0.337184 0.0456,0.110417 0.097,0.218327 0.15342,0.323697 0.0564,0.105354 0.11718,0.207367 0.18377,0.306839 0.0666,0.09946 0.1374,0.195563 0.21326,0.28829 0.0759,0.09188 0.15595,0.180391 0.24109,0.26469 0.0843,0.08514 0.1728,0.165219 0.26469,0.241084 0.0928,0.07587 0.18881,0.146676 0.28829,0.213271 0.0995,0.06658 0.20147,0.128128 0.30684,0.183764 0.10536,0.05647 0.21326,0.10789 0.3237,0.15342 0.11041,0.04551 0.22337,0.08596 0.33802,0.120539 0.11381,0.03456 0.23013,0.06406 0.3473,0.08682 0.11716,0.02361 0.23518,0.04131 0.35404,0.05312 0.11886,0.01182 0.23856,0.01769 0.35741,0.01769 0.11971,0 0.2394,-0.006 0.35827,-0.01769 0.11884,-0.01182 0.23686,-0.0295 0.35404,-0.05312 0.11718,-0.02275 0.2335,-0.05226 0.3473,-0.08682 0.11463,-0.03456 0.2276,-0.07502 0.33802,-0.120539 0.11044,-0.04552 0.21832,-0.09696 0.323686,-0.15342 0.10539,-0.05564 0.20737,-0.117176 0.30685,-0.183764 0.0995,-0.06659 0.19556,-0.137403 0.28829,-0.213271 0.0918,-0.07586 0.18038,-0.155947 0.26469,-0.241084 0.0852,-0.08431 0.16521,-0.172806 0.24109,-0.26469 0.0758,-0.09271 0.14666,-0.188825 0.21326,-0.28829 0.0665,-0.09948 0.12729,-0.20147 0.18377,-0.306839 0.0564,-0.105365 0.10789,-0.213269 0.15342,-0.323697 0.0456,-0.110429 0.086,-0.223383 0.12054,-0.337184 0.0346,-0.114648 0.064,-0.230971 0.0868,-0.348142 0.0236,-0.117177 0.0413,-0.235185 0.0531,-0.354041 0.0118,-0.118864 0.0176,-0.238558 0.0176,-0.357415 0,-0.119702 -0.006,-0.2394 -0.0176,-0.358258 -0.0118,-0.118863 -0.0295,-0.236873 -0.0531,-0.354045 -0.0228,-0.117177 -0.0522,-0.233499 -0.0868,-0.347297 -0.0346,-0.114636 -0.075,-0.227601 -0.12054,-0.338027 -0.0455,-0.110418 -0.097,-0.218327 -0.15342,-0.323697 -0.0564,-0.105386 -0.11718,-0.207367 -0.18377,-0.306836 -0.0666,-0.09947 -0.1374,-0.195568 -0.21326,-0.287451 -0.0759,-0.09271 -0.15595,-0.181236 -0.24109,-0.265531 -0.0843,-0.08514 -0.17281,-0.16522 -0.26554,-0.241087 -0.0918,-0.07586 -0.18798,-0.146675 -0.28744,-0.213267 -0.0995,-0.06658 -0.20147,-0.12729 -0.30685,-0.183766 -0.105366,-0.05647 -0.213256,-0.107889 -0.323686,-0.153419 -0.11042,-0.04551 -0.22339,-0.08597 -0.33802,-0.12054 -0.11381,-0.03456 -0.23013,-0.06407 -0.3473,-0.08682 -0.11717,-0.02361 -0.23519,-0.04131 -0.35404,-0.05311 -0.11887,-0.01182 -0.23856,-0.01769 -0.35827,-0.01769 z m 0,4.867245 c -0.0792,0 -0.15847,-0.0076 -0.23687,-0.02361 -0.0784,-0.01518 -0.15426,-0.03878 -0.22844,-0.06913 -0.0733,-0.03034 -0.14415,-0.06827 -0.2099,-0.112119 -0.0666,-0.04469 -0.12813,-0.09526 -0.1846,-0.151734 -0.0564,-0.05647 -0.10706,-0.118004 -0.15174,-0.18461 -0.0438,-0.06575 -0.0818,-0.136558 -0.11211,-0.209894 -0.0303,-0.07417 -0.0539,-0.150049 -0.0692,-0.228444 -0.016,-0.07839 -0.0236,-0.157633 -0.0236,-0.236868 0,-0.08007 0.007,-0.159324 0.0236,-0.237718 0.0152,-0.07839 0.0388,-0.154261 0.0692,-0.22844 0.0304,-0.07333 0.0683,-0.144148 0.11211,-0.209899 0.0447,-0.06658 0.0953,-0.128128 0.15174,-0.184609 0.0564,-0.05646 0.118,-0.107044 0.1846,-0.15173 0.0657,-0.04383 0.13656,-0.08178 0.2099,-0.112108 0.0742,-0.03034 0.15005,-0.05394 0.22844,-0.06913 0.0784,-0.01601 0.15764,-0.0236 0.23687,-0.0236 0.08,0 0.15933,0.0076 0.23772,0.0236 0.0784,0.01518 0.15426,0.03877 0.22844,0.06913 0.0733,0.03034 0.14414,0.06827 0.20989,0.112108 0.0666,0.04469 0.12815,0.09526 0.18462,0.15173 0.0565,0.05647 0.10705,0.118017 0.15172,0.184609 0.0438,0.06575 0.0818,0.136561 0.11211,0.209899 0.0303,0.07417 0.0539,0.150044 0.0692,0.22844 0.016,0.07839 0.0236,0.157635 0.0236,0.237718 0,0.07922 -0.007,0.158473 -0.0236,0.236868 -0.0152,0.07839 -0.0388,0.154264 -0.0692,0.228444 -0.0303,0.07333 -0.0683,0.144143 -0.11211,0.209894 -0.0447,0.06659 -0.0953,0.128128 -0.15172,0.18461 -0.0564,0.05647 -0.11802,0.107066 -0.18462,0.151734 -0.0657,0.04383 -0.13655,0.08176 -0.20989,0.112119 -0.0742,0.03033 -0.15005,0.05394 -0.22844,0.06913 -0.0784,0.01601 -0.15763,0.02361 -0.23772,0.02361 z m 0,0"
       fill-opacity="1"
       fill-rule="nonzero"
       id="path1162"
       style="display:inline;fill:#0866ff;fill-opacity:1;stroke-width:0.215797"
       inkscape:export-filename="/home/debian/Documents/GitHub/core/frontend-main/src/assets/logo-white.png"
       inkscape:export-xdpi="121.6"
       inkscape:export-ydpi="121.6" />
    <g
       id="g34801"
       transform="matrix(1.5234633,0,0,1.1428571,-86.343673,-2.5291077)"
       inkscape:export-filename="/home/debian/Documents/GitHub/core/frontend-main/src/assets/g34801.png"
       inkscape:export-xdpi="121.6"
       inkscape:export-ydpi="121.6"
       style="fill:#0866ff;fill-opacity:1;stroke:none;stroke-opacity:1">
      <path
         style="display:inline;fill:#0866ff;fill-opacity:1;stroke:none;stroke-width:0.198883;stroke-opacity:1"
         d="m 113.16431,27.027575 c 0.94548,-2.091382 0.99909,-3.52008 0.96568,-5.102601 -0.0334,-1.629909 0.48244,-2.924204 2.09216,-3.40665 6.02865,-1.803937 9.1463,-1.4287 14.70571,-5.485606 0,0 0,3.346055 -3.76868,5.3916 -2.70901,1.462104 -7.63138,2.099152 -9.64974,2.514785 -1.12648,0.241614 -1.35488,1.04647 -1.60271,2.031562 -0.55625,2.186164 -1.19408,3.594661 -2.74242,4.05691"
         id="path33289-7" />
      <path
         style="display:inline;fill:#0866ff;fill-opacity:1;stroke:none;stroke-width:0.198877;stroke-opacity:1"
         d="m 116.04286,25.82755 c 1.30744,-0.201215 4.10408,-0.221415 4.10408,-0.221415 -1.66175,0.796739 -5.74885,2.64447 -4.10408,0.221415 z"
         id="path33287-0" />
      <path
         style="display:inline;fill:#0866ff;fill-opacity:1;stroke:none;stroke-width:0.198883;stroke-opacity:1"
         d="m 116.09474,25.09623 c -0.0403,-1.079097 1.08609,-1.293516 2.18538,-1.367322 0.65724,-0.0404 1.31526,-0.08079 1.68352,-0.107214 1.5429,-0.107214 3.10522,-0.328621 3.10522,-0.328621 0,0 -0.195,0.965671 -1.89794,1.340907 -1.69673,0.375235 -5.07618,0.462247 -5.07618,0.462247 z"
         id="path33285-9" />
      <path
         style="display:inline;fill:#0866ff;fill-opacity:1;stroke:none;stroke-width:0.198883;stroke-opacity:1"
         d="m 116.80559,23.199069 c 0,0 -0.087,-1.294294 1.20029,-1.462101 1.2873,-0.167807 3.47346,-0.428842 5.78005,-0.919058 2.30735,-0.489439 2.85661,-0.730275 2.85661,-0.730275 0,0 -0.0334,1.374316 -3.21165,2.118573 -3.17204,0.738043 -6.6253,0.992861 -6.6253,0.992861 z"
         id="path1156-3" />
    </g>
  </g>
  <g
     inkscape:groupmode="layer"
     id="layer2"
     inkscape:label="Layer 2"
     style="display:inline" />
  <g
     inkscape:groupmode="layer"
     id="layer3"
     inkscape:label="Layer 3"
     style="display:inline" />
  <g
     inkscape:groupmode="layer"
     id="layer4"
     inkscape:label="limit"
     style="display:none">
    <rect
       style="display:inline;opacity:0.557195;fill:#ff5e00;fill-opacity:1;stroke:#0069f5;stroke-width:0;stroke-linecap:round;stroke-linejoin:round;paint-order:stroke fill markers"
       id="rect1592-1"
       width="15"
       height="14.999998"
       x="1.8808064e-06"
       y="14.999999" />
    <rect
       style="display:inline;opacity:0.557195;fill:#ff0000;stroke:#0069f5;stroke-width:0;stroke-linecap:round;stroke-linejoin:round;paint-order:stroke fill markers"
       id="rect1592"
       width="120"
       height="14.999998"
       x="1.8808064e-06"
       y="6.7562792e-07" />
  </g>
</svg>
