<?xml version="1.0" encoding="UTF-8" standalone="no"?>
<svg
   width="100"
   zoomAndPan="magnify"
   viewBox="0 0 75 15.000001"
   height="20"
   preserveAspectRatio="xMidYMid meet"
   version="1.0"
   id="svg88"
   sodipodi:docname="logo (100 x 40 px).svg"
   inkscape:version="1.1.2 (0a00cf5339, 2022-02-04)"
   xmlns:inkscape="http://www.inkscape.org/namespaces/inkscape"
   xmlns:sodipodi="http://sodipodi.sourceforge.net/DTD/sodipodi-0.dtd"
   xmlns="http://www.w3.org/2000/svg"
   xmlns:svg="http://www.w3.org/2000/svg">
  <sodipodi:namedview
     id="namedview90"
     pagecolor="#ffffff"
     bordercolor="#666666"
     borderopacity="1.0"
     inkscape:pageshadow="2"
     inkscape:pageopacity="0.0"
     inkscape:pagecheckerboard="0"
     showgrid="false"
     height="20px"
     inkscape:zoom="6.305"
     inkscape:cx="19.904837"
     inkscape:cy="20.459952"
     inkscape:window-width="1920"
     inkscape:window-height="1048"
     inkscape:window-x="0"
     inkscape:window-y="1080"
     inkscape:window-maximized="1"
     inkscape:current-layer="svg88" />
  <defs
     id="defs10">
    <g
       id="g2" />
    <clipPath
       id="948b3773c9">
      <path
         d="M 1.210938,1 H 10 v 9 H 1.210938 Z m 0,0"
         clip-rule="nonzero"
         id="path4" />
    </clipPath>
    <clipPath
       id="0d3c4dfbe2">
      <path
         d="m 66,2 h 7.789062 v 8 H 66 Z m 0,0"
         clip-rule="nonzero"
         id="path7" />
    </clipPath>
  </defs>
  <g
     clip-path="url(#948b3773c9)"
     id="g20"
     transform="translate(0,1.5)">
    <g
       fill="#ff5f1a"
       fill-opacity="1"
       id="g18">
      <g
         transform="translate(1.209676,9.79588)"
         id="g16">
        <g
           id="g14">
          <path
             d="m 2.484375,-7.53125 c 0.144531,-0.082031 0.363281,-0.160156 0.65625,-0.234375 0.289063,-0.082031 0.585937,-0.125 0.890625,-0.125 0.425781,0 0.800781,0.0625 1.125,0.1875 0.332031,0.125 0.546875,0.324219 0.640625,0.59375 0.15625,0.4375 0.320313,0.953125 0.5,1.546875 0.175781,0.585938 0.351563,1.195312 0.53125,1.828125 0.1875,0.625 0.363281,1.246094 0.53125,1.859375 0.164063,0.605469 0.316406,1.140625 0.453125,1.609375 C 7.707031,-0.148438 7.550781,-0.0546875 7.34375,0.015625 7.132812,0.0859375 6.890625,0.125 6.609375,0.125 6.410156,0.125 6.238281,0.109375 6.09375,0.078125 5.957031,0.046875 5.84375,0 5.75,-0.0625 5.664062,-0.132812 5.59375,-0.226562 5.53125,-0.34375 5.476562,-0.457031 5.429688,-0.585938 5.390625,-0.734375 l -0.234375,-0.875 H 2.84375 C 2.769531,-1.359375 2.695312,-1.09375 2.625,-0.8125 2.5625,-0.539062 2.5,-0.28125 2.4375,-0.03125 2.3125,0.0078125 2.179688,0.046875 2.046875,0.078125 1.921875,0.109375 1.765625,0.125 1.578125,0.125 c -0.4375,0 -0.761719,-0.0742188 -0.96875,-0.21875 -0.210937,-0.144531 -0.3125,-0.351562 -0.3125,-0.625 0,-0.113281 0.015625,-0.226562 0.046875,-0.34375 0.03125,-0.125 0.066406,-0.269531 0.109375,-0.4375 0.0625,-0.226562 0.144531,-0.507812 0.25,-0.84375 C 0.816406,-2.6875 0.9375,-3.054688 1.0625,-3.453125 1.1875,-3.859375 1.320312,-4.269531 1.46875,-4.6875 1.613281,-5.101562 1.75,-5.492188 1.875,-5.859375 c 0.132812,-0.375 0.253906,-0.707031 0.359375,-1 0.101563,-0.289063 0.1875,-0.515625 0.25,-0.671875 z m 1.53125,1.65625 c -0.117187,0.355469 -0.25,0.757812 -0.40625,1.203125 -0.148437,0.4375 -0.277344,0.882813 -0.390625,1.328125 H 4.796875 C 4.679688,-3.800781 4.5625,-4.25 4.4375,-4.6875 4.3125,-5.125 4.195312,-5.519531 4.09375,-5.875 Z m 0,0"
             id="path12" />
        </g>
      </g>
    </g>
  </g>
  <g
     fill="#ff5f1a"
     fill-opacity="1"
     id="g28"
     transform="translate(0,1.5)">
    <g
       transform="translate(9.231953,9.79588)"
       id="g26">
      <g
         id="g24">
        <path
           d="m 3.0625,-1.65625 c 0.09375,0.011719 0.207031,0.027344 0.34375,0.046875 0.132812,0.011719 0.257812,0.015625 0.375,0.015625 0.289062,0 0.554688,-0.039062 0.796875,-0.125 0.25,-0.09375 0.460937,-0.226562 0.640625,-0.40625 0.175781,-0.175781 0.3125,-0.40625 0.40625,-0.6875 0.09375,-0.289062 0.140625,-0.640625 0.140625,-1.046875 0,-0.757813 -0.179687,-1.332031 -0.53125,-1.71875 -0.355469,-0.394531 -0.835937,-0.59375 -1.4375,-0.59375 -0.117187,0 -0.234375,0.00781 -0.359375,0.015625 -0.125,0.011719 -0.25,0.027344 -0.375,0.046875 z m 0.71875,1.859375 c -0.148438,0 -0.3125,-0.007813 -0.5,-0.015625 C 3.09375,0.175781 2.894531,0.160156 2.6875,0.140625 2.488281,0.117188 2.289062,0.0859375 2.09375,0.046875 1.894531,0.00390625 1.707031,-0.046875 1.53125,-0.109375 c -0.46875,-0.1875 -0.703125,-0.5 -0.703125,-0.9375 V -7.03125 c 0,-0.175781 0.046875,-0.3125 0.140625,-0.40625 0.101562,-0.101562 0.238281,-0.179688 0.40625,-0.234375 0.375,-0.125 0.765625,-0.203125 1.171875,-0.234375 0.40625,-0.039062 0.769531,-0.0625 1.09375,-0.0625 0.664063,0 1.269531,0.085938 1.8125,0.25 0.539063,0.15625 1.003906,0.40625 1.390625,0.75 0.394531,0.335938 0.695312,0.757812 0.90625,1.265625 0.21875,0.511719 0.328125,1.117187 0.328125,1.8125 0,0.6875 -0.105469,1.289063 -0.3125,1.796875 -0.210937,0.5 -0.5,0.921875 -0.875,1.265625 -0.375,0.34375 -0.828125,0.605469 -1.359375,0.78125 -0.53125,0.164063 -1.117188,0.25 -1.75,0.25 z m 0,0"
           id="path22" />
      </g>
    </g>
  </g>
  <g
     fill="#ff5f1a"
     fill-opacity="1"
     id="g36"
     transform="translate(0,1.5)">
    <g
       transform="translate(17.753226,9.79588)"
       id="g34">
      <g
         id="g32">
        <path
           d="m 2.484375,-7.53125 c 0.144531,-0.082031 0.363281,-0.160156 0.65625,-0.234375 0.289063,-0.082031 0.585937,-0.125 0.890625,-0.125 0.425781,0 0.800781,0.0625 1.125,0.1875 0.332031,0.125 0.546875,0.324219 0.640625,0.59375 0.15625,0.4375 0.320313,0.953125 0.5,1.546875 0.175781,0.585938 0.351563,1.195312 0.53125,1.828125 0.1875,0.625 0.363281,1.246094 0.53125,1.859375 0.164063,0.605469 0.316406,1.140625 0.453125,1.609375 C 7.707031,-0.148438 7.550781,-0.0546875 7.34375,0.015625 7.132812,0.0859375 6.890625,0.125 6.609375,0.125 6.410156,0.125 6.238281,0.109375 6.09375,0.078125 5.957031,0.046875 5.84375,0 5.75,-0.0625 5.664062,-0.132812 5.59375,-0.226562 5.53125,-0.34375 5.476562,-0.457031 5.429688,-0.585938 5.390625,-0.734375 l -0.234375,-0.875 H 2.84375 C 2.769531,-1.359375 2.695312,-1.09375 2.625,-0.8125 2.5625,-0.539062 2.5,-0.28125 2.4375,-0.03125 2.3125,0.0078125 2.179688,0.046875 2.046875,0.078125 1.921875,0.109375 1.765625,0.125 1.578125,0.125 c -0.4375,0 -0.761719,-0.0742188 -0.96875,-0.21875 -0.210937,-0.144531 -0.3125,-0.351562 -0.3125,-0.625 0,-0.113281 0.015625,-0.226562 0.046875,-0.34375 0.03125,-0.125 0.066406,-0.269531 0.109375,-0.4375 0.0625,-0.226562 0.144531,-0.507812 0.25,-0.84375 C 0.816406,-2.6875 0.9375,-3.054688 1.0625,-3.453125 1.1875,-3.859375 1.320312,-4.269531 1.46875,-4.6875 1.613281,-5.101562 1.75,-5.492188 1.875,-5.859375 c 0.132812,-0.375 0.253906,-0.707031 0.359375,-1 0.101563,-0.289063 0.1875,-0.515625 0.25,-0.671875 z m 1.53125,1.65625 c -0.117187,0.355469 -0.25,0.757812 -0.40625,1.203125 -0.148437,0.4375 -0.277344,0.882813 -0.390625,1.328125 H 4.796875 C 4.679688,-3.800781 4.5625,-4.25 4.4375,-4.6875 4.3125,-5.125 4.195312,-5.519531 4.09375,-5.875 Z m 0,0"
           id="path30" />
      </g>
    </g>
  </g>
  <g
     fill="#ff5f1a"
     fill-opacity="1"
     id="g44"
     transform="translate(0,1.5)">
    <g
       transform="translate(25.775503,9.79588)"
       id="g42">
      <g
         id="g40">
        <path
           d="M 6.1875,-1.90625 C 6.082031,-1.8125 5.941406,-1.734375 5.765625,-1.671875 5.585938,-1.617188 5.382812,-1.59375 5.15625,-1.59375 4.851562,-1.59375 4.597656,-1.628906 4.390625,-1.703125 4.191406,-1.785156 4.0625,-1.921875 4,-2.109375 3.757812,-2.859375 3.5625,-3.460938 3.40625,-3.921875 3.257812,-4.390625 3.144531,-4.800781 3.0625,-5.15625 H 3 c -0.03125,0.5 -0.054688,0.960938 -0.0625,1.375 -0.011719,0.417969 -0.023438,0.824219 -0.03125,1.21875 0,0.386719 -0.011719,0.78125 -0.03125,1.1875 C 2.863281,-0.976562 2.847656,-0.535156 2.828125,-0.046875 2.710938,-0.00390625 2.566406,0.03125 2.390625,0.0625 2.210938,0.09375 2.035156,0.109375 1.859375,0.109375 c -0.375,0 -0.667969,-0.0585938 -0.875,-0.171875 -0.210937,-0.125 -0.3125,-0.347656 -0.3125,-0.671875 L 1.03125,-7.25 C 1.101562,-7.363281 1.253906,-7.484375 1.484375,-7.609375 1.710938,-7.742188 2.035156,-7.8125 2.453125,-7.8125 c 0.457031,0 0.8125,0.074219 1.0625,0.21875 0.257813,0.136719 0.445313,0.367188 0.5625,0.6875 0.082031,0.199219 0.164063,0.433594 0.25,0.703125 0.09375,0.261719 0.179687,0.53125 0.265625,0.8125 0.09375,0.28125 0.179688,0.5625 0.265625,0.84375 0.082031,0.273437 0.160156,0.523437 0.234375,0.75 h 0.0625 c 0.207031,-0.71875 0.410156,-1.410156 0.609375,-2.078125 0.207031,-0.675781 0.394531,-1.238281 0.5625,-1.6875 0.132813,-0.070312 0.300781,-0.128906 0.5,-0.171875 C 7.023438,-7.785156 7.25,-7.8125 7.5,-7.8125 c 0.414062,0 0.753906,0.0625 1.015625,0.1875 0.269531,0.125 0.425781,0.304688 0.46875,0.53125 0.03125,0.179688 0.066406,0.445312 0.109375,0.796875 0.039062,0.355469 0.082031,0.757813 0.125,1.203125 0.039062,0.4375 0.082031,0.90625 0.125,1.40625 0.039062,0.492188 0.078125,0.964844 0.109375,1.421875 0.039063,0.449219 0.070313,0.867187 0.09375,1.25 0.03125,0.375 0.050781,0.667969 0.0625,0.875 C 9.460938,-0.0546875 9.3125,0.00390625 9.15625,0.046875 9,0.0859375 8.796875,0.109375 8.546875,0.109375 8.222656,0.109375 7.945312,0.0507812 7.71875,-0.0625 7.5,-0.175781 7.382812,-0.394531 7.375,-0.71875 c -0.054688,-0.925781 -0.089844,-1.757812 -0.109375,-2.5 -0.011719,-0.75 -0.027344,-1.375 -0.046875,-1.875 h -0.0625 c -0.085938,0.335938 -0.210938,0.757812 -0.375,1.265625 -0.15625,0.5 -0.355469,1.140625 -0.59375,1.921875 z m 0,0"
           id="path38" />
      </g>
    </g>
  </g>
  <g
     fill="#ff5f1a"
     fill-opacity="1"
     id="g52"
     transform="translate(0,1.5)">
    <g
       transform="translate(35.972884,9.79588)"
       id="g50">
      <g
         id="g48">
        <path
           d="m 2.484375,-7.53125 c 0.144531,-0.082031 0.363281,-0.160156 0.65625,-0.234375 0.289063,-0.082031 0.585937,-0.125 0.890625,-0.125 0.425781,0 0.800781,0.0625 1.125,0.1875 0.332031,0.125 0.546875,0.324219 0.640625,0.59375 0.15625,0.4375 0.320313,0.953125 0.5,1.546875 0.175781,0.585938 0.351563,1.195312 0.53125,1.828125 0.1875,0.625 0.363281,1.246094 0.53125,1.859375 0.164063,0.605469 0.316406,1.140625 0.453125,1.609375 C 7.707031,-0.148438 7.550781,-0.0546875 7.34375,0.015625 7.132812,0.0859375 6.890625,0.125 6.609375,0.125 6.410156,0.125 6.238281,0.109375 6.09375,0.078125 5.957031,0.046875 5.84375,0 5.75,-0.0625 5.664062,-0.132812 5.59375,-0.226562 5.53125,-0.34375 5.476562,-0.457031 5.429688,-0.585938 5.390625,-0.734375 l -0.234375,-0.875 H 2.84375 C 2.769531,-1.359375 2.695312,-1.09375 2.625,-0.8125 2.5625,-0.539062 2.5,-0.28125 2.4375,-0.03125 2.3125,0.0078125 2.179688,0.046875 2.046875,0.078125 1.921875,0.109375 1.765625,0.125 1.578125,0.125 c -0.4375,0 -0.761719,-0.0742188 -0.96875,-0.21875 -0.210937,-0.144531 -0.3125,-0.351562 -0.3125,-0.625 0,-0.113281 0.015625,-0.226562 0.046875,-0.34375 0.03125,-0.125 0.066406,-0.269531 0.109375,-0.4375 0.0625,-0.226562 0.144531,-0.507812 0.25,-0.84375 C 0.816406,-2.6875 0.9375,-3.054688 1.0625,-3.453125 1.1875,-3.859375 1.320312,-4.269531 1.46875,-4.6875 1.613281,-5.101562 1.75,-5.492188 1.875,-5.859375 c 0.132812,-0.375 0.253906,-0.707031 0.359375,-1 0.101563,-0.289063 0.1875,-0.515625 0.25,-0.671875 z m 1.53125,1.65625 c -0.117187,0.355469 -0.25,0.757812 -0.40625,1.203125 -0.148437,0.4375 -0.277344,0.882813 -0.390625,1.328125 H 4.796875 C 4.679688,-3.800781 4.5625,-4.25 4.4375,-4.6875 4.3125,-5.125 4.195312,-5.519531 4.09375,-5.875 Z m 0,0"
           id="path46" />
      </g>
    </g>
  </g>
  <g
     fill="#ff5f1a"
     fill-opacity="1"
     id="g60"
     transform="translate(0,1.5)">
    <g
       transform="translate(43.995161,9.79588)"
       id="g58">
      <g
         id="g56">
        <path
           d="m 3.0625,-2.515625 v 2.46875 C 2.96875,-0.0234375 2.816406,-0.00390625 2.609375,0.015625 2.410156,0.046875 2.210938,0.0625 2.015625,0.0625 1.828125,0.0625 1.65625,0.046875 1.5,0.015625 1.351562,-0.015625 1.226562,-0.0664062 1.125,-0.140625 1.03125,-0.210938 0.957031,-0.316406 0.90625,-0.453125 0.851562,-0.597656 0.828125,-0.78125 0.828125,-1 v -6.03125 c 0,-0.175781 0.046875,-0.3125 0.140625,-0.40625 C 1.070312,-7.539062 1.207031,-7.617188 1.375,-7.671875 1.664062,-7.773438 2.003906,-7.847656 2.390625,-7.890625 2.773438,-7.941406 3.1875,-7.96875 3.625,-7.96875 c 1.175781,0 2.0625,0.25 2.65625,0.75 0.59375,0.492188 0.890625,1.15625 0.890625,2 0,0.53125 -0.136719,0.984375 -0.40625,1.359375 -0.273437,0.375 -0.59375,0.664063 -0.96875,0.859375 0.300781,0.417969 0.601563,0.8125 0.90625,1.1875 0.300781,0.367188 0.535156,0.699219 0.703125,1 C 7.320312,-0.519531 7.164062,-0.289062 6.9375,-0.125 6.71875,0.03125 6.46875,0.109375 6.1875,0.109375 6,0.109375 5.832031,0.0820312 5.6875,0.03125 5.550781,-0.0078125 5.429688,-0.0664062 5.328125,-0.140625 5.234375,-0.210938 5.140625,-0.304688 5.046875,-0.421875 4.960938,-0.535156 4.882812,-0.65625 4.8125,-0.78125 L 3.734375,-2.515625 Z m 0.796875,-1.6875 c 0.320313,0 0.578125,-0.082031 0.765625,-0.25 0.1875,-0.164063 0.28125,-0.414063 0.28125,-0.75 0,-0.320313 -0.105469,-0.566406 -0.3125,-0.734375 -0.210938,-0.164062 -0.539062,-0.25 -0.984375,-0.25 -0.125,0 -0.230469,0.00781 -0.3125,0.015625 -0.074219,0.011719 -0.15625,0.027344 -0.25,0.046875 v 1.921875 z m 0,0"
           id="path54" />
      </g>
    </g>
  </g>
  <g
     fill="#ff5f1a"
     fill-opacity="1"
     id="g68"
     transform="translate(0,1.5)">
    <g
       transform="translate(51.787133,9.79588)"
       id="g66">
      <g
         id="g64">
        <path
           d="m 3.078125,-2.875 v 2.828125 C 2.984375,-0.0234375 2.832031,-0.00390625 2.625,0.015625 2.425781,0.046875 2.226562,0.0625 2.03125,0.0625 1.832031,0.0625 1.660156,0.046875 1.515625,0.015625 1.367188,-0.015625 1.242188,-0.0664062 1.140625,-0.140625 1.035156,-0.210938 0.957031,-0.316406 0.90625,-0.453125 0.851562,-0.597656 0.828125,-0.78125 0.828125,-1 V -7.75 C 0.921875,-7.769531 1.070312,-7.796875 1.28125,-7.828125 1.488281,-7.859375 1.6875,-7.875 1.875,-7.875 c 0.1875,0 0.351562,0.015625 0.5,0.046875 0.15625,0.03125 0.285156,0.089844 0.390625,0.171875 0.101563,0.074219 0.179687,0.179688 0.234375,0.3125 0.050781,0.136719 0.078125,0.3125 0.078125,0.53125 v 2.046875 l 2.65625,-3.0625 c 0.582031,0 1,0.109375 1.25,0.328125 0.25,0.21875 0.375,0.476562 0.375,0.765625 0,0.21875 -0.058594,0.429687 -0.171875,0.625 C 7.082031,-5.910156 6.90625,-5.6875 6.65625,-5.4375 L 5.0625,-3.84375 c 0.207031,0.242188 0.425781,0.492188 0.65625,0.75 0.238281,0.25 0.46875,0.5 0.6875,0.75 0.226562,0.242188 0.445312,0.476562 0.65625,0.703125 0.21875,0.21875 0.398438,0.40625 0.546875,0.5625 0,0.1875 -0.039063,0.355469 -0.109375,0.5 -0.0625,0.148437 -0.152344,0.273437 -0.265625,0.375 C 7.117188,-0.0976562 6.988281,-0.0195312 6.84375,0.03125 6.695312,0.0820312 6.546875,0.109375 6.390625,0.109375 6.035156,0.109375 5.75,0.0195312 5.53125,-0.15625 5.3125,-0.332031 5.097656,-0.539062 4.890625,-0.78125 Z m 0,0"
           id="path62" />
      </g>
    </g>
  </g>
  <g
     fill="#ff5f1a"
     fill-opacity="1"
     id="g76"
     transform="translate(0,1.5)">
    <g
       transform="translate(59.655877,9.79588)"
       id="g74">
      <g
         id="g72">
        <path
           d="m 0.828125,-6.5625 c 0,-0.363281 0.101563,-0.648438 0.3125,-0.859375 C 1.359375,-7.640625 1.648438,-7.75 2.015625,-7.75 H 6.25 c 0.050781,0.09375 0.097656,0.21875 0.140625,0.375 0.050781,0.148438 0.078125,0.308594 0.078125,0.484375 0,0.324219 -0.074219,0.554687 -0.21875,0.6875 C 6.113281,-6.066406 5.929688,-6 5.703125,-6 H 3 v 1.1875 h 2.890625 c 0.050781,0.09375 0.097656,0.21875 0.140625,0.375 0.050781,0.148438 0.078125,0.304688 0.078125,0.46875 0,0.324219 -0.070313,0.554688 -0.203125,0.6875 -0.136719,0.136719 -0.320312,0.203125 -0.546875,0.203125 H 3 v 1.34375 h 3.296875 c 0.0625,0.09375 0.113281,0.21875 0.15625,0.375 0.050781,0.15625 0.078125,0.320313 0.078125,0.484375 0,0.324219 -0.074219,0.558594 -0.21875,0.703125 C 6.175781,-0.0351562 5.992188,0.03125 5.765625,0.03125 h -3.75 c -0.367187,0 -0.65625,-0.1015625 -0.875,-0.3125 -0.210937,-0.207031 -0.3125,-0.5 -0.3125,-0.875 z m 0,0"
           id="path70" />
      </g>
    </g>
  </g>
  <g
     clip-path="url(#0d3c4dfbe2)"
     id="g86"
     transform="translate(0,1.5)">
    <g
       fill="#ff5f1a"
       fill-opacity="1"
       id="g84">
      <g
         transform="translate(66.667374,9.79588)"
         id="g82">
        <g
           id="g80">
          <path
             d="M 0.46875,-5.96875 C 0.414062,-6.0625 0.363281,-6.1875 0.3125,-6.34375 0.257812,-6.507812 0.234375,-6.679688 0.234375,-6.859375 c 0,-0.332031 0.070313,-0.570313 0.21875,-0.71875 0.144531,-0.144531 0.335937,-0.21875 0.578125,-0.21875 h 5.578125 c 0.0625,0.09375 0.117187,0.226563 0.171875,0.390625 0.050781,0.15625 0.078125,0.328125 0.078125,0.515625 0,0.324219 -0.078125,0.558594 -0.234375,0.703125 -0.148438,0.148438 -0.339844,0.21875 -0.578125,0.21875 H 4.625 v 5.921875 C 4.53125,-0.0234375 4.382812,-0.00390625 4.1875,0.015625 3.988281,0.046875 3.789062,0.0625 3.59375,0.0625 3.394531,0.0625 3.222656,0.046875 3.078125,0.015625 2.929688,-0.015625 2.804688,-0.0664062 2.703125,-0.140625 2.597656,-0.210938 2.519531,-0.316406 2.46875,-0.453125 2.414062,-0.597656 2.390625,-0.78125 2.390625,-1 v -4.96875 z m 0,0"
             id="path78" />
        </g>
      </g>
    </g>
  </g>
</svg>
