<?xml version="1.0" encoding="UTF-8" standalone="no"?>
<!-- Created with Inkscape (http://www.inkscape.org/) -->

<svg
   version="1.1"
   id="svg2"
   width="48"
   height="48"
   viewBox="0 0 48 48"
   sodipodi:docname="icon.svg"
   inkscape:version="1.1.2 (0a00cf5339, 2022-02-04)"
   xmlns:inkscape="http://www.inkscape.org/namespaces/inkscape"
   xmlns:sodipodi="http://sodipodi.sourceforge.net/DTD/sodipodi-0.dtd"
   xmlns="http://www.w3.org/2000/svg"
   xmlns:svg="http://www.w3.org/2000/svg">
  <defs
     id="defs6" />
  <sodipodi:namedview
     id="namedview4"
     pagecolor="#ffffff"
     bordercolor="#666666"
     borderopacity="1.0"
     inkscape:pageshadow="2"
     inkscape:pageopacity="0.0"
     inkscape:pagecheckerboard="0"
     showgrid="false"
     inkscape:zoom="4.5961941"
     inkscape:cx="31.33027"
     inkscape:cy="36.33441"
     inkscape:window-width="1485"
     inkscape:window-height="778"
     inkscape:window-x="2231"
     inkscape:window-y="270"
     inkscape:window-maximized="0"
     inkscape:current-layer="g8" />
  <g
     inkscape:groupmode="layer"
     inkscape:label="Image"
     id="g8">
    <path
       style="fill:#225aea;fill-opacity:1;stroke:#225aea;stroke-width:0.3;stroke-opacity:1;stroke-miterlimit:4;stroke-dasharray:none;stroke-linejoin:round;stroke-linecap:round;paint-order:stroke markers fill"
       d="m 1.4590531,39.645677 c -0.50010995,-0.0212 -0.92318995,-0.0713 -1.00706995,-0.11931 -0.42859,-0.2453 -0.59403,-0.94433 -0.31286,-1.32195 0.0812,-0.10911 0.95434995,-0.67471 2.08970995,-1.35372 7.9124899,-4.73212 9.6793199,-5.79253 10.9392399,-6.56554 0.78447,-0.4813 1.46554,-0.91181 1.51348,-0.95669 0.0706,-0.0661 -0.13731,-0.29418 -1.09461,-1.2007 -2.81184,-2.6627 -10.8989799,-10.81766 -11.1724799,-11.26619 -0.26942,-0.44182 -0.0909,-1.07927 0.37829,-1.35069 l 0.25846,-0.14951 8.4915299,0.022 c 9.35986,0.0242 8.69021,-0.003 10.54806,0.43691 1.22176,0.28961 2.78623,0.88238 3.77837,1.4316 0.36321,0.20106 0.67667,0.36505 0.69657,0.36441 0.0335,-10e-4 0.78321,-1.05005 3.05752,-4.27778 1.39273,-1.97659 2.39309,-2.90495 3.90814,-3.6268601 1.71865,-0.8189301 4.04032,-0.9415701 5.93313,-0.3134 0.72254,0.23978 1.72956,0.7529001 2.26292,1.1530501 1.02872,0.77178 1.7855,1.69106 2.70413,3.28476 0.74039,1.28447 1.10867,1.66682 2.58792,2.68677 0.37043,0.25541 0.74181,0.56582 0.82529,0.68979 0.30685,0.45568 0.14177,1.12722 -0.34598,1.40745 -0.12466,0.0716 -0.73068,0.19123 -1.6251,0.32074 -0.78447,0.11358 -1.60917,0.2665 -1.83267,0.33982 -1.20116,0.39404 -2.27251,1.43116 -2.97617,2.8811 -0.26874,0.55374 -0.44466,1.06575 -0.72938,2.12289 -0.70565,2.61997 -1.1998,3.98601 -2.01706,5.57605 -2.22728,4.33327 -5.65471,7.20902 -10.43308,8.75377 -1.73565,0.5611 -3.66016,0.90192 -5.79245,1.02582 -1.22672,0.0713 -18.9684199,0.0759 -20.6338499,0.005 z m 19.7029899,-2.15738 c 2.24193,-0.0485 3.69647,-0.24235 5.44293,-0.72544 1.88317,-0.52092 3.41942,-1.22974 5.14953,-2.376 1.62542,-1.0769 2.87694,-2.39355 4.03261,-4.24249 0.91549,-1.46469 1.50003,-2.83587 2.19754,-5.15495 1.11175,-3.69633 1.51666,-4.57663 2.68601,-5.83968 0.72096,-0.77873 1.92268,-1.54997 3.01382,-1.93423 0.23717,-0.0835 0.44264,-0.16058 0.45659,-0.17123 0.0139,-0.0107 -0.11636,-0.16219 -0.28959,-0.33675 -0.33546,-0.33804 -0.79777,-0.99249 -1.16143,-1.64418 -1.3478,-2.41524 -2.94184,-3.62067 -5.14611,-3.89156 -1.42504,-0.17512 -2.9494,0.23306 -4.14216,1.10916 -0.80559,0.59172 -1.3187,1.19744 -2.91892,3.4458 -0.41551,0.58379 -1.10822,1.54448 -1.53936,2.13487 l -0.7839,1.07344 0.34055,0.35287 c 0.71105,0.73678 1.38844,1.87377 1.73627,2.9143 0.43326,1.29611 0.49154,2.94361 0.1511,4.27161 -0.20337,0.7933 -0.81125,2.06075 -1.29089,2.69152 -1.12985,1.48589 -2.83857,2.52853 -4.84978,2.95929 -0.85867,0.1839 -2.63483,0.16651 -3.6487,-0.0358 -1.31103,-0.26152 -2.68648,-0.76375 -3.63753,-1.3282 l -0.35369,-0.20992 -3.06282,1.88454 c -1.68455,1.03649 -4.2270799,2.59147 -5.6500799,3.45551 -1.42299,0.86405 -2.61252,1.59577 -2.64339,1.62607 -0.056,0.055 13.1445599,0.0312 15.9113999,-0.0286 z m 16.98689,-21.16397 c -0.37404,-0.13325 -0.57412,-0.30181 -0.74758,-0.62984 -0.43629,-0.82502 0.19842,-1.85769 1.14178,-1.85769 0.47682,0 0.96932,0.31996 1.16894,0.75942 0.3371,0.74213 -0.0749,1.57177 -0.87174,1.75537 -0.3716,0.0856 -0.37487,0.0855 -0.6914,-0.0272 z m -13.89744,13.6123 c 2.29281,-0.59683 3.88249,-2.33168 4.21731,-4.60241 0.26349,-1.78691 -0.38132,-3.50776 -1.85272,-4.94454 -0.5469,-0.53404 -1.28888,-1.03766 -2.32391,-1.57734 -0.85313,-0.44485 -1.65403,-0.71425 -2.8316,-0.95246 -1.83677,-0.37157 -1.92227,-0.37512 -9.02833,-0.37512 -3.6088699,0 -6.5615799,0.0202 -6.5615799,0.0449 0,0.14978 9.2815199,9.30915 10.2827099,10.14738 1.38883,1.16279 2.94338,1.9394 4.54819,2.27217 0.94388,0.19572 0.96313,0.19741 1.9863,0.17398 0.72478,-0.0166 1.0682,-0.0576 1.56363,-0.18654 z"
       id="path863" />
  </g>
</svg>
