<?xml version="1.0" encoding="UTF-8" standalone="no"?>
<svg
   fill="none"
   viewBox="0 0 24 24"
   stroke-width="1.5"
   stroke="currentColor"
   class="size-6"
   version="1.1"
   id="svg4"
   sodipodi:docname="1.svg"
   inkscape:export-filename="/home/debian/Documents/GitHub/core/frontend-main/src/assets/icons/1.png"
   inkscape:export-xdpi="121.6"
   inkscape:export-ydpi="121.6"
   inkscape:version="1.1.2 (0a00cf5339, 2022-02-04)"
   xmlns:inkscape="http://www.inkscape.org/namespaces/inkscape"
   xmlns:sodipodi="http://sodipodi.sourceforge.net/DTD/sodipodi-0.dtd"
   xmlns="http://www.w3.org/2000/svg"
   xmlns:svg="http://www.w3.org/2000/svg">
  <defs
     id="defs8" />
  <sodipodi:namedview
     id="namedview6"
     pagecolor="#ffffff"
     bordercolor="#666666"
     borderopacity="1.0"
     inkscape:pageshadow="2"
     inkscape:pageopacity="0.0"
     inkscape:pagecheckerboard="0"
     showgrid="false"
     inkscape:zoom="24.513035"
     inkscape:cx="10.157861"
     inkscape:cy="14.318912"
     inkscape:window-width="1920"
     inkscape:window-height="1048"
     inkscape:window-x="0"
     inkscape:window-y="0"
     inkscape:window-maximized="1"
     inkscape:current-layer="svg4" />
  <path
     stroke-linecap="round"
     stroke-linejoin="round"
     d="M15.75 10.5V6a3.75 3.75 0 1 0-7.5 0v4.5m11.356-1.993 1.263 12c.07.665-.45 1.243-1.119 1.243H4.25a1.125 1.125 0 0 1-1.12-1.243l1.264-12A1.125 1.125 0 0 1 5.513 7.5h12.974c.576 0 1.059.435 1.119 1.007ZM8.625 10.5a.375.375 0 1 1-.75 0 .375.375 0 0 1 .75 0Zm7.5 0a.375.375 0 1 1-.75 0 .375.375 0 0 1 .75 0Z"
     id="path2" />
</svg>
