<?xml version="1.0" encoding="UTF-8" standalone="no"?>
<svg
   fill="none"
   viewBox="0 0 24 24"
   stroke-width="1.5"
   stroke="currentColor"
   class="size-6"
   version="1.1"
   id="svg4"
   sodipodi:docname="3.svg"
   inkscape:export-filename="/home/debian/Documents/GitHub/core/frontend-main/src/assets/icons/3.png"
   inkscape:export-xdpi="121.6"
   inkscape:export-ydpi="121.6"
   inkscape:version="1.1.2 (0a00cf5339, 2022-02-04)"
   xmlns:inkscape="http://www.inkscape.org/namespaces/inkscape"
   xmlns:sodipodi="http://sodipodi.sourceforge.net/DTD/sodipodi-0.dtd"
   xmlns="http://www.w3.org/2000/svg"
   xmlns:svg="http://www.w3.org/2000/svg">
  <defs
     id="defs8" />
  <sodipodi:namedview
     id="namedview6"
     pagecolor="#ffffff"
     bordercolor="#666666"
     borderopacity="1.0"
     inkscape:pageshadow="2"
     inkscape:pageopacity="0.0"
     inkscape:pagecheckerboard="0"
     showgrid="false"
     inkscape:zoom="34.666667"
     inkscape:cx="12"
     inkscape:cy="12"
     inkscape:window-width="1920"
     inkscape:window-height="1048"
     inkscape:window-x="0"
     inkscape:window-y="0"
     inkscape:window-maximized="1"
     inkscape:current-layer="svg4" />
  <path
     stroke-linecap="round"
     stroke-linejoin="round"
     d="m9 9 10.5-3m0 6.553v3.75a2.25 2.25 0 0 1-1.632 2.163l-1.32.377a1.803 1.803 0 1 1-.99-3.467l2.31-.66a2.25 2.25 0 0 0 1.632-2.163Zm0 0V2.25L9 5.25v10.303m0 0v3.75a2.25 2.25 0 0 1-1.632 2.163l-1.32.377a1.803 1.803 0 0 1-.99-3.467l2.31-.66A2.25 2.25 0 0 0 9 15.553Z"
     id="path2" />
</svg>
