<?xml version="1.0" encoding="UTF-8" standalone="no"?>
<svg
   fill="none"
   viewBox="0 0 24 24"
   stroke-width="1.5"
   stroke="currentColor"
   class="size-6"
   version="1.1"
   id="svg4"
   sodipodi:docname="6.svg"
   inkscape:export-filename="/home/debian/Documents/GitHub/core/frontend-main/src/assets/icons/6.png"
   inkscape:export-xdpi="121.6"
   inkscape:export-ydpi="121.6"
   inkscape:version="1.1.2 (0a00cf5339, 2022-02-04)"
   xmlns:inkscape="http://www.inkscape.org/namespaces/inkscape"
   xmlns:sodipodi="http://sodipodi.sourceforge.net/DTD/sodipodi-0.dtd"
   xmlns="http://www.w3.org/2000/svg"
   xmlns:svg="http://www.w3.org/2000/svg">
  <defs
     id="defs8" />
  <sodipodi:namedview
     id="namedview6"
     pagecolor="#ffffff"
     bordercolor="#666666"
     borderopacity="1.0"
     inkscape:pageshadow="2"
     inkscape:pageopacity="0.0"
     inkscape:pagecheckerboard="0"
     showgrid="false"
     inkscape:zoom="34.666667"
     inkscape:cx="12"
     inkscape:cy="12"
     inkscape:window-width="1920"
     inkscape:window-height="1048"
     inkscape:window-x="0"
     inkscape:window-y="0"
     inkscape:window-maximized="1"
     inkscape:current-layer="svg4" />
  <path
     stroke-linecap="round"
     stroke-linejoin="round"
     d="M16.5 18.75h-9m9 0a3 3 0 0 1 3 3h-15a3 3 0 0 1 3-3m9 0v-3.375c0-.621-.503-1.125-1.125-1.125h-.871M7.5 18.75v-3.375c0-.621.504-1.125 1.125-1.125h.872m5.007 0H9.497m5.007 0a7.454 7.454 0 0 1-.982-3.172M9.497 14.25a7.454 7.454 0 0 0 .981-3.172M5.25 4.236c-.982.143-1.954.317-2.916.52A6.003 6.003 0 0 0 7.73 9.728M5.25 4.236V4.5c0 2.108.966 3.99 2.48 5.228M5.25 4.236V2.721C7.456 2.41 9.71 2.25 12 2.25c2.291 0 4.545.16 6.75.47v1.516M7.73 9.728a6.726 6.726 0 0 0 2.748 1.35m8.272-6.842V4.5c0 2.108-.966 3.99-2.48 5.228m2.48-5.492a46.32 46.32 0 0 1 2.916.52 6.003 6.003 0 0 1-5.395 4.972m0 0a6.726 6.726 0 0 1-2.749 1.35m0 0a6.772 6.772 0 0 1-3.044 0"
     id="path2" />
</svg>
