<?xml version="1.0" encoding="UTF-8" standalone="no"?>
<svg
   fill="none"
   viewBox="0 0 24 24"
   stroke-width="1.5"
   stroke="currentColor"
   class="size-6"
   version="1.1"
   id="svg4"
   sodipodi:docname="7.svg"
   inkscape:export-filename="/home/debian/Documents/GitHub/core/frontend-main/src/assets/icons/7.png"
   inkscape:export-xdpi="121.6"
   inkscape:export-ydpi="121.6"
   inkscape:version="1.1.2 (0a00cf5339, 2022-02-04)"
   xmlns:inkscape="http://www.inkscape.org/namespaces/inkscape"
   xmlns:sodipodi="http://sodipodi.sourceforge.net/DTD/sodipodi-0.dtd"
   xmlns="http://www.w3.org/2000/svg"
   xmlns:svg="http://www.w3.org/2000/svg">
  <defs
     id="defs8" />
  <sodipodi:namedview
     id="namedview6"
     pagecolor="#ffffff"
     bordercolor="#666666"
     borderopacity="1.0"
     inkscape:pageshadow="2"
     inkscape:pageopacity="0.0"
     inkscape:pagecheckerboard="0"
     showgrid="false"
     inkscape:zoom="34.666667"
     inkscape:cx="11.927885"
     inkscape:cy="12"
     inkscape:window-width="1475"
     inkscape:window-height="778"
     inkscape:window-x="50"
     inkscape:window-y="89"
     inkscape:window-maximized="0"
     inkscape:current-layer="svg4" />
  <path
     stroke-linecap="round"
     stroke-linejoin="round"
     d="M12 8.25v-1.5m0 1.5c-1.355 0-2.697.056-4.024.166C6.845 8.51 6 9.473 6 10.608v2.513m6-4.871c1.355 0 2.697.056 4.024.166C17.155 8.51 18 9.473 18 10.608v2.513M15 8.25v-1.5m-6 1.5v-1.5m12 9.75-1.5.75a3.354 3.354 0 0 1-3 0 3.354 3.354 0 0 0-3 0 3.354 3.354 0 0 1-3 0 3.354 3.354 0 0 0-3 0 3.354 3.354 0 0 1-3 0L3 16.5m15-3.379a48.474 48.474 0 0 0-6-.371c-2.032 0-4.034.126-6 .371m12 0c.39.049.777.102 1.163.16 1.07.16 1.837 1.094 1.837 2.175v5.169c0 .621-.504 1.125-1.125 1.125H4.125A1.125 1.125 0 0 1 3 20.625v-5.17c0-1.08.768-2.014 1.837-2.174A47.78 47.78 0 0 1 6 13.12M12.265 3.11a.375.375 0 1 1-.53 0L12 2.845l.265.265Zm-3 0a.375.375 0 1 1-.53 0L9 2.845l.265.265Zm6 0a.375.375 0 1 1-.53 0L15 2.845l.265.265Z"
     id="path2" />
</svg>
