<?xml version="1.0" encoding="UTF-8" standalone="no"?>
<!-- Created with Inkscape (http://www.inkscape.org/) -->

<svg
   width="130"
   height="48"
   viewBox="0 0 34.395819 12.7"
   version="1.1"
   id="svg5"
   inkscape:version="1.1.2 (0a00cf5339, 2022-02-04)"
   sodipodi:docname="logo.svg"
   inkscape:export-filename="/home/debian/Documents/GitHub/core/frontend-main/src/assets/brand/logo.png"
   inkscape:export-xdpi="96"
   inkscape:export-ydpi="96"
   xmlns:inkscape="http://www.inkscape.org/namespaces/inkscape"
   xmlns:sodipodi="http://sodipodi.sourceforge.net/DTD/sodipodi-0.dtd"
   xmlns="http://www.w3.org/2000/svg"
   xmlns:svg="http://www.w3.org/2000/svg">
  <sodipodi:namedview
     id="namedview7"
     pagecolor="#ffffff"
     bordercolor="#666666"
     borderopacity="1.0"
     inkscape:pageshadow="2"
     inkscape:pageopacity="0.0"
     inkscape:pagecheckerboard="0"
     inkscape:document-units="mm"
     showgrid="false"
     units="px"
     height="48px"
     inkscape:zoom="5.9295175"
     inkscape:cx="6.324292"
     inkscape:cy="113.49996"
     inkscape:window-width="1920"
     inkscape:window-height="1020"
     inkscape:window-x="1920"
     inkscape:window-y="1108"
     inkscape:window-maximized="1"
     inkscape:current-layer="g11307" />
  <defs
     id="defs2" />
  <g
     inkscape:label="Layer 1"
     inkscape:groupmode="layer"
     id="layer1">
    <g
       id="g11307">
      <g
         id="g39821"
         transform="translate(-0.52916667)">
        <path
           d="m 17.058542,4.795099 c -0.402167,0 -0.797278,0.176389 -1.093611,0.5644448 l -0.04939,-0.4586114 h -0.790223 v 5.2705036 l 0.903112,-0.09878 V 8.3299346 c 0.232833,0.2751668 0.557389,0.4092225 0.938389,0.4092225 0.945445,0 1.474612,-0.8396117 1.474612,-1.9826124 0,-1.1923897 -0.409222,-1.9614457 -1.382889,-1.9614457 z M 16.71282,8.0477122 c -0.282222,0 -0.508,-0.1270001 -0.684389,-0.3880558 V 5.9804331 c 0.176389,-0.289278 0.4445,-0.5080004 0.762,-0.5080004 0.451556,0 0.705556,0.3457225 0.705556,1.2911675 0,0.9031117 -0.289278,1.284112 -0.783167,1.284112 z"
           style="font-weight:500;font-size:7.05556px;line-height:1.25;font-family:'Fira Sans';-inkscape-font-specification:'Fira Sans Medium';letter-spacing:0.312208px;fill:#ff2e4d;stroke:#ff2e4d;stroke-width:0.053;stroke-linecap:round;stroke-linejoin:round;paint-order:stroke fill markers"
           id="path35847" />
        <path
           d="M 21.969368,7.6455453 V 6.0792109 c 0,-0.8255005 -0.437445,-1.2841119 -1.432279,-1.2841119 -0.423334,0 -0.896056,0.091722 -1.354667,0.2681113 l 0.211666,0.6138337 c 0.373945,-0.1270001 0.733779,-0.1975557 0.987779,-0.1975557 0.479778,0 0.6985,0.1622779 0.6985,0.6491115 V 6.3402666 H 20.6147 c -1.086556,0 -1.70039,0.4374448 -1.70039,1.2488342 0,0.6773337 0.458612,1.1500563 1.206501,1.1500563 0.4445,0 0.853723,-0.1622779 1.114779,-0.5573893 0.148166,0.3598336 0.416278,0.5080004 0.8255,0.5432782 l 0.1905,-0.5997227 C 22.068146,8.0547677 21.969368,7.9489343 21.969368,7.6455453 Z M 20.3607,8.08299 c -0.345722,0 -0.529167,-0.2046113 -0.529167,-0.5644448 0,-0.4374448 0.289278,-0.6491116 0.87489,-0.6491116 h 0.373944 v 0.754945 C 20.911034,7.9207121 20.6782,8.08299 20.3607,8.08299 Z"
           style="font-weight:500;font-size:7.05556px;line-height:1.25;font-family:'Fira Sans';-inkscape-font-specification:'Fira Sans Medium';letter-spacing:0.312208px;fill:#ff2e4d;stroke:#ff2e4d;stroke-width:0.053;stroke-linecap:round;stroke-linejoin:round;paint-order:stroke fill markers"
           id="path35849" />
        <path
           d="m 23.30807,3.0100423 c -0.331611,0 -0.564445,0.239889 -0.564445,0.5503336 0,0.3033891 0.232834,0.5432782 0.564445,0.5432782 0.338667,0 0.5715,-0.2398891 0.5715,-0.5432782 0,-0.3104446 -0.232833,-0.5503336 -0.5715,-0.5503336 z m 0.458611,1.8908901 H 22.86357 v 3.7323913 h 0.903111 z"
           style="font-weight:500;font-size:7.05556px;line-height:1.25;font-family:'Fira Sans';-inkscape-font-specification:'Fira Sans Medium';letter-spacing:0.312208px;fill:#ff2e4d;stroke:#ff2e4d;stroke-width:0.053;stroke-linecap:round;stroke-linejoin:round;paint-order:stroke fill markers"
           id="path35851" />
        <path
           d="m 26.21311,4.8021545 c -0.437445,0 -0.797278,0.2963336 -0.973667,0.8325561 l -0.08467,-0.7337782 h -0.783167 v 3.7323913 h 0.903111 v -1.989668 c 0.141112,-0.6279448 0.373945,-0.9595562 0.825501,-0.9595562 0.127,0 0.218722,0.014111 0.331611,0.042333 l 0.155223,-0.8748891 c -0.119945,-0.035278 -0.239889,-0.049389 -0.373945,-0.049389 z"
           style="font-weight:500;font-size:7.05556px;line-height:1.25;font-family:'Fira Sans';-inkscape-font-specification:'Fira Sans Medium';letter-spacing:0.312208px;fill:#ff2e4d;stroke:#ff2e4d;stroke-width:0.053;stroke-linecap:round;stroke-linejoin:round;paint-order:stroke fill markers"
           id="path35853" />
        <path
           d="m 29.105797,3.9907651 c 0.176389,0 0.388056,0.035278 0.613834,0.1411112 L 29.980687,3.5250981 C 29.691409,3.3910425 29.38802,3.3063758 29.014075,3.3063758 c -0.860779,0 -1.312334,0.5080003 -1.312334,1.1853341 v 0.4092225 h -0.606779 v 0.6491115 h 0.606779 v 3.0832798 h 0.903111 V 5.5500439 h 0.797279 l 0.09878,-0.6491115 H 28.604852 V 4.505821 c 0,-0.352778 0.134056,-0.5150559 0.500945,-0.5150559 z"
           style="font-weight:500;font-size:7.05556px;line-height:1.25;font-family:'Fira Sans';-inkscape-font-specification:'Fira Sans Medium';letter-spacing:0.312208px;fill:#ff2e4d;stroke:#ff2e4d;stroke-width:0.053;stroke-linecap:round;stroke-linejoin:round;paint-order:stroke fill markers"
           id="path35855" />
        <path
           d="M 33.323335,4.9009324 H 32.392001 L 31.545334,8.0336011 30.733945,4.9009324 h -0.959557 l 1.185335,3.7323913 h 0.310444 c -0.211667,0.529167 -0.451556,0.769056 -1.192389,0.881945 l 0.09172,0.6561673 c 1.107723,-0.08467 1.658056,-0.6491118 1.940279,-1.5240012 z"
           style="font-weight:500;font-size:7.05556px;line-height:1.25;font-family:'Fira Sans';-inkscape-font-specification:'Fira Sans Medium';letter-spacing:0.312208px;fill:#ff2e4d;stroke:#ff2e4d;stroke-width:0.053;stroke-linecap:round;stroke-linejoin:round;paint-order:stroke fill markers"
           id="path35857" />
        <rect
           style="fill:#000000;fill-opacity:0;stroke:none;stroke-width:0.10359;stroke-linecap:round;stroke-linejoin:round;paint-order:stroke markers fill"
           id="rect36687"
           width="0.39687499"
           height="10.524856"
           x="18.477764"
           y="1.0092454" />
        <rect
           style="fill:#000000;fill-opacity:0;stroke:none;stroke-width:0.102799;stroke-linecap:round;stroke-linejoin:round;paint-order:stroke markers fill"
           id="rect36687-3"
           width="0.39687499"
           height="10.364747"
           x="22.295115"
           y="1.5667728" />
        <rect
           style="fill:#000000;fill-opacity:0;stroke:none;stroke-width:0.100497;stroke-linecap:round;stroke-linejoin:round;paint-order:stroke markers fill"
           id="rect36687-3-6"
           width="0.39687499"
           height="9.9057331"
           x="23.923447"
           y="1.1885016" />
        <rect
           style="fill:#000000;fill-opacity:0;stroke:none;stroke-width:0.0969503;stroke-linecap:round;stroke-linejoin:round;paint-order:stroke markers fill"
           id="rect36687-3-6-5"
           width="0.39687499"
           height="9.218873"
           x="26.641689"
           y="2.2915349" />
      </g>
      <g
         id="g847">
        <path
           style="fill:#000000;fill-opacity:0.03;stroke:#2563eb;stroke-width:0.0788786;stroke-miterlimit:4;stroke-dasharray:none;stroke-opacity:0"
           d="m 5.3138522,6.9797384 c -0.00159,-5.961e-4 -0.00697,-0.00375 -0.039667,-0.022611 -0.01457,-0.00841 -0.033222,-0.019158 -0.041454,-0.023895 -0.00823,-0.00473 -0.018462,-0.010653 -0.022743,-0.013118 -0.00426,-0.00248 -0.019436,-0.011178 -0.033683,-0.019336 -0.01425,-0.00815 -0.030442,-0.017468 -0.035985,-0.020724 -0.011768,-0.00689 -0.022156,-0.012815 -0.03656,-0.020833 -0.0057,-0.00317 -0.011093,-0.00644 -0.011971,-0.00728 -7.948e-4,-7.949e-4 -0.00225,-0.0028 -0.00302,-0.00439 l -0.00139,-0.0029 1.471e-4,-0.1275664 1.491e-4,-0.1275664 0.00213,-0.00322 c 0.00179,-0.0028 0.00295,-0.00369 0.00865,-0.00692 0.00358,-0.00203 0.011295,-0.0065 0.017151,-0.00989 0.013928,-0.0081 0.027033,-0.015719 0.034545,-0.020047 0.00332,-0.00199 0.00901,-0.00523 0.012662,-0.00733 0.00364,-0.00211 0.018801,-0.010923 0.03368,-0.019576 0.014891,-0.00865 0.031337,-0.018224 0.036561,-0.021298 0.00523,-0.00305 0.013389,-0.00778 0.018144,-0.010519 0.00475,-0.0027 0.013439,-0.00771 0.019297,-0.011093 0.00585,-0.00337 0.018164,-0.010468 0.027349,-0.015736 l 0.016698,-0.00957 h 0.00375 c 0.00375,0 0.00375,0 0.016124,0.00714 0.00681,0.00394 0.015347,0.00887 0.018997,0.011025 0.00364,0.00215 0.017884,0.010434 0.031667,0.018422 0.013777,0.00798 0.027764,0.016141 0.031091,0.018105 0.00332,0.00199 0.012528,0.00728 0.02044,0.011802 0.0079,0.00453 0.016462,0.00946 0.018998,0.010958 0.00493,0.0029 0.029175,0.016951 0.03253,0.01886 0.00119,5.962e-4 0.00708,0.00405 0.013237,0.00763 0.00617,0.00358 0.012038,0.00696 0.013051,0.00753 0.014942,0.00846 0.029523,0.017031 0.030545,0.017966 7.949e-4,5.96e-4 0.00199,0.00248 0.00273,0.00406 l 0.00139,0.0029 -6e-6,0.1266969 -6.1e-6,0.1266986 -0.00139,0.00289 c -0.00199,0.00406 -0.00415,0.00592 -0.013118,0.010873 -0.011093,0.00612 -0.023656,0.013272 -0.028396,0.016175 -0.00223,0.00139 -0.013608,0.00797 -0.025335,0.014705 -0.030072,0.01727 -0.062415,0.035908 -0.068515,0.039466 -0.00283,0.00159 -0.013338,0.00775 -0.023317,0.013541 -0.00998,0.00579 -0.020597,0.01192 -0.023607,0.013676 -0.003,0.00179 -0.010653,0.00614 -0.016992,0.00978 -0.00634,0.00364 -0.014622,0.00845 -0.018422,0.010688 -0.0066,0.0039 -0.00709,0.00408 -0.010923,0.00423 -0.00223,8.55e-5 -0.00458,-7.95e-5 -0.00525,-3.975e-4 z m -0.00369,-0.05513 V 6.895429 l -0.00787,-0.01327 c -0.00433,-0.00731 -0.00973,-0.016395 -0.011971,-0.020191 -0.00225,-0.0038 -0.00913,-0.015516 -0.015298,-0.026054 L 5.2638161,6.816776 h -0.050925 -0.050925 l -0.016428,0.00973 c -0.00904,0.00536 -0.019118,0.01121 -0.022374,0.013034 l -0.00592,0.00332 0.00564,0.00327 c 0.00776,0.00451 0.033922,0.019614 0.046811,0.027053 0.00585,0.00338 0.021792,0.012578 0.035409,0.020439 0.027195,0.015702 0.027452,0.015853 0.052681,0.030361 0.00966,0.00555 0.025204,0.014521 0.034547,0.019945 0.00934,0.00541 0.017171,0.00986 0.017409,0.00986 1.987e-4,5.9e-6 3.976e-4,-0.013119 3.976e-4,-0.029169 z m 0.028352,0.022482 c 0.023832,-0.013693 0.03488,-0.02008 0.041803,-0.024195 0.00392,-0.00233 0.0072,-0.00423 0.00736,-0.00423 1.35e-4,0 0.00119,-5.962e-4 0.00237,-0.00139 0.00119,-7.949e-4 0.012528,-0.00731 0.025178,-0.014604 0.023233,-0.013356 0.056134,-0.032375 0.063044,-0.036429 0.00206,-0.00119 0.00969,-0.00562 0.016992,-0.00981 0.019376,-0.011144 0.023317,-0.01349 0.023312,-0.013811 -2e-6,-1.59e-4 -0.00239,-0.00159 -0.00533,-0.00312 -0.00292,-0.00159 -0.00908,-0.00506 -0.013676,-0.00783 -0.00459,-0.00273 -0.012206,-0.00722 -0.01693,-0.00999 l -0.00858,-0.00498 -0.05072,9.8e-6 -0.050723,1.2e-5 -0.00326,0.0056 c -0.00179,0.00307 -0.00748,0.012865 -0.012613,0.021724 -0.00515,0.00886 -0.012731,0.021821 -0.016851,0.028788 -0.00411,0.00696 -0.00887,0.01501 -0.010552,0.017847 l -0.00305,0.00518 -5.9e-6,0.028932 c -4e-6,0.015922 1.213e-4,0.028931 1.987e-4,0.028931 1.55e-4,0 0.00553,-0.00302 0.011937,-0.00671 z m -0.011025,-0.097228 c 0.00483,-0.00823 0.011144,-0.01898 0.014064,-0.023893 l 0.0053,-0.00891 -0.028219,-1.491e-4 c -0.015516,-8.14e-5 -0.028323,-4.76e-5 -0.028446,7.56e-5 -1.253e-4,1.251e-4 0.00384,0.00731 0.00882,0.015972 0.00496,0.00867 0.011227,0.019594 0.013912,0.024293 0.00268,0.00469 0.00508,0.00833 0.00533,0.00807 1.987e-4,-1.986e-4 0.00441,-0.0072 0.00924,-0.015449 z M 5.1114937,6.8271905 c 0.00139,-9.937e-4 0.00459,-0.00278 0.00696,-0.00415 0.00236,-0.00139 0.00498,-0.0029 0.00582,-0.00337 7.949e-4,-3.976e-4 0.00692,-0.00395 0.013541,-0.00773 0.00662,-0.00379 0.013828,-0.0079 0.016023,-0.00922 l 0.00396,-0.00236 0.00862,-0.014689 c 0.016495,-0.028146 0.039577,-0.067982 0.039577,-0.068287 0,-1.032e-4 -0.00119,-0.00206 -0.0025,-0.00438 -0.003,-0.00501 -0.0129,-0.021707 -0.020914,-0.035286 -0.00317,-0.00539 -0.00793,-0.013422 -0.010569,-0.017847 -0.00262,-0.00443 -0.00506,-0.00858 -0.00541,-0.00922 -3.974e-4,-5.962e-4 -0.00252,-0.00441 -0.00485,-0.0084 l -0.00423,-0.00723 -0.014183,-0.00828 c -0.014453,-0.00843 -0.023553,-0.01376 -0.03103,-0.018164 l -0.00416,-0.00246 v 0.1113646 c 0,0.06125 1.708e-4,0.1113646 3.974e-4,0.1113646 1.987e-4,0 0.00159,-7.951e-4 0.00302,-0.00159 z M 5.5283912,6.7173731 V 6.605897 L 5.527,6.6068906 c -0.00336,0.00221 -0.032062,0.018918 -0.04114,0.023974 -0.00364,0.00203 -0.00671,0.00384 -0.00677,0.00401 -8.75e-5,1.848e-4 -0.00218,0.00382 -0.00464,0.00807 -0.00247,0.00425 -0.00936,0.016158 -0.015314,0.026447 -0.00596,0.010299 -0.011683,0.020136 -0.012714,0.021878 -0.00304,0.00513 -0.00981,0.016799 -0.01121,0.019297 -7.951e-4,0.00119 -0.00199,0.00345 -0.00273,0.00481 -0.00119,0.00179 -0.00139,0.00277 -7.95e-4,0.00347 3.974e-4,5.962e-4 0.00252,0.0043 0.00491,0.00843 0.027341,0.04724 0.041972,0.072159 0.042894,0.073051 5.962e-4,5.961e-4 0.00614,0.004 0.012308,0.00755 0.00616,0.00357 0.01675,0.00974 0.023562,0.013727 0.00682,0.004 0.012578,0.00728 0.012815,0.00729 1.986e-4,6e-6 3.974e-4,-0.050152 3.974e-4,-0.1114624 z m -0.278544,0.075058 c -5.962e-4,-9.936e-4 -0.00508,-0.00874 -0.00994,-0.017131 -0.00485,-0.0084 -0.011363,-0.019596 -0.01447,-0.024917 -0.00312,-0.0053 -0.00565,-0.00991 -0.00565,-0.010215 0,-0.00179 -0.00159,5.961e-4 -0.00805,0.011971 -0.00394,0.00689 -0.010147,0.017707 -0.013828,0.024039 -0.00369,0.00634 -0.00753,0.013001 -0.00857,0.014825 l -0.00179,0.00332 h 0.031757 0.031755 z m 0.1140272,-0.00503 c 0.00793,-0.013272 0.024134,-0.040943 0.032286,-0.055162 l 0.00835,-0.01457 -0.00722,-0.012206 c -0.00396,-0.00672 -0.00974,-0.016479 -0.012815,-0.021702 -0.00307,-0.00523 -0.00865,-0.014689 -0.012392,-0.021014 -0.00375,-0.00634 -0.00812,-0.013777 -0.00974,-0.016546 l -0.00292,-0.00503 -0.041454,-7.9e-6 -0.041455,-5.9e-6 -0.00159,0.00302 c -0.00159,0.003 -0.015837,0.027455 -0.033564,0.057988 l -0.00919,0.01582 9.938e-4,0.00179 c 0.00384,0.00676 0.015684,0.026962 0.024999,0.042626 0.0032,0.00539 0.00877,0.01479 0.012392,0.020875 l 0.0066,0.011093 0.041429,-1.469e-4 0.041432,-1.492e-4 0.00395,-0.00662 z m 0.085062,0.00649 c 0,-1.987e-4 -0.00267,-0.00501 -0.00591,-0.010586 -0.00324,-0.00559 -0.010181,-0.017688 -0.015398,-0.026886 -0.00523,-0.0092 -0.00964,-0.016732 -0.00979,-0.016732 -1.588e-4,-4e-6 -0.00337,0.00538 -0.00716,0.01192 -0.00379,0.00655 -0.00807,0.013997 -0.00956,0.016529 -0.00565,0.00969 -0.014689,0.025306 -0.014857,0.025741 -1.075e-4,1.987e-4 0.013946,3.974e-4 0.031233,3.974e-4 0.017289,0 0.031426,-1.945e-4 0.031423,-3.974e-4 z M 5.2352544,6.6686258 c 0.00858,-0.014825 0.015618,-0.027062 0.015618,-0.027204 0,-1.43e-4 -0.014385,-1.987e-4 -0.031956,-1.987e-4 -0.017568,0 -0.031954,1.094e-4 -0.031954,1.987e-4 0,1.332e-4 0.00159,0.00304 0.00369,0.00649 0.00203,0.00345 0.00512,0.00872 0.00684,0.0117 0.00317,0.0055 0.010924,0.018759 0.015955,0.027348 0.00139,0.00252 0.00332,0.0057 0.00405,0.00706 7.949e-4,0.00139 0.00159,0.00226 0.00179,0.00201 1.987e-4,-1.987e-4 0.00741,-0.012561 0.016023,-0.027383 z m 0.1855941,0.022482 c 0.00179,-0.00292 0.00582,-0.00999 0.00909,-0.015685 0.00327,-0.0057 0.00901,-0.015635 0.012764,-0.022101 0.00374,-0.00647 0.00682,-0.01182 0.00682,-0.011937 0,-1.152e-4 -0.014486,-1.987e-4 -0.032188,-1.987e-4 h -0.032191 l 0.00694,0.011937 c 0.00382,0.00659 0.00775,0.013373 0.00876,0.015112 9.937e-4,0.00179 0.0048,0.00823 0.0084,0.014385 0.0036,0.00617 0.00682,0.011802 0.00715,0.012528 3.975e-4,7.95e-4 7.949e-4,0.00139 9.936e-4,0.00139 1.989e-4,1.9e-6 0.00179,-0.00237 0.0035,-0.00533 z M 5.2643448,6.6171248 c 0.00139,-0.00226 0.020026,-0.033953 0.03624,-0.061854 l 0.00961,-0.016512 v -0.028828 c 0,-0.019957 -1.887e-4,-0.028827 -5.962e-4,-0.028827 -3.974e-4,0 -0.00337,0.00159 -0.00676,0.00367 -0.00337,0.00201 -0.00731,0.00428 -0.00875,0.00508 -0.00139,7.949e-4 -0.00649,0.00374 -0.011227,0.00652 -0.00766,0.00449 -0.023548,0.013693 -0.029075,0.016834 -0.00119,5.962e-4 -0.00575,0.00334 -0.010367,0.00604 -0.00459,0.00268 -0.012613,0.00736 -0.017847,0.010367 -0.00523,0.00302 -0.016495,0.00956 -0.025046,0.014554 -0.00855,0.00496 -0.024613,0.0143 -0.035696,0.020721 -0.017905,0.01035 -0.024586,0.01425 -0.041984,0.02441 -0.0025,0.00139 -0.00464,0.00292 -0.00475,0.00326 -1.073e-4,3.974e-4 0.00119,0.00139 0.00283,0.00215 0.00159,7.949e-4 0.00418,0.00225 0.00562,0.00307 0.028163,0.016546 0.034921,0.020562 0.03538,0.021004 3.974e-4,3.975e-4 0.021067,5.963e-4 0.050802,5.963e-4 h 0.050255 z m 0.082684,0.00179 c 0,-3.974e-4 -0.00179,-0.00357 -0.00865,-0.015246 -0.00704,-0.012055 -0.00936,-0.016074 -0.014368,-0.024759 -0.00265,-0.00459 -0.00513,-0.00872 -0.00553,-0.00911 -7.951e-4,-7.95e-4 -5.962e-4,-7.95e-4 -0.00763,0.01143 -0.00337,0.00597 -0.019335,0.033733 -0.02034,0.035362 -5.963e-4,9.936e-4 -9.937e-4,0.00199 -9.937e-4,0.00221 -1.8e-6,1.988e-4 0.012949,3.974e-4 0.028785,3.974e-4 0.015837,0 0.028785,-1.37e-4 0.028785,-3.974e-4 z m 0.1325168,-0.00364 c 0.0036,-0.00216 0.00795,-0.00473 0.00969,-0.0057 0.00179,-9.935e-4 0.0092,-0.00525 0.016581,-0.00952 l 0.013422,-0.00775 -0.013693,-0.0079 c -0.00753,-0.00436 -0.015128,-0.00876 -0.016851,-0.00979 -0.0028,-0.00159 -0.013879,-0.00805 -0.071417,-0.041183 -0.00808,-0.00464 -0.016462,-0.00954 -0.018581,-0.010823 -0.00213,-0.00139 -0.00396,-0.00236 -0.00411,-0.00236 -1.31e-4,0 -0.0037,-0.00203 -0.0079,-0.00451 -0.00421,-0.00248 -0.012055,-0.00706 -0.017448,-0.010147 -0.00539,-0.0031 -0.011869,-0.00687 -0.014386,-0.00838 -0.00956,-0.00564 -0.027871,-0.016124 -0.028178,-0.016124 -1.77e-4,0 -3.975e-4,0.013152 -3.975e-4,0.029219 l 6e-6,0.029219 0.00699,0.011802 c 0.00385,0.0065 0.00998,0.016851 0.013608,0.023032 0.00364,0.00617 0.00941,0.015905 0.012781,0.021593 0.00338,0.0057 0.00728,0.012309 0.00865,0.014689 0.00139,0.00236 0.0031,0.00528 0.00384,0.00649 l 0.00139,0.00216 h 0.049744 0.049744 l 0.00652,-0.00395 z"
           id="path1011" />
        <g
           id="g1591"
           transform="scale(0.9999715)"
           style="fill:#ff2e4d;fill-opacity:1;stroke:#ff2e4d;stroke-width:0.132295;stroke-linecap:round;stroke-linejoin:round;stroke-miterlimit:4;stroke-dasharray:none;stroke-opacity:1;paint-order:stroke markers fill">
          <path
             style="fill:#ff2e4d;fill-opacity:1;stroke:#ff2e4d;stroke-width:0.132295;stroke-linecap:round;stroke-linejoin:round;stroke-miterlimit:4;stroke-dasharray:none;stroke-opacity:1;paint-order:stroke markers fill"
             d="m 2.8074889,12.674702 c -0.02664,-0.0139 -0.325457,-0.20161 -0.664045,-0.41711 -0.592039,-0.37681 -1.22122195,-0.76875 -1.79770495,-1.11983 -0.241448,-0.14705 -0.276538,-0.17309 -0.306549,-0.2275 -0.05603,-0.10156 -0.0536,-0.20093 0.01778,-0.72869 0.07988,-0.5906396 0.19894,-1.5607796 0.281299,-2.2922096 0.03495,-0.31036 0.07911,-0.68498 0.09813,-0.83248 0.01902,-0.14751 0.0569,-0.46022 0.08416,-0.69493 0.02726,-0.2347 0.08707,-0.74153 0.132912,-1.12629 0.04584,-0.38476 0.111808,-0.94826 0.146595,-1.25222 0.03479,-0.30396 0.0697,-0.57598 0.07758,-0.60449 0.01831,-0.0662 0.07294,-0.13107 0.13871495,-0.16462 0.04899,-0.025 0.464654,-0.0939 1.357941,-0.22492 0.165447,-0.0243 0.302799,-0.046 0.305228,-0.0483 0.0024,-0.002 0.01013,-0.13985 0.01711,-0.30568 0.02266,-0.53807 0.06489,-0.78895 0.196001,-1.16439 0.129936,-0.3721 0.393028,-0.77130004 0.659421,-1.00058004 0.129966,-0.11186 0.343716,-0.25189 0.482064,-0.31581 0.243119,-0.11233 0.630183,-0.17619 0.897154,-0.14802 0.316225,0.0334 0.653897,0.17392 0.848256,0.35308 l 0.06052,0.0558 0.166433,0.006 c 0.485171,0.0166 0.952473,0.2843 1.235118,0.70761004 0.102773,0.15392 0.220729,0.39313 0.272737,0.5531 0.04346,0.13368 0.141852,0.55514 0.155769,0.66725 l 0.0099,0.0796 0.07195,0.0159 c 0.03957,0.009 0.326936,0.0685 0.638591,0.13278 1.153243,0.23795 1.098927,0.22443 1.173097,0.2919 0.06112,0.0556 0.07493,0.10349 0.08698,0.30168 0.0063,0.10443 0.02465,0.31579 0.04067,0.4697 0.01602,0.1539 0.05118,0.49389 0.07813,0.75552 0.02695,0.26164 0.07695,0.74644 0.111123,1.07733 0.03417,0.33089 0.0877,0.85032 0.118952,1.15428 0.03126,0.30396 0.07556,0.72579 0.09846,0.93741 0.0441,0.40761 0.134409,1.28024 0.216468,2.09169 0.02724,0.26934 0.05906,0.5672196 0.07073,0.6619696 0.02953,0.23996 0.02942,0.33563 -4.76e-4,0.39468 -0.03393,0.067 -0.07506,0.1096 -0.136138,0.14092 -0.07068,0.0363 -1.0133893,0.27693 -4.4022393,1.12394 -1.587857,0.39688 -2.910273,0.72159 -2.938702,0.72159 -0.02843,0 -0.07348,-0.0114 -0.100119,-0.0253 z m 1.448633,-0.88276 c 2.529072,-0.62361 5.542655,-1.37947 5.559542,-1.39443 0.0028,-0.002 -0.01136,-0.16694 -0.03137,-0.36554 -0.02001,-0.1985896 -0.05238,-0.5342296 -0.07192,-0.7458396 -0.01954,-0.21162 -0.05392,-0.53902 -0.07638,-0.72755 -0.02247,-0.18853 -0.05996,-0.53796 -0.08333,-0.77651 -0.02337,-0.23855 -0.07109,-0.7202 -0.106059,-1.07033 -0.03497,-0.35014 -0.08541,-0.86641 -0.112085,-1.14729 -0.02668,-0.28087 -0.07084,-0.7216 -0.09813,-0.97938 -0.02729,-0.25779 -0.06531,-0.62582 -0.08449,-0.81785 -0.01918,-0.19202 -0.03751,-0.35178 -0.04075,-0.35501 -0.0032,-0.003 -0.158823,0.0236 -0.34576,0.0596 -0.186938,0.036 -0.371366,0.0712 -0.409842,0.0783 -0.03848,0.007 -0.397351,0.0758 -0.797501,0.15269 -0.40015,0.0769 -0.957351,0.18403 -1.238226,0.238 -0.280874,0.054 -1.08834,0.21001 -1.794368,0.34676 l -1.283687,0.24863 -1e-5,3.75409 c -9e-6,3.5687296 0.0012,3.7537396 0.02448,3.7469496 0.01347,-0.004 0.458913,-0.11427 0.989881,-0.2452 z m 1.889082,-2.1565296 c -0.327902,-0.0374 -0.675189,-0.18239 -0.938104,-0.3916 -0.183368,-0.14591 -0.376627,-0.37838 -0.473301,-0.56934 -0.08786,-0.17355 -0.0057,-0.38583 0.16974,-0.43839 0.120943,-0.0362 0.235362,0.0376 0.342488,0.2209 0.165365,0.28301 0.471272,0.50941 0.800975,0.59278 0.151741,0.0384 0.44461,0.0452 0.601624,0.014 0.389701,-0.0773 0.766244,-0.3181 1.016118,-0.64971 0.09621,-0.12768 0.145665,-0.22058 0.213792,-0.40161 0.05248,-0.13943 0.08498,-0.18367 0.16516,-0.22479 0.112038,-0.0575 0.263809,-0.0153 0.324955,0.0902 0.07585,0.13088 0.06391,0.20391 -0.08274,0.50584 -0.153879,0.31682 -0.320321,0.54102 -0.537421,0.72392 -0.415677,0.3502 -0.825916,0.51736 -1.311142,0.53426 -0.09926,0.003 -0.230727,5.5e-4 -0.292144,-0.006 z m -0.981755,-2.20263 c -0.03963,-0.0201 -0.100489,-0.067 -0.135237,-0.10413 -0.314359,-0.33607 -0.223061,-1.03803 0.158328,-1.21732 0.0627,-0.0295 0.09769,-0.0362 0.188882,-0.0362 0.09776,-1e-5 0.121352,0.005 0.186348,0.0412 0.128371,0.0711 0.203932,0.18406 0.256443,0.38335 0.03679,0.13964 0.04008,0.365 0.0072,0.49185 -0.05164,0.19905 -0.172695,0.36723 -0.312165,0.43369 -0.04584,0.0219 -0.101869,0.0342 -0.172774,0.0382 -0.09224,0.005 -0.113655,0.001 -0.176995,-0.0307 z m 1.763443,-0.45388 c -0.07316,-0.0446 -0.108727,-0.10828 -0.114934,-0.20575 -0.0078,-0.1231 0.05144,-0.24099 0.193344,-0.38452 0.165886,-0.16778 0.354164,-0.26305 0.619219,-0.31333 0.379763,-0.072 0.745195,0.0596 0.859677,0.30965 0.08017,0.17512 0.0066,0.3614 -0.162899,0.41217 -0.08255,0.0247 -0.141244,0.006 -0.230713,-0.0718 -0.125559,-0.10988 -0.147445,-0.11807 -0.315959,-0.11829 -0.138153,-1.8e-4 -0.152909,0.003 -0.240053,0.0455 -0.07258,0.0357 -0.11772,0.073 -0.206747,0.17047 -0.06823,0.0747 -0.137839,0.13635 -0.173609,0.15367 -0.07505,0.0363 -0.169903,0.0373 -0.227326,0.002 z m -4.771328,4.2703196 c -0.481009,-0.93802 -0.54385,-1.05869 -0.551796,-1.05967 -0.01131,-0.001 -0.83836795,0.54315 -0.83787195,0.55167 2.22e-4,0.004 0.190639,0.12205 0.42314395,0.26267 0.232505,0.14063 0.599026,0.36483 0.814491,0.49822 0.215465,0.1334 0.394009,0.24065 0.396764,0.23833 0.0028,-0.002 -0.107373,-0.22336 -0.244731,-0.49122 z m 0.540534,-3.3390096 v -3.46061 l -0.225921,-0.10115 c -0.136544,-0.0611 -0.229409,-0.0955 -0.234739,-0.0869 -0.0049,0.008 -0.01995,0.21448 -0.03355,0.4592 -0.02319,0.41717 -0.105728,1.84428 -0.134575,2.32676 -0.0071,0.11927 -0.04583,0.80307 -0.08599,1.51954 l -0.07303,1.30269 0.19907,0.3902496 c 0.199251,0.39062 0.578649,1.11072 0.585233,1.11078 0.0019,10e-6 0.0035,-1.5572396 0.0035,-3.4605796 z m -1.667173,2.1559296 c 0.231521,-0.1481296 0.431195,-0.2756896 0.44372,-0.2834496 0.02532,-0.0157 0.02532,-0.0157 0.104031,-1.42698 0.02361,-0.42324 0.06774,-1.20395 0.09808,-1.73492 0.09506,-1.66365 0.143094,-2.55491 0.137902,-2.55874 -0.0028,-0.002 -0.105744,-0.0482 -0.228867,-0.10263 l -0.22386,-0.0989 -0.0098,0.065 c -0.0054,0.0357 -0.03543,0.28849 -0.06679,0.56167 -0.03136,0.27318 -0.100724,0.86501 -0.154147,1.31517 -0.14375595,1.21137 -0.28568895,2.43664 -0.35736895,3.08508 -0.05042,0.45607 -0.120104,1.0522 -0.164787,1.4096096 -0.0026,0.0212 -0.0035,0.0385 -0.0019,0.0385 0.0016,0 0.192287,-0.1212 0.42380795,-0.26933 z m 2.583599,-6.1706896 0.461712,-0.0874 0.0038,-0.27766 0.0038,-0.27766 -0.03178,0.008 c -0.01748,0.004 -0.327696,0.059 -0.68937,0.12164 -1.021794,0.17683 -1.200157,0.20874 -1.207393,0.21598 -0.0037,0.004 0.0092,0.0128 0.02866,0.0202 0.01947,0.007 0.17302,0.0732 0.341229,0.14628 0.516993,0.22452 0.540042,0.23339 0.585658,0.2255 0.02309,-0.004 0.249744,-0.0466 0.503684,-0.0947 z m 1.668135,-0.31143 c 0.839237,-0.15164 1.765473,-0.32524 1.823579,-0.34179 l 0.04987,-0.0142 -0.0047,-0.0875 c -0.01534,-0.28799 -0.0216,-0.34634 -0.03714,-0.34634 -0.07438,0 -2.208092,0.32985 -2.404967,0.37179 l -0.03848,0.008 v 0.25773 c 0,0.15844 0.0053,0.25773 0.01367,0.25773 0.0075,0 0.276674,-0.0475 0.598126,-0.10561 z m 2.674008,-0.49603 c 0.133489,-0.0231 0.246818,-0.0423 0.251842,-0.0427 0.005,-4.3e-4 -0.09475,-0.0227 -0.221719,-0.0495 -0.126971,-0.0268 -0.249162,-0.0526 -0.271535,-0.0574 -0.03758,-0.008 -0.04,-0.006 -0.03167,0.025 0.005,0.0185 0.0091,0.0636 0.0092,0.10013 1.38e-4,0.0365 0.0049,0.0664 0.01068,0.0664 0.0058,-1e-5 0.119712,-0.0189 0.2532,-0.042 z m -4.320961,-0.31356 c 0.188426,-0.0339 0.371834,-0.066 0.407575,-0.0713 0.05819,-0.009 0.06587,-0.014 0.07345,-0.052 0.0047,-0.0233 0.0085,-0.0753 0.0085,-0.11564 0,-0.14049 0.123834,-0.68128 0.201035,-0.87793 0.116376,-0.29644 0.310029,-0.58389 0.531506,-0.78894004 0.09381,-0.0868 0.264337,-0.20113 0.300128,-0.20113 0.0092,0 0.01668,-0.006 0.01668,-0.0125 0,-0.007 -0.05194,-0.0273 -0.115428,-0.0453 -0.151736,-0.0432 -0.455645,-0.0466 -0.598126,-0.007 -0.14362,0.0403 -0.388291,0.16604 -0.484762,0.24916 -0.382608,0.32968004 -0.609401,0.80480004 -0.676044,1.41628004 -0.02238,0.20533 -0.03511,0.56764 -0.01995,0.56764 0.0071,0 0.167044,-0.0278 0.35547,-0.0617 z m 1.245027,-0.16964 c 0.0731,-0.0121 0.306058,-0.0531 0.517676,-0.0911 0.211617,-0.0381 0.42411,-0.0762 0.472204,-0.0848 l 0.08745,-0.0156 v -0.0721 c 0,-0.14294 -0.02919,-0.52199 -0.04968,-0.64528 -0.027,-0.16238 -0.09464,-0.37058 -0.16736,-0.51517 -0.05417,-0.10769 -0.05998,-0.11417 -0.09864,-0.10995 -0.05497,0.006 -0.236789,0.0979 -0.3302,0.16693 -0.101017,0.0746 -0.238958,0.21541 -0.296811,0.30293 -0.149818,0.22664 -0.253334,0.52817 -0.309043,0.9002 -0.02903,0.19388 -0.02863,0.20161 0.01002,0.19296 0.01731,-0.004 0.09129,-0.0169 0.164398,-0.029 z m 1.899923,-0.3008 c 0.318137,-0.0389 0.300475,-0.0327 0.289657,-0.10269 -0.05362,-0.34715 -0.278307,-0.80298 -0.481555,-0.97695 -0.0578,-0.0495 -0.235495,-0.15109 -0.264215,-0.15109 -0.0078,0 0.0073,0.0602 0.0336,0.13371 0.08501,0.23784 0.130956,0.52212 0.153088,0.94712 0.0052,0.10005 0.01528,0.17838 0.02292,0.17838 0.0075,0 0.118421,-0.0128 0.246502,-0.0285 z"
             id="path881" />
          <path
             style="fill:#ff2e4d;fill-opacity:1;stroke:#ff2e4d;stroke-width:0.132295;stroke-linecap:round;stroke-linejoin:round;stroke-miterlimit:4;stroke-dasharray:none;stroke-opacity:1;paint-order:stroke markers fill"
             d="m 5.3475443,7.0239161 c -0.0016,-5.999e-4 -0.00701,-0.00377 -0.039917,-0.022753 -0.014662,-0.00846 -0.033431,-0.019279 -0.041715,-0.024045 -0.00828,-0.00476 -0.018578,-0.01072 -0.022886,-0.013201 -0.00429,-0.0025 -0.019558,-0.011248 -0.033895,-0.019458 -0.01434,-0.0082 -0.030634,-0.017578 -0.036211,-0.020854 -0.011842,-0.00693 -0.022295,-0.012896 -0.03679,-0.020964 -0.00574,-0.00319 -0.011163,-0.00648 -0.012046,-0.00733 -7.998e-4,-7.999e-4 -0.00226,-0.00282 -0.00304,-0.00442 l -0.0014,-0.00292 1.48e-4,-0.1283693 1.5e-4,-0.1283692 0.00214,-0.00324 c 0.0018,-0.00282 0.00297,-0.00371 0.0087,-0.00696 0.0036,-0.00204 0.011366,-0.00654 0.017259,-0.00995 0.014016,-0.00815 0.027203,-0.015818 0.034762,-0.020173 0.00334,-0.002 0.00907,-0.00526 0.012742,-0.00738 0.00366,-0.00212 0.018919,-0.010992 0.033892,-0.019699 0.014985,-0.0087 0.031534,-0.018339 0.036791,-0.021432 0.00526,-0.00307 0.013473,-0.00783 0.018258,-0.010585 0.00478,-0.00272 0.013524,-0.00776 0.019418,-0.011163 0.00589,-0.00339 0.018278,-0.010534 0.027521,-0.015835 l 0.016803,-0.00963 h 0.00377 c 0.00377,0 0.00377,0 0.016225,0.00718 0.00685,0.00396 0.015444,0.00893 0.019117,0.011094 0.00366,0.00216 0.017997,0.0105 0.031866,0.018538 0.013864,0.00803 0.027939,0.016242 0.031287,0.018219 0.00334,0.002 0.012607,0.00733 0.020569,0.011876 0.00795,0.00456 0.016566,0.00952 0.019117,0.011027 0.00496,0.00292 0.029359,0.017058 0.032735,0.018979 0.0012,6e-4 0.00712,0.00408 0.01332,0.00768 0.00621,0.0036 0.012114,0.007 0.013133,0.00758 0.015036,0.00851 0.029709,0.017138 0.030737,0.018079 8e-4,5.998e-4 0.002,0.0025 0.00275,0.00409 l 0.0014,0.00292 -6e-6,0.1274943 -6.2e-6,0.1274959 -0.0014,0.00291 c -0.002,0.00409 -0.00418,0.00596 -0.013201,0.010942 -0.011163,0.00616 -0.023805,0.013355 -0.028575,0.016277 -0.00224,0.0014 -0.013694,0.00802 -0.025494,0.014798 -0.030261,0.017379 -0.062808,0.036134 -0.068946,0.039714 -0.00285,0.0016 -0.013422,0.0078 -0.023464,0.013626 -0.010044,0.00583 -0.020727,0.011995 -0.023756,0.013762 -0.00302,0.0018 -0.01072,0.00618 -0.017099,0.00984 -0.00638,0.00366 -0.014714,0.0085 -0.018538,0.010755 -0.00664,0.00392 -0.00713,0.00411 -0.010992,0.00426 -0.00224,8.6e-5 -0.00461,-8e-5 -0.00528,-4e-4 z m -0.00371,-0.055477 v -0.029363 l -0.00792,-0.013354 c -0.00436,-0.00736 -0.00979,-0.016498 -0.012046,-0.020318 -0.00226,-0.00382 -0.00919,-0.015614 -0.015394,-0.026218 l -0.011281,-0.019258 h -0.051246 -0.051246 l -0.016531,0.00979 c -0.0091,0.00539 -0.019238,0.011281 -0.022515,0.013116 l -0.00596,0.00334 0.00568,0.00329 c 0.00781,0.00454 0.034135,0.019737 0.047105,0.027223 0.00589,0.0034 0.021929,0.012657 0.035632,0.020568 0.027366,0.015801 0.027625,0.015953 0.053013,0.030552 0.00972,0.00558 0.025363,0.014612 0.034764,0.020071 0.0094,0.00544 0.017279,0.00992 0.017518,0.00992 2e-4,6e-6 4.001e-4,-0.013201 4.001e-4,-0.029353 z m 0.02853,0.022624 c 0.023982,-0.013779 0.0351,-0.020206 0.042066,-0.024347 0.00394,-0.00234 0.00725,-0.00426 0.00741,-0.00426 1.359e-4,0 0.0012,-6e-4 0.00239,-0.0014 0.0012,-7.999e-4 0.012607,-0.00736 0.025336,-0.014696 0.023379,-0.01344 0.056487,-0.032579 0.063441,-0.036658 0.00207,-0.0012 0.00975,-0.00566 0.017099,-0.00987 0.019498,-0.011214 0.023464,-0.013575 0.023459,-0.013898 -2e-6,-1.6e-4 -0.00241,-0.0016 -0.00536,-0.00314 -0.00294,-0.0016 -0.00914,-0.00509 -0.013762,-0.00788 -0.00462,-0.00275 -0.012283,-0.00727 -0.017037,-0.010054 l -0.00863,-0.00501 -0.051039,9.8e-6 -0.051042,1.21e-5 -0.00328,0.00564 c -0.0018,0.00309 -0.00753,0.012946 -0.012692,0.021861 -0.00518,0.00892 -0.012811,0.021958 -0.016957,0.028969 -0.00414,0.007 -0.00893,0.015105 -0.010618,0.017959 l -0.00307,0.00521 -6e-6,0.029114 c -4e-6,0.016022 1.221e-4,0.029113 2e-4,0.029113 1.56e-4,0 0.00556,-0.00304 0.012012,-0.00675 z m -0.011094,-0.09784 c 0.00486,-0.00828 0.011214,-0.019099 0.014153,-0.024043 l 0.00533,-0.00897 -0.028397,-1.5e-4 c -0.015614,-8.19e-5 -0.028501,-4.79e-5 -0.028625,7.61e-5 -1.261e-4,1.259e-4 0.00386,0.00736 0.00888,0.016072 0.00499,0.00872 0.011298,0.019717 0.014,0.024446 0.0027,0.00472 0.00511,0.00838 0.00536,0.00812 1.999e-4,-1.999e-4 0.00444,-0.00725 0.0093,-0.015546 z m -0.217358,-0.022815 c 0.0014,-9.999e-4 0.00462,-0.0028 0.007,-0.00418 0.00237,-0.0014 0.00501,-0.00292 0.00586,-0.00339 7.999e-4,-4.001e-4 0.00696,-0.00397 0.013626,-0.00778 0.00666,-0.00381 0.013915,-0.00795 0.016124,-0.00928 l 0.00399,-0.00237 0.00867,-0.014781 c 0.016599,-0.028323 0.039826,-0.06841 0.039826,-0.068717 0,-1.039e-4 -0.0012,-0.00207 -0.00252,-0.00441 -0.00302,-0.00504 -0.012981,-0.021844 -0.021046,-0.035508 -0.00319,-0.00542 -0.00798,-0.013507 -0.010635,-0.017959 -0.00264,-0.00446 -0.00509,-0.00863 -0.00544,-0.00928 -3.999e-4,-5.999e-4 -0.00254,-0.00444 -0.00488,-0.00845 l -0.00426,-0.00728 -0.014272,-0.00833 c -0.014544,-0.00848 -0.023701,-0.013847 -0.031225,-0.018278 l -0.00419,-0.00248 v 0.1120655 c 0,0.061635 1.718e-4,0.1120655 3.999e-4,0.1120655 1.999e-4,0 0.0016,-8.001e-4 0.00304,-0.0016 z M 5.5634335,6.7598996 V 6.6477219 l -0.0014,9.999e-4 c -0.00338,0.00222 -0.032264,0.019037 -0.041399,0.024125 -0.00366,0.00204 -0.00675,0.00386 -0.00681,0.00404 -8.8e-5,1.86e-4 -0.00219,0.00384 -0.00467,0.00812 -0.00249,0.00428 -0.00942,0.01626 -0.01541,0.026613 -0.006,0.010364 -0.011757,0.020263 -0.012794,0.022016 -0.00306,0.00516 -0.00987,0.016905 -0.011281,0.019418 -8.001e-4,0.0012 -0.002,0.00347 -0.00275,0.00484 -0.0012,0.0018 -0.0014,0.00279 -8e-4,0.00349 3.999e-4,5.999e-4 0.00254,0.00433 0.00494,0.00848 0.027513,0.047537 0.042236,0.072613 0.043164,0.073511 6e-4,5.999e-4 0.00618,0.00403 0.012386,0.0076 0.0062,0.00359 0.016855,0.0098 0.02371,0.013813 0.00686,0.00403 0.012657,0.00733 0.012896,0.00734 1.999e-4,6e-6 3.999e-4,-0.050468 3.999e-4,-0.1121639 z m -0.280297,0.07553 c -6e-4,-9.999e-4 -0.00511,-0.0088 -0.010003,-0.017239 -0.00488,-0.00845 -0.011435,-0.019719 -0.014561,-0.025074 -0.00314,-0.00533 -0.00569,-0.00997 -0.00569,-0.010279 0,-0.0018 -0.0016,5.999e-4 -0.0081,0.012046 -0.00396,0.00693 -0.010211,0.017818 -0.013915,0.02419 -0.00371,0.00638 -0.00758,0.013083 -0.00862,0.014918 l -0.0018,0.00334 h 0.031957 0.031955 z m 0.1147448,-0.00506 c 0.00798,-0.013355 0.024286,-0.041201 0.032489,-0.055509 l 0.0084,-0.014662 -0.00727,-0.012283 c -0.00399,-0.00676 -0.0098,-0.016583 -0.012896,-0.021839 -0.00309,-0.00526 -0.0087,-0.014781 -0.01247,-0.021146 -0.00377,-0.00638 -0.00817,-0.013864 -0.0098,-0.01665 l -0.00294,-0.00506 -0.041715,-7.9e-6 -0.041716,-6e-6 -0.0016,0.00304 c -0.0016,0.00302 -0.015937,0.027628 -0.033775,0.058353 l -0.00925,0.01592 0.001,0.0018 c 0.00386,0.0068 0.015783,0.027132 0.025156,0.042894 0.00322,0.00542 0.00883,0.014883 0.01247,0.021006 l 0.00664,0.011163 0.04169,-1.479e-4 0.041693,-1.501e-4 0.00397,-0.00666 z m 0.085597,0.00653 c 0,-2e-4 -0.00269,-0.00504 -0.00595,-0.010653 -0.00326,-0.00563 -0.010245,-0.017799 -0.015495,-0.027055 -0.00526,-0.00926 -0.0097,-0.016837 -0.00985,-0.016837 -1.598e-4,-4e-6 -0.00339,0.00541 -0.0072,0.011995 -0.00381,0.00659 -0.00812,0.014085 -0.00962,0.016633 -0.00569,0.00975 -0.014781,0.025465 -0.014951,0.025903 -1.082e-4,1.999e-4 0.014034,3.999e-4 0.03143,3.999e-4 0.017398,0 0.031624,-1.958e-4 0.031621,-3.999e-4 z M 5.2684518,6.7108455 c 0.00863,-0.014918 0.015716,-0.027232 0.015716,-0.027375 0,-1.439e-4 -0.014476,-2e-4 -0.032157,-2e-4 -0.017678,0 -0.032155,1.101e-4 -0.032155,2e-4 0,1.34e-4 0.0016,0.00306 0.00371,0.00653 0.00204,0.00347 0.00515,0.00877 0.00688,0.011774 0.00319,0.00553 0.010993,0.018877 0.016055,0.02752 0.0014,0.00254 0.00334,0.00574 0.00408,0.0071 7.999e-4,0.0014 0.0016,0.00227 0.0018,0.00202 2e-4,-1.999e-4 0.00746,-0.01264 0.016124,-0.027555 z m 0.1867622,0.022624 c 0.0018,-0.00294 0.00586,-0.010054 0.00915,-0.015784 0.00329,-0.00574 0.00907,-0.015733 0.012844,-0.02224 0.00376,-0.00651 0.00686,-0.011894 0.00686,-0.012012 0,-1.16e-4 -0.014577,-2e-4 -0.03239,-2e-4 H 5.419284 l 0.00698,0.012012 c 0.00384,0.00663 0.0078,0.013457 0.00882,0.015207 9.999e-4,0.0018 0.00483,0.00828 0.00845,0.014476 0.00362,0.00621 0.00686,0.011876 0.0072,0.012607 4e-4,8e-4 7.999e-4,0.0014 9.998e-4,0.0014 2.002e-4,1.9e-6 0.0018,-0.00239 0.00352,-0.00536 z M 5.2977253,6.6590204 c 0.0014,-0.00227 0.020152,-0.034167 0.036468,-0.062243 l 0.00967,-0.016616 v -0.029009 c 0,-0.020083 -1.899e-4,-0.029008 -6e-4,-0.029008 -3.999e-4,0 -0.00339,0.0016 -0.0068,0.00369 -0.00339,0.00202 -0.00736,0.00431 -0.0088,0.00511 -0.0014,7.999e-4 -0.00653,0.00376 -0.011298,0.00656 -0.00771,0.00452 -0.023696,0.013779 -0.029258,0.01694 -0.0012,6e-4 -0.00579,0.00336 -0.010432,0.00608 -0.00462,0.0027 -0.012692,0.00741 -0.017959,0.010432 -0.00526,0.00304 -0.016599,0.00962 -0.025204,0.014646 -0.0086,0.00499 -0.024768,0.01439 -0.035921,0.020851 -0.018018,0.010415 -0.024741,0.01434 -0.042248,0.024564 -0.00252,0.0014 -0.00467,0.00294 -0.00478,0.00328 -1.08e-4,3.999e-4 0.0012,0.0014 0.00285,0.00216 0.0016,7.999e-4 0.00421,0.00226 0.00566,0.00309 0.02834,0.01665 0.035141,0.020691 0.035603,0.021136 3.999e-4,4e-4 0.0212,6e-4 0.051122,6e-4 h 0.050571 z m 0.083204,0.0018 c 0,-3.999e-4 -0.0018,-0.00359 -0.0087,-0.015342 -0.00708,-0.012131 -0.00942,-0.016175 -0.014459,-0.024915 -0.00267,-0.00462 -0.00516,-0.00877 -0.00556,-0.00917 -8.001e-4,-8e-4 -6e-4,-8e-4 -0.00768,0.011502 -0.00339,0.00601 -0.019457,0.033945 -0.020468,0.035585 -6e-4,9.999e-4 -9.999e-4,0.002 -9.999e-4,0.00222 -1.8e-6,2e-4 0.013031,3.999e-4 0.028966,3.999e-4 0.015937,0 0.028966,-1.379e-4 0.028966,-3.999e-4 z m 0.1333508,-0.00366 c 0.00362,-0.00217 0.008,-0.00476 0.00975,-0.00574 0.0018,-9.997e-4 0.00926,-0.00528 0.016685,-0.00958 l 0.013507,-0.0078 -0.013779,-0.00795 c -0.00758,-0.00439 -0.015223,-0.00882 -0.016957,-0.00985 -0.00282,-0.0016 -0.013966,-0.0081 -0.071866,-0.041442 -0.00813,-0.00467 -0.016566,-0.0096 -0.018698,-0.010891 -0.00214,-0.0014 -0.00399,-0.00237 -0.00414,-0.00237 -1.319e-4,0 -0.00372,-0.00204 -0.00795,-0.00454 -0.00424,-0.0025 -0.012131,-0.0071 -0.017558,-0.010211 -0.00542,-0.00312 -0.011944,-0.00691 -0.014476,-0.00843 -0.00962,-0.00568 -0.028046,-0.016225 -0.028355,-0.016225 -1.781e-4,0 -4e-4,0.013235 -4e-4,0.029403 l 6e-6,0.029403 0.00703,0.011876 c 0.00387,0.00654 0.010044,0.016957 0.013694,0.023177 0.00366,0.00621 0.00947,0.016005 0.012861,0.021729 0.0034,0.00574 0.00733,0.012386 0.0087,0.014781 0.0014,0.00237 0.00312,0.00531 0.00386,0.00653 l 0.0014,0.00217 h 0.050057 0.050057 l 0.00656,-0.00397 z"
             id="path1011-9" />
        </g>
        <g
           id="g1018"
           transform="matrix(2.2511055e-4,0,0,2.2511055e-4,5.2330978,6.6484179)"
           style="fill:#0000ff;fill-opacity:0.07">
          <path
             style="fill:#0000ff;fill-opacity:0.07"
             d="m 481.65173,974.72359 c -2.66511,-1.142 -12.11924,-6.5313 -68.89482,-39.2731 -25.3,-14.5902 -57.7,-33.264 -72,-41.4973 -14.3,-8.2334 -32.075,-18.4894 -39.5,-22.7912 -7.425,-4.3018 -33.75,-19.407 -58.5,-33.567 -24.75,-14.16 -52.875,-30.3569 -62.5,-35.9931 -20.43931,-11.9687 -38.47873,-22.2484 -63.5,-36.1852 -9.9,-5.5143 -19.252738,-11.1915 -20.783858,-12.6159 -1.53112,-1.4245 -3.8966,-4.8643 -5.25662,-7.6441 l -2.47278,-5.0541 0.25663,-221.5631 0.25663,-221.5631 3.70551,-5.5808 c 3.23808,-4.8769 5.13026,-6.3924 14.999998,-12.0139 6.21197,-3.5382 19.61949,-11.2785 29.79449,-17.2007 24.20742,-14.0895 46.95388,-27.288 60,-34.8144 5.775,-3.3317 15.675,-9.0661 22,-12.7431 6.325,-3.6769 32.65,-18.9712 58.5,-33.9872 25.85,-15.016 54.425,-31.66216 63.5,-36.99146 9.075,-5.32929 23.25,-13.54235 31.5,-18.25123 8.25,-4.70887 23.325,-13.37638 33.5,-19.26111 10.175,-5.88474 31.55,-18.188199 47.5,-27.341039 l 29,-16.64151 h 6.51441 c 6.51422,0 6.51505,3.7e-4 28,12.40312 11.81707,6.82172 26.66059,15.44129 32.98559,19.1546 6.325,3.71332 31.07499,18.109339 54.99999,31.991159 23.925,13.88182 48.225,28.03423 54,31.4498 5.775,3.41556 21.75,12.64122 35.5,20.50147 13.75,7.86025 28.6,16.4129 33,19.0059 8.5537,5.041 50.6718,29.4569 56.5,32.7532 1.925,1.0888 12.275,7.0529 23,13.2536 10.725,6.2007 20.9365,12.0872 22.6923,13.0811 25.9706,14.7013 51.2788,29.5853 53.0528,31.2009 1.2349,1.1246 3.3724,4.3066 4.75,7.0712 l 2.5049,5.0266 -0.01,220.0537 -0.01,220.0536 -2.3678,5 c -3.3458,7.0655 -7.2271,10.2788 -22.7937,18.8711 -19.2668,10.6347 -41.0874,23.068 -49.319,28.1017 -3.85,2.3544 -23.65,13.8464 -44,25.5378 -52.2316,30.008 -108.408,62.3663 -119,68.5455 -4.95,2.8878 -23.175,13.4592 -40.5,23.4921 -17.325,10.0329 -35.775,20.7195 -41,23.7481 -5.22495,3.0285 -18.49995,10.6737 -29.49995,16.9893 -11,6.3156 -25.4,14.6709 -32,18.5673 -11.45228,6.7611 -12.3195,7.0967 -19,7.3537 -3.85,0.1481 -7.94733,-0.1367 -9.10518,-0.6329 z m -6.39482,-95.7536 v -50.68 l -13.6695,-23.07 c -7.51823,-12.6885 -16.86954,-28.4701 -20.78069,-35.0701 -3.91115,-6.6 -15.86912,-26.9625 -26.57327,-45.25 l -19.46208,-33.25 h -88.44925 -88.44926 l -28.55797,16.8881 c -15.70689,9.2884 -33.19491,19.4843 -38.86227,22.6575 l -10.3043,5.7694 9.8043,5.6889 c 13.4949,7.8305 58.91705,34.0815 81.30429,46.9886 10.175,5.8663 37.85,21.8413 61.5,35.5002 47.23357,27.2792 47.67695,27.5347 91.5,52.7278 16.775,9.6436 43.775,25.2319 60,34.6405 16.225,9.4087 29.8375,17.114 30.25,17.1229 0.4125,0.01 0.75,-22.7898 0.75,-50.6638 z m 49.24402,39.0485 c 41.3902,-23.7672 60.58017,-34.8753 72.60217,-42.0255 6.7904,-4.0387 12.5368,-7.3431 12.7699,-7.3431 0.233,0 2.1022,-1.0556 4.1538,-2.3458 2.0515,-1.2902 21.7301,-12.7004 43.7301,-25.3561 40.3503,-23.2118 97.4953,-56.2324 109.5,-63.2734 3.575,-2.0968 16.85,-9.7683 29.5,-17.0477 33.6466,-19.3621 40.4997,-23.4203 40.4895,-23.977 0,-0.275 -4.1673,-2.7071 -9.2493,-5.4048 -5.0821,-2.6977 -15.7652,-8.8127 -23.7402,-13.589 -7.975,-4.7764 -21.2071,-12.5817 -29.4047,-17.3452 l -14.9047,-8.661 -88.0953,0.018 -88.0953,0.018 -5.6528,9.7321 c -3.1091,5.3526 -12.96406,22.332 -21.9,37.732 -8.93595,15.4 -22.10906,37.9 -29.27357,50 -7.16451,12.1 -15.41715,26.05 -18.33919,31 l -5.31281,9 -0.0108,50.25 c -0.006,27.6375 0.2115,50.25 0.48321,50.25 0.27172,0 9.60922,-5.2341 20.75,-11.6314 z M 505.3312,749.14989 c 8.37888,-14.3 19.37622,-32.975 24.43855,-41.5 l 9.20422,-15.5 -49.01568,-0.2595 c -26.95863,-0.1427 -49.19192,-0.083 -49.40733,0.1322 -0.21541,0.2154 6.67689,12.7071 15.31621,27.7595 8.63932,15.0523 19.51666,34.04 24.17186,42.1948 4.6552,8.1548 8.82261,14.4548 9.26093,14 0.43831,-0.4548 7.65237,-12.527 16.03124,-26.827 z m -375.16184,-39.3751 c 2.52315,-1.5813 7.96255,-4.8329 12.08755,-7.2256 4.125,-2.3928 8.67174,-5.0365 10.10387,-5.8749 1.43213,-0.8384 12.00713,-6.8804 23.5,-13.4266 11.49287,-6.5462 24.00642,-13.7462 27.80788,-16 l 6.91174,-4.0978 14.93917,-25.5 c 28.63975,-48.8858 68.73734,-118.0752 68.73734,-118.608 0,-0.1766 -1.96049,-3.5995 -4.35666,-7.6065 -5.199,-8.6941 -22.39413,-37.7024 -36.32788,-61.2855 -5.52434,-9.35 -13.78174,-23.3 -18.34978,-31 -4.56805,-7.7 -8.79157,-14.9033 -9.38561,-16.0074 -0.59404,-1.1041 -4.38998,-7.6618 -8.43542,-14.5728 l -7.35535,-12.5653 -24.64465,-14.3632 c -25.09668,-14.6266 -40.90837,-23.8846 -53.89465,-31.5561 l -7.25,-4.2829 v 193.4239 c 0,106.3831 0.2981,193.4238 0.66245,193.4238 0.36435,0 2.72685,-1.2938 5.25,-2.8751 z M 854.2569,519.03489 v -193.615 l -2.5441,1.667 c -5.8244,3.8163 -55.6886,32.8724 -71.4559,41.6377 -6.325,3.5162 -11.6226,6.6557 -11.7725,6.9768 -0.1499,0.3211 -3.7787,6.6284 -8.064,14.0162 -4.2852,7.3878 -16.2651,28.0573 -26.6219,45.9323 -10.3568,17.875 -20.2956,34.975 -22.0861,38 -5.2702,8.9035 -17.0399,29.1722 -19.4531,33.5 -1.2266,2.2 -3.3785,5.9666 -4.7818,8.3703 -1.9059,3.2643 -2.2959,4.7826 -1.5412,6 0.5556,0.8963 4.3961,7.4797 8.5344,14.6297 47.488,82.0489 72.8998,125.3271 74.5001,126.8791 1.0656,1.0334 10.6784,6.9289 21.3618,13.101 10.6834,6.1722 29.0993,16.9043 40.9243,23.8491 11.825,6.9449 21.8375,12.6369 22.25,12.649 0.4125,0.012 0.75,-87.1049 0.75,-193.5932 z m -483.79017,130.365 c -1.07432,-1.7875 -8.84057,-15.175 -17.25835,-29.75 -8.41777,-14.575 -19.72549,-34.0491 -25.12826,-43.2759 -5.40276,-9.2268 -9.82321,-17.2143 -9.82321,-17.75 0,-2.9723 -2.74503,1.1043 -13.98987,20.7759 -6.83807,11.9625 -17.65001,30.75 -24.02655,41.75 -6.37653,11 -13.06444,22.5875 -14.86202,25.75 l -3.26834,5.75 h 55.15495 55.15495 z m 198.0497,-8.75 c 13.78527,-23.0506 41.91487,-71.1124 56.07287,-95.8053 l 14.5092,-25.3054 -12.5627,-21.1946 c -6.9095,-11.6571 -16.9253,-28.6197 -22.2575,-37.6947 -5.3321,-9.075 -15.0202,-25.5 -21.529,-36.5 -6.5089,-11 -14.11984,-23.9315 -16.91333,-28.7366 l -5.07906,-8.7367 -72,-0.012 -72,-0.012 -2.93052,5.249 c -2.90216,5.1981 -27.49384,47.6855 -58.29406,100.7153 l -15.95271,27.4663 1.72147,3.0337 c 6.66689,11.7488 27.24048,46.8299 43.41759,74.0336 5.56013,9.35 15.26047,25.6655 21.55633,36.2565 l 11.44701,19.2566 71.95845,-0.2566 71.95845,-0.2565 6.87751,-11.5 z m 147.73637,11.25 c 0,-0.4125 -4.6148,-8.6869 -10.25,-18.3877 -5.6353,-9.7007 -17.6709,-30.7135 -26.7459,-46.695 -9.075,-15.9815 -16.725,-29.0644 -17,-29.0732 -0.275,-0.01 -5.8636,9.304 -12.419,20.695 -6.5555,11.391 -14.0232,24.3109 -16.5949,28.7109 -9.8411,16.8376 -25.5006,43.9542 -25.8194,44.7099 -0.1834,0.4346 24.2291,0.7901 54.25,0.7901 30.0208,0 54.5814,-0.3375 54.5792,-0.75 z M 345.12169,434.35199 c 14.92437,-25.7388 27.13522,-47.0013 27.13522,-47.25 0,-0.2486 -24.975,-0.4521 -55.5,-0.4521 -30.525,0 -55.5,0.1898 -55.5,0.4217 0,0.2319 2.87104,5.2944 6.38009,11.25 3.50905,5.9556 8.85717,15.1033 11.88471,20.3283 5.52622,9.5373 18.96651,32.5693 27.71862,47.5 2.57919,4.4 5.74847,9.9171 7.04285,12.2602 1.29439,2.3431 2.65715,3.9181 3.02836,3.5 0.37122,-0.4181 12.88578,-21.8192 27.81015,-47.5581 z m 322.34741,39.0479 c 3.0023,-5.0875 10.1123,-17.35 15.8,-27.25 5.6877,-9.9 15.6618,-27.1733 22.1646,-38.3852 6.5027,-11.2119 11.8232,-20.5494 11.8232,-20.75 0,-0.2006 -25.1587,-0.3648 -55.9083,-0.3648 h -55.9082 l 12.0326,20.75 c 6.6179,11.4125 13.4739,23.225 15.2355,26.25 1.7615,3.025 8.3126,14.275 14.5579,25 6.2452,10.725 11.8355,20.509 12.4228,21.7422 0.5872,1.2333 1.3498,2.2458 1.6945,2.25 0.3447,0 3.0832,-4.1547 6.0854,-9.2422 z m -271.82188,-128.5 c 2.54589,-3.9472 34.7825,-58.969 62.94321,-107.4321 l 16.66648,-28.6822 v -50.06782 c 0,-34.66417 -0.32677,-50.06783 -1.06212,-50.06783 -0.58417,0 -5.87167,2.85126 -11.75,6.33613 -5.87834,3.48487 -12.71288,7.46831 -15.18788,8.85209 -2.475,1.38377 -11.25,6.47962 -19.5,11.32409 -13.3148,7.81857 -40.89834,23.78208 -50.5,29.22602 -1.925,1.09144 -10.025,5.80607 -18,10.47697 -7.975,4.6709 -21.925,12.78425 -31,18.02965 -9.075,5.2454 -28.65,16.6118 -43.5,25.2586 -14.85,8.6467 -42.75,24.8405 -62,35.986 -31.08792,17.9996 -42.70229,24.7528 -72.91883,42.3989 -4.35536,2.5435 -8.07323,5.0877 -8.26194,5.6539 -0.18871,0.5661 2.02476,2.2411 4.91883,3.7222 2.89407,1.4811 7.28694,3.8828 9.76194,5.3371 48.91343,28.7408 60.65334,35.7103 61.45,36.4802 0.56208,0.5432 36.59214,0.9181 88.23581,0.9181 h 87.28581 z m 143.60969,3.2194 c 0,-0.5619 -3.19403,-6.1949 -15.00887,-26.4694 -12.20537,-20.9446 -16.24624,-27.9083 -24.95185,-43 -4.60037,-7.975 -8.91433,-15.107 -9.58656,-15.849 -1.24405,-1.3731 -1.15854,-1.5013 -13.2382,19.849 -5.88414,10.4001 -33.60221,58.5885 -35.32874,61.4198 -1.03307,1.6942 -1.87999,3.4177 -1.88204,3.8302 -0.002,0.4125 22.49626,0.75 49.99626,0.75 27.5,0 50,-0.2388 50,-0.5306 z m 230.16169,-6.3239 c 6.2361,-3.77 13.8133,-8.2338 16.8383,-9.9196 3.025,-1.6858 15.9767,-9.1234 28.7815,-16.528 l 23.2815,-13.463 -23.7815,-13.7498 c -13.0798,-7.5624 -26.2565,-15.2215 -29.2815,-17.0202 -4.8787,-2.9009 -24.0908,-13.9792 -124.042,-71.526 -14.0481,-8.0882 -28.5685,-16.55821 -32.2676,-18.82231 -3.6991,-2.2641 -6.912,-4.11654 -7.1399,-4.11654 -0.2278,0 -6.4074,-3.52421 -13.7324,-7.83158 -7.3249,-4.30737 -20.9681,-12.24774 -30.3181,-17.64526 -9.34999,-5.39752 -20.59999,-11.93895 -24.99999,-14.53652 -16.59618,-9.79766 -48.40363,-27.98664 -48.94082,-27.98664 -0.30755,0 -0.55419,22.8375 -0.54809,50.75 l 0.0111,50.74995 12.1431,20.5 c 6.6787,11.275 17.32132,29.275 23.65027,40 6.32894,10.725 16.31304,27.6 22.18689,37.5 5.87385,9.9 12.62694,21.375 15.00684,25.5 2.3799,4.125 5.382,9.1875 6.6714,11.25 l 2.3444,3.75 h 86.3991 86.3992 z"
             id="path863" />
        </g>
      </g>
    </g>
    <text
       xml:space="preserve"
       style="font-size:10.5833px;line-height:1.25;font-family:'Inter 28pt';-inkscape-font-specification:'Inter 28pt';stroke-width:0.264583"
       x="48.527615"
       y="16.411993"
       id="text5743"><tspan
         sodipodi:role="line"
         id="tspan5741"
         style="stroke-width:0.264583"
         x="48.527615"
         y="16.411993" /></text>
  </g>
</svg>
